G04*
G04 #@! TF.GenerationSoftware,Altium Limited,Altium Designer,21.1.1 (26)*
G04*
G04 Layer_Color=8421504*
%FSLAX25Y25*%
%MOIN*%
G70*
G04*
G04 #@! TF.SameCoordinates,1DE770B5-5229-4C7E-BA00-58D6BC8AB395*
G04*
G04*
G04 #@! TF.FilePolarity,Positive*
G04*
G01*
G75*
%ADD20R,0.02756X0.07874*%
%ADD21C,0.05906*%
%ADD22O,0.02756X0.08268*%
%ADD23O,0.02756X0.07480*%
%ADD24O,0.07874X0.13780*%
%ADD25O,0.02362X0.06291*%
%ADD26O,0.07678X0.02238*%
G04:AMPARAMS|DCode=27|XSize=55.12mil|YSize=45.28mil|CornerRadius=0mil|HoleSize=0mil|Usage=FLASHONLY|Rotation=231.000|XOffset=0mil|YOffset=0mil|HoleType=Round|Shape=Rectangle|*
%AMROTATEDRECTD27*
4,1,4,-0.00025,0.03566,0.03494,0.00717,0.00025,-0.03566,-0.03494,-0.00717,-0.00025,0.03566,0.0*
%
%ADD27ROTATEDRECTD27*%

%ADD28O,0.03543X0.00787*%
%ADD29O,0.00787X0.03543*%
%ADD30R,0.21063X0.21063*%
%ADD31R,0.24410X0.24410*%
%ADD32R,0.01181X0.01968*%
%ADD33R,0.03858X0.03661*%
%ADD34R,0.02559X0.02362*%
%ADD35R,0.01575X0.01417*%
%ADD36R,0.01417X0.01575*%
%ADD37R,0.04567X0.05787*%
%ADD38R,0.02362X0.02559*%
%ADD39R,0.08858X0.08268*%
%ADD40R,0.03661X0.03858*%
D20*
X69280Y337362D02*
D03*
X61406D02*
D03*
X53532D02*
D03*
X45658D02*
D03*
X41721D02*
D03*
X49595D02*
D03*
X57469D02*
D03*
X65343D02*
D03*
X73217D02*
D03*
D21*
X279401Y175465D02*
D03*
X373700Y225000D02*
D03*
X194800Y226800D02*
D03*
X102251Y162249D02*
D03*
X369300Y230100D02*
D03*
X190100Y231500D02*
D03*
X97600Y167700D02*
D03*
X373800Y234800D02*
D03*
X195000Y236200D02*
D03*
X102500Y172200D02*
D03*
X369000Y239100D02*
D03*
X189900Y240100D02*
D03*
X97200Y176600D02*
D03*
X285200Y161100D02*
D03*
X280000Y165900D02*
D03*
X284300Y171100D02*
D03*
D22*
X119600Y368830D02*
D03*
D23*
X113695Y369220D02*
D03*
X125506D02*
D03*
D24*
X119600Y359380D02*
D03*
D25*
X196600Y299711D02*
D03*
X191600D02*
D03*
X186600D02*
D03*
X181600D02*
D03*
X196600Y276089D02*
D03*
X191600D02*
D03*
X186600D02*
D03*
X181600D02*
D03*
X360618Y277720D02*
D03*
X365618D02*
D03*
X370618D02*
D03*
X375618D02*
D03*
X360618Y301342D02*
D03*
X365618D02*
D03*
X370618D02*
D03*
X375618D02*
D03*
X268818Y215820D02*
D03*
X273818D02*
D03*
X278818D02*
D03*
X283818D02*
D03*
X268818Y239442D02*
D03*
X273818D02*
D03*
X278818D02*
D03*
X283818D02*
D03*
X89553Y215285D02*
D03*
X94553D02*
D03*
X99553D02*
D03*
X104553D02*
D03*
X89553Y238907D02*
D03*
X94553D02*
D03*
X99553D02*
D03*
X104553D02*
D03*
D26*
X314806Y332112D02*
D03*
Y327112D02*
D03*
Y322112D02*
D03*
Y317112D02*
D03*
X336106Y332112D02*
D03*
Y327112D02*
D03*
Y322112D02*
D03*
Y317112D02*
D03*
D27*
X13462Y196047D02*
D03*
X23809Y198814D02*
D03*
X18913Y202778D02*
D03*
X18358Y192083D02*
D03*
X192654Y359833D02*
D03*
X203000Y362600D02*
D03*
X198105Y366564D02*
D03*
X197549Y355869D02*
D03*
X284528Y258482D02*
D03*
X294874Y261249D02*
D03*
X289979Y265213D02*
D03*
X289423Y254518D02*
D03*
X192728Y196582D02*
D03*
X203074Y199349D02*
D03*
X198179Y203313D02*
D03*
X197623Y192618D02*
D03*
X105628Y258782D02*
D03*
X115974Y261549D02*
D03*
X111079Y265513D02*
D03*
X110523Y254818D02*
D03*
D28*
X239244Y354211D02*
D03*
Y352636D02*
D03*
Y351061D02*
D03*
Y349487D02*
D03*
Y347912D02*
D03*
Y346337D02*
D03*
Y344762D02*
D03*
Y343187D02*
D03*
Y341613D02*
D03*
Y340038D02*
D03*
Y338463D02*
D03*
Y336888D02*
D03*
Y335313D02*
D03*
Y333739D02*
D03*
Y332164D02*
D03*
Y330589D02*
D03*
X269756D02*
D03*
Y332164D02*
D03*
Y333739D02*
D03*
Y335313D02*
D03*
Y336888D02*
D03*
Y338463D02*
D03*
Y340038D02*
D03*
Y341613D02*
D03*
Y343187D02*
D03*
Y344762D02*
D03*
Y346337D02*
D03*
Y347912D02*
D03*
Y349487D02*
D03*
Y351061D02*
D03*
Y352636D02*
D03*
Y354211D02*
D03*
X258157Y178867D02*
D03*
Y180442D02*
D03*
Y182017D02*
D03*
Y183591D02*
D03*
Y185166D02*
D03*
Y186741D02*
D03*
Y188316D02*
D03*
Y189891D02*
D03*
Y191465D02*
D03*
Y193040D02*
D03*
Y194615D02*
D03*
Y196190D02*
D03*
Y197765D02*
D03*
Y199339D02*
D03*
Y200914D02*
D03*
Y202489D02*
D03*
Y204064D02*
D03*
X227645D02*
D03*
Y202489D02*
D03*
Y200914D02*
D03*
Y199339D02*
D03*
Y197765D02*
D03*
Y196190D02*
D03*
Y194615D02*
D03*
Y193040D02*
D03*
Y191465D02*
D03*
Y189891D02*
D03*
Y188316D02*
D03*
Y186741D02*
D03*
Y185166D02*
D03*
Y183591D02*
D03*
Y182017D02*
D03*
Y180442D02*
D03*
Y178867D02*
D03*
X78891Y178332D02*
D03*
Y179907D02*
D03*
Y181482D02*
D03*
Y183057D02*
D03*
Y184632D02*
D03*
Y186206D02*
D03*
Y187781D02*
D03*
Y189356D02*
D03*
Y190931D02*
D03*
Y192506D02*
D03*
Y194080D02*
D03*
Y195655D02*
D03*
Y197230D02*
D03*
Y198805D02*
D03*
Y200379D02*
D03*
Y201954D02*
D03*
Y203529D02*
D03*
X48379D02*
D03*
Y201954D02*
D03*
Y200379D02*
D03*
Y198805D02*
D03*
Y197230D02*
D03*
Y195655D02*
D03*
Y194080D02*
D03*
Y192506D02*
D03*
Y190931D02*
D03*
Y189356D02*
D03*
Y187781D02*
D03*
Y186206D02*
D03*
Y184632D02*
D03*
Y183057D02*
D03*
Y181482D02*
D03*
Y179907D02*
D03*
Y178332D02*
D03*
X349957Y240767D02*
D03*
Y242342D02*
D03*
Y243917D02*
D03*
Y245491D02*
D03*
Y247066D02*
D03*
Y248641D02*
D03*
Y250216D02*
D03*
Y251791D02*
D03*
Y253365D02*
D03*
Y254940D02*
D03*
Y256515D02*
D03*
Y258090D02*
D03*
Y259665D02*
D03*
Y261239D02*
D03*
Y262814D02*
D03*
Y264389D02*
D03*
Y265964D02*
D03*
X319445D02*
D03*
Y264389D02*
D03*
Y262814D02*
D03*
Y261239D02*
D03*
Y259665D02*
D03*
Y258090D02*
D03*
Y256515D02*
D03*
Y254940D02*
D03*
Y253365D02*
D03*
Y251791D02*
D03*
Y250216D02*
D03*
Y248641D02*
D03*
Y247066D02*
D03*
Y245491D02*
D03*
Y243917D02*
D03*
Y242342D02*
D03*
Y240767D02*
D03*
X140545Y241067D02*
D03*
Y242642D02*
D03*
Y244216D02*
D03*
Y245791D02*
D03*
Y247366D02*
D03*
Y248941D02*
D03*
Y250516D02*
D03*
Y252091D02*
D03*
Y253665D02*
D03*
Y255240D02*
D03*
Y256815D02*
D03*
Y258390D02*
D03*
Y259965D02*
D03*
Y261539D02*
D03*
Y263114D02*
D03*
Y264689D02*
D03*
Y266264D02*
D03*
X171057D02*
D03*
Y264689D02*
D03*
Y263114D02*
D03*
Y261539D02*
D03*
Y259965D02*
D03*
Y258390D02*
D03*
Y256815D02*
D03*
Y255240D02*
D03*
Y253665D02*
D03*
Y252091D02*
D03*
Y250516D02*
D03*
Y248941D02*
D03*
Y247366D02*
D03*
Y245791D02*
D03*
Y244216D02*
D03*
Y242642D02*
D03*
Y241067D02*
D03*
D29*
X242689Y327144D02*
D03*
X244264D02*
D03*
X245839D02*
D03*
X247413D02*
D03*
X248988D02*
D03*
X250563D02*
D03*
X252138D02*
D03*
X253713D02*
D03*
X255287D02*
D03*
X256862D02*
D03*
X258437D02*
D03*
X260012D02*
D03*
X261587D02*
D03*
X263161D02*
D03*
X264736D02*
D03*
X266311D02*
D03*
Y357656D02*
D03*
X264736D02*
D03*
X263161D02*
D03*
X261587D02*
D03*
X260012D02*
D03*
X258437D02*
D03*
X256862D02*
D03*
X255287D02*
D03*
X253713D02*
D03*
X252138D02*
D03*
X250563D02*
D03*
X248988D02*
D03*
X247413D02*
D03*
X245839D02*
D03*
X244264D02*
D03*
X242689D02*
D03*
X255499Y206721D02*
D03*
X253924D02*
D03*
X252350D02*
D03*
X250775D02*
D03*
X249200D02*
D03*
X247625D02*
D03*
X246050D02*
D03*
X244476D02*
D03*
X242901D02*
D03*
X241326D02*
D03*
X239751D02*
D03*
X238176D02*
D03*
X236602D02*
D03*
X235027D02*
D03*
X233452D02*
D03*
X231877D02*
D03*
X230302D02*
D03*
Y176209D02*
D03*
X231877D02*
D03*
X233452D02*
D03*
X235027D02*
D03*
X236602D02*
D03*
X238176D02*
D03*
X239751D02*
D03*
X241326D02*
D03*
X242901D02*
D03*
X244476D02*
D03*
X246050D02*
D03*
X247625D02*
D03*
X249200D02*
D03*
X250775D02*
D03*
X252350D02*
D03*
X253924D02*
D03*
X255499D02*
D03*
X76234Y206187D02*
D03*
X74659D02*
D03*
X73084D02*
D03*
X71509D02*
D03*
X69935D02*
D03*
X68360D02*
D03*
X66785D02*
D03*
X65210D02*
D03*
X63635D02*
D03*
X62061D02*
D03*
X60486D02*
D03*
X58911D02*
D03*
X57336D02*
D03*
X55761D02*
D03*
X54187D02*
D03*
X52612D02*
D03*
X51037D02*
D03*
Y175675D02*
D03*
X52612D02*
D03*
X54187D02*
D03*
X55761D02*
D03*
X57336D02*
D03*
X58911D02*
D03*
X60486D02*
D03*
X62061D02*
D03*
X63635D02*
D03*
X65210D02*
D03*
X66785D02*
D03*
X68360D02*
D03*
X69935D02*
D03*
X71509D02*
D03*
X73084D02*
D03*
X74659D02*
D03*
X76234D02*
D03*
X347299Y268621D02*
D03*
X345724D02*
D03*
X344150D02*
D03*
X342575D02*
D03*
X341000D02*
D03*
X339425D02*
D03*
X337850D02*
D03*
X336276D02*
D03*
X334701D02*
D03*
X333126D02*
D03*
X331551D02*
D03*
X329976D02*
D03*
X328402D02*
D03*
X326827D02*
D03*
X325252D02*
D03*
X323677D02*
D03*
X322102D02*
D03*
Y238109D02*
D03*
X323677D02*
D03*
X325252D02*
D03*
X326827D02*
D03*
X328402D02*
D03*
X329976D02*
D03*
X331551D02*
D03*
X333126D02*
D03*
X334701D02*
D03*
X336276D02*
D03*
X337850D02*
D03*
X339425D02*
D03*
X341000D02*
D03*
X342575D02*
D03*
X344150D02*
D03*
X345724D02*
D03*
X347299D02*
D03*
X168399Y238409D02*
D03*
X166824D02*
D03*
X165250D02*
D03*
X163675D02*
D03*
X162100D02*
D03*
X160525D02*
D03*
X158950D02*
D03*
X157376D02*
D03*
X155801D02*
D03*
X154226D02*
D03*
X152651D02*
D03*
X151076D02*
D03*
X149502D02*
D03*
X147927D02*
D03*
X146352D02*
D03*
X144777D02*
D03*
X143202D02*
D03*
Y268921D02*
D03*
X144777D02*
D03*
X146352D02*
D03*
X147927D02*
D03*
X149502D02*
D03*
X151076D02*
D03*
X152651D02*
D03*
X154226D02*
D03*
X155801D02*
D03*
X157376D02*
D03*
X158950D02*
D03*
X160525D02*
D03*
X162100D02*
D03*
X163675D02*
D03*
X165250D02*
D03*
X166824D02*
D03*
X168399D02*
D03*
D30*
X254500Y342400D02*
D03*
D31*
X242901Y191465D02*
D03*
X63635Y190931D02*
D03*
X334701Y253365D02*
D03*
X155801Y253665D02*
D03*
D32*
X138318Y219433D02*
D03*
X140483D02*
D03*
X140483Y223567D02*
D03*
X138318D02*
D03*
X61553Y219298D02*
D03*
X59387D02*
D03*
X59388Y215165D02*
D03*
X61553D02*
D03*
X316099Y210739D02*
D03*
X313934D02*
D03*
X316099Y214873D02*
D03*
X313934D02*
D03*
X227383Y153433D02*
D03*
X225218D02*
D03*
X227383Y157567D02*
D03*
X225218D02*
D03*
X49983Y159533D02*
D03*
X47818D02*
D03*
X49983Y163667D02*
D03*
X47818D02*
D03*
X324293Y219454D02*
D03*
X326458D02*
D03*
X324293Y215321D02*
D03*
X326458D02*
D03*
X234418Y153433D02*
D03*
X236583D02*
D03*
X236583Y157567D02*
D03*
X234418D02*
D03*
X146918Y219333D02*
D03*
X149083D02*
D03*
X149083Y223467D02*
D03*
X146918D02*
D03*
X55118Y154433D02*
D03*
X57283D02*
D03*
X57283Y158567D02*
D03*
X55118D02*
D03*
X335012Y215399D02*
D03*
X332847D02*
D03*
X335012Y219533D02*
D03*
X332847D02*
D03*
X241018Y153433D02*
D03*
X243183D02*
D03*
X243182Y157567D02*
D03*
X241018D02*
D03*
X153948Y219333D02*
D03*
X156113D02*
D03*
X156113Y223467D02*
D03*
X153948D02*
D03*
X61818Y163867D02*
D03*
X63983D02*
D03*
X63983Y159733D02*
D03*
X61818D02*
D03*
X342000Y219713D02*
D03*
X344165D02*
D03*
X342000Y215580D02*
D03*
X344165D02*
D03*
X251282Y153646D02*
D03*
X253447D02*
D03*
X253447Y157780D02*
D03*
X251282D02*
D03*
X163318Y215533D02*
D03*
X165483D02*
D03*
X165483Y219667D02*
D03*
X163318D02*
D03*
X68318Y155333D02*
D03*
X70483D02*
D03*
X70483Y159467D02*
D03*
X68318D02*
D03*
X339718Y292833D02*
D03*
X337553D02*
D03*
X337553Y288699D02*
D03*
X339718D02*
D03*
X247918Y230933D02*
D03*
X245753D02*
D03*
X245753Y226799D02*
D03*
X247918D02*
D03*
X160818Y293133D02*
D03*
X158653D02*
D03*
X158653Y288999D02*
D03*
X160818D02*
D03*
X68652Y230398D02*
D03*
X66487D02*
D03*
X66488Y226265D02*
D03*
X68653D02*
D03*
X332618Y281733D02*
D03*
X330453D02*
D03*
X330453Y277599D02*
D03*
X332618D02*
D03*
X240818Y219833D02*
D03*
X238653D02*
D03*
X238653Y215699D02*
D03*
X240818D02*
D03*
X153718Y282033D02*
D03*
X151553D02*
D03*
X151553Y277899D02*
D03*
X153718D02*
D03*
D33*
X289900Y324437D02*
D03*
Y330500D02*
D03*
X252200Y384563D02*
D03*
Y378500D02*
D03*
X246000Y384587D02*
D03*
Y378524D02*
D03*
D34*
X202900Y295173D02*
D03*
Y291827D02*
D03*
X230400Y378706D02*
D03*
Y382052D02*
D03*
X211927Y366763D02*
D03*
Y363417D02*
D03*
X212027Y354770D02*
D03*
Y358117D02*
D03*
X303866Y263900D02*
D03*
Y267247D02*
D03*
X212066Y205346D02*
D03*
Y202000D02*
D03*
X124966Y267547D02*
D03*
Y264200D02*
D03*
X32000Y204873D02*
D03*
Y201527D02*
D03*
X303866Y253727D02*
D03*
Y257073D02*
D03*
X212066Y191827D02*
D03*
Y195173D02*
D03*
X124966Y254027D02*
D03*
Y257373D02*
D03*
X32000Y191227D02*
D03*
Y194573D02*
D03*
X133300Y362700D02*
D03*
Y359353D02*
D03*
X36700Y273827D02*
D03*
Y277173D02*
D03*
X25600Y253673D02*
D03*
Y250327D02*
D03*
X224900Y382073D02*
D03*
Y378727D02*
D03*
X217627Y362590D02*
D03*
Y359243D02*
D03*
X239500Y378706D02*
D03*
Y382052D02*
D03*
X235000Y378706D02*
D03*
Y382052D02*
D03*
X344501Y277692D02*
D03*
Y281039D02*
D03*
X252701Y215792D02*
D03*
Y219139D02*
D03*
X165601Y277992D02*
D03*
Y281339D02*
D03*
X73435Y215258D02*
D03*
Y218604D02*
D03*
X43400Y168227D02*
D03*
Y171573D02*
D03*
X108700Y191100D02*
D03*
Y194447D02*
D03*
Y186000D02*
D03*
Y182653D02*
D03*
X349001Y281039D02*
D03*
Y277692D02*
D03*
X257201Y219139D02*
D03*
Y215792D02*
D03*
X170101Y281339D02*
D03*
Y277992D02*
D03*
X77935Y218604D02*
D03*
Y215258D02*
D03*
X204566Y180454D02*
D03*
Y183800D02*
D03*
X11000Y183254D02*
D03*
Y186600D02*
D03*
X199166Y183773D02*
D03*
Y180427D02*
D03*
X6400Y186573D02*
D03*
Y183227D02*
D03*
X309235Y258666D02*
D03*
Y262013D02*
D03*
X217435Y196766D02*
D03*
Y200113D02*
D03*
X130335Y258966D02*
D03*
Y262313D02*
D03*
X38170Y196231D02*
D03*
Y199578D02*
D03*
X32200Y277200D02*
D03*
Y273853D02*
D03*
X21100Y250327D02*
D03*
Y253673D02*
D03*
X307800Y321073D02*
D03*
Y317727D02*
D03*
X343900Y323727D02*
D03*
Y327073D02*
D03*
D35*
X19700Y346456D02*
D03*
Y348700D02*
D03*
X254800Y310900D02*
D03*
Y308656D02*
D03*
X265543Y316712D02*
D03*
Y318956D02*
D03*
X251231Y310900D02*
D03*
Y308656D02*
D03*
X262042Y318978D02*
D03*
Y316734D02*
D03*
X333201Y293487D02*
D03*
Y291243D02*
D03*
X241401Y229343D02*
D03*
Y231587D02*
D03*
X154301Y291543D02*
D03*
Y293787D02*
D03*
X62135Y228809D02*
D03*
Y231053D02*
D03*
X329701Y293487D02*
D03*
Y291243D02*
D03*
X237901Y229343D02*
D03*
Y231587D02*
D03*
X150801Y291543D02*
D03*
Y293787D02*
D03*
X58635Y228809D02*
D03*
Y231053D02*
D03*
X302700Y317678D02*
D03*
Y319922D02*
D03*
X16200Y346378D02*
D03*
Y348622D02*
D03*
D36*
X214344Y347300D02*
D03*
X212100D02*
D03*
X214344Y343800D02*
D03*
X212100D02*
D03*
X228457Y337956D02*
D03*
X226213D02*
D03*
X228435Y334456D02*
D03*
X226191D02*
D03*
X237678Y315558D02*
D03*
X235434D02*
D03*
X237678Y319158D02*
D03*
X235434D02*
D03*
X337513Y284766D02*
D03*
X339757D02*
D03*
X245713Y222866D02*
D03*
X247957D02*
D03*
X158613Y285066D02*
D03*
X160857D02*
D03*
X66448Y222332D02*
D03*
X68692D02*
D03*
D37*
X107496Y384100D02*
D03*
X114504D02*
D03*
X123696Y384000D02*
D03*
X130704D02*
D03*
D38*
X110227Y377000D02*
D03*
X113573D02*
D03*
X298473Y330500D02*
D03*
X295127D02*
D03*
X261800Y383100D02*
D03*
X258453D02*
D03*
X261800Y387700D02*
D03*
X258453D02*
D03*
X261800Y378555D02*
D03*
X258453D02*
D03*
X226527Y373179D02*
D03*
X229873D02*
D03*
X364201Y309365D02*
D03*
X367547D02*
D03*
X272401Y247465D02*
D03*
X275747D02*
D03*
X93135Y246931D02*
D03*
X96482D02*
D03*
X374874Y269365D02*
D03*
X371528D02*
D03*
X283074Y207465D02*
D03*
X279728D02*
D03*
X195974Y269665D02*
D03*
X192628D02*
D03*
X103809Y206931D02*
D03*
X100462D02*
D03*
X291828Y230065D02*
D03*
X295174D02*
D03*
X211632Y162400D02*
D03*
X214979D02*
D03*
X124013Y224430D02*
D03*
X120667D02*
D03*
X291828Y239065D02*
D03*
X295174D02*
D03*
X211628Y175965D02*
D03*
X214974D02*
D03*
X124074Y237965D02*
D03*
X120728D02*
D03*
X24854Y182700D02*
D03*
X28200D02*
D03*
X384201Y254865D02*
D03*
X380854D02*
D03*
X292401Y192965D02*
D03*
X289054D02*
D03*
X205301Y255165D02*
D03*
X201954D02*
D03*
X384374Y247865D02*
D03*
X381028D02*
D03*
X292574Y185965D02*
D03*
X289228D02*
D03*
X205474Y248165D02*
D03*
X202128D02*
D03*
X291828Y234565D02*
D03*
X295174D02*
D03*
X211628Y171465D02*
D03*
X214974D02*
D03*
X124074Y233465D02*
D03*
X120728D02*
D03*
X24854Y178200D02*
D03*
X28200D02*
D03*
X272354Y254334D02*
D03*
X275700D02*
D03*
X116320Y244198D02*
D03*
X119666D02*
D03*
X275710Y258860D02*
D03*
X272364D02*
D03*
X119673Y248734D02*
D03*
X116327D02*
D03*
X291807Y225464D02*
D03*
X295153D02*
D03*
X211597Y166946D02*
D03*
X214943D02*
D03*
X124041Y228969D02*
D03*
X120694D02*
D03*
X28173Y173700D02*
D03*
X24827D02*
D03*
D39*
X97500Y370413D02*
D03*
Y359587D02*
D03*
D40*
X367669Y247865D02*
D03*
X373732D02*
D03*
X275869Y185965D02*
D03*
X281932D02*
D03*
X188769Y248165D02*
D03*
X194832D02*
D03*
X96604Y185431D02*
D03*
X102667D02*
D03*
X367669Y254865D02*
D03*
X373732D02*
D03*
X275869Y192965D02*
D03*
X281932D02*
D03*
X188769Y255165D02*
D03*
X194832D02*
D03*
X96604Y192431D02*
D03*
X102667D02*
D03*
M02*
