G04*
G04 #@! TF.GenerationSoftware,Altium Limited,Altium Designer,21.1.1 (26)*
G04*
G04 Layer_Color=2752767*
%FSLAX25Y25*%
%MOIN*%
G70*
G04*
G04 #@! TF.SameCoordinates,1DE770B5-5229-4C7E-BA00-58D6BC8AB395*
G04*
G04*
G04 #@! TF.FilePolarity,Positive*
G04*
G01*
G75*
%ADD223C,0.00200*%
D223*
X121701Y8565D02*
X120901Y10165D01*
X122501D01*
X121701Y8565D01*
Y8965D02*
X121301Y9765D01*
X122101D01*
X121701Y8965D01*
X114701Y8565D02*
X113901Y10165D01*
X115501D01*
X114701Y8565D01*
Y8965D02*
X114301Y9765D01*
X115101D01*
X114701Y8965D01*
X202701Y8465D02*
X201901Y10065D01*
X203501D01*
X202701Y8465D01*
Y8865D02*
X202301Y9665D01*
X203101D01*
X202701Y8865D01*
X195701Y8465D02*
X194901Y10065D01*
X196501D01*
X195701Y8465D01*
Y8865D02*
X195301Y9665D01*
X196101D01*
X195701Y8865D01*
X284201Y8365D02*
X283401Y9965D01*
X285001D01*
X284201Y8365D01*
Y8765D02*
X283801Y9565D01*
X284601D01*
X284201Y8765D01*
X277201Y8365D02*
X276401Y9965D01*
X278001D01*
X277201Y8365D01*
Y8765D02*
X276801Y9565D01*
X277601D01*
X277201Y8765D01*
X357801Y8465D02*
X357001Y10065D01*
X358601D01*
X357801Y8465D01*
Y8865D02*
X357401Y9665D01*
X358201D01*
X357801Y8865D01*
X364801Y8465D02*
X364001Y10065D01*
X365601D01*
X364801Y8465D01*
Y8865D02*
X364401Y9665D01*
X365201D01*
X364801Y8865D01*
M02*
