G04*
G04 #@! TF.GenerationSoftware,Altium Limited,Altium Designer,21.1.1 (26)*
G04*
G04 Layer_Color=16711935*
%FSLAX25Y25*%
%MOIN*%
G70*
G04*
G04 #@! TF.SameCoordinates,1DE770B5-5229-4C7E-BA00-58D6BC8AB395*
G04*
G04*
G04 #@! TF.FilePolarity,Positive*
G04*
G01*
G75*
G36*
X70658Y333425D02*
X67902D01*
Y341299D01*
X70658D01*
Y333425D01*
D02*
G37*
G36*
X66721D02*
X63965D01*
Y341299D01*
X66721D01*
Y333425D01*
D02*
G37*
G36*
X62784D02*
X60028D01*
Y341299D01*
X62784D01*
Y333425D01*
D02*
G37*
G36*
X58847D02*
X56091D01*
Y341299D01*
X58847D01*
Y333425D01*
D02*
G37*
G36*
X54910D02*
X52154D01*
Y341299D01*
X54910D01*
Y333425D01*
D02*
G37*
G36*
X50973D02*
X48217D01*
Y341299D01*
X50973D01*
Y333425D01*
D02*
G37*
G36*
X47036D02*
X44280D01*
Y341299D01*
X47036D01*
Y333425D01*
D02*
G37*
G36*
X43099D02*
X40343D01*
Y341299D01*
X43099D01*
Y333425D01*
D02*
G37*
G36*
X25621Y282559D02*
X15779D01*
Y286102D01*
X25621D01*
Y282559D01*
D02*
G37*
G36*
Y273898D02*
X15779D01*
Y277441D01*
X25621D01*
Y273898D01*
D02*
G37*
G36*
X41121Y247559D02*
X31279D01*
Y251102D01*
X41121D01*
Y247559D01*
D02*
G37*
G36*
Y238898D02*
X31279D01*
Y242441D01*
X41121D01*
Y238898D01*
D02*
G37*
G36*
X74595Y333425D02*
X71839D01*
Y341299D01*
X74595D01*
Y333425D01*
D02*
G37*
G36*
X337267Y331313D02*
X334668D01*
Y332911D01*
X337267D01*
Y331313D01*
D02*
G37*
G36*
X316243D02*
X313645D01*
Y332911D01*
X316243D01*
Y331313D01*
D02*
G37*
G36*
X337267Y326313D02*
X334668D01*
Y327911D01*
X337267D01*
Y326313D01*
D02*
G37*
G36*
X316243D02*
X313645D01*
Y327911D01*
X316243D01*
Y326313D01*
D02*
G37*
G36*
X337267Y321313D02*
X334668D01*
Y322911D01*
X337267D01*
Y321313D01*
D02*
G37*
G36*
X316243D02*
X313645D01*
Y322911D01*
X316243D01*
Y321313D01*
D02*
G37*
G36*
X337267Y316313D02*
X334668D01*
Y317911D01*
X337267D01*
Y316313D01*
D02*
G37*
G36*
X316243D02*
X313645D01*
Y317911D01*
X316243D01*
Y316313D01*
D02*
G37*
G36*
X356321Y186959D02*
X346479D01*
Y190502D01*
X356321D01*
Y186959D01*
D02*
G37*
G36*
Y178298D02*
X346479D01*
Y181841D01*
X356321D01*
Y178298D01*
D02*
G37*
G36*
X377321Y149159D02*
X367479D01*
Y152702D01*
X377321D01*
Y149159D01*
D02*
G37*
G36*
Y140498D02*
X367479D01*
Y144041D01*
X377321D01*
Y140498D01*
D02*
G37*
M02*
