G04*
G04 #@! TF.GenerationSoftware,Altium Limited,Altium Designer,21.1.1 (26)*
G04*
G04 Layer_Color=32896*
%FSLAX25Y25*%
%MOIN*%
G70*
G04*
G04 #@! TF.SameCoordinates,1DE770B5-5229-4C7E-BA00-58D6BC8AB395*
G04*
G04*
G04 #@! TF.FilePolarity,Positive*
G04*
G01*
G75*
%ADD10C,0.01000*%
%ADD11C,0.00984*%
%ADD13C,0.00787*%
%ADD14C,0.00600*%
%ADD218C,0.00394*%
D10*
X378306Y140301D02*
Y152899D01*
X366494Y140301D02*
Y152899D01*
X14795Y273701D02*
Y286299D01*
X26605Y273701D02*
Y286299D01*
X42105Y238701D02*
Y251299D01*
X30294Y238701D02*
Y251299D01*
X345495Y178101D02*
Y190699D01*
X357306Y178101D02*
Y190699D01*
X41000Y176000D02*
Y185300D01*
Y207100D01*
X39600Y183900D02*
X41000Y185300D01*
X39600Y154400D02*
Y183900D01*
X228300Y215800D02*
X258900D01*
X256800Y217900D02*
X258900Y215800D01*
X256800Y217900D02*
Y221200D01*
X247800Y221600D02*
X274800D01*
X49300Y360400D02*
X52299D01*
Y361899D01*
X51799Y362399D01*
X50800D01*
X50300Y361899D01*
Y360400D01*
Y361400D02*
X49300Y362399D01*
Y364898D02*
X52299D01*
X50800Y363399D01*
Y365398D01*
X49800Y366398D02*
X49300Y366898D01*
Y367898D01*
X49800Y368397D01*
X51799D01*
X52299Y367898D01*
Y366898D01*
X51799Y366398D01*
X51299D01*
X50800Y366898D01*
Y368397D01*
X46599Y361999D02*
X47099Y361500D01*
Y360500D01*
X46599Y360000D01*
X44600D01*
X44100Y360500D01*
Y361500D01*
X44600Y361999D01*
X44100Y362999D02*
Y363999D01*
Y363499D01*
X47099D01*
X46599Y362999D01*
Y365498D02*
X47099Y365998D01*
Y366998D01*
X46599Y367498D01*
X44600D01*
X44100Y366998D01*
Y365998D01*
X44600Y365498D01*
X46599D01*
X47099Y370497D02*
Y368497D01*
X45599D01*
X46099Y369497D01*
Y369997D01*
X45599Y370497D01*
X44600D01*
X44100Y369997D01*
Y368997D01*
X44600Y368497D01*
D11*
X103580Y337900D02*
G03*
X103580Y337900I-492J0D01*
G01*
X106272Y377894D02*
G03*
X106272Y377894I-492J0D01*
G01*
X98756Y318007D02*
G03*
X98756Y318007I-492J0D01*
G01*
D13*
X94364Y259972D02*
G03*
X93498Y260839I-866J0D01*
G01*
X90702D02*
G03*
X89836Y259972I0J-866D01*
G01*
X93498Y253161D02*
G03*
X94364Y254028I0J866D01*
G01*
X89836D02*
G03*
X90702Y253161I866J0D01*
G01*
X94024Y250097D02*
G03*
X92450Y251672I-1575J0D01*
G01*
X86150D02*
G03*
X84576Y250097I0J-1575D01*
G01*
Y234703D02*
G03*
X86150Y233128I1575J0D01*
G01*
X92450D02*
G03*
X94024Y234703I-0J1575D01*
G01*
X262984Y144229D02*
G03*
X264559Y145804I-0J1575D01*
G01*
X255110Y145804D02*
G03*
X256685Y144229I1575J-0D01*
G01*
Y162772D02*
G03*
X255110Y161198I0J-1575D01*
G01*
X264559D02*
G03*
X262984Y162772I-1575J0D01*
G01*
X386800Y151631D02*
G03*
X388375Y153206I0J1575D01*
G01*
X380225Y153206D02*
G03*
X381800Y151631I1575J0D01*
G01*
X381800Y165568D02*
G03*
X380225Y163994I0J-1575D01*
G01*
X388375Y163994D02*
G03*
X386800Y165568I-1575J-0D01*
G01*
X359035Y139257D02*
G03*
X360610Y140831I0J1575D01*
G01*
X354390Y140831D02*
G03*
X355965Y139257I1575J0D01*
G01*
X355965Y151343D02*
G03*
X354390Y149768I0J-1575D01*
G01*
X360610D02*
G03*
X359035Y151343I-1575J-0D01*
G01*
X230036Y225654D02*
G03*
X230902Y224788I866J0D01*
G01*
X233698D02*
G03*
X234564Y225654I0J866D01*
G01*
X230902Y232465D02*
G03*
X230036Y231599I0J-866D01*
G01*
X234564D02*
G03*
X233698Y232465I-866J0D01*
G01*
X183772Y370736D02*
G03*
X184639Y371602I0J866D01*
G01*
Y374398D02*
G03*
X183772Y375264I-866J0D01*
G01*
X176961Y371602D02*
G03*
X177828Y370736I866J0D01*
G01*
Y375264D02*
G03*
X176961Y374398I0J-866D01*
G01*
X182336Y353901D02*
G03*
X183202Y353035I866J0D01*
G01*
X185998D02*
G03*
X186864Y353901I0J866D01*
G01*
X183202Y360712D02*
G03*
X182336Y359846I0J-866D01*
G01*
X186864D02*
G03*
X185998Y360712I-866J0D01*
G01*
X242039Y341398D02*
G03*
X241172Y342264I-866J0D01*
G01*
Y337736D02*
G03*
X242039Y338602I0J866D01*
G01*
X235228Y342264D02*
G03*
X234361Y341398I0J-866D01*
G01*
Y338602D02*
G03*
X235228Y337736I866J0D01*
G01*
X242039Y331898D02*
G03*
X241172Y332764I-866J0D01*
G01*
Y328236D02*
G03*
X242039Y329102I0J866D01*
G01*
X235228Y332764D02*
G03*
X234361Y331898I0J-866D01*
G01*
Y329102D02*
G03*
X235228Y328236I866J0D01*
G01*
X266717Y328914D02*
G03*
X267583Y328048I866J0D01*
G01*
Y332576D02*
G03*
X266717Y331710I0J-866D01*
G01*
X273528Y328048D02*
G03*
X274394Y328914I0J866D01*
G01*
Y331710D02*
G03*
X273528Y332576I-866J0D01*
G01*
X258702Y330165D02*
G03*
X257836Y329299I0J-866D01*
G01*
X262364D02*
G03*
X261498Y330165I-866J0D01*
G01*
X257836Y323354D02*
G03*
X258702Y322488I866J0D01*
G01*
X261498D02*
G03*
X262364Y323354I0J866D01*
G01*
X249202Y329992D02*
G03*
X248336Y329126I0J-866D01*
G01*
X252864D02*
G03*
X251998Y329992I-866J0D01*
G01*
X248336Y323181D02*
G03*
X249202Y322315I866J0D01*
G01*
X251998D02*
G03*
X252864Y323181I0J866D01*
G01*
X266744Y337914D02*
G03*
X267610Y337048I866J0D01*
G01*
Y341576D02*
G03*
X266744Y340709I0J-866D01*
G01*
X273555Y337048D02*
G03*
X274421Y337914I0J866D01*
G01*
Y340709D02*
G03*
X273555Y341576I-866J0D01*
G01*
X255398Y355461D02*
G03*
X256264Y356328I0J866D01*
G01*
X251736D02*
G03*
X252602Y355461I866J0D01*
G01*
X256264Y362272D02*
G03*
X255398Y363139I-866J0D01*
G01*
X252602D02*
G03*
X251736Y362272I0J-866D01*
G01*
X246298Y355461D02*
G03*
X247164Y356328I0J866D01*
G01*
X242636D02*
G03*
X243502Y355461I866J0D01*
G01*
X247164Y362272D02*
G03*
X246298Y363139I-866J0D01*
G01*
X243502D02*
G03*
X242636Y362272I0J-866D01*
G01*
X272936Y369128D02*
G03*
X273802Y368261I866J0D01*
G01*
X276598D02*
G03*
X277464Y369128I0J866D01*
G01*
X273802Y375939D02*
G03*
X272936Y375072I0J-866D01*
G01*
X277464D02*
G03*
X276598Y375939I-866J0D01*
G01*
X291164Y373472D02*
G03*
X290298Y374339I-866J0D01*
G01*
X287502D02*
G03*
X286636Y373472I0J-866D01*
G01*
X290298Y366661D02*
G03*
X291164Y367528I0J866D01*
G01*
X286636D02*
G03*
X287502Y366661I866J0D01*
G01*
X268436Y369154D02*
G03*
X269302Y368288I866J0D01*
G01*
X272098D02*
G03*
X272964Y369154I0J866D01*
G01*
X269302Y375965D02*
G03*
X268436Y375099I0J-866D01*
G01*
X272964D02*
G03*
X272098Y375965I-866J0D01*
G01*
X266717Y333414D02*
G03*
X267583Y332548I866J0D01*
G01*
Y337076D02*
G03*
X266717Y336210I0J-866D01*
G01*
X273528Y332548D02*
G03*
X274394Y333414I0J866D01*
G01*
Y336210D02*
G03*
X273528Y337076I-866J0D01*
G01*
X266744Y342414D02*
G03*
X267610Y341548I866J0D01*
G01*
Y346076D02*
G03*
X266744Y345210I0J-866D01*
G01*
X273555Y341548D02*
G03*
X274421Y342414I0J866D01*
G01*
Y345209D02*
G03*
X273555Y346076I-866J0D01*
G01*
X259898Y355461D02*
G03*
X260764Y356328I0J866D01*
G01*
X256236D02*
G03*
X257102Y355461I866J0D01*
G01*
X260764Y362272D02*
G03*
X259898Y363139I-866J0D01*
G01*
X257102D02*
G03*
X256236Y362272I0J-866D01*
G01*
X264398Y355488D02*
G03*
X265264Y356354I0J866D01*
G01*
X260736D02*
G03*
X261602Y355488I866J0D01*
G01*
X265264Y362299D02*
G03*
X264398Y363165I-866J0D01*
G01*
X261602D02*
G03*
X260736Y362299I0J-866D01*
G01*
X266744Y352414D02*
G03*
X267610Y351548I866J0D01*
G01*
Y356076D02*
G03*
X266744Y355209I0J-866D01*
G01*
X273555Y351548D02*
G03*
X274421Y352414I0J866D01*
G01*
Y355209D02*
G03*
X273555Y356076I-866J0D01*
G01*
X266744Y347814D02*
G03*
X267610Y346948I866J0D01*
G01*
Y351476D02*
G03*
X266744Y350609I0J-866D01*
G01*
X273555Y346948D02*
G03*
X274421Y347814I0J866D01*
G01*
Y350609D02*
G03*
X273555Y351476I-866J0D01*
G01*
X343476Y7668D02*
G03*
X345051Y6094I1575J0D01*
G01*
X351350D02*
G03*
X352925Y7668I0J1575D01*
G01*
Y23062D02*
G03*
X351350Y24637I-1575J0D01*
G01*
X345051D02*
G03*
X343476Y23062I0J-1575D01*
G01*
X263276Y7668D02*
G03*
X264851Y6094I1575J0D01*
G01*
X271150D02*
G03*
X272725Y7668I0J1575D01*
G01*
Y23062D02*
G03*
X271150Y24637I-1575J0D01*
G01*
X264851D02*
G03*
X263276Y23062I0J-1575D01*
G01*
X181876Y7669D02*
G03*
X183451Y6095I1575J0D01*
G01*
X189750D02*
G03*
X191325Y7669I0J1575D01*
G01*
Y23063D02*
G03*
X189750Y24638I-1575J0D01*
G01*
X183451D02*
G03*
X181876Y23063I0J-1575D01*
G01*
X100776Y7669D02*
G03*
X102351Y6095I1575J0D01*
G01*
X108650D02*
G03*
X110225Y7669I0J1575D01*
G01*
Y23063D02*
G03*
X108650Y24638I-1575J0D01*
G01*
X102351D02*
G03*
X100776Y23063I0J-1575D01*
G01*
X387072Y219550D02*
G03*
X385497Y221124I-1575J-0D01*
G01*
Y211676D02*
G03*
X387072Y213250I0J1575D01*
G01*
X368528D02*
G03*
X370103Y211676I1575J0D01*
G01*
Y221124D02*
G03*
X368528Y219550I0J-1575D01*
G01*
X236650Y241106D02*
G03*
X235076Y239531I0J-1575D01*
G01*
X244524Y239531D02*
G03*
X242950Y241106I-1575J0D01*
G01*
Y222562D02*
G03*
X244524Y224137I0J1575D01*
G01*
X235076D02*
G03*
X236650Y222562I1575J0D01*
G01*
X195272Y295650D02*
G03*
X193697Y297224I-1575J-0D01*
G01*
Y287776D02*
G03*
X195272Y289350I0J1575D01*
G01*
X176728D02*
G03*
X178303Y287776I1575J0D01*
G01*
Y297224D02*
G03*
X176728Y295650I0J-1575D01*
G01*
X109172Y222250D02*
G03*
X107597Y223824I-1575J-0D01*
G01*
Y214376D02*
G03*
X109172Y215950I0J1575D01*
G01*
X90628D02*
G03*
X92203Y214376I1575J0D01*
G01*
Y223824D02*
G03*
X90628Y222250I0J-1575D01*
G01*
X371654Y210764D02*
G03*
X370788Y209898I0J-866D01*
G01*
Y207102D02*
G03*
X371654Y206236I866J0D01*
G01*
X378465Y209898D02*
G03*
X377599Y210764I-866J0D01*
G01*
Y206236D02*
G03*
X378465Y207102I0J866D01*
G01*
X169401Y296164D02*
G03*
X168535Y295298I0J-866D01*
G01*
Y292502D02*
G03*
X169401Y291636I866J0D01*
G01*
X176212Y295298D02*
G03*
X175346Y296164I-866J0D01*
G01*
Y291636D02*
G03*
X176212Y292502I0J866D01*
G01*
X93754Y228564D02*
G03*
X92888Y227698I0J-866D01*
G01*
Y224902D02*
G03*
X93754Y224036I866J0D01*
G01*
X100565Y227698D02*
G03*
X99699Y228564I-866J0D01*
G01*
Y224036D02*
G03*
X100565Y224902I0J866D01*
G01*
X268376Y268003D02*
G03*
X269950Y266428I1575J0D01*
G01*
X276250D02*
G03*
X277824Y268003I0J1575D01*
G01*
Y283397D02*
G03*
X276250Y284972I-1575J0D01*
G01*
X269950D02*
G03*
X268376Y283397I0J-1575D01*
G01*
X206650Y225972D02*
G03*
X205076Y224397I0J-1575D01*
G01*
X214524D02*
G03*
X212950Y225972I-1575J0D01*
G01*
Y207428D02*
G03*
X214524Y209003I0J1575D01*
G01*
X205076D02*
G03*
X206650Y207428I1575J0D01*
G01*
X34050Y195762D02*
G03*
X35624Y197337I-0J1575D01*
G01*
X26176D02*
G03*
X27750Y195762I1575J0D01*
G01*
Y214305D02*
G03*
X26176Y212731I0J-1575D01*
G01*
X35624D02*
G03*
X34050Y214305I-1575J0D01*
G01*
X321034Y274404D02*
G03*
X320168Y273538I0J-866D01*
G01*
X324695D02*
G03*
X323829Y274404I-866J0D01*
G01*
X320168Y267593D02*
G03*
X321034Y266727I866J0D01*
G01*
X323829D02*
G03*
X324695Y267593I0J866D01*
G01*
X229282Y213020D02*
G03*
X228416Y212154I0J-866D01*
G01*
X232944D02*
G03*
X232077Y213020I-866J0D01*
G01*
X228416Y206209D02*
G03*
X229282Y205343I866J0D01*
G01*
X232077D02*
G03*
X232944Y206209I0J866D01*
G01*
X142534Y274404D02*
G03*
X141668Y273538I0J-866D01*
G01*
X146195D02*
G03*
X145329Y274404I-866J0D01*
G01*
X141668Y267593D02*
G03*
X142534Y266727I866J0D01*
G01*
X145329D02*
G03*
X146195Y267593I0J866D01*
G01*
X50669Y212639D02*
G03*
X49802Y211772I0J-866D01*
G01*
X54330D02*
G03*
X53464Y212639I-866J0D01*
G01*
X49802Y205827D02*
G03*
X50669Y204961I866J0D01*
G01*
X53464D02*
G03*
X54330Y205827I0J866D01*
G01*
X338665Y96738D02*
G03*
X337798Y97604I-866J0D01*
G01*
X335003D02*
G03*
X334137Y96738I0J-866D01*
G01*
X337798Y89927D02*
G03*
X338665Y90793I0J866D01*
G01*
X334137D02*
G03*
X335003Y89927I866J0D01*
G01*
X258465Y96738D02*
G03*
X257598Y97604I-866J0D01*
G01*
X254803D02*
G03*
X253937Y96738I0J-866D01*
G01*
X257598Y89927D02*
G03*
X258465Y90793I0J866D01*
G01*
X253937D02*
G03*
X254803Y89927I866J0D01*
G01*
X177065Y96739D02*
G03*
X176198Y97605I-866J0D01*
G01*
X173403D02*
G03*
X172537Y96739I0J-866D01*
G01*
X176198Y89928D02*
G03*
X177065Y90794I0J866D01*
G01*
X172537D02*
G03*
X173403Y89928I866J0D01*
G01*
X95965Y96739D02*
G03*
X95098Y97605I-866J0D01*
G01*
X92303D02*
G03*
X91437Y96739I0J-866D01*
G01*
X95098Y89928D02*
G03*
X95965Y90794I0J866D01*
G01*
X91437D02*
G03*
X92303Y89928I866J0D01*
G01*
X286950Y188528D02*
G03*
X288524Y190103I-0J1575D01*
G01*
X279076D02*
G03*
X280650Y188528I1575J0D01*
G01*
Y207072D02*
G03*
X279076Y205497I0J-1575D01*
G01*
X288524D02*
G03*
X286950Y207072I-1575J0D01*
G01*
X123976Y199737D02*
G03*
X125550Y198162I1575J0D01*
G01*
X131850D02*
G03*
X133424Y199737I0J1575D01*
G01*
Y215131D02*
G03*
X131850Y216705I-1575J0D01*
G01*
X125550D02*
G03*
X123976Y215131I0J-1575D01*
G01*
X337146Y203136D02*
G03*
X338012Y204002I0J866D01*
G01*
Y206798D02*
G03*
X337146Y207664I-866J0D01*
G01*
X330335Y204002D02*
G03*
X331201Y203136I866J0D01*
G01*
Y207664D02*
G03*
X330335Y206798I0J-866D01*
G01*
X263401Y193504D02*
G03*
X264267Y194370I0J866D01*
G01*
Y197165D02*
G03*
X263401Y198031I-866J0D01*
G01*
X256590Y194370D02*
G03*
X257456Y193504I866J0D01*
G01*
Y198031D02*
G03*
X256590Y197165I0J-866D01*
G01*
X185221Y252364D02*
G03*
X184354Y251498I0J-866D01*
G01*
Y248702D02*
G03*
X185221Y247836I866J0D01*
G01*
X192032Y251498D02*
G03*
X191165Y252364I-866J0D01*
G01*
Y247836D02*
G03*
X192032Y248702I0J866D01*
G01*
X83891Y194156D02*
G03*
X84757Y195022I0J866D01*
G01*
Y197817D02*
G03*
X83891Y198683I-866J0D01*
G01*
X77080Y195022D02*
G03*
X77946Y194156I866J0D01*
G01*
Y198683D02*
G03*
X77080Y197817I0J-866D01*
G01*
X324297Y207476D02*
G03*
X325872Y209050I0J1575D01*
G01*
Y215350D02*
G03*
X324297Y216924I-1575J0D01*
G01*
X308903D02*
G03*
X307328Y215350I0J-1575D01*
G01*
Y209050D02*
G03*
X308903Y207476I1575J0D01*
G01*
X164029Y225016D02*
G03*
X165604Y223441I1575J0D01*
G01*
Y232890D02*
G03*
X164029Y231315I0J-1575D01*
G01*
X182572D02*
G03*
X180998Y232890I-1575J0D01*
G01*
Y223441D02*
G03*
X182572Y225016I0J1575D01*
G01*
X92203Y176824D02*
G03*
X90628Y175250I0J-1575D01*
G01*
Y168950D02*
G03*
X92203Y167376I1575J0D01*
G01*
X107597D02*
G03*
X109172Y168950I0J1575D01*
G01*
Y175250D02*
G03*
X107597Y176824I-1575J-0D01*
G01*
X316728Y222264D02*
G03*
X315861Y221398I0J-866D01*
G01*
Y218602D02*
G03*
X316728Y217736I866J0D01*
G01*
X323539Y221398D02*
G03*
X322672Y222264I-866J0D01*
G01*
Y217736D02*
G03*
X323539Y218602I0J866D01*
G01*
X270098Y159646D02*
G03*
X269232Y160513I-866J0D01*
G01*
X266437D02*
G03*
X265571Y159646I0J-866D01*
G01*
X269232Y152835D02*
G03*
X270098Y153702I0J866D01*
G01*
X265571D02*
G03*
X266437Y152835I866J0D01*
G01*
X184228Y232464D02*
G03*
X183361Y231598I0J-866D01*
G01*
Y228802D02*
G03*
X184228Y227936I866J0D01*
G01*
X191039Y231598D02*
G03*
X190172Y232464I-866J0D01*
G01*
Y227936D02*
G03*
X191039Y228802I0J866D01*
G01*
X99846Y162236D02*
G03*
X100712Y163102I0J866D01*
G01*
Y165898D02*
G03*
X99846Y166764I-866J0D01*
G01*
X93035Y163102D02*
G03*
X93901Y162236I866J0D01*
G01*
Y166764D02*
G03*
X93035Y165898I0J-866D01*
G01*
X194250Y211972D02*
G03*
X192676Y210397I0J-1575D01*
G01*
X202124D02*
G03*
X200550Y211972I-1575J0D01*
G01*
Y193428D02*
G03*
X202124Y195003I0J1575D01*
G01*
X192676D02*
G03*
X194250Y193428I1575J0D01*
G01*
X286372Y257836D02*
G03*
X287239Y258702I0J866D01*
G01*
Y261498D02*
G03*
X286372Y262364I-866J0D01*
G01*
X279561Y258702D02*
G03*
X280428Y257836I866J0D01*
G01*
Y262364D02*
G03*
X279561Y261498I0J-866D01*
G01*
X222728Y188964D02*
G03*
X221861Y188098I0J-866D01*
G01*
Y185302D02*
G03*
X222728Y184436I866J0D01*
G01*
X229539Y188098D02*
G03*
X228672Y188964I-866J0D01*
G01*
Y184436D02*
G03*
X229539Y185302I0J866D01*
G01*
X25164Y203946D02*
G03*
X24298Y204812I-866J0D01*
G01*
X21502D02*
G03*
X20636Y203946I0J-866D01*
G01*
X24298Y197135D02*
G03*
X25164Y198001I0J866D01*
G01*
X20636D02*
G03*
X21502Y197135I866J0D01*
G01*
X287124Y244797D02*
G03*
X285550Y246372I-1575J0D01*
G01*
X279250D02*
G03*
X277676Y244797I0J-1575D01*
G01*
Y229403D02*
G03*
X279250Y227828I1575J0D01*
G01*
X285550D02*
G03*
X287124Y229403I-0J1575D01*
G01*
X207450Y143828D02*
G03*
X209024Y145403I-0J1575D01*
G01*
X199576D02*
G03*
X201150Y143828I1575J0D01*
G01*
Y162372D02*
G03*
X199576Y160797I0J-1575D01*
G01*
X209024D02*
G03*
X207450Y162372I-1575J0D01*
G01*
X119783Y210362D02*
G03*
X121358Y211937I-0J1575D01*
G01*
X111909D02*
G03*
X113484Y210362I1575J0D01*
G01*
Y228906D02*
G03*
X111909Y227331I0J-1575D01*
G01*
X121358D02*
G03*
X119783Y228906I-1575J0D01*
G01*
X10650Y148328D02*
G03*
X12224Y149903I-0J1575D01*
G01*
X2776D02*
G03*
X4350Y148328I1575J0D01*
G01*
Y166872D02*
G03*
X2776Y165297I0J-1575D01*
G01*
X12224D02*
G03*
X10650Y166872I-1575J0D01*
G01*
X288036Y237228D02*
G03*
X288902Y236361I866J0D01*
G01*
X291698D02*
G03*
X292564Y237228I0J866D01*
G01*
X288902Y244039D02*
G03*
X288036Y243172I0J-866D01*
G01*
X292564D02*
G03*
X291698Y244039I-866J0D01*
G01*
X198884Y159184D02*
G03*
X198018Y160050I-866J0D01*
G01*
X195222D02*
G03*
X194356Y159184I0J-866D01*
G01*
X198018Y152373D02*
G03*
X198884Y153239I0J866D01*
G01*
X194356D02*
G03*
X195222Y152373I866J0D01*
G01*
X109872Y224736D02*
G03*
X110739Y225602I0J866D01*
G01*
Y228398D02*
G03*
X109872Y229264I-866J0D01*
G01*
X103061Y225602D02*
G03*
X103928Y224736I866J0D01*
G01*
Y229264D02*
G03*
X103061Y228398I0J-866D01*
G01*
X49418Y180266D02*
G03*
X50284Y181132I0J866D01*
G01*
Y183927D02*
G03*
X49418Y184793I-866J0D01*
G01*
X42607Y181132D02*
G03*
X43473Y180266I866J0D01*
G01*
Y184793D02*
G03*
X42607Y183927I0J-866D01*
G01*
X282437Y110193D02*
G03*
X283303Y109327I866J0D01*
G01*
X286098D02*
G03*
X286965Y110193I0J866D01*
G01*
X283303Y117004D02*
G03*
X282437Y116138I0J-866D01*
G01*
X286965D02*
G03*
X286098Y117004I-866J0D01*
G01*
X202237Y110193D02*
G03*
X203103Y109327I866J0D01*
G01*
X205898D02*
G03*
X206765Y110193I0J866D01*
G01*
X203103Y117004D02*
G03*
X202237Y116138I0J-866D01*
G01*
X206765D02*
G03*
X205898Y117004I-866J0D01*
G01*
X120837Y110194D02*
G03*
X121703Y109328I866J0D01*
G01*
X124498D02*
G03*
X125365Y110194I0J866D01*
G01*
X121703Y117005D02*
G03*
X120837Y116139I0J-866D01*
G01*
X125365D02*
G03*
X124498Y117005I-866J0D01*
G01*
X39737Y110194D02*
G03*
X40603Y109328I866J0D01*
G01*
X43398D02*
G03*
X44265Y110194I0J866D01*
G01*
X40603Y117005D02*
G03*
X39737Y116139I0J-866D01*
G01*
X44265D02*
G03*
X43398Y117005I-866J0D01*
G01*
X343603Y274373D02*
G03*
X342737Y273507I0J-866D01*
G01*
X347265D02*
G03*
X346398Y274373I-866J0D01*
G01*
X342737Y267562D02*
G03*
X343603Y266696I866J0D01*
G01*
X346398D02*
G03*
X347265Y267562I0J866D01*
G01*
X258765Y208798D02*
G03*
X257899Y209664I-866J0D01*
G01*
Y205136D02*
G03*
X258765Y206002I0J866D01*
G01*
X251954Y209664D02*
G03*
X251088Y208798I0J-866D01*
G01*
Y206002D02*
G03*
X251954Y205136I866J0D01*
G01*
X165103Y274373D02*
G03*
X164237Y273507I0J-866D01*
G01*
X168765D02*
G03*
X167898Y274373I-866J0D01*
G01*
X164237Y267562D02*
G03*
X165103Y266696I866J0D01*
G01*
X167898D02*
G03*
X168765Y267562I0J866D01*
G01*
X73238Y212608D02*
G03*
X72372Y211742I0J-866D01*
G01*
X76899D02*
G03*
X76033Y212608I-866J0D01*
G01*
X72372Y205797D02*
G03*
X73238Y204931I866J0D01*
G01*
X76033D02*
G03*
X76899Y205797I0J866D01*
G01*
X349454Y255164D02*
G03*
X348588Y254298I0J-866D01*
G01*
Y251502D02*
G03*
X349454Y250636I866J0D01*
G01*
X356265Y254298D02*
G03*
X355399Y255164I-866J0D01*
G01*
Y250636D02*
G03*
X356265Y251502I0J866D01*
G01*
X257428Y193461D02*
G03*
X256562Y192595I0J-866D01*
G01*
Y189800D02*
G03*
X257428Y188934I866J0D01*
G01*
X264239Y192595D02*
G03*
X263373Y193461I-866J0D01*
G01*
Y188934D02*
G03*
X264239Y189800I0J866D01*
G01*
X176549Y250862D02*
G03*
X177415Y251728I0J866D01*
G01*
Y254524D02*
G03*
X176549Y255390I-866J0D01*
G01*
X169738Y251728D02*
G03*
X170604Y250862I866J0D01*
G01*
Y255390D02*
G03*
X169738Y254524I0J-866D01*
G01*
X77929Y194202D02*
G03*
X77062Y193336I0J-866D01*
G01*
Y190541D02*
G03*
X77929Y189675I866J0D01*
G01*
X84740Y193336D02*
G03*
X83873Y194202I-866J0D01*
G01*
Y189675D02*
G03*
X84740Y190541I0J866D01*
G01*
X339857Y232515D02*
G03*
X340723Y231649I866J0D01*
G01*
X343519D02*
G03*
X344385Y232515I0J866D01*
G01*
X340723Y239327D02*
G03*
X339857Y238460I0J-866D01*
G01*
X344385D02*
G03*
X343519Y239327I-866J0D01*
G01*
X255886Y178059D02*
G03*
X255020Y178925I-866J0D01*
G01*
X252224D02*
G03*
X251358Y178059I0J-866D01*
G01*
X255020Y171247D02*
G03*
X255886Y172114I0J866D01*
G01*
X251358D02*
G03*
X252224Y171247I866J0D01*
G01*
X163802Y233543D02*
G03*
X164669Y232677I866J0D01*
G01*
X167464D02*
G03*
X168330Y233543I0J866D01*
G01*
X164669Y240354D02*
G03*
X163802Y239488I0J-866D01*
G01*
X168330D02*
G03*
X167464Y240354I-866J0D01*
G01*
X72406Y169918D02*
G03*
X73272Y169052I866J0D01*
G01*
X76067D02*
G03*
X76933Y169918I0J866D01*
G01*
X73272Y176729D02*
G03*
X72406Y175863I0J-866D01*
G01*
X76933D02*
G03*
X76067Y176729I-866J0D01*
G01*
X313928Y250064D02*
G03*
X313061Y249198I0J-866D01*
G01*
Y246402D02*
G03*
X313928Y245536I866J0D01*
G01*
X320739Y249198D02*
G03*
X319872Y250064I-866J0D01*
G01*
Y245536D02*
G03*
X320739Y246402I0J866D01*
G01*
X251386Y178059D02*
G03*
X250520Y178925I-866J0D01*
G01*
X247724D02*
G03*
X246858Y178059I0J-866D01*
G01*
X250520Y171247D02*
G03*
X251386Y172114I0J866D01*
G01*
X246858D02*
G03*
X247724Y171247I866J0D01*
G01*
X159302Y233543D02*
G03*
X160169Y232677I866J0D01*
G01*
X162964D02*
G03*
X163830Y233543I0J866D01*
G01*
X160169Y240354D02*
G03*
X159302Y239488I0J-866D01*
G01*
X163830D02*
G03*
X162964Y240354I-866J0D01*
G01*
X43428Y189364D02*
G03*
X42561Y188498I0J-866D01*
G01*
Y185702D02*
G03*
X43428Y184836I866J0D01*
G01*
X50239Y188498D02*
G03*
X49372Y189364I-866J0D01*
G01*
Y184836D02*
G03*
X50239Y185702I0J866D01*
G01*
X330068Y274412D02*
G03*
X329202Y273546I0J-866D01*
G01*
X333730D02*
G03*
X332864Y274412I-866J0D01*
G01*
X329202Y267601D02*
G03*
X330068Y266735I866J0D01*
G01*
X332864D02*
G03*
X333730Y267601I0J866D01*
G01*
X238002Y213012D02*
G03*
X237136Y212146I0J-866D01*
G01*
X241664D02*
G03*
X240798Y213012I-866J0D01*
G01*
X237136Y206201D02*
G03*
X238002Y205335I866J0D01*
G01*
X240798D02*
G03*
X241664Y206201I0J866D01*
G01*
X151568Y274412D02*
G03*
X150702Y273546I0J-866D01*
G01*
X155230D02*
G03*
X154364Y274412I-866J0D01*
G01*
X150702Y267601D02*
G03*
X151568Y266735I866J0D01*
G01*
X154364D02*
G03*
X155230Y267601I0J866D01*
G01*
X59703Y212646D02*
G03*
X58837Y211780I0J-866D01*
G01*
X63365D02*
G03*
X62498Y212646I-866J0D01*
G01*
X58837Y205835D02*
G03*
X59703Y204969I866J0D01*
G01*
X62498D02*
G03*
X63365Y205835I0J866D01*
G01*
X325569Y274412D02*
G03*
X324702Y273546I0J-866D01*
G01*
X329230D02*
G03*
X328364Y274412I-866J0D01*
G01*
X324702Y267601D02*
G03*
X325569Y266735I866J0D01*
G01*
X328364D02*
G03*
X329230Y267601I0J866D01*
G01*
X233653Y213020D02*
G03*
X232787Y212154I0J-866D01*
G01*
X237314D02*
G03*
X236448Y213020I-866J0D01*
G01*
X232787Y206209D02*
G03*
X233653Y205343I866J0D01*
G01*
X236448D02*
G03*
X237314Y206209I0J866D01*
G01*
X147069Y274412D02*
G03*
X146202Y273546I0J-866D01*
G01*
X150730D02*
G03*
X149864Y274412I-866J0D01*
G01*
X146202Y267601D02*
G03*
X147069Y266735I866J0D01*
G01*
X149864D02*
G03*
X150730Y267601I0J866D01*
G01*
X55203Y212646D02*
G03*
X54337Y211780I0J-866D01*
G01*
X58865D02*
G03*
X57998Y212646I-866J0D01*
G01*
X54337Y205835D02*
G03*
X55203Y204969I866J0D01*
G01*
X57998D02*
G03*
X58865Y205835I0J866D01*
G01*
X338698Y238384D02*
G03*
X337832Y239250I-866J0D01*
G01*
X335037D02*
G03*
X334171Y238384I0J-866D01*
G01*
X337832Y231573D02*
G03*
X338698Y232439I0J866D01*
G01*
X334171D02*
G03*
X335037Y231573I866J0D01*
G01*
X237738Y178036D02*
G03*
X236872Y178902I-866J0D01*
G01*
X234076D02*
G03*
X233210Y178036I0J-866D01*
G01*
X236872Y171225D02*
G03*
X237738Y172091I0J866D01*
G01*
X233210D02*
G03*
X234076Y171225I866J0D01*
G01*
X159240Y239525D02*
G03*
X158374Y240391I-866J0D01*
G01*
X155578D02*
G03*
X154712Y239525I0J-866D01*
G01*
X158374Y232714D02*
G03*
X159240Y233580I0J866D01*
G01*
X154712D02*
G03*
X155578Y232714I866J0D01*
G01*
X63286Y170028D02*
G03*
X64152Y169162I866J0D01*
G01*
X66947D02*
G03*
X67813Y170028I0J866D01*
G01*
X64152Y176839D02*
G03*
X63286Y175973I0J-866D01*
G01*
X67813D02*
G03*
X66947Y176839I-866J0D01*
G01*
X325136Y232528D02*
G03*
X326002Y231661I866J0D01*
G01*
X328798D02*
G03*
X329664Y232528I0J866D01*
G01*
X326002Y239339D02*
G03*
X325136Y238472I0J-866D01*
G01*
X329664D02*
G03*
X328798Y239339I-866J0D01*
G01*
X242336Y172101D02*
G03*
X243202Y171235I866J0D01*
G01*
X245998D02*
G03*
X246864Y172101I0J866D01*
G01*
X243202Y178912D02*
G03*
X242336Y178046I0J-866D01*
G01*
X246864D02*
G03*
X245998Y178912I-866J0D01*
G01*
X145505Y233580D02*
G03*
X146371Y232714I866J0D01*
G01*
X149166D02*
G03*
X150032Y233580I0J866D01*
G01*
X146371Y240391D02*
G03*
X145505Y239525I0J-866D01*
G01*
X150032D02*
G03*
X149166Y240391I-866J0D01*
G01*
X58706Y175963D02*
G03*
X57840Y176829I-866J0D01*
G01*
X55045D02*
G03*
X54179Y175963I0J-866D01*
G01*
X57840Y169152D02*
G03*
X58706Y170018I0J866D01*
G01*
X54179D02*
G03*
X55045Y169152I866J0D01*
G01*
X319912Y259131D02*
G03*
X320778Y259998I0J866D01*
G01*
Y262793D02*
G03*
X319912Y263659I-866J0D01*
G01*
X313101Y259998D02*
G03*
X313967Y259131I866J0D01*
G01*
Y263659D02*
G03*
X313101Y262793I0J-866D01*
G01*
X228672Y197036D02*
G03*
X229539Y197902I0J866D01*
G01*
Y200698D02*
G03*
X228672Y201564I-866J0D01*
G01*
X221861Y197902D02*
G03*
X222728Y197036I866J0D01*
G01*
Y201564D02*
G03*
X221861Y200698I0J-866D01*
G01*
X136132Y261514D02*
G03*
X135266Y260647I0J-866D01*
G01*
Y257852D02*
G03*
X136132Y256986I866J0D01*
G01*
X142943Y260647D02*
G03*
X142077Y261514I-866J0D01*
G01*
Y256986D02*
G03*
X142943Y257852I0J866D01*
G01*
X43385Y207298D02*
G03*
X42519Y206432I0J-866D01*
G01*
Y203637D02*
G03*
X43385Y202771I866J0D01*
G01*
X50196Y206432D02*
G03*
X49330Y207298I-866J0D01*
G01*
Y202771D02*
G03*
X50196Y203637I0J866D01*
G01*
X319937Y254545D02*
G03*
X320804Y255411I0J866D01*
G01*
Y258206D02*
G03*
X319937Y259072I-866J0D01*
G01*
X313126Y255411D02*
G03*
X313993Y254545I866J0D01*
G01*
Y259072D02*
G03*
X313126Y258206I0J-866D01*
G01*
X228680Y192667D02*
G03*
X229546Y193533I0J866D01*
G01*
Y196329D02*
G03*
X228680Y197195I-866J0D01*
G01*
X221869Y193533D02*
G03*
X222735Y192667I866J0D01*
G01*
Y197195D02*
G03*
X221869Y196329I0J-866D01*
G01*
X142139Y251066D02*
G03*
X143006Y251932I0J866D01*
G01*
Y254727D02*
G03*
X142139Y255593I-866J0D01*
G01*
X135328Y251932D02*
G03*
X136195Y251066I866J0D01*
G01*
Y255593D02*
G03*
X135328Y254727I0J-866D01*
G01*
X43528Y198207D02*
G03*
X42661Y197341I0J-866D01*
G01*
Y194545D02*
G03*
X43528Y193679I866J0D01*
G01*
X50339Y197341D02*
G03*
X49472Y198207I-866J0D01*
G01*
Y193679D02*
G03*
X50339Y194545I0J866D01*
G01*
X334164Y238446D02*
G03*
X333298Y239312I-866J0D01*
G01*
X330502D02*
G03*
X329636Y238446I0J-866D01*
G01*
X333298Y231635D02*
G03*
X334164Y232501I0J866D01*
G01*
X329636D02*
G03*
X330502Y231635I866J0D01*
G01*
X237743Y172098D02*
G03*
X238610Y171232I866J0D01*
G01*
X241405D02*
G03*
X242271Y172098I0J866D01*
G01*
X238610Y178909D02*
G03*
X237743Y178043I0J-866D01*
G01*
X242271D02*
G03*
X241405Y178909I-866J0D01*
G01*
X150399Y233626D02*
G03*
X151266Y232760I866J0D01*
G01*
X154061D02*
G03*
X154927Y233626I0J866D01*
G01*
X151265Y240437D02*
G03*
X150399Y239571I0J-866D01*
G01*
X154927D02*
G03*
X154061Y240437I-866J0D01*
G01*
X63280Y175958D02*
G03*
X62414Y176824I-866J0D01*
G01*
X59619D02*
G03*
X58753Y175958I0J-866D01*
G01*
X62414Y169147D02*
G03*
X63280Y170013I0J866D01*
G01*
X58753D02*
G03*
X59619Y169147I866J0D01*
G01*
X313902Y245545D02*
G03*
X313035Y244679I0J-866D01*
G01*
Y241883D02*
G03*
X313902Y241017I866J0D01*
G01*
X320713Y244679D02*
G03*
X319847Y245545I-866J0D01*
G01*
Y241017D02*
G03*
X320713Y241883I0J866D01*
G01*
X222682Y184450D02*
G03*
X221816Y183583I0J-866D01*
G01*
Y180788D02*
G03*
X222682Y179922I866J0D01*
G01*
X229493Y183583D02*
G03*
X228627Y184450I-866J0D01*
G01*
Y179922D02*
G03*
X229493Y180788I0J866D01*
G01*
X136228Y246464D02*
G03*
X135361Y245598I0J-866D01*
G01*
Y242802D02*
G03*
X136228Y241936I866J0D01*
G01*
X143039Y245598D02*
G03*
X142172Y246464I-866J0D01*
G01*
Y241936D02*
G03*
X143039Y242802I0J866D01*
G01*
X43507Y180354D02*
G03*
X42640Y179488I0J-866D01*
G01*
Y176692D02*
G03*
X43507Y175826I866J0D01*
G01*
X50318Y179488D02*
G03*
X49451Y180354I-866J0D01*
G01*
Y175826D02*
G03*
X50318Y176692I0J866D01*
G01*
X334603Y274373D02*
G03*
X333737Y273507I0J-866D01*
G01*
X338265D02*
G03*
X337398Y274373I-866J0D01*
G01*
X333737Y267562D02*
G03*
X334603Y266696I866J0D01*
G01*
X337398D02*
G03*
X338265Y267562I0J866D01*
G01*
X242537Y212973D02*
G03*
X241671Y212107I0J-866D01*
G01*
X246198D02*
G03*
X245332Y212973I-866J0D01*
G01*
X241671Y206162D02*
G03*
X242537Y205296I866J0D01*
G01*
X245332D02*
G03*
X246198Y206162I0J866D01*
G01*
X156103Y274373D02*
G03*
X155237Y273507I0J-866D01*
G01*
X159765D02*
G03*
X158898Y274373I-866J0D01*
G01*
X155237Y267562D02*
G03*
X156103Y266696I866J0D01*
G01*
X158898D02*
G03*
X159765Y267562I0J866D01*
G01*
X64238Y212608D02*
G03*
X63372Y211742I0J-866D01*
G01*
X67899D02*
G03*
X67033Y212608I-866J0D01*
G01*
X63372Y205797D02*
G03*
X64238Y204931I866J0D01*
G01*
X67033D02*
G03*
X67899Y205797I0J866D01*
G01*
X339103Y274373D02*
G03*
X338237Y273507I0J-866D01*
G01*
X342765D02*
G03*
X341898Y274373I-866J0D01*
G01*
X338237Y267562D02*
G03*
X339103Y266696I866J0D01*
G01*
X341898D02*
G03*
X342765Y267562I0J866D01*
G01*
X247037Y212973D02*
G03*
X246171Y212107I0J-866D01*
G01*
X250698D02*
G03*
X249832Y212973I-866J0D01*
G01*
X246171Y206162D02*
G03*
X247037Y205296I866J0D01*
G01*
X249832D02*
G03*
X250698Y206162I0J866D01*
G01*
X160603Y274373D02*
G03*
X159737Y273507I0J-866D01*
G01*
X164265D02*
G03*
X163398Y274373I-866J0D01*
G01*
X159737Y267562D02*
G03*
X160603Y266696I866J0D01*
G01*
X163398D02*
G03*
X164265Y267562I0J866D01*
G01*
X68738Y212608D02*
G03*
X67872Y211742I0J-866D01*
G01*
X72399D02*
G03*
X71533Y212608I-866J0D01*
G01*
X67872Y205797D02*
G03*
X68738Y204931I866J0D01*
G01*
X71533D02*
G03*
X72399Y205797I0J866D01*
G01*
X319999Y263631D02*
G03*
X320865Y264497I0J866D01*
G01*
Y267293D02*
G03*
X319999Y268159I-866J0D01*
G01*
X313188Y264497D02*
G03*
X314054Y263631I866J0D01*
G01*
Y268159D02*
G03*
X313188Y267293I0J-866D01*
G01*
X228688Y201339D02*
G03*
X229554Y202205I0J866D01*
G01*
Y205000D02*
G03*
X228688Y205866I-866J0D01*
G01*
X221877Y202205D02*
G03*
X222743Y201339I866J0D01*
G01*
Y205866D02*
G03*
X221877Y205000I0J-866D01*
G01*
X136100Y266043D02*
G03*
X135234Y265177I0J-866D01*
G01*
Y262382D02*
G03*
X136100Y261516I866J0D01*
G01*
X142912Y265177D02*
G03*
X142045Y266043I-866J0D01*
G01*
Y261516D02*
G03*
X142912Y262382I0J866D01*
G01*
X43447Y202758D02*
G03*
X42581Y201892I0J-866D01*
G01*
Y199097D02*
G03*
X43447Y198230I866J0D01*
G01*
X50258Y201892D02*
G03*
X49392Y202758I-866J0D01*
G01*
Y198230D02*
G03*
X50258Y199097I0J866D01*
G01*
X315099Y251903D02*
G03*
X315965Y251037I866J0D01*
G01*
Y254580D02*
G03*
X315099Y253714I0J-866D01*
G01*
X319863Y251037D02*
G03*
X320729Y251903I0J866D01*
G01*
Y253714D02*
G03*
X319863Y254580I-866J0D01*
G01*
X223842Y190025D02*
G03*
X224708Y189159I866J0D01*
G01*
Y192703D02*
G03*
X223842Y191837I0J-866D01*
G01*
X228605Y189159D02*
G03*
X229471Y190025I0J866D01*
G01*
Y191837D02*
G03*
X228605Y192703I-866J0D01*
G01*
X136960Y248437D02*
G03*
X137826Y247571I866J0D01*
G01*
Y251114D02*
G03*
X136960Y250248I0J-866D01*
G01*
X141724Y247571D02*
G03*
X142590Y248437I0J866D01*
G01*
Y250248D02*
G03*
X141724Y251114I-866J0D01*
G01*
X49780Y192844D02*
G03*
X48914Y193710I-866J0D01*
G01*
Y190167D02*
G03*
X49780Y191033I0J866D01*
G01*
X45017Y193710D02*
G03*
X44151Y192844I0J-866D01*
G01*
Y191033D02*
G03*
X45017Y190167I866J0D01*
G01*
X44275Y264794D02*
G03*
X42700Y266369I-1575J-0D01*
G01*
X37700Y266369D02*
G03*
X36125Y264794I0J-1575D01*
G01*
X36125Y254006D02*
G03*
X37700Y252432I1575J0D01*
G01*
X42700Y252432D02*
G03*
X44275Y254006I0J1575D01*
G01*
X45102Y263712D02*
G03*
X44236Y262846I0J-866D01*
G01*
X48764D02*
G03*
X47898Y263712I-866J0D01*
G01*
X44236Y256901D02*
G03*
X45102Y256035I866J0D01*
G01*
X47898D02*
G03*
X48764Y256901I0J866D01*
G01*
X36798Y277992D02*
G03*
X37664Y278858I0J866D01*
G01*
X33136D02*
G03*
X34002Y277992I866J0D01*
G01*
X37664Y284803D02*
G03*
X36798Y285669I-866J0D01*
G01*
X34002D02*
G03*
X33136Y284803I0J-866D01*
G01*
X24235Y287457D02*
G03*
X25810Y289032I0J1575D01*
G01*
X19590Y289032D02*
G03*
X21165Y287457I1575J0D01*
G01*
X21165Y299543D02*
G03*
X19590Y297969I0J-1575D01*
G01*
X25810D02*
G03*
X24235Y299543I-1575J-0D01*
G01*
X15902Y296939D02*
G03*
X15036Y296072I0J-866D01*
G01*
X19564D02*
G03*
X18698Y296939I-866J0D01*
G01*
X15036Y290128D02*
G03*
X15902Y289261I866J0D01*
G01*
X18698D02*
G03*
X19564Y290128I0J866D01*
G01*
X14994Y263825D02*
G03*
X16568Y265400I-0J1575D01*
G01*
X16568Y270400D02*
G03*
X14994Y271975I-1575J0D01*
G01*
X4206Y271975D02*
G03*
X2631Y270400I0J-1575D01*
G01*
X2631Y265400D02*
G03*
X4206Y263825I1575J0D01*
G01*
X14039Y262998D02*
G03*
X13172Y263864I-866J0D01*
G01*
Y259336D02*
G03*
X14039Y260202I0J866D01*
G01*
X7228Y263864D02*
G03*
X6361Y262998I0J-866D01*
G01*
Y260202D02*
G03*
X7228Y259336I866J0D01*
G01*
X17798Y239161D02*
G03*
X18664Y240028I0J866D01*
G01*
X14136D02*
G03*
X15002Y239161I866J0D01*
G01*
X18664Y245972D02*
G03*
X17798Y246839I-866J0D01*
G01*
X15002D02*
G03*
X14136Y245972I0J-866D01*
G01*
X27835Y237657D02*
G03*
X29410Y239231I0J1575D01*
G01*
X23190Y239231D02*
G03*
X24765Y237657I1575J0D01*
G01*
X24765Y249743D02*
G03*
X23190Y248168I0J-1575D01*
G01*
X29410D02*
G03*
X27835Y249743I-1575J-0D01*
G01*
X13298Y239161D02*
G03*
X14164Y240028I0J866D01*
G01*
X9636D02*
G03*
X10502Y239161I866J0D01*
G01*
X14164Y245972D02*
G03*
X13298Y246839I-866J0D01*
G01*
X10502D02*
G03*
X9636Y245972I0J-866D01*
G01*
X98798Y339061D02*
G03*
X99664Y339928I0J866D01*
G01*
X95136D02*
G03*
X96002Y339061I866J0D01*
G01*
X99664Y345872D02*
G03*
X98798Y346739I-866J0D01*
G01*
X96002D02*
G03*
X95136Y345872I0J-866D01*
G01*
X117530Y360850D02*
G03*
X116664Y359984I0J-866D01*
G01*
Y357189D02*
G03*
X117530Y356323I866J0D01*
G01*
X124341Y359984D02*
G03*
X123475Y360850I-866J0D01*
G01*
Y356323D02*
G03*
X124341Y357189I0J866D01*
G01*
X95039Y378213D02*
G03*
X96613Y376638I1575J0D01*
G01*
X101613Y376638D02*
G03*
X103188Y378213I0J1575D01*
G01*
X103188Y389000D02*
G03*
X101613Y390575I-1575J0D01*
G01*
X96613Y390575D02*
G03*
X95039Y389000I0J-1575D01*
G01*
X94264Y387572D02*
G03*
X93398Y388439I-866J0D01*
G01*
X90602D02*
G03*
X89736Y387572I0J-866D01*
G01*
X93398Y380761D02*
G03*
X94264Y381628I0J866D01*
G01*
X89736D02*
G03*
X90602Y380761I866J0D01*
G01*
X338300Y171468D02*
G03*
X336725Y169894I0J-1575D01*
G01*
X344875Y169894D02*
G03*
X343300Y171468I-1575J0D01*
G01*
X343300Y157531D02*
G03*
X344875Y159106I0J1575D01*
G01*
X336725Y159106D02*
G03*
X338300Y157531I1575J0D01*
G01*
X348998Y159961D02*
G03*
X349864Y160828I0J866D01*
G01*
X345336D02*
G03*
X346202Y159961I866J0D01*
G01*
X349864Y166772D02*
G03*
X348998Y167639I-866J0D01*
G01*
X346202D02*
G03*
X345336Y166772I0J-866D01*
G01*
X359402Y190239D02*
G03*
X358536Y189372I0J-866D01*
G01*
X363064D02*
G03*
X362198Y190239I-866J0D01*
G01*
X358536Y183428D02*
G03*
X359402Y182561I866J0D01*
G01*
X362198D02*
G03*
X363064Y183428I0J866D01*
G01*
X332990Y181300D02*
G03*
X334565Y179725I1575J0D01*
G01*
X337635D02*
G03*
X339210Y181300I0J1575D01*
G01*
X339210Y190237D02*
G03*
X337635Y191812I-1575J-0D01*
G01*
X334565Y191812D02*
G03*
X332990Y190237I0J-1575D01*
G01*
X340802Y190239D02*
G03*
X339936Y189372I0J-866D01*
G01*
X344464D02*
G03*
X343598Y190239I-866J0D01*
G01*
X339936Y183428D02*
G03*
X340802Y182561I866J0D01*
G01*
X343598D02*
G03*
X344464Y183428I0J866D01*
G01*
X375802Y163239D02*
G03*
X374936Y162372I0J-866D01*
G01*
X379464D02*
G03*
X378598Y163239I-866J0D01*
G01*
X374936Y156428D02*
G03*
X375802Y155561I866J0D01*
G01*
X378598D02*
G03*
X379464Y156428I0J866D01*
G01*
X352768Y140898D02*
G03*
X353635Y141765I0J866D01*
G01*
X349107D02*
G03*
X349973Y140898I866J0D01*
G01*
X353635Y147709D02*
G03*
X352768Y148576I-866J0D01*
G01*
X349973D02*
G03*
X349107Y147709I0J-866D01*
G01*
X364798Y140761D02*
G03*
X365664Y141628I0J866D01*
G01*
X361136D02*
G03*
X362002Y140761I866J0D01*
G01*
X365664Y147572D02*
G03*
X364798Y148439I-866J0D01*
G01*
X362002D02*
G03*
X361136Y147572I0J-866D01*
G01*
X364502Y177339D02*
G03*
X363636Y176472I0J-866D01*
G01*
X368164D02*
G03*
X367298Y177339I-866J0D01*
G01*
X363636Y170528D02*
G03*
X364502Y169661I866J0D01*
G01*
X367298D02*
G03*
X368164Y170528I0J866D01*
G01*
X351698Y149288D02*
G03*
X352564Y150154I0J866D01*
G01*
X348036D02*
G03*
X348902Y149288I866J0D01*
G01*
X352564Y156099D02*
G03*
X351698Y156965I-866J0D01*
G01*
X348902D02*
G03*
X348036Y156099I0J-866D01*
G01*
X43536Y351228D02*
G03*
X44402Y350361I866J0D01*
G01*
X47198D02*
G03*
X48064Y351228I0J866D01*
G01*
X44402Y358039D02*
G03*
X43536Y357172I0J-866D01*
G01*
X48064D02*
G03*
X47198Y358039I-866J0D01*
G01*
X18050Y188728D02*
G03*
X19624Y190303I-0J1575D01*
G01*
X10176D02*
G03*
X11750Y188728I1575J0D01*
G01*
Y207272D02*
G03*
X10176Y205697I0J-1575D01*
G01*
X19624D02*
G03*
X18050Y207272I-1575J0D01*
G01*
X201138Y261150D02*
G03*
X199563Y262724I-1575J-0D01*
G01*
Y253276D02*
G03*
X201138Y254850I0J1575D01*
G01*
X182595D02*
G03*
X184169Y253276I1575J0D01*
G01*
Y262724D02*
G03*
X182595Y261150I0J-1575D01*
G01*
X131017Y290172D02*
G03*
X129442Y288597I0J-1575D01*
G01*
X138891D02*
G03*
X137316Y290172I-1575J0D01*
G01*
Y271628D02*
G03*
X138891Y273203I0J1575D01*
G01*
X129442D02*
G03*
X131017Y271628I1575J0D01*
G01*
X321694Y194450D02*
G03*
X323269Y192876I1575J0D01*
G01*
Y202324D02*
G03*
X321694Y200750I0J-1575D01*
G01*
X340238D02*
G03*
X338663Y202324I-1575J0D01*
G01*
Y192876D02*
G03*
X340238Y194450I0J1575D01*
G01*
X278703Y257424D02*
G03*
X277128Y255850I0J-1575D01*
G01*
Y249550D02*
G03*
X278703Y247976I1575J0D01*
G01*
X294097D02*
G03*
X295672Y249550I0J1575D01*
G01*
Y255850D02*
G03*
X294097Y257424I-1575J-0D01*
G01*
X95190Y251257D02*
X101410D01*
X95190D02*
Y263343D01*
X101410D01*
Y251257D02*
Y263343D01*
X90702Y260839D02*
X93498D01*
X94364Y258181D02*
Y259953D01*
X89836Y258181D02*
Y259953D01*
X94364Y254047D02*
Y255819D01*
X89836Y254047D02*
Y255819D01*
X90702Y253161D02*
X93498D01*
X95190Y250443D02*
X101410D01*
Y238357D02*
Y250443D01*
X95190Y238357D02*
X101410D01*
X95190D02*
Y250443D01*
X84576Y234703D02*
Y238463D01*
Y246337D02*
Y250097D01*
X94024Y246337D02*
Y250097D01*
Y234703D02*
Y238463D01*
X86150Y251672D02*
X92450D01*
X86150Y233128D02*
X92450D01*
X110174Y339081D02*
Y350892D01*
X106631Y339081D02*
Y350892D01*
X110174D01*
X106631Y339081D02*
X110174D01*
X369994Y168004D02*
Y168595D01*
Y155405D02*
Y155996D01*
X356805Y168004D02*
Y168595D01*
Y155405D02*
Y155996D01*
X367790Y168595D02*
X369994D01*
X356805D02*
X359010D01*
X367790Y155405D02*
X369994D01*
X356805D02*
X359010D01*
X89488Y354350D02*
X112717D01*
X89488Y374823D02*
X112717D01*
X89488Y354350D02*
Y358287D01*
X112717Y354350D02*
Y358287D01*
X89488Y370886D02*
Y374823D01*
X112717Y370886D02*
Y374823D01*
X108339Y390689D02*
X123693D01*
X108339Y378484D02*
X123693D01*
X100823Y318598D02*
X116177D01*
X100823Y330802D02*
X116177D01*
X98425Y6094D02*
Y11428D01*
X88976Y24637D02*
X98425D01*
X88976Y6094D02*
X98425D01*
X88976D02*
Y11428D01*
Y19302D02*
Y24637D01*
X98425Y19302D02*
Y24637D01*
X256685Y144229D02*
X262984D01*
X256685Y162772D02*
X262984D01*
X264559Y145804D02*
Y149564D01*
Y157438D02*
Y161198D01*
X255110Y157438D02*
Y161198D01*
Y145804D02*
Y149564D01*
X18675Y223632D02*
Y228828D01*
Y232372D02*
Y237568D01*
X10525Y232372D02*
Y237568D01*
Y223632D02*
Y228828D01*
Y223632D02*
X18675D01*
X10525Y237568D02*
X18675D01*
X278025Y364228D02*
Y378165D01*
Y364228D02*
X286175D01*
X278025Y378165D02*
X286175D01*
Y364228D02*
Y378165D01*
X381800Y151631D02*
X386800D01*
X380225Y153206D02*
Y156828D01*
X381800Y165568D02*
X386800D01*
X380225Y160372D02*
Y163994D01*
X388375Y160372D02*
Y163994D01*
Y153206D02*
Y156828D01*
X2990Y194757D02*
Y206843D01*
Y194757D02*
X9210D01*
Y206843D01*
X2990D02*
X9210D01*
X360610Y146875D02*
Y149768D01*
X355965Y139257D02*
X359035D01*
X355965Y151343D02*
X359035D01*
X360610Y140831D02*
Y143725D01*
X354390Y140831D02*
Y143725D01*
X354390Y146875D02*
Y149768D01*
X230902Y224788D02*
X233698D01*
X230036Y225674D02*
Y227446D01*
X234564Y225674D02*
Y227446D01*
X230036Y229808D02*
Y231579D01*
X234564Y229808D02*
Y231579D01*
X230902Y232465D02*
X233698D01*
X184639Y371602D02*
Y374398D01*
X181981Y370736D02*
X183753D01*
X181981Y375264D02*
X183753D01*
X177847Y370736D02*
X179619D01*
X177847Y375264D02*
X179619D01*
X176961Y371602D02*
Y374398D01*
X183202Y353035D02*
X185998D01*
X182336Y353921D02*
Y355692D01*
X186864Y353921D02*
Y355692D01*
X182336Y358054D02*
Y359826D01*
X186864Y358054D02*
Y359826D01*
X183202Y360712D02*
X185998D01*
X242039Y338602D02*
Y341398D01*
X239381Y342264D02*
X241153D01*
X239381Y337736D02*
X241153D01*
X235247Y342264D02*
X237019D01*
X235247Y337736D02*
X237019D01*
X234361Y338602D02*
Y341398D01*
X242039Y329102D02*
Y331898D01*
X239381Y332764D02*
X241153D01*
X239381Y328236D02*
X241153D01*
X235247Y332764D02*
X237019D01*
X235247Y328236D02*
X237019D01*
X234361Y329102D02*
Y331898D01*
X266717Y328914D02*
Y331710D01*
X267603Y328048D02*
X269375D01*
X267603Y332576D02*
X269375D01*
X271737Y328048D02*
X273509D01*
X271737Y332576D02*
X273509D01*
X274394Y328914D02*
Y331710D01*
X258702Y330165D02*
X261498D01*
X257836Y327508D02*
Y329279D01*
X262364Y327508D02*
Y329279D01*
X257836Y323374D02*
Y325146D01*
X262364Y323374D02*
Y325146D01*
X258702Y322488D02*
X261498D01*
X249202Y329992D02*
X251998D01*
X248336Y327335D02*
Y329106D01*
X252864Y327335D02*
Y329106D01*
X248336Y323201D02*
Y324972D01*
X252864Y323201D02*
Y324972D01*
X249202Y322315D02*
X251998D01*
X266744Y337914D02*
Y340709D01*
X267630Y337048D02*
X269402D01*
X267630Y341576D02*
X269402D01*
X271764Y337048D02*
X273535D01*
X271764Y341576D02*
X273535D01*
X274421Y337914D02*
Y340709D01*
X252602Y355461D02*
X255398D01*
X256264Y356347D02*
Y358119D01*
X251736Y356347D02*
Y358119D01*
X256264Y360481D02*
Y362253D01*
X251736Y360481D02*
Y362253D01*
X252602Y363139D02*
X255398D01*
X243502Y355461D02*
X246298D01*
X247164Y356347D02*
Y358119D01*
X242636Y356347D02*
Y358119D01*
X247164Y360481D02*
Y362253D01*
X242636Y360481D02*
Y362253D01*
X243502Y363139D02*
X246298D01*
X273802Y368261D02*
X276598D01*
X272936Y369147D02*
Y370919D01*
X277464Y369147D02*
Y370919D01*
X272936Y373281D02*
Y375053D01*
X277464Y373281D02*
Y375053D01*
X273802Y375939D02*
X276598D01*
X287502Y374339D02*
X290298D01*
X291164Y371681D02*
Y373453D01*
X286636Y371681D02*
Y373453D01*
X291164Y367547D02*
Y369319D01*
X286636Y367547D02*
Y369319D01*
X287502Y366661D02*
X290298D01*
X269302Y368288D02*
X272098D01*
X268436Y369174D02*
Y370946D01*
X272964Y369174D02*
Y370946D01*
X268436Y373308D02*
Y375079D01*
X272964Y373308D02*
Y375079D01*
X269302Y375965D02*
X272098D01*
X266717Y333414D02*
Y336210D01*
X267603Y332548D02*
X269375D01*
X267603Y337076D02*
X269375D01*
X271737Y332548D02*
X273509D01*
X271737Y337076D02*
X273509D01*
X274394Y333414D02*
Y336210D01*
X266744Y342414D02*
Y345210D01*
X267630Y341548D02*
X269402D01*
X267630Y346076D02*
X269402D01*
X271764Y341548D02*
X273535D01*
X271764Y346076D02*
X273535D01*
X274421Y342414D02*
Y345209D01*
X257102Y355461D02*
X259898D01*
X260764Y356347D02*
Y358119D01*
X256236Y356347D02*
Y358119D01*
X260764Y360481D02*
Y362253D01*
X256236Y360481D02*
Y362253D01*
X257102Y363139D02*
X259898D01*
X261602Y355488D02*
X264398D01*
X265264Y356374D02*
Y358146D01*
X260736Y356374D02*
Y358146D01*
X265264Y360508D02*
Y362280D01*
X260736Y360508D02*
Y362280D01*
X261602Y363165D02*
X264398D01*
X266744Y352414D02*
Y355209D01*
X267630Y351548D02*
X269402D01*
X267630Y356076D02*
X269402D01*
X271764Y351548D02*
X273535D01*
X271764Y356076D02*
X273535D01*
X274421Y352414D02*
Y355209D01*
X266744Y347814D02*
Y350609D01*
X267630Y346948D02*
X269402D01*
X267630Y351476D02*
X269402D01*
X271764Y346948D02*
X273535D01*
X271764Y351476D02*
X273535D01*
X274421Y347814D02*
Y350609D01*
X352925Y19302D02*
Y23062D01*
Y7668D02*
Y11428D01*
X343476Y7668D02*
Y11428D01*
Y19302D02*
Y23062D01*
X345051Y6094D02*
X351350D01*
X345051Y24637D02*
X351350D01*
X272725Y19302D02*
Y23062D01*
Y7668D02*
Y11428D01*
X263276Y7668D02*
Y11428D01*
Y19302D02*
Y23062D01*
X264851Y6094D02*
X271150D01*
X264851Y24637D02*
X271150D01*
X191325Y19303D02*
Y23063D01*
Y7669D02*
Y11429D01*
X181876Y7669D02*
Y11429D01*
Y19303D02*
Y23063D01*
X183451Y6095D02*
X189750D01*
X183451Y24638D02*
X189750D01*
X110225Y19303D02*
Y23063D01*
Y7669D02*
Y11429D01*
X100776Y7669D02*
Y11429D01*
Y19303D02*
Y23063D01*
X102351Y6095D02*
X108650D01*
X102351Y24638D02*
X108650D01*
X387072Y213250D02*
Y219550D01*
X368528Y213250D02*
Y219550D01*
X381737Y221124D02*
X385497D01*
X370103D02*
X373863D01*
X370103Y211676D02*
X373863D01*
X381737D02*
X385497D01*
X236650Y241106D02*
X242950D01*
X236650Y222562D02*
X242950D01*
X235076Y235771D02*
Y239531D01*
Y224137D02*
Y227897D01*
X244524Y224137D02*
Y227897D01*
Y235771D02*
Y239531D01*
X195272Y289350D02*
Y295650D01*
X176728Y289350D02*
Y295650D01*
X189937Y297224D02*
X193697D01*
X178303D02*
X182063D01*
X178303Y287776D02*
X182063D01*
X189937D02*
X193697D01*
X109172Y215950D02*
Y222250D01*
X90628Y215950D02*
Y222250D01*
X103837Y223824D02*
X107597D01*
X92203D02*
X95963D01*
X92203Y214376D02*
X95963D01*
X103837D02*
X107597D01*
X370788Y207102D02*
Y209898D01*
X371674Y210764D02*
X373446D01*
X371674Y206236D02*
X373446D01*
X375808Y210764D02*
X377579D01*
X375808Y206236D02*
X377579D01*
X378465Y207102D02*
Y209898D01*
X168535Y292502D02*
Y295298D01*
X169421Y296164D02*
X171192D01*
X169421Y291636D02*
X171192D01*
X173554Y296164D02*
X175326D01*
X173554Y291636D02*
X175326D01*
X176212Y292502D02*
Y295298D01*
X92888Y224902D02*
Y227698D01*
X93774Y228564D02*
X95546D01*
X93774Y224036D02*
X95546D01*
X97908Y228564D02*
X99679D01*
X97908Y224036D02*
X99679D01*
X100565Y224902D02*
Y227698D01*
X277824Y279637D02*
Y283397D01*
Y268003D02*
Y271763D01*
X268376Y268003D02*
Y271763D01*
Y279637D02*
Y283397D01*
X269950Y266428D02*
X276250D01*
X269950Y284972D02*
X276250D01*
X206650Y225972D02*
X212950D01*
X206650Y207428D02*
X212950D01*
X205076Y220637D02*
Y224397D01*
Y209003D02*
Y212763D01*
X214524Y209003D02*
Y212763D01*
Y220637D02*
Y224397D01*
X27750Y195762D02*
X34050D01*
X27750Y214305D02*
X34050D01*
X35624Y197337D02*
Y201097D01*
Y208971D02*
Y212731D01*
X26176Y208971D02*
Y212731D01*
Y197337D02*
Y201097D01*
X321034Y274404D02*
X323829D01*
X320168Y271746D02*
Y273518D01*
X324695Y271746D02*
Y273518D01*
X320168Y267613D02*
Y269384D01*
X324695Y267613D02*
Y269384D01*
X321034Y266727D02*
X323829D01*
X229282Y213020D02*
X232077D01*
X228416Y210363D02*
Y212134D01*
X232944Y210363D02*
Y212134D01*
X228416Y206229D02*
Y208000D01*
X232944Y206229D02*
Y208000D01*
X229282Y205343D02*
X232077D01*
X142534Y274404D02*
X145329D01*
X141668Y271746D02*
Y273518D01*
X146195Y271746D02*
Y273518D01*
X141668Y267613D02*
Y269384D01*
X146195Y267613D02*
Y269384D01*
X142534Y266727D02*
X145329D01*
X50669Y212639D02*
X53464D01*
X49802Y209981D02*
Y211753D01*
X54330Y209981D02*
Y211753D01*
X49802Y205847D02*
Y207619D01*
X54330Y205847D02*
Y207619D01*
X50669Y204961D02*
X53464D01*
X335003Y97604D02*
X337798D01*
X338665Y94946D02*
Y96718D01*
X334137Y94946D02*
Y96718D01*
X338665Y90813D02*
Y92584D01*
X334137Y90813D02*
Y92584D01*
X335003Y89927D02*
X337798D01*
X254803Y97604D02*
X257598D01*
X258465Y94946D02*
Y96718D01*
X253937Y94946D02*
Y96718D01*
X258465Y90813D02*
Y92584D01*
X253937Y90813D02*
Y92584D01*
X254803Y89927D02*
X257598D01*
X173403Y97605D02*
X176198D01*
X177065Y94947D02*
Y96719D01*
X172537Y94947D02*
Y96719D01*
X177065Y90813D02*
Y92585D01*
X172537Y90813D02*
Y92585D01*
X173403Y89928D02*
X176198D01*
X92303Y97605D02*
X95098D01*
X95965Y94947D02*
Y96719D01*
X91437Y94947D02*
Y96719D01*
X95965Y90813D02*
Y92585D01*
X91437Y90813D02*
Y92585D01*
X92303Y89928D02*
X95098D01*
X280650Y188528D02*
X286950D01*
X280650Y207072D02*
X286950D01*
X288524Y190103D02*
Y193863D01*
Y201737D02*
Y205497D01*
X279076Y201737D02*
Y205497D01*
Y190103D02*
Y193863D01*
X133424Y211371D02*
Y215131D01*
Y199737D02*
Y203497D01*
X123976Y199737D02*
Y203497D01*
Y211371D02*
Y215131D01*
X125550Y198162D02*
X131850D01*
X125550Y216705D02*
X131850D01*
X338012Y204002D02*
Y206798D01*
X335354Y203136D02*
X337126D01*
X335354Y207664D02*
X337126D01*
X331221Y203136D02*
X332992D01*
X331221Y207664D02*
X332992D01*
X330335Y204002D02*
Y206798D01*
X264267Y194370D02*
Y197165D01*
X261610Y193504D02*
X263382D01*
X261610Y198031D02*
X263382D01*
X257476Y193504D02*
X259248D01*
X257476Y198031D02*
X259248D01*
X256590Y194370D02*
Y197165D01*
X184354Y248702D02*
Y251498D01*
X185240Y252364D02*
X187012D01*
X185240Y247836D02*
X187012D01*
X189374Y252364D02*
X191146D01*
X189374Y247836D02*
X191146D01*
X192032Y248702D02*
Y251498D01*
X84757Y195022D02*
Y197817D01*
X82099Y194156D02*
X83871D01*
X82099Y198683D02*
X83871D01*
X77966Y194156D02*
X79737D01*
X77966Y198683D02*
X79737D01*
X77080Y195022D02*
Y197817D01*
X308903Y216924D02*
X312663D01*
X320537D02*
X324297D01*
X320537Y207476D02*
X324297D01*
X308903D02*
X312663D01*
X325872Y209050D02*
Y215350D01*
X307328Y209050D02*
Y215350D01*
X164029Y225016D02*
Y231315D01*
X182572Y225016D02*
Y231315D01*
X165604Y223441D02*
X169364D01*
X177238D02*
X180998D01*
X177238Y232890D02*
X180998D01*
X165604D02*
X169364D01*
X103837Y167376D02*
X107597D01*
X92203D02*
X95963D01*
X92203Y176824D02*
X95963D01*
X103837D02*
X107597D01*
X90628Y168950D02*
Y175250D01*
X109172Y168950D02*
Y175250D01*
X315861Y218602D02*
Y221398D01*
X316747Y222264D02*
X318519D01*
X316747Y217736D02*
X318519D01*
X320881Y222264D02*
X322653D01*
X320881Y217736D02*
X322653D01*
X323539Y218602D02*
Y221398D01*
X266437Y160513D02*
X269232D01*
X270098Y157855D02*
Y159627D01*
X265571Y157855D02*
Y159627D01*
X270098Y153721D02*
Y155493D01*
X265571Y153721D02*
Y155493D01*
X266437Y152835D02*
X269232D01*
X183361Y228802D02*
Y231598D01*
X184247Y232464D02*
X186019D01*
X184247Y227936D02*
X186019D01*
X188381Y232464D02*
X190153D01*
X188381Y227936D02*
X190153D01*
X191039Y228802D02*
Y231598D01*
X100712Y163102D02*
Y165898D01*
X98054Y162236D02*
X99826D01*
X98054Y166764D02*
X99826D01*
X93920Y162236D02*
X95692D01*
X93920Y166764D02*
X95692D01*
X93035Y163102D02*
Y165898D01*
X194250Y211972D02*
X200550D01*
X194250Y193428D02*
X200550D01*
X192676Y206637D02*
Y210397D01*
Y195003D02*
Y198763D01*
X202124Y195003D02*
Y198763D01*
Y206637D02*
Y210397D01*
X287239Y258702D02*
Y261498D01*
X284581Y257836D02*
X286353D01*
X284581Y262364D02*
X286353D01*
X280447Y257836D02*
X282219D01*
X280447Y262364D02*
X282219D01*
X279561Y258702D02*
Y261498D01*
X221861Y185302D02*
Y188098D01*
X222747Y188964D02*
X224519D01*
X222747Y184436D02*
X224519D01*
X226881Y188964D02*
X228653D01*
X226881Y184436D02*
X228653D01*
X229539Y185302D02*
Y188098D01*
X21502Y204812D02*
X24298D01*
X25164Y202154D02*
Y203926D01*
X20636Y202154D02*
Y203926D01*
X25164Y198021D02*
Y199792D01*
X20636Y198021D02*
Y199792D01*
X21502Y197135D02*
X24298D01*
X277676Y229403D02*
Y233163D01*
Y241037D02*
Y244797D01*
X287124Y241037D02*
Y244797D01*
Y229403D02*
Y233163D01*
X279250Y246372D02*
X285550D01*
X279250Y227828D02*
X285550D01*
X201150Y143828D02*
X207450D01*
X201150Y162372D02*
X207450D01*
X209024Y145403D02*
Y149163D01*
Y157037D02*
Y160797D01*
X199576Y157037D02*
Y160797D01*
Y145403D02*
Y149163D01*
X113484Y210362D02*
X119783D01*
X113484Y228906D02*
X119783D01*
X121358Y211937D02*
Y215697D01*
Y223571D02*
Y227331D01*
X111909Y223571D02*
Y227331D01*
Y211937D02*
Y215697D01*
X4350Y148328D02*
X10650D01*
X4350Y166872D02*
X10650D01*
X12224Y149903D02*
Y153663D01*
Y161537D02*
Y165297D01*
X2776Y161537D02*
Y165297D01*
Y149903D02*
Y153663D01*
X288902Y236361D02*
X291698D01*
X288036Y237247D02*
Y239019D01*
X292564Y237247D02*
Y239019D01*
X288036Y241381D02*
Y243153D01*
X292564Y241381D02*
Y243153D01*
X288902Y244039D02*
X291698D01*
X195222Y160050D02*
X198018D01*
X198884Y157393D02*
Y159165D01*
X194356Y157393D02*
Y159165D01*
X198884Y153259D02*
Y155031D01*
X194356Y153259D02*
Y155031D01*
X195222Y152373D02*
X198018D01*
X110739Y225602D02*
Y228398D01*
X108081Y224736D02*
X109853D01*
X108081Y229264D02*
X109853D01*
X103947Y224736D02*
X105719D01*
X103947Y229264D02*
X105719D01*
X103061Y225602D02*
Y228398D01*
X50284Y181132D02*
Y183927D01*
X47626Y180266D02*
X49398D01*
X47626Y184793D02*
X49398D01*
X43492Y180266D02*
X45264D01*
X43492Y184793D02*
X45264D01*
X42607Y181132D02*
Y183927D01*
X283303Y109327D02*
X286098D01*
X282437Y110213D02*
Y111984D01*
X286965Y110213D02*
Y111984D01*
X282437Y114347D02*
Y116118D01*
X286965Y114346D02*
Y116118D01*
X283303Y117004D02*
X286098D01*
X203103Y109327D02*
X205898D01*
X202237Y110213D02*
Y111984D01*
X206765Y110213D02*
Y111984D01*
X202237Y114347D02*
Y116118D01*
X206765Y114346D02*
Y116118D01*
X203103Y117004D02*
X205898D01*
X121703Y109328D02*
X124498D01*
X120837Y110213D02*
Y111985D01*
X125365Y110213D02*
Y111985D01*
X120837Y114347D02*
Y116119D01*
X125365Y114347D02*
Y116119D01*
X121703Y117005D02*
X124498D01*
X40603Y109328D02*
X43398D01*
X39737Y110213D02*
Y111985D01*
X44265Y110213D02*
Y111985D01*
X39737Y114347D02*
Y116119D01*
X44265Y114347D02*
Y116119D01*
X40603Y117005D02*
X43398D01*
X343603Y274373D02*
X346398D01*
X342737Y271716D02*
Y273487D01*
X347265Y271716D02*
Y273487D01*
X342737Y267582D02*
Y269354D01*
X347265Y267582D02*
Y269354D01*
X343603Y266696D02*
X346398D01*
X258765Y206002D02*
Y208798D01*
X256108Y209664D02*
X257879D01*
X256108Y205136D02*
X257879D01*
X251974Y209664D02*
X253746D01*
X251974Y205136D02*
X253746D01*
X251088Y206002D02*
Y208798D01*
X165103Y274373D02*
X167898D01*
X164237Y271716D02*
Y273487D01*
X168765Y271716D02*
Y273487D01*
X164237Y267582D02*
Y269354D01*
X168765Y267582D02*
Y269354D01*
X165103Y266696D02*
X167898D01*
X73238Y212608D02*
X76033D01*
X72372Y209950D02*
Y211722D01*
X76899Y209950D02*
Y211722D01*
X72372Y205817D02*
Y207588D01*
X76899Y205817D02*
Y207588D01*
X73238Y204931D02*
X76033D01*
X348588Y251502D02*
Y254298D01*
X349474Y255164D02*
X351246D01*
X349474Y250636D02*
X351246D01*
X353608Y255164D02*
X355380D01*
X353608Y250636D02*
X355380D01*
X356265Y251502D02*
Y254298D01*
X256562Y189800D02*
Y192595D01*
X257448Y193461D02*
X259220D01*
X257448Y188934D02*
X259220D01*
X261582Y193461D02*
X263354D01*
X261582Y188934D02*
X263354D01*
X264239Y189800D02*
Y192595D01*
X177415Y251728D02*
Y254524D01*
X174757Y250862D02*
X176529D01*
X174757Y255390D02*
X176529D01*
X170624Y250862D02*
X172395D01*
X170624Y255390D02*
X172395D01*
X169738Y251728D02*
Y254524D01*
X77062Y190541D02*
Y193336D01*
X77948Y194202D02*
X79720D01*
X77948Y189675D02*
X79720D01*
X82082Y194202D02*
X83854D01*
X82082Y189675D02*
X83854D01*
X84740Y190541D02*
Y193336D01*
X340723Y231649D02*
X343519D01*
X339857Y232535D02*
Y234307D01*
X344385Y232535D02*
Y234307D01*
X339857Y236669D02*
Y238441D01*
X344385Y236669D02*
Y238441D01*
X340723Y239326D02*
X343519D01*
X252224Y178925D02*
X255020D01*
X255886Y176267D02*
Y178039D01*
X251358Y176267D02*
Y178039D01*
X255886Y172133D02*
Y173905D01*
X251358Y172133D02*
Y173905D01*
X252224Y171247D02*
X255020D01*
X164669Y232677D02*
X167464D01*
X163802Y233563D02*
Y235334D01*
X168330Y233563D02*
Y235334D01*
X163802Y237697D02*
Y239468D01*
X168330Y237697D02*
Y239468D01*
X164669Y240354D02*
X167464D01*
X73272Y169052D02*
X76067D01*
X72406Y169938D02*
Y171709D01*
X76933Y169938D02*
Y171709D01*
X72406Y174072D02*
Y175843D01*
X76933Y174072D02*
Y175843D01*
X73272Y176729D02*
X76067D01*
X313061Y246402D02*
Y249198D01*
X313947Y250064D02*
X315719D01*
X313947Y245536D02*
X315719D01*
X318081Y250064D02*
X319853D01*
X318081Y245536D02*
X319853D01*
X320739Y246402D02*
Y249198D01*
X247724Y178925D02*
X250520D01*
X251386Y176267D02*
Y178039D01*
X246858Y176267D02*
Y178039D01*
X251386Y172133D02*
Y173905D01*
X246858Y172133D02*
Y173905D01*
X247724Y171247D02*
X250520D01*
X160169Y232677D02*
X162964D01*
X159302Y233563D02*
Y235334D01*
X163830Y233563D02*
Y235334D01*
X159302Y237697D02*
Y239468D01*
X163830Y237697D02*
Y239468D01*
X160169Y240354D02*
X162964D01*
X42561Y185702D02*
Y188498D01*
X43447Y189364D02*
X45219D01*
X43447Y184836D02*
X45219D01*
X47581Y189364D02*
X49353D01*
X47581Y184836D02*
X49353D01*
X50239Y185702D02*
Y188498D01*
X330068Y274412D02*
X332864D01*
X329202Y271754D02*
Y273526D01*
X333730Y271754D02*
Y273526D01*
X329202Y267620D02*
Y269392D01*
X333730Y267620D02*
Y269392D01*
X330068Y266735D02*
X332864D01*
X238002Y213012D02*
X240798D01*
X237136Y210354D02*
Y212126D01*
X241664Y210354D02*
Y212126D01*
X237136Y206221D02*
Y207992D01*
X241664Y206221D02*
Y207992D01*
X238002Y205335D02*
X240798D01*
X151568Y274412D02*
X154364D01*
X150702Y271754D02*
Y273526D01*
X155230Y271754D02*
Y273526D01*
X150702Y267620D02*
Y269392D01*
X155230Y267620D02*
Y269392D01*
X151568Y266735D02*
X154364D01*
X59703Y212646D02*
X62498D01*
X58837Y209989D02*
Y211761D01*
X63365Y209989D02*
Y211761D01*
X58837Y205855D02*
Y207627D01*
X63365Y205855D02*
Y207627D01*
X59703Y204969D02*
X62498D01*
X325569Y274412D02*
X328364D01*
X324702Y271754D02*
Y273526D01*
X329230Y271754D02*
Y273526D01*
X324702Y267620D02*
Y269392D01*
X329230Y267620D02*
Y269392D01*
X325569Y266735D02*
X328364D01*
X233653Y213020D02*
X236448D01*
X232787Y210363D02*
Y212134D01*
X237314Y210363D02*
Y212134D01*
X232787Y206229D02*
Y208000D01*
X237314Y206229D02*
Y208000D01*
X233653Y205343D02*
X236448D01*
X147069Y274412D02*
X149864D01*
X146202Y271754D02*
Y273526D01*
X150730Y271754D02*
Y273526D01*
X146202Y267620D02*
Y269392D01*
X150730Y267620D02*
Y269392D01*
X147069Y266735D02*
X149864D01*
X55203Y212646D02*
X57998D01*
X54337Y209989D02*
Y211761D01*
X58865Y209989D02*
Y211761D01*
X54337Y205855D02*
Y207627D01*
X58865Y205855D02*
Y207627D01*
X55203Y204969D02*
X57998D01*
X335037Y239250D02*
X337832D01*
X338698Y236593D02*
Y238365D01*
X334171Y236593D02*
Y238365D01*
X338698Y232459D02*
Y234231D01*
X334171Y232459D02*
Y234231D01*
X335037Y231573D02*
X337832D01*
X234076Y178902D02*
X236872D01*
X237738Y176244D02*
Y178016D01*
X233210Y176244D02*
Y178016D01*
X237738Y172110D02*
Y173882D01*
X233210Y172110D02*
Y173882D01*
X234076Y171225D02*
X236872D01*
X155578Y240391D02*
X158374D01*
X159240Y237734D02*
Y239505D01*
X154712Y237734D02*
Y239505D01*
X159240Y233600D02*
Y235371D01*
X154712Y233600D02*
Y235371D01*
X155578Y232714D02*
X158374D01*
X64152Y169162D02*
X66947D01*
X63286Y170048D02*
Y171819D01*
X67813Y170048D02*
Y171819D01*
X63286Y174181D02*
Y175953D01*
X67813Y174181D02*
Y175953D01*
X64152Y176839D02*
X66947D01*
X326002Y231661D02*
X328798D01*
X325136Y232547D02*
Y234319D01*
X329664Y232547D02*
Y234319D01*
X325136Y236681D02*
Y238453D01*
X329664Y236681D02*
Y238453D01*
X326002Y239339D02*
X328798D01*
X243202Y171235D02*
X245998D01*
X242336Y172120D02*
Y173892D01*
X246864Y172120D02*
Y173892D01*
X242336Y176254D02*
Y178026D01*
X246864Y176254D02*
Y178026D01*
X243202Y178912D02*
X245998D01*
X146371Y232714D02*
X149166D01*
X145505Y233600D02*
Y235371D01*
X150032Y233600D02*
Y235371D01*
X145505Y237734D02*
Y239505D01*
X150032Y237734D02*
Y239505D01*
X146371Y240391D02*
X149166D01*
X55045Y176829D02*
X57840D01*
X58706Y174172D02*
Y175943D01*
X54179Y174172D02*
Y175944D01*
X58706Y170038D02*
Y171810D01*
X54179Y170038D02*
Y171810D01*
X55045Y169152D02*
X57840D01*
X320778Y259998D02*
Y262793D01*
X318121Y259131D02*
X319893D01*
X318121Y263659D02*
X319893D01*
X313987Y259131D02*
X315759D01*
X313987Y263659D02*
X315759D01*
X313101Y259998D02*
Y262793D01*
X229539Y197902D02*
Y200698D01*
X226881Y197036D02*
X228653D01*
X226881Y201564D02*
X228653D01*
X222747Y197036D02*
X224519D01*
X222747Y201564D02*
X224519D01*
X221861Y197902D02*
Y200698D01*
X135266Y257852D02*
Y260647D01*
X136152Y261514D02*
X137923D01*
X136152Y256986D02*
X137923D01*
X140286Y261514D02*
X142057D01*
X140285Y256986D02*
X142057D01*
X142943Y257852D02*
Y260647D01*
X42519Y203637D02*
Y206432D01*
X43405Y207298D02*
X45177D01*
X43405Y202771D02*
X45177D01*
X47539Y207298D02*
X49310D01*
X47539Y202771D02*
X49310D01*
X50196Y203637D02*
Y206432D01*
X320804Y255411D02*
Y258206D01*
X318146Y254545D02*
X319918D01*
X318146Y259072D02*
X319918D01*
X314012Y254545D02*
X315784D01*
X314012Y259072D02*
X315784D01*
X313126Y255411D02*
Y258206D01*
X229546Y193533D02*
Y196329D01*
X226889Y192667D02*
X228660D01*
X226889Y197195D02*
X228660D01*
X222755Y192667D02*
X224527D01*
X222755Y197195D02*
X224527D01*
X221869Y193533D02*
Y196329D01*
X143006Y251932D02*
Y254727D01*
X140348Y251066D02*
X142120D01*
X140348Y255593D02*
X142120D01*
X136214Y251066D02*
X137986D01*
X136214Y255593D02*
X137986D01*
X135328Y251932D02*
Y254727D01*
X42661Y194545D02*
Y197341D01*
X43547Y198207D02*
X45319D01*
X43547Y193679D02*
X45319D01*
X47681Y198207D02*
X49453D01*
X47681Y193679D02*
X49453D01*
X50339Y194545D02*
Y197341D01*
X330502Y239312D02*
X333298D01*
X334164Y236654D02*
Y238426D01*
X329636Y236654D02*
Y238426D01*
X334164Y232521D02*
Y234292D01*
X329636Y232521D02*
Y234292D01*
X330502Y231635D02*
X333298D01*
X238610Y171232D02*
X241405D01*
X237743Y172118D02*
Y173889D01*
X242271Y172118D02*
Y173889D01*
X237743Y176252D02*
Y178023D01*
X242271Y176252D02*
Y178023D01*
X238610Y178909D02*
X241405D01*
X151266Y232760D02*
X154061D01*
X150399Y233646D02*
Y235417D01*
X154927Y233646D02*
Y235417D01*
X150399Y237780D02*
Y239551D01*
X154927Y237780D02*
Y239551D01*
X151265Y240437D02*
X154061D01*
X59619Y176824D02*
X62414D01*
X63280Y174167D02*
Y175939D01*
X58753Y174167D02*
Y175939D01*
X63280Y170033D02*
Y171805D01*
X58753Y170033D02*
Y171805D01*
X59619Y169147D02*
X62414D01*
X313035Y241883D02*
Y244679D01*
X313921Y245545D02*
X315693D01*
X313921Y241017D02*
X315693D01*
X318055Y245545D02*
X319827D01*
X318055Y241017D02*
X319827D01*
X320713Y241883D02*
Y244679D01*
X221816Y180788D02*
Y183583D01*
X222702Y184450D02*
X224473D01*
X222702Y179922D02*
X224473D01*
X226835Y184450D02*
X228607D01*
X226835Y179922D02*
X228607D01*
X229493Y180788D02*
Y183583D01*
X135361Y242802D02*
Y245598D01*
X136247Y246464D02*
X138019D01*
X136247Y241936D02*
X138019D01*
X140381Y246464D02*
X142153D01*
X140381Y241936D02*
X142153D01*
X143039Y242802D02*
Y245598D01*
X42640Y176692D02*
Y179488D01*
X43526Y180354D02*
X45298D01*
X43526Y175826D02*
X45298D01*
X47660Y180354D02*
X49432D01*
X47660Y175826D02*
X49432D01*
X50318Y176692D02*
Y179488D01*
X334603Y274373D02*
X337398D01*
X333737Y271716D02*
Y273487D01*
X338265Y271716D02*
Y273487D01*
X333737Y267582D02*
Y269354D01*
X338265Y267582D02*
Y269354D01*
X334603Y266696D02*
X337398D01*
X242537Y212973D02*
X245332D01*
X241671Y210316D02*
Y212087D01*
X246198Y210316D02*
Y212087D01*
X241671Y206182D02*
Y207954D01*
X246198Y206182D02*
Y207954D01*
X242537Y205296D02*
X245332D01*
X156103Y274373D02*
X158898D01*
X155237Y271716D02*
Y273487D01*
X159765Y271716D02*
Y273487D01*
X155237Y267582D02*
Y269354D01*
X159765Y267582D02*
Y269354D01*
X156103Y266696D02*
X158898D01*
X64238Y212608D02*
X67033D01*
X63372Y209950D02*
Y211722D01*
X67899Y209950D02*
Y211722D01*
X63372Y205817D02*
Y207588D01*
X67899Y205817D02*
Y207588D01*
X64238Y204931D02*
X67033D01*
X339103Y274373D02*
X341898D01*
X338237Y271716D02*
Y273487D01*
X342765Y271716D02*
Y273487D01*
X338237Y267582D02*
Y269354D01*
X342765Y267582D02*
Y269354D01*
X339103Y266696D02*
X341898D01*
X247037Y212973D02*
X249832D01*
X246171Y210316D02*
Y212087D01*
X250698Y210316D02*
Y212087D01*
X246171Y206182D02*
Y207954D01*
X250698Y206182D02*
Y207954D01*
X247037Y205296D02*
X249832D01*
X160603Y274373D02*
X163398D01*
X159737Y271716D02*
Y273487D01*
X164265Y271716D02*
Y273487D01*
X159737Y267582D02*
Y269354D01*
X164265Y267582D02*
Y269354D01*
X160603Y266696D02*
X163398D01*
X68738Y212608D02*
X71533D01*
X67872Y209950D02*
Y211722D01*
X72399Y209950D02*
Y211722D01*
X67872Y205817D02*
Y207588D01*
X72399Y205817D02*
Y207588D01*
X68738Y204931D02*
X71533D01*
X320865Y264497D02*
Y267293D01*
X318207Y263631D02*
X319979D01*
X318207Y268159D02*
X319979D01*
X314073Y263631D02*
X315845D01*
X314073Y268159D02*
X315845D01*
X313188Y264497D02*
Y267293D01*
X229554Y202205D02*
Y205000D01*
X226897Y201339D02*
X228668D01*
X226897Y205866D02*
X228669D01*
X222763Y201339D02*
X224535D01*
X222763Y205866D02*
X224535D01*
X221877Y202205D02*
Y205000D01*
X135234Y262382D02*
Y265177D01*
X136120Y266043D02*
X137892D01*
X136120Y261516D02*
X137892D01*
X140254Y266043D02*
X142026D01*
X140254Y261516D02*
X142026D01*
X142912Y262382D02*
Y265177D01*
X42581Y199097D02*
Y201892D01*
X43467Y202758D02*
X45239D01*
X43467Y198230D02*
X45239D01*
X47601Y202758D02*
X49373D01*
X47601Y198230D02*
X49373D01*
X50258Y199097D02*
Y201892D01*
X315099Y251903D02*
Y253714D01*
X315965Y251037D02*
X317008D01*
X315965Y254580D02*
X317008D01*
X318819Y251037D02*
X319863D01*
X318819Y254580D02*
X319863D01*
X320729Y251903D02*
Y253714D01*
X223842Y190025D02*
Y191837D01*
X224708Y189159D02*
X225751D01*
X224708Y192703D02*
X225751D01*
X227562Y189159D02*
X228605D01*
X227562Y192703D02*
X228605D01*
X229471Y190025D02*
Y191837D01*
X136960Y248437D02*
Y250248D01*
X137826Y247571D02*
X138869D01*
X137826Y251114D02*
X138869D01*
X140680Y247571D02*
X141724D01*
X140680Y251114D02*
X141724D01*
X142590Y248437D02*
Y250248D01*
X49780Y191033D02*
Y192844D01*
X47871Y193710D02*
X48914D01*
X47871Y190167D02*
X48914D01*
X45017Y193710D02*
X46060D01*
X45017Y190167D02*
X46060D01*
X44151Y191033D02*
Y192844D01*
X44275Y254006D02*
Y257628D01*
Y261172D02*
Y264794D01*
X36125Y261172D02*
Y264794D01*
X37700Y266369D02*
X42700D01*
X36125Y254006D02*
Y257628D01*
X37700Y252432D02*
X42700D01*
X45102Y263712D02*
X47898D01*
X44236Y261054D02*
Y262826D01*
X48764Y261054D02*
Y262826D01*
X44236Y256921D02*
Y258692D01*
X48764Y256921D02*
Y258692D01*
X45102Y256035D02*
X47898D01*
X34002Y277992D02*
X36798D01*
X37664Y278878D02*
Y280649D01*
X33136Y278878D02*
Y280649D01*
X37664Y283012D02*
Y284783D01*
X33136Y283012D02*
Y284783D01*
X34002Y285669D02*
X36798D01*
X25810Y295075D02*
Y297969D01*
X21165Y287457D02*
X24235D01*
X21165Y299543D02*
X24235D01*
X25810Y289032D02*
Y291925D01*
X19590Y289032D02*
Y291925D01*
X19590Y295075D02*
Y297969D01*
X15902Y296939D02*
X18698D01*
X15036Y294281D02*
Y296053D01*
X19564Y294281D02*
Y296053D01*
X15036Y290147D02*
Y291919D01*
X19564Y290147D02*
Y291919D01*
X15902Y289261D02*
X18698D01*
X4206Y263825D02*
X7828D01*
X11372D02*
X14994D01*
X11372Y271975D02*
X14994D01*
X16568Y265400D02*
Y270400D01*
X4206Y271975D02*
X7828D01*
X2631Y265400D02*
Y270400D01*
X14039Y260202D02*
Y262998D01*
X11381Y263864D02*
X13153D01*
X11381Y259336D02*
X13153D01*
X7247Y263864D02*
X9019D01*
X7247Y259336D02*
X9019D01*
X6361Y260202D02*
Y262998D01*
X15002Y239161D02*
X17798D01*
X18664Y240047D02*
Y241819D01*
X14136Y240047D02*
Y241819D01*
X18664Y244181D02*
Y245953D01*
X14136Y244181D02*
Y245953D01*
X15002Y246839D02*
X17798D01*
X29410Y245275D02*
Y248168D01*
X24765Y237657D02*
X27835D01*
X24765Y249743D02*
X27835D01*
X29410Y239231D02*
Y242125D01*
X23190Y239231D02*
Y242125D01*
X23190Y245275D02*
Y248168D01*
X10502Y239161D02*
X13298D01*
X14164Y240047D02*
Y241819D01*
X9636Y240047D02*
Y241819D01*
X14164Y244181D02*
Y245953D01*
X9636Y244181D02*
Y245953D01*
X10502Y246839D02*
X13298D01*
X96002Y339061D02*
X98798D01*
X99664Y339947D02*
Y341719D01*
X95136Y339947D02*
Y341719D01*
X99664Y344081D02*
Y345853D01*
X95136Y344081D02*
Y345853D01*
X96002Y346739D02*
X98798D01*
X116664Y357189D02*
Y359984D01*
X117550Y360850D02*
X119322D01*
X117550Y356323D02*
X119322D01*
X121684Y360850D02*
X123455D01*
X121684Y356323D02*
X123455D01*
X124341Y357189D02*
Y359984D01*
X95039Y385378D02*
Y389000D01*
Y378213D02*
Y381835D01*
X103188Y378213D02*
Y381835D01*
X96613Y376638D02*
X101613D01*
X103188Y385378D02*
Y389000D01*
X96613Y390575D02*
X101613D01*
X90602Y388439D02*
X93398D01*
X94264Y385781D02*
Y387553D01*
X89736Y385781D02*
Y387553D01*
X94264Y381647D02*
Y383419D01*
X89736Y381647D02*
Y383419D01*
X90602Y380761D02*
X93398D01*
X338300Y171468D02*
X343300D01*
X344875Y166272D02*
Y169894D01*
X338300Y157531D02*
X343300D01*
X344875Y159106D02*
Y162728D01*
X336725Y159106D02*
Y162728D01*
Y166272D02*
Y169894D01*
X346202Y159961D02*
X348998D01*
X349864Y160847D02*
Y162619D01*
X345336Y160847D02*
Y162619D01*
X349864Y164981D02*
Y166753D01*
X345336Y164981D02*
Y166753D01*
X346202Y167639D02*
X348998D01*
X359402Y190239D02*
X362198D01*
X358536Y187581D02*
Y189353D01*
X363064Y187581D02*
Y189353D01*
X358536Y183447D02*
Y185219D01*
X363064Y183447D02*
Y185219D01*
X359402Y182561D02*
X362198D01*
X339210Y181300D02*
Y184194D01*
X339210Y187343D02*
Y190237D01*
X332990Y187343D02*
Y190237D01*
X334565Y179725D02*
X337635D01*
X334565Y191812D02*
X337635D01*
X332990Y181300D02*
Y184194D01*
X340802Y190239D02*
X343598D01*
X339936Y187581D02*
Y189353D01*
X344464Y187581D02*
Y189353D01*
X339936Y183447D02*
Y185219D01*
X344464Y183447D02*
Y185219D01*
X340802Y182561D02*
X343598D01*
X375802Y163239D02*
X378598D01*
X374936Y160581D02*
Y162353D01*
X379464Y160581D02*
Y162353D01*
X374936Y156447D02*
Y158219D01*
X379464Y156447D02*
Y158219D01*
X375802Y155561D02*
X378598D01*
X349973Y140899D02*
X352768D01*
X353635Y141784D02*
Y143556D01*
X349107Y141784D02*
Y143556D01*
X353635Y145918D02*
Y147690D01*
X349107Y145918D02*
Y147690D01*
X349973Y148576D02*
X352768D01*
X362002Y140761D02*
X364798D01*
X365664Y141647D02*
Y143419D01*
X361136Y141647D02*
Y143419D01*
X365664Y145781D02*
Y147553D01*
X361136Y145781D02*
Y147553D01*
X362002Y148439D02*
X364798D01*
X364502Y177339D02*
X367298D01*
X363636Y174681D02*
Y176453D01*
X368164Y174681D02*
Y176453D01*
X363636Y170547D02*
Y172319D01*
X368164Y170547D02*
Y172319D01*
X364502Y169661D02*
X367298D01*
X348902Y149288D02*
X351698D01*
X352564Y150174D02*
Y151946D01*
X348036Y150174D02*
Y151946D01*
X352564Y154308D02*
Y156079D01*
X348036Y154308D02*
Y156079D01*
X348902Y156965D02*
X351698D01*
X354825Y213790D02*
X366912D01*
Y220010D01*
X354825D02*
X366912D01*
X354825Y213790D02*
Y220010D01*
X278204Y206885D02*
Y218971D01*
X271984D02*
X278204D01*
X271984Y206885D02*
Y218971D01*
Y206885D02*
X278204D01*
X189443Y281390D02*
Y287610D01*
X177357Y281390D02*
X189443D01*
X177357D02*
Y287610D01*
X189443D01*
X97110Y201157D02*
Y213243D01*
X90890D02*
X97110D01*
X90890Y201157D02*
Y213243D01*
Y201157D02*
X97110D01*
X270049Y252686D02*
X276270D01*
X270049D02*
Y264773D01*
X276270D01*
Y252686D02*
Y264773D01*
X212810Y194157D02*
Y206243D01*
X206590D02*
X212810D01*
X206590Y194157D02*
Y206243D01*
Y194157D02*
X212810D01*
X12657Y207790D02*
X24743D01*
Y214010D01*
X12657D02*
X24743D01*
X12657Y207790D02*
Y214010D01*
X327588Y214710D02*
X339675D01*
X327588Y208490D02*
Y214710D01*
Y208490D02*
X339675D01*
Y214710D01*
X271990Y194757D02*
Y206843D01*
Y194757D02*
X278210D01*
Y206843D01*
X271990D02*
X278210D01*
X176191Y234591D02*
Y246677D01*
Y234591D02*
X182411D01*
Y246677D01*
X176191D02*
X182411D01*
X90790Y177757D02*
Y189843D01*
Y177757D02*
X97010D01*
Y189843D01*
X90790D02*
X97010D01*
X270090Y252643D02*
X276310D01*
Y240557D02*
Y252643D01*
X270090Y240557D02*
X276310D01*
X270090D02*
Y252643D01*
X206590Y181457D02*
Y193543D01*
Y181457D02*
X212810D01*
Y193543D01*
X206590D02*
X212810D01*
X173325Y356231D02*
Y370168D01*
Y356231D02*
X181475D01*
X173325Y370168D02*
X181475D01*
Y356231D02*
Y370168D01*
X20006Y256705D02*
X22210D01*
X30990D02*
X33195D01*
X20006Y269895D02*
X22210D01*
X30990D02*
X33195D01*
X20006Y256705D02*
Y257296D01*
Y269304D02*
Y269895D01*
X33195Y256705D02*
Y257296D01*
Y269304D02*
Y269895D01*
X341225Y6094D02*
Y11428D01*
X331776Y24637D02*
X341225D01*
X331776Y6094D02*
X341225D01*
X331776D02*
Y11428D01*
Y19302D02*
Y24637D01*
X341225Y19302D02*
Y24637D01*
X260925Y6094D02*
Y11428D01*
X251476Y24637D02*
X260925D01*
X251476Y6094D02*
X260925D01*
X251476D02*
Y11428D01*
Y19302D02*
Y24637D01*
X260925Y19302D02*
Y24637D01*
X179425Y6094D02*
Y11428D01*
X169976Y24637D02*
X179425D01*
X169976Y6094D02*
X179425D01*
X169976D02*
Y11428D01*
Y19302D02*
Y24637D01*
X179425Y19302D02*
Y24637D01*
X332665Y129827D02*
Y132484D01*
Y134846D02*
Y137504D01*
X328137Y129827D02*
Y132484D01*
Y134846D02*
Y137504D01*
Y129827D02*
X332665D01*
X328137Y137504D02*
X332665D01*
X252465Y129827D02*
Y132484D01*
Y134846D02*
Y137504D01*
X247937Y129827D02*
Y132484D01*
Y134846D02*
Y137504D01*
Y129827D02*
X252465D01*
X247937Y137504D02*
X252465D01*
X171065Y129828D02*
Y132485D01*
Y134847D02*
Y137505D01*
X166537Y129828D02*
Y132485D01*
Y134847D02*
Y137505D01*
Y129828D02*
X171065D01*
X166537Y137505D02*
X171065D01*
X89965Y129828D02*
Y132485D01*
Y134847D02*
Y137505D01*
X85437Y129828D02*
Y132485D01*
Y134847D02*
Y137505D01*
Y129828D02*
X89965D01*
X85437Y137505D02*
X89965D01*
X304865Y129827D02*
Y132484D01*
Y134846D02*
Y137504D01*
X300337Y129827D02*
Y132484D01*
Y134846D02*
Y137504D01*
Y129827D02*
X304865D01*
X300337Y137504D02*
X304865D01*
X224665Y129827D02*
Y132484D01*
Y134846D02*
Y137504D01*
X220137Y129827D02*
Y132484D01*
Y134846D02*
Y137504D01*
Y129827D02*
X224665D01*
X220137Y137504D02*
X224665D01*
X143265Y129828D02*
Y132485D01*
Y134847D02*
Y137505D01*
X138737Y129828D02*
Y132485D01*
Y134847D02*
Y137505D01*
Y129828D02*
X143265D01*
X138737Y137505D02*
X143265D01*
X62165Y129828D02*
Y132485D01*
Y134847D02*
Y137505D01*
X57637Y129828D02*
Y132485D01*
Y134847D02*
Y137505D01*
Y129828D02*
X62165D01*
X57637Y137505D02*
X62165D01*
X27636Y278161D02*
Y280819D01*
Y283181D02*
Y285839D01*
X32164Y278161D02*
Y280819D01*
Y283181D02*
Y285839D01*
X27636Y278161D02*
X32164D01*
X27636Y285839D02*
X32164D01*
X38336Y278161D02*
X42864D01*
X38336Y285839D02*
X42864D01*
X38336Y278161D02*
Y280819D01*
Y283181D02*
Y285839D01*
X42864Y278161D02*
Y280819D01*
Y283181D02*
Y285839D01*
X23164Y244181D02*
Y246839D01*
Y239161D02*
Y241819D01*
X18636Y244181D02*
Y246839D01*
Y239161D02*
Y241819D01*
Y246839D02*
X23164D01*
X18636Y239161D02*
X23164D01*
X10035Y252264D02*
X12692D01*
X15054D02*
X17712D01*
X10035Y247736D02*
X12692D01*
X15054D02*
X17712D01*
X10035D02*
Y252264D01*
X17712Y247736D02*
Y252264D01*
X121684Y366850D02*
X124341D01*
X116664D02*
X119322D01*
X121684Y362323D02*
X124341D01*
X116664D02*
X119322D01*
X124341D02*
Y366850D01*
X116664Y362323D02*
Y366850D01*
Y367823D02*
X119322D01*
X121684D02*
X124341D01*
X116664Y372350D02*
X119322D01*
X121684D02*
X124341D01*
X116664Y367823D02*
Y372350D01*
X124341Y367823D02*
Y372350D01*
X363436Y182561D02*
Y185219D01*
Y187581D02*
Y190239D01*
X367964Y182561D02*
Y185219D01*
Y187581D02*
Y190239D01*
X363436Y182561D02*
X367964D01*
X363436Y190239D02*
X367964D01*
X5225Y289972D02*
Y295168D01*
Y281231D02*
Y286428D01*
X13375Y281231D02*
Y286428D01*
Y289972D02*
Y295168D01*
X5225D02*
X13375D01*
X5225Y281231D02*
X13375D01*
X372864Y187508D02*
Y190165D01*
Y182488D02*
Y185146D01*
X368336Y187508D02*
Y190165D01*
Y182488D02*
Y185146D01*
Y190165D02*
X372864D01*
X368336Y182488D02*
X372864D01*
X340932Y192525D02*
X346128D01*
X349672D02*
X354869D01*
X349672Y200675D02*
X354869D01*
X340932D02*
X346128D01*
X340932Y192525D02*
Y200675D01*
X354869Y192525D02*
Y200675D01*
X377672Y138475D02*
X382869D01*
X368932D02*
X374128D01*
X368932Y130325D02*
X374128D01*
X377672D02*
X382869D01*
Y138475D01*
X368932Y130325D02*
Y138475D01*
X349064Y145881D02*
Y148539D01*
Y140861D02*
Y143519D01*
X344536Y145881D02*
Y148539D01*
Y140861D02*
Y143519D01*
Y148539D02*
X349064D01*
X344536Y140861D02*
X349064D01*
X74432Y381925D02*
X79628D01*
X83172D02*
X88368D01*
X83172Y390075D02*
X88368D01*
X74432D02*
X79628D01*
X74432Y381925D02*
Y390075D01*
X88368Y381925D02*
Y390075D01*
X340036Y140861D02*
Y143519D01*
Y145881D02*
Y148539D01*
X344564Y140861D02*
Y143519D01*
Y145881D02*
Y148539D01*
X340036Y140861D02*
X344564D01*
X340036Y148539D02*
X344564D01*
X368199Y177309D02*
X372727D01*
X368199Y169632D02*
X372727D01*
Y174652D02*
Y177309D01*
Y169632D02*
Y172290D01*
X368199Y174652D02*
Y177309D01*
Y169632D02*
Y172290D01*
X347964Y154281D02*
Y156939D01*
Y149261D02*
Y151919D01*
X343436Y154281D02*
Y156939D01*
Y149261D02*
Y151919D01*
Y156939D02*
X347964D01*
X343436Y149261D02*
X347964D01*
X44402Y350361D02*
X47198D01*
X43536Y351247D02*
Y353019D01*
X48064Y351247D02*
Y353019D01*
X43536Y355381D02*
Y357153D01*
X48064Y355381D02*
Y357153D01*
X44402Y358039D02*
X47198D01*
X48105Y355312D02*
Y357969D01*
Y350292D02*
Y352950D01*
X52633Y355312D02*
Y357969D01*
Y350292D02*
Y352950D01*
X48105Y357969D02*
X52633D01*
X48105Y350292D02*
X52633D01*
X11750Y188728D02*
X18050D01*
X11750Y207272D02*
X18050D01*
X19624Y190303D02*
Y194063D01*
Y201937D02*
Y205697D01*
X10176Y201937D02*
Y205697D01*
Y190303D02*
Y194063D01*
X201138Y254850D02*
Y261150D01*
X182595Y254850D02*
Y261150D01*
X195803Y262724D02*
X199563D01*
X184169D02*
X187929D01*
X184169Y253276D02*
X187929D01*
X195803D02*
X199563D01*
X131017Y290172D02*
X137316D01*
X131017Y271628D02*
X137316D01*
X129442Y284837D02*
Y288597D01*
Y273203D02*
Y276963D01*
X138891Y273203D02*
Y276963D01*
Y284837D02*
Y288597D01*
X321694Y194450D02*
Y200750D01*
X340238Y194450D02*
Y200750D01*
X323269Y192876D02*
X327029D01*
X334903D02*
X338663D01*
X334903Y202324D02*
X338663D01*
X323269D02*
X327029D01*
X290337Y247976D02*
X294097D01*
X278703D02*
X282463D01*
X278703Y257424D02*
X282463D01*
X290337D02*
X294097D01*
X277128Y249550D02*
Y255850D01*
X295672Y249550D02*
Y255850D01*
D14*
X100199Y266599D02*
Y264600D01*
X98699D01*
Y265600D01*
Y264600D01*
X97200D01*
Y269598D02*
Y267599D01*
X99199Y269598D01*
X99699D01*
X100199Y269098D01*
Y268099D01*
X99699Y267599D01*
X96700Y270598D02*
Y272597D01*
X99699Y273597D02*
X100199Y274097D01*
Y275097D01*
X99699Y275596D01*
X99199D01*
X98699Y275097D01*
Y274597D01*
Y275097D01*
X98200Y275596D01*
X97700D01*
X97200Y275097D01*
Y274097D01*
X97700Y273597D01*
X86401Y256299D02*
X86901Y256799D01*
X87900D01*
X88400Y256299D01*
Y254300D01*
X87900Y253800D01*
X86901D01*
X86401Y254300D01*
X83901Y253800D02*
Y256799D01*
X85401Y255299D01*
X83402D01*
X80403Y256799D02*
X81402Y256299D01*
X82402Y255299D01*
Y254300D01*
X81902Y253800D01*
X80902D01*
X80403Y254300D01*
Y254800D01*
X80902Y255299D01*
X82402D01*
X79403Y253300D02*
X77404D01*
X76404Y256299D02*
X75904Y256799D01*
X74904D01*
X74405Y256299D01*
Y255799D01*
X74904Y255299D01*
X75404D01*
X74904D01*
X74405Y254800D01*
Y254300D01*
X74904Y253800D01*
X75904D01*
X76404Y254300D01*
X106199Y240699D02*
Y238700D01*
X104700D01*
Y239700D01*
Y238700D01*
X103200D01*
Y243198D02*
X106199D01*
X104700Y241699D01*
Y243698D01*
X102700Y244698D02*
Y246697D01*
X105699Y247697D02*
X106199Y248197D01*
Y249197D01*
X105699Y249696D01*
X105199D01*
X104700Y249197D01*
Y248697D01*
Y249197D01*
X104200Y249696D01*
X103700D01*
X103200Y249197D01*
Y248197D01*
X103700Y247697D01*
X82499Y234899D02*
X82999Y234400D01*
Y233400D01*
X82499Y232900D01*
X80500D01*
X80000Y233400D01*
Y234400D01*
X80500Y234899D01*
X80000Y237399D02*
X82999D01*
X81499Y235899D01*
Y237898D01*
X82999Y240897D02*
Y238898D01*
X81499D01*
X81999Y239898D01*
Y240398D01*
X81499Y240897D01*
X80500D01*
X80000Y240398D01*
Y239398D01*
X80500Y238898D01*
X79500Y241897D02*
Y243896D01*
X82499Y244896D02*
X82999Y245396D01*
Y246396D01*
X82499Y246896D01*
X81999D01*
X81499Y246396D01*
Y245896D01*
Y246396D01*
X81000Y246896D01*
X80500D01*
X80000Y246396D01*
Y245396D01*
X80500Y244896D01*
X93649Y321200D02*
X94149Y321700D01*
X95148D01*
X95648Y321200D01*
Y319200D01*
X95148Y318701D01*
X94149D01*
X93649Y319200D01*
X92649Y318701D02*
X91650D01*
X92149D01*
Y321700D01*
X92649Y321200D01*
X90150D02*
X89650Y321700D01*
X88651D01*
X88151Y321200D01*
Y319200D01*
X88651Y318701D01*
X89650D01*
X90150Y319200D01*
Y321200D01*
X85152Y321700D02*
X86151Y321200D01*
X87151Y320200D01*
Y319200D01*
X86651Y318701D01*
X85651D01*
X85152Y319200D01*
Y319700D01*
X85651Y320200D01*
X87151D01*
X233199Y235999D02*
X233699Y235500D01*
Y234500D01*
X233199Y234000D01*
X231200D01*
X230700Y234500D01*
Y235500D01*
X231200Y235999D01*
X233199Y236999D02*
X233699Y237499D01*
Y238498D01*
X233199Y238998D01*
X232699D01*
X232200Y238498D01*
Y237999D01*
Y238498D01*
X231700Y238998D01*
X231200D01*
X230700Y238498D01*
Y237499D01*
X231200Y236999D01*
X233699Y239998D02*
Y241997D01*
X233199D01*
X231200Y239998D01*
X230700D01*
X230200Y242997D02*
Y244996D01*
X230700Y247995D02*
Y245996D01*
X232699Y247995D01*
X233199D01*
X233699Y247496D01*
Y246496D01*
X233199Y245996D01*
X274699Y149599D02*
X275199Y149100D01*
Y148100D01*
X274699Y147600D01*
X272700D01*
X272200Y148100D01*
Y149100D01*
X272700Y149599D01*
X272200Y152099D02*
X275199D01*
X273699Y150599D01*
Y152598D01*
X274699Y153598D02*
X275199Y154098D01*
Y155098D01*
X274699Y155597D01*
X274199D01*
X273699Y155098D01*
Y154598D01*
Y155098D01*
X273200Y155597D01*
X272700D01*
X272200Y155098D01*
Y154098D01*
X272700Y153598D01*
X271700Y156597D02*
Y158596D01*
X272200Y161595D02*
Y159596D01*
X274199Y161595D01*
X274699D01*
X275199Y161096D01*
Y160096D01*
X274699Y159596D01*
X294301Y266699D02*
X294800Y267199D01*
X295800D01*
X296300Y266699D01*
Y264700D01*
X295800Y264200D01*
X294800D01*
X294301Y264700D01*
X291802Y264200D02*
Y267199D01*
X293301Y265700D01*
X291302D01*
X288303Y267199D02*
X290302D01*
Y265700D01*
X289302Y266199D01*
X288802D01*
X288303Y265700D01*
Y264700D01*
X288802Y264200D01*
X289802D01*
X290302Y264700D01*
X287303Y263700D02*
X285304D01*
X284304Y264200D02*
X283304D01*
X283804D01*
Y267199D01*
X284304Y266699D01*
X318201Y198999D02*
X318701Y199499D01*
X319700D01*
X320200Y198999D01*
Y197000D01*
X319700Y196500D01*
X318701D01*
X318201Y197000D01*
X315702Y196500D02*
Y199499D01*
X317201Y198000D01*
X315202D01*
X314202Y196500D02*
X313202D01*
X313702D01*
Y199499D01*
X314202Y198999D01*
X311703Y196000D02*
X309703D01*
X308704Y196500D02*
X307704D01*
X308204D01*
Y199499D01*
X308704Y198999D01*
X136501Y293999D02*
X137001Y294499D01*
X138000D01*
X138500Y293999D01*
Y292000D01*
X138000Y291500D01*
X137001D01*
X136501Y292000D01*
X135501Y293999D02*
X135001Y294499D01*
X134001D01*
X133502Y293999D01*
Y293499D01*
X134001Y293000D01*
X134501D01*
X134001D01*
X133502Y292500D01*
Y292000D01*
X134001Y291500D01*
X135001D01*
X135501Y292000D01*
X132502Y293999D02*
X132002Y294499D01*
X131002D01*
X130503Y293999D01*
Y293499D01*
X131002Y293000D01*
X130503Y292500D01*
Y292000D01*
X131002Y291500D01*
X132002D01*
X132502Y292000D01*
Y292500D01*
X132002Y293000D01*
X132502Y293499D01*
Y293999D01*
X132002Y293000D02*
X131002D01*
X129503Y291000D02*
X127504D01*
X126504Y293999D02*
X126004Y294499D01*
X125004D01*
X124504Y293999D01*
Y293499D01*
X125004Y293000D01*
X125504D01*
X125004D01*
X124504Y292500D01*
Y292000D01*
X125004Y291500D01*
X126004D01*
X126504Y292000D01*
X9400Y223600D02*
Y226599D01*
X7901D01*
X7401Y226099D01*
Y225099D01*
X7901Y224600D01*
X9400D01*
X8400D02*
X7401Y223600D01*
X6401Y226099D02*
X5901Y226599D01*
X4901D01*
X4402Y226099D01*
Y225599D01*
X4901Y225099D01*
X5401D01*
X4901D01*
X4402Y224600D01*
Y224100D01*
X4901Y223600D01*
X5901D01*
X6401Y224100D01*
X3402Y226099D02*
X2902Y226599D01*
X1902D01*
X1403Y226099D01*
Y225599D01*
X1902Y225099D01*
X1403Y224600D01*
Y224100D01*
X1902Y223600D01*
X2902D01*
X3402Y224100D01*
Y224600D01*
X2902Y225099D01*
X3402Y225599D01*
Y226099D01*
X2902Y225099D02*
X1902D01*
X199001Y267199D02*
X199501Y267699D01*
X200500D01*
X201000Y267199D01*
Y265200D01*
X200500Y264700D01*
X199501D01*
X199001Y265200D01*
X196501Y264700D02*
Y267699D01*
X198001Y266199D01*
X196002D01*
X195002Y264700D02*
X194002D01*
X194502D01*
Y267699D01*
X195002Y267199D01*
X192503Y264200D02*
X190503D01*
X189504Y267199D02*
X189004Y267699D01*
X188004D01*
X187504Y267199D01*
Y266699D01*
X188004Y266199D01*
X188504D01*
X188004D01*
X187504Y265700D01*
Y265200D01*
X188004Y264700D01*
X189004D01*
X189504Y265200D01*
X16450Y175102D02*
X16949Y174602D01*
Y173602D01*
X16450Y173102D01*
X14450D01*
X13950Y173602D01*
Y174602D01*
X14450Y175102D01*
X13950Y177601D02*
X16949D01*
X15450Y176101D01*
Y178101D01*
X16949Y181100D02*
Y179100D01*
X15450D01*
X15950Y180100D01*
Y180600D01*
X15450Y181100D01*
X14450D01*
X13950Y180600D01*
Y179600D01*
X14450Y179100D01*
X13451Y182099D02*
Y184099D01*
X13950Y186598D02*
X16949D01*
X15450Y185098D01*
Y187098D01*
X342200Y153400D02*
Y156399D01*
X340701D01*
X340201Y155899D01*
Y154900D01*
X340701Y154400D01*
X342200D01*
X341200D02*
X340201Y153400D01*
X337702D02*
Y156399D01*
X339201Y154900D01*
X337202D01*
X334203Y156399D02*
X335202Y155899D01*
X336202Y154900D01*
Y153900D01*
X335702Y153400D01*
X334702D01*
X334203Y153900D01*
Y154400D01*
X334702Y154900D01*
X336202D01*
X378800Y169700D02*
X381799D01*
Y171200D01*
X381299Y171699D01*
X380299D01*
X379800Y171200D01*
Y169700D01*
Y170700D02*
X378800Y171699D01*
Y174199D02*
X381799D01*
X380299Y172699D01*
Y174698D01*
X381799Y177697D02*
Y175698D01*
X380299D01*
X380799Y176698D01*
Y177198D01*
X380299Y177697D01*
X379300D01*
X378800Y177198D01*
Y176198D01*
X379300Y175698D01*
X326000Y140800D02*
X328999D01*
Y142299D01*
X328499Y142799D01*
X327500D01*
X327000Y142299D01*
Y140800D01*
Y141800D02*
X326000Y142799D01*
Y145299D02*
X328999D01*
X327500Y143799D01*
Y145798D01*
X326000Y148298D02*
X328999D01*
X327500Y146798D01*
Y148797D01*
X65100Y382100D02*
Y385099D01*
X63600D01*
X63101Y384599D01*
Y383599D01*
X63600Y383100D01*
X65100D01*
X64100D02*
X63101Y382100D01*
X60601D02*
Y385099D01*
X62101Y383599D01*
X60102D01*
X59102Y384599D02*
X58602Y385099D01*
X57602D01*
X57103Y384599D01*
Y384099D01*
X57602Y383599D01*
X58102D01*
X57602D01*
X57103Y383100D01*
Y382600D01*
X57602Y382100D01*
X58602D01*
X59102Y382600D01*
X330236Y140810D02*
X333235D01*
Y142309D01*
X332735Y142809D01*
X331736D01*
X331236Y142309D01*
Y140810D01*
Y141809D02*
X330236Y142809D01*
Y145308D02*
X333235D01*
X331736Y143809D01*
Y145808D01*
X330236Y146808D02*
Y147808D01*
Y147308D01*
X333235D01*
X332735Y146808D01*
X384700Y130800D02*
X387699D01*
Y132299D01*
X387199Y132799D01*
X386199D01*
X385700Y132299D01*
Y130800D01*
Y131800D02*
X384700Y132799D01*
Y135299D02*
X387699D01*
X386199Y133799D01*
Y135798D01*
X387199Y136798D02*
X387699Y137298D01*
Y138298D01*
X387199Y138797D01*
X385200D01*
X384700Y138298D01*
Y137298D01*
X385200Y136798D01*
X387199D01*
X354500Y202300D02*
Y205299D01*
X353000D01*
X352501Y204799D01*
Y203800D01*
X353000Y203300D01*
X354500D01*
X353500D02*
X352501Y202300D01*
X351501Y204799D02*
X351001Y205299D01*
X350002D01*
X349502Y204799D01*
Y204299D01*
X350002Y203800D01*
X350501D01*
X350002D01*
X349502Y203300D01*
Y202800D01*
X350002Y202300D01*
X351001D01*
X351501Y202800D01*
X348502D02*
X348002Y202300D01*
X347002D01*
X346503Y202800D01*
Y204799D01*
X347002Y205299D01*
X348002D01*
X348502Y204799D01*
Y204299D01*
X348002Y203800D01*
X346503D01*
X369036Y191481D02*
X372035D01*
Y192981D01*
X371535Y193480D01*
X370536D01*
X370036Y192981D01*
Y191481D01*
Y192481D02*
X369036Y193480D01*
X371535Y194480D02*
X372035Y194980D01*
Y195980D01*
X371535Y196479D01*
X371036D01*
X370536Y195980D01*
Y195480D01*
Y195980D01*
X370036Y196479D01*
X369536D01*
X369036Y195980D01*
Y194980D01*
X369536Y194480D01*
X372035Y197479D02*
Y199478D01*
X371535D01*
X369536Y197479D01*
X369036D01*
X13100Y296400D02*
Y299399D01*
X11601D01*
X11101Y298899D01*
Y297900D01*
X11601Y297400D01*
X13100D01*
X12100D02*
X11101Y296400D01*
X10101Y298899D02*
X9601Y299399D01*
X8601D01*
X8102Y298899D01*
Y298399D01*
X8601Y297900D01*
X9101D01*
X8601D01*
X8102Y297400D01*
Y296900D01*
X8601Y296400D01*
X9601D01*
X10101Y296900D01*
X5103Y299399D02*
X6102Y298899D01*
X7102Y297900D01*
Y296900D01*
X6602Y296400D01*
X5602D01*
X5103Y296900D01*
Y297400D01*
X5602Y297900D01*
X7102D01*
X364136Y191481D02*
X367135D01*
Y192981D01*
X366635Y193480D01*
X365636D01*
X365136Y192981D01*
Y191481D01*
Y192481D02*
X364136Y193480D01*
X366635Y194480D02*
X367135Y194980D01*
Y195980D01*
X366635Y196479D01*
X366136D01*
X365636Y195980D01*
Y195480D01*
Y195980D01*
X365136Y196479D01*
X364636D01*
X364136Y195980D01*
Y194980D01*
X364636Y194480D01*
X364136Y198979D02*
X367135D01*
X365636Y197479D01*
Y199478D01*
X133800Y368800D02*
Y371799D01*
X132300D01*
X131801Y371299D01*
Y370300D01*
X132300Y369800D01*
X133800D01*
X132800D02*
X131801Y368800D01*
X130801Y371299D02*
X130301Y371799D01*
X129301D01*
X128802Y371299D01*
Y370799D01*
X129301Y370300D01*
X129801D01*
X129301D01*
X128802Y369800D01*
Y369300D01*
X129301Y368800D01*
X130301D01*
X130801Y369300D01*
X125803Y368800D02*
X127802D01*
X125803Y370799D01*
Y371299D01*
X126302Y371799D01*
X127302D01*
X127802Y371299D01*
X133700Y363500D02*
Y366499D01*
X132201D01*
X131701Y365999D01*
Y365000D01*
X132201Y364500D01*
X133700D01*
X132700D02*
X131701Y363500D01*
X130701Y365999D02*
X130201Y366499D01*
X129201D01*
X128702Y365999D01*
Y365499D01*
X129201Y365000D01*
X129701D01*
X129201D01*
X128702Y364500D01*
Y364000D01*
X129201Y363500D01*
X130201D01*
X130701Y364000D01*
X127702Y365999D02*
X127202Y366499D01*
X126202D01*
X125703Y365999D01*
Y364000D01*
X126202Y363500D01*
X127202D01*
X127702Y364000D01*
Y365999D01*
X17900Y253900D02*
Y256899D01*
X16400D01*
X15901Y256399D01*
Y255399D01*
X16400Y254900D01*
X17900D01*
X16900D02*
X15901Y253900D01*
X12902D02*
X14901D01*
X12902Y255899D01*
Y256399D01*
X13401Y256899D01*
X14401D01*
X14901Y256399D01*
X11902Y254400D02*
X11402Y253900D01*
X10402D01*
X9903Y254400D01*
Y256399D01*
X10402Y256899D01*
X11402D01*
X11902Y256399D01*
Y255899D01*
X11402Y255399D01*
X9903D01*
X19300Y247700D02*
X22299D01*
Y249200D01*
X21799Y249699D01*
X20799D01*
X20300Y249200D01*
Y247700D01*
Y248700D02*
X19300Y249699D01*
Y252698D02*
Y250699D01*
X21299Y252698D01*
X21799D01*
X22299Y252199D01*
Y251199D01*
X21799Y250699D01*
Y253698D02*
X22299Y254198D01*
Y255198D01*
X21799Y255697D01*
X21299D01*
X20799Y255198D01*
X20300Y255697D01*
X19800D01*
X19300Y255198D01*
Y254198D01*
X19800Y253698D01*
X20300D01*
X20799Y254198D01*
X21299Y253698D01*
X21799D01*
X20799Y254198D02*
Y255198D01*
X53100Y278300D02*
X56099D01*
Y279800D01*
X55599Y280299D01*
X54599D01*
X54100Y279800D01*
Y278300D01*
Y279300D02*
X53100Y280299D01*
Y283298D02*
Y281299D01*
X55099Y283298D01*
X55599D01*
X56099Y282799D01*
Y281799D01*
X55599Y281299D01*
X56099Y284298D02*
Y286297D01*
X55599D01*
X53600Y284298D01*
X53100D01*
X44000Y278400D02*
X46999D01*
Y279900D01*
X46499Y280399D01*
X45500D01*
X45000Y279900D01*
Y278400D01*
Y279400D02*
X44000Y280399D01*
Y283398D02*
Y281399D01*
X45999Y283398D01*
X46499D01*
X46999Y282898D01*
Y281899D01*
X46499Y281399D01*
X46999Y286397D02*
X46499Y285398D01*
X45500Y284398D01*
X44500D01*
X44000Y284898D01*
Y285898D01*
X44500Y286397D01*
X45000D01*
X45500Y285898D01*
Y284398D01*
X61700Y138900D02*
Y141899D01*
X60201D01*
X59701Y141399D01*
Y140400D01*
X60201Y139900D01*
X61700D01*
X60700D02*
X59701Y138900D01*
X58701D02*
X57701D01*
X58201D01*
Y141899D01*
X58701Y141399D01*
X54202Y138900D02*
X56202D01*
X54202Y140899D01*
Y141399D01*
X54702Y141899D01*
X55702D01*
X56202Y141399D01*
X53203Y138400D02*
X51203D01*
X48704Y138900D02*
Y141899D01*
X50204Y140400D01*
X48204D01*
X142900Y139600D02*
Y142599D01*
X141401D01*
X140901Y142099D01*
Y141100D01*
X141401Y140600D01*
X142900D01*
X141900D02*
X140901Y139600D01*
X139901D02*
X138901D01*
X139401D01*
Y142599D01*
X139901Y142099D01*
X135402Y139600D02*
X137402D01*
X135402Y141599D01*
Y142099D01*
X135902Y142599D01*
X136902D01*
X137402Y142099D01*
X134403Y139100D02*
X132403D01*
X131404Y142099D02*
X130904Y142599D01*
X129904D01*
X129404Y142099D01*
Y141599D01*
X129904Y141100D01*
X130404D01*
X129904D01*
X129404Y140600D01*
Y140100D01*
X129904Y139600D01*
X130904D01*
X131404Y140100D01*
X224500Y139900D02*
Y142899D01*
X223001D01*
X222501Y142399D01*
Y141400D01*
X223001Y140900D01*
X224500D01*
X223500D02*
X222501Y139900D01*
X221501D02*
X220501D01*
X221001D01*
Y142899D01*
X221501Y142399D01*
X217002Y139900D02*
X219002D01*
X217002Y141899D01*
Y142399D01*
X217502Y142899D01*
X218502D01*
X219002Y142399D01*
X216003Y139400D02*
X214003D01*
X211004Y139900D02*
X213004D01*
X211004Y141899D01*
Y142399D01*
X211504Y142899D01*
X212504D01*
X213004Y142399D01*
X306500Y130500D02*
X309499D01*
Y132000D01*
X308999Y132499D01*
X307999D01*
X307500Y132000D01*
Y130500D01*
Y131500D02*
X306500Y132499D01*
Y133499D02*
Y134499D01*
Y133999D01*
X309499D01*
X308999Y133499D01*
X306500Y137998D02*
Y135998D01*
X308499Y137998D01*
X308999D01*
X309499Y137498D01*
Y136498D01*
X308999Y135998D01*
X306000Y138997D02*
Y140997D01*
X306500Y141996D02*
Y142996D01*
Y142496D01*
X309499D01*
X308999Y141996D01*
X89900Y139300D02*
Y142299D01*
X88401D01*
X87901Y141799D01*
Y140799D01*
X88401Y140300D01*
X89900D01*
X88900D02*
X87901Y139300D01*
X86901D02*
X85901D01*
X86401D01*
Y142299D01*
X86901Y141799D01*
X84402Y139300D02*
X83402D01*
X83902D01*
Y142299D01*
X84402Y141799D01*
X81903Y138800D02*
X79903D01*
X77404Y139300D02*
Y142299D01*
X78904Y140799D01*
X76904D01*
X170600Y139900D02*
Y142899D01*
X169100D01*
X168601Y142399D01*
Y141400D01*
X169100Y140900D01*
X170600D01*
X169600D02*
X168601Y139900D01*
X167601D02*
X166601D01*
X167101D01*
Y142899D01*
X167601Y142399D01*
X165102Y139900D02*
X164102D01*
X164602D01*
Y142899D01*
X165102Y142399D01*
X162603Y139400D02*
X160603D01*
X159604Y142399D02*
X159104Y142899D01*
X158104D01*
X157604Y142399D01*
Y141899D01*
X158104Y141400D01*
X158604D01*
X158104D01*
X157604Y140900D01*
Y140400D01*
X158104Y139900D01*
X159104D01*
X159604Y140400D01*
X252000Y139600D02*
Y142599D01*
X250500D01*
X250001Y142099D01*
Y141100D01*
X250500Y140600D01*
X252000D01*
X251000D02*
X250001Y139600D01*
X249001D02*
X248001D01*
X248501D01*
Y142599D01*
X249001Y142099D01*
X246502Y139600D02*
X245502D01*
X246002D01*
Y142599D01*
X246502Y142099D01*
X244003Y139100D02*
X242003D01*
X239004Y139600D02*
X241004D01*
X239004Y141599D01*
Y142099D01*
X239504Y142599D01*
X240504D01*
X241004Y142099D01*
X346100Y130500D02*
Y133499D01*
X344601D01*
X344101Y132999D01*
Y132000D01*
X344601Y131500D01*
X346100D01*
X345100D02*
X344101Y130500D01*
X343101D02*
X342101D01*
X342601D01*
Y133499D01*
X343101Y132999D01*
X340602Y130500D02*
X339602D01*
X340102D01*
Y133499D01*
X340602Y132999D01*
X338103Y130000D02*
X336103D01*
X335104Y130500D02*
X334104D01*
X334604D01*
Y133499D01*
X335104Y132999D01*
X83600Y6000D02*
X86599D01*
Y7500D01*
X86099Y7999D01*
X85100D01*
X84600Y7500D01*
Y6000D01*
Y7000D02*
X83600Y7999D01*
Y8999D02*
Y9999D01*
Y9499D01*
X86599D01*
X86099Y8999D01*
Y11498D02*
X86599Y11998D01*
Y12998D01*
X86099Y13498D01*
X84100D01*
X83600Y12998D01*
Y11998D01*
X84100Y11498D01*
X86099D01*
X83100Y14497D02*
Y16497D01*
X83600Y18996D02*
X86599D01*
X85100Y17496D01*
Y19496D01*
X165000Y6100D02*
X167999D01*
Y7599D01*
X167499Y8099D01*
X166499D01*
X166000Y7599D01*
Y6100D01*
Y7100D02*
X165000Y8099D01*
Y9099D02*
Y10099D01*
Y9599D01*
X167999D01*
X167499Y9099D01*
Y11598D02*
X167999Y12098D01*
Y13098D01*
X167499Y13598D01*
X165500D01*
X165000Y13098D01*
Y12098D01*
X165500Y11598D01*
X167499D01*
X164500Y14597D02*
Y16597D01*
X167499Y17596D02*
X167999Y18096D01*
Y19096D01*
X167499Y19596D01*
X166999D01*
X166499Y19096D01*
Y18596D01*
Y19096D01*
X166000Y19596D01*
X165500D01*
X165000Y19096D01*
Y18096D01*
X165500Y17596D01*
X246800Y6100D02*
X249799D01*
Y7599D01*
X249299Y8099D01*
X248300D01*
X247800Y7599D01*
Y6100D01*
Y7100D02*
X246800Y8099D01*
Y9099D02*
Y10099D01*
Y9599D01*
X249799D01*
X249299Y9099D01*
Y11598D02*
X249799Y12098D01*
Y13098D01*
X249299Y13598D01*
X247300D01*
X246800Y13098D01*
Y12098D01*
X247300Y11598D01*
X249299D01*
X246300Y14597D02*
Y16597D01*
X246800Y19596D02*
Y17596D01*
X248799Y19596D01*
X249299D01*
X249799Y19096D01*
Y18096D01*
X249299Y17596D01*
X326400Y6200D02*
X329399D01*
Y7700D01*
X328899Y8199D01*
X327900D01*
X327400Y7700D01*
Y6200D01*
Y7200D02*
X326400Y8199D01*
Y9199D02*
Y10199D01*
Y9699D01*
X329399D01*
X328899Y9199D01*
Y11698D02*
X329399Y12198D01*
Y13198D01*
X328899Y13698D01*
X326900D01*
X326400Y13198D01*
Y12198D01*
X326900Y11698D01*
X328899D01*
X325900Y14697D02*
Y16697D01*
X326400Y17696D02*
Y18696D01*
Y18196D01*
X329399D01*
X328899Y17696D01*
X86200Y375899D02*
Y372900D01*
X84201D01*
X83201D02*
X82201D01*
X82701D01*
Y375899D01*
X83201Y375399D01*
X360400Y173899D02*
X359400D01*
X359900D01*
Y170900D01*
X360400D01*
X359400D01*
X355902Y173399D02*
X356401Y173899D01*
X357401D01*
X357901Y173399D01*
Y171400D01*
X357401Y170900D01*
X356401D01*
X355902Y171400D01*
X354902Y173899D02*
X352902D01*
Y173399D01*
X354902Y171400D01*
Y170900D01*
X102300Y335299D02*
X101300D01*
X101800D01*
Y332300D01*
X102300D01*
X101300D01*
X97802Y334799D02*
X98301Y335299D01*
X99301D01*
X99801Y334799D01*
Y332800D01*
X99301Y332300D01*
X98301D01*
X97802Y332800D01*
X94802Y335299D02*
X95802Y334799D01*
X96802Y333800D01*
Y332800D01*
X96302Y332300D01*
X95302D01*
X94802Y332800D01*
Y333300D01*
X95302Y333800D01*
X96802D01*
X32100Y255699D02*
X31100D01*
X31600D01*
Y252700D01*
X32100D01*
X31100D01*
X27602Y255199D02*
X28101Y255699D01*
X29101D01*
X29601Y255199D01*
Y253200D01*
X29101Y252700D01*
X28101D01*
X27602Y253200D01*
X25102Y252700D02*
Y255699D01*
X26602Y254200D01*
X24602D01*
X383499Y142499D02*
Y140500D01*
X381999D01*
Y141500D01*
Y140500D01*
X380500D01*
X383499Y143499D02*
X380500D01*
Y144999D01*
X381000Y145498D01*
X381500D01*
X381999Y144999D01*
Y143499D01*
Y144999D01*
X382499Y145498D01*
X382999D01*
X383499Y144999D01*
Y143499D01*
Y148497D02*
X382999Y147498D01*
X381999Y146498D01*
X381000D01*
X380500Y146998D01*
Y147998D01*
X381000Y148497D01*
X381500D01*
X381999Y147998D01*
Y146498D01*
X341801Y177299D02*
X343800D01*
Y175800D01*
X342800D01*
X343800D01*
Y174300D01*
X340801Y177299D02*
Y174300D01*
X339301D01*
X338802Y174800D01*
Y175300D01*
X339301Y175800D01*
X340801D01*
X339301D01*
X338802Y176299D01*
Y176799D01*
X339301Y177299D01*
X340801D01*
X335803D02*
X337802D01*
Y175800D01*
X336802Y176299D01*
X336302D01*
X335803Y175800D01*
Y174800D01*
X336302Y174300D01*
X337302D01*
X337802Y174800D01*
X49501Y250799D02*
X51500D01*
Y249300D01*
X50500D01*
X51500D01*
Y247800D01*
X48501Y250799D02*
Y247800D01*
X47001D01*
X46502Y248300D01*
Y248800D01*
X47001Y249300D01*
X48501D01*
X47001D01*
X46502Y249799D01*
Y250299D01*
X47001Y250799D01*
X48501D01*
X44002Y247800D02*
Y250799D01*
X45502Y249300D01*
X43503D01*
X33901Y276899D02*
X35900D01*
Y275399D01*
X34900D01*
X35900D01*
Y273900D01*
X32901Y276899D02*
Y273900D01*
X31401D01*
X30902Y274400D01*
Y274900D01*
X31401Y275399D01*
X32901D01*
X31401D01*
X30902Y275899D01*
Y276399D01*
X31401Y276899D01*
X32901D01*
X29902Y276399D02*
X29402Y276899D01*
X28402D01*
X27903Y276399D01*
Y275899D01*
X28402Y275399D01*
X28902D01*
X28402D01*
X27903Y274900D01*
Y274400D01*
X28402Y273900D01*
X29402D01*
X29902Y274400D01*
X284001Y384199D02*
X286000D01*
Y382699D01*
X285000D01*
X286000D01*
Y381200D01*
X283001Y384199D02*
Y381200D01*
X281502D01*
X281002Y381700D01*
Y382200D01*
X281502Y382699D01*
X283001D01*
X281502D01*
X281002Y383199D01*
Y383699D01*
X281502Y384199D01*
X283001D01*
X278003Y381200D02*
X280002D01*
X278003Y383199D01*
Y383699D01*
X278502Y384199D01*
X279502D01*
X280002Y383699D01*
X173301Y374899D02*
X175300D01*
Y373399D01*
X174300D01*
X175300D01*
Y371900D01*
X172301Y374899D02*
Y371900D01*
X170801D01*
X170302Y372400D01*
Y372900D01*
X170801Y373399D01*
X172301D01*
X170801D01*
X170302Y373899D01*
Y374399D01*
X170801Y374899D01*
X172301D01*
X169302Y371900D02*
X168302D01*
X168802D01*
Y374899D01*
X169302Y374399D01*
X7899Y184799D02*
Y182800D01*
X6400D01*
Y183800D01*
Y182800D01*
X4900D01*
Y187299D02*
X7899D01*
X6400Y185799D01*
Y187798D01*
X4400Y188798D02*
Y190797D01*
X4900Y193297D02*
X7899D01*
X6400Y191797D01*
Y193796D01*
X217999Y183799D02*
Y181800D01*
X216499D01*
Y182800D01*
Y181800D01*
X215000D01*
Y186299D02*
X217999D01*
X216499Y184799D01*
Y186798D01*
X214500Y187798D02*
Y189797D01*
X215000Y192796D02*
Y190797D01*
X216999Y192796D01*
X217499D01*
X217999Y192297D01*
Y191297D01*
X217499Y190797D01*
X268899Y243399D02*
Y241400D01*
X267400D01*
Y242400D01*
Y241400D01*
X265900D01*
Y245899D02*
X268899D01*
X267400Y244399D01*
Y246398D01*
X265400Y247398D02*
Y249397D01*
X265900Y250397D02*
Y251397D01*
Y250897D01*
X268899D01*
X268399Y250397D01*
X101899Y180699D02*
Y178700D01*
X100399D01*
Y179700D01*
Y178700D01*
X98900D01*
X101399Y181699D02*
X101899Y182199D01*
Y183199D01*
X101399Y183698D01*
X100899D01*
X100399Y183199D01*
Y182699D01*
Y183199D01*
X99900Y183698D01*
X99400D01*
X98900Y183199D01*
Y182199D01*
X99400Y181699D01*
X98400Y184698D02*
Y186697D01*
X98900Y189197D02*
X101899D01*
X100399Y187697D01*
Y189696D01*
X175099Y236999D02*
Y235000D01*
X173600D01*
Y236000D01*
Y235000D01*
X172100D01*
X174599Y237999D02*
X175099Y238499D01*
Y239498D01*
X174599Y239998D01*
X174099D01*
X173600Y239498D01*
Y238999D01*
Y239498D01*
X173100Y239998D01*
X172600D01*
X172100Y239498D01*
Y238499D01*
X172600Y237999D01*
X171600Y240998D02*
Y242997D01*
X174599Y243997D02*
X175099Y244497D01*
Y245497D01*
X174599Y245996D01*
X174099D01*
X173600Y245497D01*
Y244997D01*
Y245497D01*
X173100Y245996D01*
X172600D01*
X172100Y245497D01*
Y244497D01*
X172600Y243997D01*
X270599Y196799D02*
Y194800D01*
X269099D01*
Y195800D01*
Y194800D01*
X267600D01*
X270099Y197799D02*
X270599Y198299D01*
Y199299D01*
X270099Y199798D01*
X269599D01*
X269099Y199299D01*
Y198799D01*
Y199299D01*
X268600Y199798D01*
X268100D01*
X267600Y199299D01*
Y198299D01*
X268100Y197799D01*
X267100Y200798D02*
Y202797D01*
X267600Y205796D02*
Y203797D01*
X269599Y205796D01*
X270099D01*
X270599Y205297D01*
Y204297D01*
X270099Y203797D01*
X349401Y213499D02*
X351400D01*
Y212000D01*
X350400D01*
X351400D01*
Y210500D01*
X348401Y212999D02*
X347901Y213499D01*
X346901D01*
X346402Y212999D01*
Y212499D01*
X346901Y212000D01*
X347401D01*
X346901D01*
X346402Y211500D01*
Y211000D01*
X346901Y210500D01*
X347901D01*
X348401Y211000D01*
X345402Y210000D02*
X343403D01*
X342403Y210500D02*
X341403D01*
X341903D01*
Y213499D01*
X342403Y212999D01*
X22701Y218899D02*
X24700D01*
Y217400D01*
X23700D01*
X24700D01*
Y215900D01*
X19702D02*
X21701D01*
X19702Y217899D01*
Y218399D01*
X20201Y218899D01*
X21201D01*
X21701Y218399D01*
X18702Y215400D02*
X16703D01*
X14203Y215900D02*
Y218899D01*
X15703Y217400D01*
X13704D01*
X218099Y196799D02*
Y194800D01*
X216599D01*
Y195800D01*
Y194800D01*
X215100D01*
Y199798D02*
Y197799D01*
X217099Y199798D01*
X217599D01*
X218099Y199299D01*
Y198299D01*
X217599Y197799D01*
X214600Y200798D02*
Y202797D01*
X215100Y205796D02*
Y203797D01*
X217099Y205796D01*
X217599D01*
X218099Y205297D01*
Y204297D01*
X217599Y203797D01*
X268999Y256299D02*
Y254300D01*
X267499D01*
Y255300D01*
Y254300D01*
X266000D01*
Y259298D02*
Y257299D01*
X267999Y259298D01*
X268499D01*
X268999Y258799D01*
Y257799D01*
X268499Y257299D01*
X265500Y260298D02*
Y262297D01*
X266000Y263297D02*
Y264297D01*
Y263797D01*
X268999D01*
X268499Y263297D01*
X101799Y203899D02*
Y201900D01*
X100300D01*
Y202900D01*
Y201900D01*
X98800D01*
Y204899D02*
Y205899D01*
Y205399D01*
X101799D01*
X101299Y204899D01*
X98300Y207398D02*
Y209398D01*
X98800Y211897D02*
X101799D01*
X100300Y210397D01*
Y212397D01*
X199801Y285799D02*
X201800D01*
Y284299D01*
X200800D01*
X201800D01*
Y282800D01*
X198801D02*
X197801D01*
X198301D01*
Y285799D01*
X198801Y285299D01*
X196302Y282300D02*
X194302D01*
X193303Y285299D02*
X192803Y285799D01*
X191803D01*
X191303Y285299D01*
Y284799D01*
X191803Y284299D01*
X192303D01*
X191803D01*
X191303Y283800D01*
Y283300D01*
X191803Y282800D01*
X192803D01*
X193303Y283300D01*
X270599Y209599D02*
Y207600D01*
X269099D01*
Y208600D01*
Y207600D01*
X267600D01*
Y210599D02*
Y211599D01*
Y211099D01*
X270599D01*
X270099Y210599D01*
X267100Y213098D02*
Y215098D01*
X267600Y218097D02*
Y216097D01*
X269599Y218097D01*
X270099D01*
X270599Y217597D01*
Y216597D01*
X270099Y216097D01*
X364701Y224699D02*
X366700D01*
Y223200D01*
X365700D01*
X366700D01*
Y221700D01*
X363701D02*
X362701D01*
X363201D01*
Y224699D01*
X363701Y224199D01*
X361202Y221200D02*
X359202D01*
X358203Y221700D02*
X357203D01*
X357703D01*
Y224699D01*
X358203Y224199D01*
X353699Y160599D02*
X354199Y160099D01*
Y159100D01*
X353699Y158600D01*
X351700D01*
X351200Y159100D01*
Y160099D01*
X351700Y160599D01*
X351200Y161599D02*
Y162599D01*
Y162099D01*
X354199D01*
X353699Y161599D01*
Y164098D02*
X354199Y164598D01*
Y165598D01*
X353699Y166098D01*
X351700D01*
X351200Y165598D01*
Y164598D01*
X351700Y164098D01*
X353699D01*
X351200Y169097D02*
Y167097D01*
X353199Y169097D01*
X353699D01*
X354199Y168597D01*
Y167597D01*
X353699Y167097D01*
X376799Y171599D02*
X377299Y171099D01*
Y170100D01*
X376799Y169600D01*
X374800D01*
X374300Y170100D01*
Y171099D01*
X374800Y171599D01*
X374300Y172599D02*
Y173599D01*
Y173099D01*
X377299D01*
X376799Y172599D01*
Y175098D02*
X377299Y175598D01*
Y176598D01*
X376799Y177098D01*
X374800D01*
X374300Y176598D01*
Y175598D01*
X374800Y175098D01*
X376799D01*
X374300Y178097D02*
Y179097D01*
Y178597D01*
X377299D01*
X376799Y178097D01*
X364899Y130999D02*
X365399Y130499D01*
Y129500D01*
X364899Y129000D01*
X362900D01*
X362400Y129500D01*
Y130499D01*
X362900Y130999D01*
X362400Y131999D02*
Y132999D01*
Y132499D01*
X365399D01*
X364899Y131999D01*
Y134498D02*
X365399Y134998D01*
Y135998D01*
X364899Y136498D01*
X362900D01*
X362400Y135998D01*
Y134998D01*
X362900Y134498D01*
X364899D01*
Y137497D02*
X365399Y137997D01*
Y138997D01*
X364899Y139497D01*
X362900D01*
X362400Y138997D01*
Y137997D01*
X362900Y137497D01*
X364899D01*
X358899Y132199D02*
X359399Y131700D01*
Y130700D01*
X358899Y130200D01*
X356900D01*
X356400Y130700D01*
Y131700D01*
X356900Y132199D01*
Y133199D02*
X356400Y133699D01*
Y134699D01*
X356900Y135198D01*
X358899D01*
X359399Y134699D01*
Y133699D01*
X358899Y133199D01*
X358399D01*
X357899Y133699D01*
Y135198D01*
X356900Y136198D02*
X356400Y136698D01*
Y137698D01*
X356900Y138197D01*
X358899D01*
X359399Y137698D01*
Y136698D01*
X358899Y136198D01*
X358399D01*
X357899Y136698D01*
Y138197D01*
X337399Y142699D02*
X337899Y142200D01*
Y141200D01*
X337399Y140700D01*
X335400D01*
X334900Y141200D01*
Y142200D01*
X335400Y142699D01*
Y143699D02*
X334900Y144199D01*
Y145199D01*
X335400Y145698D01*
X337399D01*
X337899Y145199D01*
Y144199D01*
X337399Y143699D01*
X336899D01*
X336400Y144199D01*
Y145698D01*
X337399Y146698D02*
X337899Y147198D01*
Y148198D01*
X337399Y148697D01*
X336899D01*
X336400Y148198D01*
X335900Y148697D01*
X335400D01*
X334900Y148198D01*
Y147198D01*
X335400Y146698D01*
X335900D01*
X336400Y147198D01*
X336899Y146698D01*
X337399D01*
X336400Y147198D02*
Y148198D01*
X377501Y166899D02*
X378000Y167399D01*
X379000D01*
X379500Y166899D01*
Y164900D01*
X379000Y164400D01*
X378000D01*
X377501Y164900D01*
X376501D02*
X376001Y164400D01*
X375002D01*
X374502Y164900D01*
Y166899D01*
X375002Y167399D01*
X376001D01*
X376501Y166899D01*
Y166399D01*
X376001Y165900D01*
X374502D01*
X373502Y167399D02*
X371503D01*
Y166899D01*
X373502Y164900D01*
Y164400D01*
X392099Y158899D02*
X392599Y158399D01*
Y157400D01*
X392099Y156900D01*
X390100D01*
X389600Y157400D01*
Y158399D01*
X390100Y158899D01*
Y159899D02*
X389600Y160399D01*
Y161399D01*
X390100Y161898D01*
X392099D01*
X392599Y161399D01*
Y160399D01*
X392099Y159899D01*
X391599D01*
X391100Y160399D01*
Y161898D01*
X392599Y164897D02*
X392099Y163898D01*
X391100Y162898D01*
X390100D01*
X389600Y163398D01*
Y164398D01*
X390100Y164897D01*
X390600D01*
X391100Y164398D01*
Y162898D01*
X330899Y183799D02*
X331399Y183300D01*
Y182300D01*
X330899Y181800D01*
X328900D01*
X328400Y182300D01*
Y183300D01*
X328900Y183799D01*
Y184799D02*
X328400Y185299D01*
Y186299D01*
X328900Y186798D01*
X330899D01*
X331399Y186299D01*
Y185299D01*
X330899Y184799D01*
X330399D01*
X329900Y185299D01*
Y186798D01*
X331399Y189797D02*
Y187798D01*
X329900D01*
X330399Y188798D01*
Y189298D01*
X329900Y189797D01*
X328900D01*
X328400Y189298D01*
Y188298D01*
X328900Y187798D01*
X326799Y183999D02*
X327299Y183500D01*
Y182500D01*
X326799Y182000D01*
X324800D01*
X324300Y182500D01*
Y183500D01*
X324800Y183999D01*
Y184999D02*
X324300Y185499D01*
Y186499D01*
X324800Y186998D01*
X326799D01*
X327299Y186499D01*
Y185499D01*
X326799Y184999D01*
X326299D01*
X325799Y185499D01*
Y186998D01*
X324300Y189498D02*
X327299D01*
X325799Y187998D01*
Y189997D01*
X361735Y193480D02*
X362235Y192981D01*
Y191981D01*
X361735Y191481D01*
X359736D01*
X359236Y191981D01*
Y192981D01*
X359736Y193480D01*
Y194480D02*
X359236Y194980D01*
Y195980D01*
X359736Y196479D01*
X361735D01*
X362235Y195980D01*
Y194980D01*
X361735Y194480D01*
X361236D01*
X360736Y194980D01*
Y196479D01*
X361735Y197479D02*
X362235Y197979D01*
Y198979D01*
X361735Y199478D01*
X361236D01*
X360736Y198979D01*
Y198479D01*
Y198979D01*
X360236Y199478D01*
X359736D01*
X359236Y198979D01*
Y197979D01*
X359736Y197479D01*
X348899Y170599D02*
X349399Y170099D01*
Y169100D01*
X348899Y168600D01*
X346900D01*
X346400Y169100D01*
Y170099D01*
X346900Y170599D01*
Y171599D02*
X346400Y172099D01*
Y173099D01*
X346900Y173598D01*
X348899D01*
X349399Y173099D01*
Y172099D01*
X348899Y171599D01*
X348399D01*
X347900Y172099D01*
Y173598D01*
X346400Y176597D02*
Y174598D01*
X348399Y176597D01*
X348899D01*
X349399Y176098D01*
Y175098D01*
X348899Y174598D01*
X335099Y166799D02*
X335599Y166299D01*
Y165300D01*
X335099Y164800D01*
X333100D01*
X332600Y165300D01*
Y166299D01*
X333100Y166799D01*
Y167799D02*
X332600Y168299D01*
Y169299D01*
X333100Y169798D01*
X335099D01*
X335599Y169299D01*
Y168299D01*
X335099Y167799D01*
X334599D01*
X334100Y168299D01*
Y169798D01*
X332600Y170798D02*
Y171798D01*
Y171298D01*
X335599D01*
X335099Y170798D01*
X68799Y383899D02*
X69299Y383400D01*
Y382400D01*
X68799Y381900D01*
X66800D01*
X66300Y382400D01*
Y383400D01*
X66800Y383899D01*
X68799Y384899D02*
X69299Y385399D01*
Y386399D01*
X68799Y386898D01*
X68299D01*
X67800Y386399D01*
X67300Y386898D01*
X66800D01*
X66300Y386399D01*
Y385399D01*
X66800Y384899D01*
X67300D01*
X67800Y385399D01*
X68299Y384899D01*
X68799D01*
X67800Y385399D02*
Y386399D01*
X66800Y387898D02*
X66300Y388398D01*
Y389398D01*
X66800Y389897D01*
X68799D01*
X69299Y389398D01*
Y388398D01*
X68799Y387898D01*
X68299D01*
X67800Y388398D01*
Y389897D01*
X72799Y383899D02*
X73299Y383400D01*
Y382400D01*
X72799Y381900D01*
X70800D01*
X70300Y382400D01*
Y383400D01*
X70800Y383899D01*
X72799Y384899D02*
X73299Y385399D01*
Y386399D01*
X72799Y386898D01*
X72299D01*
X71799Y386399D01*
X71300Y386898D01*
X70800D01*
X70300Y386399D01*
Y385399D01*
X70800Y384899D01*
X71300D01*
X71799Y385399D01*
X72299Y384899D01*
X72799D01*
X71799Y385399D02*
Y386399D01*
X72799Y387898D02*
X73299Y388398D01*
Y389398D01*
X72799Y389897D01*
X72299D01*
X71799Y389398D01*
X71300Y389897D01*
X70800D01*
X70300Y389398D01*
Y388398D01*
X70800Y387898D01*
X71300D01*
X71799Y388398D01*
X72299Y387898D01*
X72799D01*
X71799Y388398D02*
Y389398D01*
X130099Y381299D02*
X130599Y380800D01*
Y379800D01*
X130099Y379300D01*
X128100D01*
X127600Y379800D01*
Y380800D01*
X128100Y381299D01*
X130099Y382299D02*
X130599Y382799D01*
Y383799D01*
X130099Y384298D01*
X129599D01*
X129100Y383799D01*
X128600Y384298D01*
X128100D01*
X127600Y383799D01*
Y382799D01*
X128100Y382299D01*
X128600D01*
X129100Y382799D01*
X129599Y382299D01*
X130099D01*
X129100Y382799D02*
Y383799D01*
X130599Y385298D02*
Y387297D01*
X130099D01*
X128100Y385298D01*
X127600D01*
X131701Y359699D02*
X132201Y360199D01*
X133200D01*
X133700Y359699D01*
Y357700D01*
X133200Y357200D01*
X132201D01*
X131701Y357700D01*
X130701Y359699D02*
X130201Y360199D01*
X129201D01*
X128702Y359699D01*
Y359199D01*
X129201Y358699D01*
X128702Y358200D01*
Y357700D01*
X129201Y357200D01*
X130201D01*
X130701Y357700D01*
Y358200D01*
X130201Y358699D01*
X130701Y359199D01*
Y359699D01*
X130201Y358699D02*
X129201D01*
X125703Y360199D02*
X126702Y359699D01*
X127702Y358699D01*
Y357700D01*
X127202Y357200D01*
X126202D01*
X125703Y357700D01*
Y358200D01*
X126202Y358699D01*
X127702D01*
X93199Y341099D02*
X93699Y340599D01*
Y339600D01*
X93199Y339100D01*
X91200D01*
X90700Y339600D01*
Y340599D01*
X91200Y341099D01*
X93199Y342099D02*
X93699Y342599D01*
Y343599D01*
X93199Y344098D01*
X92699D01*
X92199Y343599D01*
X91700Y344098D01*
X91200D01*
X90700Y343599D01*
Y342599D01*
X91200Y342099D01*
X91700D01*
X92199Y342599D01*
X92699Y342099D01*
X93199D01*
X92199Y342599D02*
Y343599D01*
X93699Y347097D02*
Y345098D01*
X92199D01*
X92699Y346098D01*
Y346598D01*
X92199Y347097D01*
X91200D01*
X90700Y346598D01*
Y345598D01*
X91200Y345098D01*
X3899Y241599D02*
X4399Y241100D01*
Y240100D01*
X3899Y239600D01*
X1900D01*
X1400Y240100D01*
Y241100D01*
X1900Y241599D01*
X3899Y242599D02*
X4399Y243099D01*
Y244098D01*
X3899Y244598D01*
X3399D01*
X2899Y244098D01*
X2400Y244598D01*
X1900D01*
X1400Y244098D01*
Y243099D01*
X1900Y242599D01*
X2400D01*
X2899Y243099D01*
X3399Y242599D01*
X3899D01*
X2899Y243099D02*
Y244098D01*
X3899Y245598D02*
X4399Y246098D01*
Y247098D01*
X3899Y247597D01*
X3399D01*
X2899Y247098D01*
Y246598D01*
Y247098D01*
X2400Y247597D01*
X1900D01*
X1400Y247098D01*
Y246098D01*
X1900Y245598D01*
X27901Y235599D02*
X28400Y236099D01*
X29400D01*
X29900Y235599D01*
Y233600D01*
X29400Y233100D01*
X28400D01*
X27901Y233600D01*
X26901Y235599D02*
X26401Y236099D01*
X25401D01*
X24902Y235599D01*
Y235099D01*
X25401Y234599D01*
X24902Y234100D01*
Y233600D01*
X25401Y233100D01*
X26401D01*
X26901Y233600D01*
Y234100D01*
X26401Y234599D01*
X26901Y235099D01*
Y235599D01*
X26401Y234599D02*
X25401D01*
X21903Y233100D02*
X23902D01*
X21903Y235099D01*
Y235599D01*
X22402Y236099D01*
X23402D01*
X23902Y235599D01*
X8099Y241699D02*
X8599Y241199D01*
Y240200D01*
X8099Y239700D01*
X6100D01*
X5600Y240200D01*
Y241199D01*
X6100Y241699D01*
X8099Y242699D02*
X8599Y243199D01*
Y244198D01*
X8099Y244698D01*
X7599D01*
X7100Y244198D01*
X6600Y244698D01*
X6100D01*
X5600Y244198D01*
Y243199D01*
X6100Y242699D01*
X6600D01*
X7100Y243199D01*
X7599Y242699D01*
X8099D01*
X7100Y243199D02*
Y244198D01*
X5600Y245698D02*
Y246698D01*
Y246198D01*
X8599D01*
X8099Y245698D01*
X10401Y273501D02*
X10900Y273001D01*
X11900D01*
X12400Y273501D01*
Y275500D01*
X11900Y276000D01*
X10900D01*
X10401Y275500D01*
X9401Y273501D02*
X8901Y273001D01*
X7901D01*
X7402Y273501D01*
Y274001D01*
X7901Y274500D01*
X7402Y275000D01*
Y275500D01*
X7901Y276000D01*
X8901D01*
X9401Y275500D01*
Y275000D01*
X8901Y274500D01*
X9401Y274001D01*
Y273501D01*
X8901Y274500D02*
X7901D01*
X6402Y273501D02*
X5902Y273001D01*
X4902D01*
X4403Y273501D01*
Y275500D01*
X4902Y276000D01*
X5902D01*
X6402Y275500D01*
Y273501D01*
X10401Y279499D02*
X10900Y279999D01*
X11900D01*
X12400Y279499D01*
Y277500D01*
X11900Y277000D01*
X10900D01*
X10401Y277500D01*
X9401Y279999D02*
X7402D01*
Y279499D01*
X9401Y277500D01*
Y277000D01*
X6402Y277500D02*
X5902Y277000D01*
X4902D01*
X4403Y277500D01*
Y279499D01*
X4902Y279999D01*
X5902D01*
X6402Y279499D01*
Y278999D01*
X5902Y278500D01*
X4403D01*
X29699Y290399D02*
X30199Y289899D01*
Y288900D01*
X29699Y288400D01*
X27700D01*
X27200Y288900D01*
Y289899D01*
X27700Y290399D01*
X30199Y291399D02*
Y293398D01*
X29699D01*
X27700Y291399D01*
X27200D01*
X30199Y296397D02*
Y294398D01*
X28699D01*
X29199Y295398D01*
Y295898D01*
X28699Y296397D01*
X27700D01*
X27200Y295898D01*
Y294898D01*
X27700Y294398D01*
X33699Y290399D02*
X34199Y289899D01*
Y288900D01*
X33699Y288400D01*
X31700D01*
X31200Y288900D01*
Y289899D01*
X31700Y290399D01*
X34199Y291399D02*
Y293398D01*
X33699D01*
X31700Y291399D01*
X31200D01*
Y295898D02*
X34199D01*
X32699Y294398D01*
Y296397D01*
X50899Y280199D02*
X51399Y279699D01*
Y278700D01*
X50899Y278200D01*
X48900D01*
X48400Y278700D01*
Y279699D01*
X48900Y280199D01*
X51399Y281199D02*
Y283198D01*
X50899D01*
X48900Y281199D01*
X48400D01*
X50899Y284198D02*
X51399Y284698D01*
Y285698D01*
X50899Y286197D01*
X50399D01*
X49900Y285698D01*
Y285198D01*
Y285698D01*
X49400Y286197D01*
X48900D01*
X48400Y285698D01*
Y284698D01*
X48900Y284198D01*
X52599Y258299D02*
X53099Y257800D01*
Y256800D01*
X52599Y256300D01*
X50600D01*
X50100Y256800D01*
Y257800D01*
X50600Y258299D01*
X53099Y259299D02*
Y261298D01*
X52599D01*
X50600Y259299D01*
X50100D01*
Y264297D02*
Y262298D01*
X52099Y264297D01*
X52599D01*
X53099Y263798D01*
Y262798D01*
X52599Y262298D01*
X41601Y270099D02*
X42101Y270599D01*
X43100D01*
X43600Y270099D01*
Y268100D01*
X43100Y267600D01*
X42101D01*
X41601Y268100D01*
X40601Y270599D02*
X38602D01*
Y270099D01*
X40601Y268100D01*
Y267600D01*
X37602D02*
X36602D01*
X37102D01*
Y270599D01*
X37602Y270099D01*
X35701Y170299D02*
X36200Y170799D01*
X37200D01*
X37700Y170299D01*
Y168300D01*
X37200Y167800D01*
X36200D01*
X35701Y168300D01*
X34701Y170799D02*
X32702D01*
Y170299D01*
X34701Y168300D01*
Y167800D01*
X31702Y170299D02*
X31202Y170799D01*
X30202D01*
X29703Y170299D01*
Y168300D01*
X30202Y167800D01*
X31202D01*
X31702Y168300D01*
Y170299D01*
X28703Y167300D02*
X26704D01*
X24204Y167800D02*
Y170799D01*
X25704Y169299D01*
X23705D01*
X131001Y249799D02*
X131500Y250299D01*
X132500D01*
X133000Y249799D01*
Y247800D01*
X132500Y247300D01*
X131500D01*
X131001Y247800D01*
X130001Y250299D02*
X128002D01*
Y249799D01*
X130001Y247800D01*
Y247300D01*
X127002Y249799D02*
X126502Y250299D01*
X125502D01*
X125003Y249799D01*
Y247800D01*
X125502Y247300D01*
X126502D01*
X127002Y247800D01*
Y249799D01*
X124003Y246800D02*
X122004D01*
X121004Y249799D02*
X120504Y250299D01*
X119504D01*
X119004Y249799D01*
Y249299D01*
X119504Y248799D01*
X120004D01*
X119504D01*
X119004Y248300D01*
Y247800D01*
X119504Y247300D01*
X120504D01*
X121004Y247800D01*
X224501Y165999D02*
X225001Y166499D01*
X226000D01*
X226500Y165999D01*
Y164000D01*
X226000Y163500D01*
X225001D01*
X224501Y164000D01*
X223501Y166499D02*
X221502D01*
Y165999D01*
X223501Y164000D01*
Y163500D01*
X220502Y165999D02*
X220002Y166499D01*
X219002D01*
X218503Y165999D01*
Y164000D01*
X219002Y163500D01*
X220002D01*
X220502Y164000D01*
Y165999D01*
X217503Y163000D02*
X215504D01*
X212505Y163500D02*
X214504D01*
X212505Y165499D01*
Y165999D01*
X213004Y166499D01*
X214004D01*
X214504Y165999D01*
X309601Y253599D02*
X310101Y254099D01*
X311100D01*
X311600Y253599D01*
Y251600D01*
X311100Y251100D01*
X310101D01*
X309601Y251600D01*
X308601Y254099D02*
X306602D01*
Y253599D01*
X308601Y251600D01*
Y251100D01*
X305602Y253599D02*
X305102Y254099D01*
X304102D01*
X303603Y253599D01*
Y251600D01*
X304102Y251100D01*
X305102D01*
X305602Y251600D01*
Y253599D01*
X302603Y250600D02*
X300604D01*
X299604Y251100D02*
X298604D01*
X299104D01*
Y254099D01*
X299604Y253599D01*
X35601Y179099D02*
X36101Y179599D01*
X37100D01*
X37600Y179099D01*
Y177100D01*
X37100Y176600D01*
X36101D01*
X35601Y177100D01*
X32602Y179599D02*
X33601Y179099D01*
X34601Y178100D01*
Y177100D01*
X34101Y176600D01*
X33101D01*
X32602Y177100D01*
Y177600D01*
X33101Y178100D01*
X34601D01*
X30102Y176600D02*
Y179599D01*
X31602Y178100D01*
X29603D01*
X28603Y176100D02*
X26604D01*
X24104Y176600D02*
Y179599D01*
X25604Y178100D01*
X23605D01*
X130801Y264899D02*
X131300Y265399D01*
X132300D01*
X132800Y264899D01*
Y262900D01*
X132300Y262400D01*
X131300D01*
X130801Y262900D01*
X127802Y265399D02*
X128801Y264899D01*
X129801Y263899D01*
Y262900D01*
X129301Y262400D01*
X128301D01*
X127802Y262900D01*
Y263400D01*
X128301Y263899D01*
X129801D01*
X125302Y262400D02*
Y265399D01*
X126802Y263899D01*
X124803D01*
X123803Y261900D02*
X121804D01*
X120804Y264899D02*
X120304Y265399D01*
X119304D01*
X118805Y264899D01*
Y264399D01*
X119304Y263899D01*
X119804D01*
X119304D01*
X118805Y263400D01*
Y262900D01*
X119304Y262400D01*
X120304D01*
X120804Y262900D01*
X224490Y177483D02*
X224990Y177983D01*
X225990D01*
X226490Y177483D01*
Y175484D01*
X225990Y174984D01*
X224990D01*
X224490Y175484D01*
X221492Y177983D02*
X222491Y177483D01*
X223491Y176484D01*
Y175484D01*
X222991Y174984D01*
X221991D01*
X221492Y175484D01*
Y175984D01*
X221991Y176484D01*
X223491D01*
X218992Y174984D02*
Y177983D01*
X220492Y176484D01*
X218492D01*
X217493Y174484D02*
X215493D01*
X212494Y174984D02*
X214494D01*
X212494Y176984D01*
Y177483D01*
X212994Y177983D01*
X213994D01*
X214494Y177483D01*
X309301Y266999D02*
X309801Y267499D01*
X310800D01*
X311300Y266999D01*
Y265000D01*
X310800Y264500D01*
X309801D01*
X309301Y265000D01*
X306302Y267499D02*
X307301Y266999D01*
X308301Y266000D01*
Y265000D01*
X307801Y264500D01*
X306802D01*
X306302Y265000D01*
Y265500D01*
X306802Y266000D01*
X308301D01*
X303802Y264500D02*
Y267499D01*
X305302Y266000D01*
X303303D01*
X302303Y264000D02*
X300304D01*
X299304Y264500D02*
X298304D01*
X298804D01*
Y267499D01*
X299304Y266999D01*
X71299Y215999D02*
X71799Y215499D01*
Y214500D01*
X71299Y214000D01*
X69300D01*
X68800Y214500D01*
Y215499D01*
X69300Y215999D01*
X71799Y218998D02*
X71299Y217999D01*
X70300Y216999D01*
X69300D01*
X68800Y217499D01*
Y218498D01*
X69300Y218998D01*
X69800D01*
X70300Y218498D01*
Y216999D01*
X71299Y219998D02*
X71799Y220498D01*
Y221498D01*
X71299Y221997D01*
X70799D01*
X70300Y221498D01*
Y220998D01*
Y221498D01*
X69800Y221997D01*
X69300D01*
X68800Y221498D01*
Y220498D01*
X69300Y219998D01*
X68300Y222997D02*
Y224996D01*
X68800Y227496D02*
X71799D01*
X70300Y225996D01*
Y227995D01*
X162899Y277999D02*
X163399Y277500D01*
Y276500D01*
X162899Y276000D01*
X160900D01*
X160400Y276500D01*
Y277500D01*
X160900Y277999D01*
X163399Y280998D02*
X162899Y279999D01*
X161899Y278999D01*
X160900D01*
X160400Y279499D01*
Y280499D01*
X160900Y280998D01*
X161400D01*
X161899Y280499D01*
Y278999D01*
X162899Y281998D02*
X163399Y282498D01*
Y283498D01*
X162899Y283997D01*
X162399D01*
X161899Y283498D01*
Y282998D01*
Y283498D01*
X161400Y283997D01*
X160900D01*
X160400Y283498D01*
Y282498D01*
X160900Y281998D01*
X159900Y284997D02*
Y286996D01*
X162899Y287996D02*
X163399Y288496D01*
Y289496D01*
X162899Y289996D01*
X162399D01*
X161899Y289496D01*
Y288996D01*
Y289496D01*
X161400Y289996D01*
X160900D01*
X160400Y289496D01*
Y288496D01*
X160900Y287996D01*
X269099Y224999D02*
X269599Y224500D01*
Y223500D01*
X269099Y223000D01*
X267100D01*
X266600Y223500D01*
Y224500D01*
X267100Y224999D01*
X269599Y227998D02*
X269099Y226999D01*
X268099Y225999D01*
X267100D01*
X266600Y226499D01*
Y227499D01*
X267100Y227998D01*
X267600D01*
X268099Y227499D01*
Y225999D01*
X269099Y228998D02*
X269599Y229498D01*
Y230498D01*
X269099Y230997D01*
X268599D01*
X268099Y230498D01*
Y229998D01*
Y230498D01*
X267600Y230997D01*
X267100D01*
X266600Y230498D01*
Y229498D01*
X267100Y228998D01*
X266100Y231997D02*
Y233996D01*
X266600Y236996D02*
Y234996D01*
X268599Y236996D01*
X269099D01*
X269599Y236496D01*
Y235496D01*
X269099Y234996D01*
X341199Y278199D02*
X341699Y277699D01*
Y276700D01*
X341199Y276200D01*
X339200D01*
X338700Y276700D01*
Y277699D01*
X339200Y278199D01*
X341699Y281198D02*
X341199Y280199D01*
X340199Y279199D01*
X339200D01*
X338700Y279699D01*
Y280698D01*
X339200Y281198D01*
X339700D01*
X340199Y280698D01*
Y279199D01*
X341199Y282198D02*
X341699Y282698D01*
Y283698D01*
X341199Y284197D01*
X340699D01*
X340199Y283698D01*
Y283198D01*
Y283698D01*
X339700Y284197D01*
X339200D01*
X338700Y283698D01*
Y282698D01*
X339200Y282198D01*
X338200Y285197D02*
Y287196D01*
X338700Y288196D02*
Y289196D01*
Y288696D01*
X341699D01*
X341199Y288196D01*
X66899Y215999D02*
X67399Y215499D01*
Y214500D01*
X66899Y214000D01*
X64900D01*
X64400Y214500D01*
Y215499D01*
X64900Y215999D01*
X67399Y218998D02*
X66899Y217999D01*
X65899Y216999D01*
X64900D01*
X64400Y217499D01*
Y218498D01*
X64900Y218998D01*
X65400D01*
X65899Y218498D01*
Y216999D01*
X64400Y221997D02*
Y219998D01*
X66399Y221997D01*
X66899D01*
X67399Y221498D01*
Y220498D01*
X66899Y219998D01*
X63900Y222997D02*
Y224996D01*
X64400Y227496D02*
X67399D01*
X65899Y225996D01*
Y227995D01*
X158499Y277999D02*
X158999Y277500D01*
Y276500D01*
X158499Y276000D01*
X156500D01*
X156000Y276500D01*
Y277500D01*
X156500Y277999D01*
X158999Y280998D02*
X158499Y279999D01*
X157500Y278999D01*
X156500D01*
X156000Y279499D01*
Y280499D01*
X156500Y280998D01*
X157000D01*
X157500Y280499D01*
Y278999D01*
X156000Y283997D02*
Y281998D01*
X157999Y283997D01*
X158499D01*
X158999Y283498D01*
Y282498D01*
X158499Y281998D01*
X155500Y284997D02*
Y286996D01*
X158499Y287996D02*
X158999Y288496D01*
Y289496D01*
X158499Y289996D01*
X157999D01*
X157500Y289496D01*
Y288996D01*
Y289496D01*
X157000Y289996D01*
X156500D01*
X156000Y289496D01*
Y288496D01*
X156500Y287996D01*
X264599Y225199D02*
X265099Y224699D01*
Y223700D01*
X264599Y223200D01*
X262600D01*
X262100Y223700D01*
Y224699D01*
X262600Y225199D01*
X265099Y228198D02*
X264599Y227199D01*
X263599Y226199D01*
X262600D01*
X262100Y226699D01*
Y227698D01*
X262600Y228198D01*
X263100D01*
X263599Y227698D01*
Y226199D01*
X262100Y231197D02*
Y229198D01*
X264099Y231197D01*
X264599D01*
X265099Y230698D01*
Y229698D01*
X264599Y229198D01*
X261600Y232197D02*
Y234196D01*
X262100Y237195D02*
Y235196D01*
X264099Y237195D01*
X264599D01*
X265099Y236696D01*
Y235696D01*
X264599Y235196D01*
X336999Y278199D02*
X337499Y277699D01*
Y276700D01*
X336999Y276200D01*
X335000D01*
X334500Y276700D01*
Y277699D01*
X335000Y278199D01*
X337499Y281198D02*
X336999Y280199D01*
X335999Y279199D01*
X335000D01*
X334500Y279699D01*
Y280698D01*
X335000Y281198D01*
X335500D01*
X335999Y280698D01*
Y279199D01*
X334500Y284197D02*
Y282198D01*
X336499Y284197D01*
X336999D01*
X337499Y283698D01*
Y282698D01*
X336999Y282198D01*
X334000Y285197D02*
Y287196D01*
X334500Y288196D02*
Y289196D01*
Y288696D01*
X337499D01*
X336999Y288196D01*
X35701Y157399D02*
X36200Y157899D01*
X37200D01*
X37700Y157399D01*
Y155400D01*
X37200Y154900D01*
X36200D01*
X35701Y155400D01*
X32702Y157899D02*
X33701Y157399D01*
X34701Y156400D01*
Y155400D01*
X34201Y154900D01*
X33201D01*
X32702Y155400D01*
Y155900D01*
X33201Y156400D01*
X34701D01*
X31702Y154900D02*
X30702D01*
X31202D01*
Y157899D01*
X31702Y157399D01*
X29203Y154400D02*
X27203D01*
X24704Y154900D02*
Y157899D01*
X26204Y156400D01*
X24204D01*
X130901Y245199D02*
X131401Y245699D01*
X132400D01*
X132900Y245199D01*
Y243200D01*
X132400Y242700D01*
X131401D01*
X130901Y243200D01*
X127902Y245699D02*
X128901Y245199D01*
X129901Y244199D01*
Y243200D01*
X129401Y242700D01*
X128401D01*
X127902Y243200D01*
Y243700D01*
X128401Y244199D01*
X129901D01*
X126902Y242700D02*
X125902D01*
X126402D01*
Y245699D01*
X126902Y245199D01*
X124403Y242200D02*
X122403D01*
X121404Y245199D02*
X120904Y245699D01*
X119904D01*
X119404Y245199D01*
Y244699D01*
X119904Y244199D01*
X120404D01*
X119904D01*
X119404Y243700D01*
Y243200D01*
X119904Y242700D01*
X120904D01*
X121404Y243200D01*
X224601Y158199D02*
X225100Y158699D01*
X226100D01*
X226600Y158199D01*
Y156200D01*
X226100Y155700D01*
X225100D01*
X224601Y156200D01*
X221602Y158699D02*
X222601Y158199D01*
X223601Y157200D01*
Y156200D01*
X223101Y155700D01*
X222101D01*
X221602Y156200D01*
Y156700D01*
X222101Y157200D01*
X223601D01*
X220602Y155700D02*
X219602D01*
X220102D01*
Y158699D01*
X220602Y158199D01*
X218103Y155200D02*
X216103D01*
X213104Y155700D02*
X215104D01*
X213104Y157699D01*
Y158199D01*
X213604Y158699D01*
X214604D01*
X215104Y158199D01*
X309801Y244099D02*
X310300Y244599D01*
X311300D01*
X311800Y244099D01*
Y242100D01*
X311300Y241600D01*
X310300D01*
X309801Y242100D01*
X306802Y244599D02*
X307801Y244099D01*
X308801Y243099D01*
Y242100D01*
X308301Y241600D01*
X307301D01*
X306802Y242100D01*
Y242600D01*
X307301Y243099D01*
X308801D01*
X305802Y241600D02*
X304802D01*
X305302D01*
Y244599D01*
X305802Y244099D01*
X303303Y241100D02*
X301303D01*
X300304Y241600D02*
X299304D01*
X299804D01*
Y244599D01*
X300304Y244099D01*
X62699Y155299D02*
X63199Y154799D01*
Y153800D01*
X62699Y153300D01*
X60700D01*
X60200Y153800D01*
Y154799D01*
X60700Y155299D01*
X63199Y158298D02*
X62699Y157299D01*
X61699Y156299D01*
X60700D01*
X60200Y156799D01*
Y157799D01*
X60700Y158298D01*
X61200D01*
X61699Y157799D01*
Y156299D01*
X62699Y159298D02*
X63199Y159798D01*
Y160798D01*
X62699Y161297D01*
X60700D01*
X60200Y160798D01*
Y159798D01*
X60700Y159298D01*
X62699D01*
X59700Y162297D02*
Y164296D01*
X60200Y166796D02*
X63199D01*
X61699Y165296D01*
Y167296D01*
X153899Y219199D02*
X154399Y218700D01*
Y217700D01*
X153899Y217200D01*
X151900D01*
X151400Y217700D01*
Y218700D01*
X151900Y219199D01*
X154399Y222198D02*
X153899Y221199D01*
X152900Y220199D01*
X151900D01*
X151400Y220699D01*
Y221698D01*
X151900Y222198D01*
X152400D01*
X152900Y221698D01*
Y220199D01*
X153899Y223198D02*
X154399Y223698D01*
Y224698D01*
X153899Y225197D01*
X151900D01*
X151400Y224698D01*
Y223698D01*
X151900Y223198D01*
X153899D01*
X150900Y226197D02*
Y228196D01*
X153899Y229196D02*
X154399Y229696D01*
Y230696D01*
X153899Y231195D01*
X153399D01*
X152900Y230696D01*
Y230196D01*
Y230696D01*
X152400Y231195D01*
X151900D01*
X151400Y230696D01*
Y229696D01*
X151900Y229196D01*
X239399Y157099D02*
X239899Y156599D01*
Y155600D01*
X239399Y155100D01*
X237400D01*
X236900Y155600D01*
Y156599D01*
X237400Y157099D01*
X239899Y160098D02*
X239399Y159099D01*
X238400Y158099D01*
X237400D01*
X236900Y158599D01*
Y159599D01*
X237400Y160098D01*
X237900D01*
X238400Y159599D01*
Y158099D01*
X239399Y161098D02*
X239899Y161598D01*
Y162598D01*
X239399Y163097D01*
X237400D01*
X236900Y162598D01*
Y161598D01*
X237400Y161098D01*
X239399D01*
X236400Y164097D02*
Y166096D01*
X236900Y169096D02*
Y167096D01*
X238899Y169096D01*
X239399D01*
X239899Y168596D01*
Y167596D01*
X239399Y167096D01*
X332599Y219499D02*
X333099Y219000D01*
Y218000D01*
X332599Y217500D01*
X330600D01*
X330100Y218000D01*
Y219000D01*
X330600Y219499D01*
X333099Y222498D02*
X332599Y221499D01*
X331599Y220499D01*
X330600D01*
X330100Y220999D01*
Y221999D01*
X330600Y222498D01*
X331100D01*
X331599Y221999D01*
Y220499D01*
X332599Y223498D02*
X333099Y223998D01*
Y224998D01*
X332599Y225497D01*
X330600D01*
X330100Y224998D01*
Y223998D01*
X330600Y223498D01*
X332599D01*
X329600Y226497D02*
Y228496D01*
X330100Y229496D02*
Y230496D01*
Y229996D01*
X333099D01*
X332599Y229496D01*
X35701Y174699D02*
X36200Y175199D01*
X37200D01*
X37700Y174699D01*
Y172700D01*
X37200Y172200D01*
X36200D01*
X35701Y172700D01*
X32702Y175199D02*
X34701D01*
Y173699D01*
X33701Y174199D01*
X33201D01*
X32702Y173699D01*
Y172700D01*
X33201Y172200D01*
X34201D01*
X34701Y172700D01*
X31702D02*
X31202Y172200D01*
X30202D01*
X29703Y172700D01*
Y174699D01*
X30202Y175199D01*
X31202D01*
X31702Y174699D01*
Y174199D01*
X31202Y173699D01*
X29703D01*
X28703Y171700D02*
X26704D01*
X24204Y172200D02*
Y175199D01*
X25704Y173699D01*
X23705D01*
X131101Y254299D02*
X131600Y254799D01*
X132600D01*
X133100Y254299D01*
Y252300D01*
X132600Y251800D01*
X131600D01*
X131101Y252300D01*
X128102Y254799D02*
X130101D01*
Y253299D01*
X129101Y253799D01*
X128601D01*
X128102Y253299D01*
Y252300D01*
X128601Y251800D01*
X129601D01*
X130101Y252300D01*
X127102D02*
X126602Y251800D01*
X125602D01*
X125103Y252300D01*
Y254299D01*
X125602Y254799D01*
X126602D01*
X127102Y254299D01*
Y253799D01*
X126602Y253299D01*
X125103D01*
X124103Y251300D02*
X122104D01*
X121104Y254299D02*
X120604Y254799D01*
X119604D01*
X119105Y254299D01*
Y253799D01*
X119604Y253299D01*
X120104D01*
X119604D01*
X119105Y252800D01*
Y252300D01*
X119604Y251800D01*
X120604D01*
X121104Y252300D01*
X224501Y169899D02*
X225001Y170399D01*
X226000D01*
X226500Y169899D01*
Y167900D01*
X226000Y167400D01*
X225001D01*
X224501Y167900D01*
X221502Y170399D02*
X223501D01*
Y168900D01*
X222501Y169399D01*
X222002D01*
X221502Y168900D01*
Y167900D01*
X222002Y167400D01*
X223001D01*
X223501Y167900D01*
X220502D02*
X220002Y167400D01*
X219002D01*
X218503Y167900D01*
Y169899D01*
X219002Y170399D01*
X220002D01*
X220502Y169899D01*
Y169399D01*
X220002Y168900D01*
X218503D01*
X217503Y166900D02*
X215504D01*
X212505Y167400D02*
X214504D01*
X212505Y169399D01*
Y169899D01*
X213004Y170399D01*
X214004D01*
X214504Y169899D01*
X309501Y257799D02*
X310000Y258299D01*
X311000D01*
X311500Y257799D01*
Y255800D01*
X311000Y255300D01*
X310000D01*
X309501Y255800D01*
X306502Y258299D02*
X308501D01*
Y256800D01*
X307501Y257299D01*
X307001D01*
X306502Y256800D01*
Y255800D01*
X307001Y255300D01*
X308001D01*
X308501Y255800D01*
X305502D02*
X305002Y255300D01*
X304002D01*
X303503Y255800D01*
Y257799D01*
X304002Y258299D01*
X305002D01*
X305502Y257799D01*
Y257299D01*
X305002Y256800D01*
X303503D01*
X302503Y254800D02*
X300504D01*
X299504Y255300D02*
X298504D01*
X299004D01*
Y258299D01*
X299504Y257799D01*
X35601Y183499D02*
X36101Y183999D01*
X37100D01*
X37600Y183499D01*
Y181500D01*
X37100Y181000D01*
X36101D01*
X35601Y181500D01*
X32602Y183999D02*
X34601D01*
Y182500D01*
X33601Y182999D01*
X33101D01*
X32602Y182500D01*
Y181500D01*
X33101Y181000D01*
X34101D01*
X34601Y181500D01*
X31602Y183499D02*
X31102Y183999D01*
X30102D01*
X29603Y183499D01*
Y182999D01*
X30102Y182500D01*
X29603Y182000D01*
Y181500D01*
X30102Y181000D01*
X31102D01*
X31602Y181500D01*
Y182000D01*
X31102Y182500D01*
X31602Y182999D01*
Y183499D01*
X31102Y182500D02*
X30102D01*
X28603Y180500D02*
X26604D01*
X24104Y181000D02*
Y183999D01*
X25604Y182500D01*
X23605D01*
X131001Y260299D02*
X131500Y260799D01*
X132500D01*
X133000Y260299D01*
Y258300D01*
X132500Y257800D01*
X131500D01*
X131001Y258300D01*
X128002Y260799D02*
X130001D01*
Y259299D01*
X129001Y259799D01*
X128501D01*
X128002Y259299D01*
Y258300D01*
X128501Y257800D01*
X129501D01*
X130001Y258300D01*
X127002Y260299D02*
X126502Y260799D01*
X125502D01*
X125003Y260299D01*
Y259799D01*
X125502Y259299D01*
X125003Y258800D01*
Y258300D01*
X125502Y257800D01*
X126502D01*
X127002Y258300D01*
Y258800D01*
X126502Y259299D01*
X127002Y259799D01*
Y260299D01*
X126502Y259299D02*
X125502D01*
X124003Y257300D02*
X122004D01*
X121004Y260299D02*
X120504Y260799D01*
X119504D01*
X119004Y260299D01*
Y259799D01*
X119504Y259299D01*
X120004D01*
X119504D01*
X119004Y258800D01*
Y258300D01*
X119504Y257800D01*
X120504D01*
X121004Y258300D01*
X224461Y173634D02*
X224961Y174134D01*
X225961D01*
X226461Y173634D01*
Y171635D01*
X225961Y171135D01*
X224961D01*
X224461Y171635D01*
X221462Y174134D02*
X223462D01*
Y172634D01*
X222462Y173134D01*
X221962D01*
X221462Y172634D01*
Y171635D01*
X221962Y171135D01*
X222962D01*
X223462Y171635D01*
X220462Y173634D02*
X219963Y174134D01*
X218963D01*
X218463Y173634D01*
Y173134D01*
X218963Y172634D01*
X218463Y172135D01*
Y171635D01*
X218963Y171135D01*
X219963D01*
X220462Y171635D01*
Y172135D01*
X219963Y172634D01*
X220462Y173134D01*
Y173634D01*
X219963Y172634D02*
X218963D01*
X217463Y170635D02*
X215464D01*
X212465Y171135D02*
X214464D01*
X212465Y173134D01*
Y173634D01*
X212965Y174134D01*
X213965D01*
X214464Y173634D01*
X309401Y262199D02*
X309900Y262699D01*
X310900D01*
X311400Y262199D01*
Y260200D01*
X310900Y259700D01*
X309900D01*
X309401Y260200D01*
X306402Y262699D02*
X308401D01*
Y261199D01*
X307401Y261699D01*
X306902D01*
X306402Y261199D01*
Y260200D01*
X306902Y259700D01*
X307901D01*
X308401Y260200D01*
X305402Y262199D02*
X304902Y262699D01*
X303902D01*
X303403Y262199D01*
Y261699D01*
X303902Y261199D01*
X303403Y260700D01*
Y260200D01*
X303902Y259700D01*
X304902D01*
X305402Y260200D01*
Y260700D01*
X304902Y261199D01*
X305402Y261699D01*
Y262199D01*
X304902Y261199D02*
X303902D01*
X302403Y259200D02*
X300404D01*
X299404Y259700D02*
X298404D01*
X298904D01*
Y262699D01*
X299404Y262199D01*
X57099Y155299D02*
X57599Y154799D01*
Y153800D01*
X57099Y153300D01*
X55100D01*
X54600Y153800D01*
Y154799D01*
X55100Y155299D01*
X57599Y158298D02*
Y156299D01*
X56099D01*
X56599Y157299D01*
Y157799D01*
X56099Y158298D01*
X55100D01*
X54600Y157799D01*
Y156799D01*
X55100Y156299D01*
X57599Y159298D02*
Y161297D01*
X57099D01*
X55100Y159298D01*
X54600D01*
X54100Y162297D02*
Y164296D01*
X54600Y166796D02*
X57599D01*
X56099Y165296D01*
Y167296D01*
X148699Y219099D02*
X149199Y218600D01*
Y217600D01*
X148699Y217100D01*
X146700D01*
X146200Y217600D01*
Y218600D01*
X146700Y219099D01*
X149199Y222098D02*
Y220099D01*
X147699D01*
X148199Y221099D01*
Y221599D01*
X147699Y222098D01*
X146700D01*
X146200Y221599D01*
Y220599D01*
X146700Y220099D01*
X149199Y223098D02*
Y225097D01*
X148699D01*
X146700Y223098D01*
X146200D01*
X145700Y226097D02*
Y228096D01*
X148699Y229096D02*
X149199Y229596D01*
Y230596D01*
X148699Y231096D01*
X148199D01*
X147699Y230596D01*
Y230096D01*
Y230596D01*
X147200Y231096D01*
X146700D01*
X146200Y230596D01*
Y229596D01*
X146700Y229096D01*
X244199Y157099D02*
X244699Y156599D01*
Y155600D01*
X244199Y155100D01*
X242200D01*
X241700Y155600D01*
Y156599D01*
X242200Y157099D01*
X244699Y160098D02*
Y158099D01*
X243199D01*
X243699Y159099D01*
Y159599D01*
X243199Y160098D01*
X242200D01*
X241700Y159599D01*
Y158599D01*
X242200Y158099D01*
X244699Y161098D02*
Y163097D01*
X244199D01*
X242200Y161098D01*
X241700D01*
X241200Y164097D02*
Y166096D01*
X241700Y169096D02*
Y167096D01*
X243699Y169096D01*
X244199D01*
X244699Y168596D01*
Y167596D01*
X244199Y167096D01*
X328399Y219599D02*
X328899Y219099D01*
Y218100D01*
X328399Y217600D01*
X326400D01*
X325900Y218100D01*
Y219099D01*
X326400Y219599D01*
X328899Y222598D02*
Y220599D01*
X327399D01*
X327899Y221599D01*
Y222098D01*
X327399Y222598D01*
X326400D01*
X325900Y222098D01*
Y221099D01*
X326400Y220599D01*
X328899Y223598D02*
Y225597D01*
X328399D01*
X326400Y223598D01*
X325900D01*
X325400Y226597D02*
Y228596D01*
X325900Y229596D02*
Y230596D01*
Y230096D01*
X328899D01*
X328399Y229596D01*
X67599Y155199D02*
X68099Y154700D01*
Y153700D01*
X67599Y153200D01*
X65600D01*
X65100Y153700D01*
Y154700D01*
X65600Y155199D01*
X68099Y158198D02*
Y156199D01*
X66600D01*
X67099Y157199D01*
Y157699D01*
X66600Y158198D01*
X65600D01*
X65100Y157699D01*
Y156699D01*
X65600Y156199D01*
X68099Y161197D02*
X67599Y160198D01*
X66600Y159198D01*
X65600D01*
X65100Y159698D01*
Y160698D01*
X65600Y161197D01*
X66100D01*
X66600Y160698D01*
Y159198D01*
X64600Y162197D02*
Y164196D01*
X65100Y166696D02*
X68099D01*
X66600Y165196D01*
Y167195D01*
X158799Y219299D02*
X159299Y218799D01*
Y217800D01*
X158799Y217300D01*
X156800D01*
X156300Y217800D01*
Y218799D01*
X156800Y219299D01*
X159299Y222298D02*
Y220299D01*
X157799D01*
X158299Y221299D01*
Y221798D01*
X157799Y222298D01*
X156800D01*
X156300Y221798D01*
Y220799D01*
X156800Y220299D01*
X159299Y225297D02*
X158799Y224298D01*
X157799Y223298D01*
X156800D01*
X156300Y223798D01*
Y224798D01*
X156800Y225297D01*
X157300D01*
X157799Y224798D01*
Y223298D01*
X155800Y226297D02*
Y228296D01*
X158799Y229296D02*
X159299Y229796D01*
Y230796D01*
X158799Y231295D01*
X158299D01*
X157799Y230796D01*
Y230296D01*
Y230796D01*
X157300Y231295D01*
X156800D01*
X156300Y230796D01*
Y229796D01*
X156800Y229296D01*
X234599Y157099D02*
X235099Y156599D01*
Y155600D01*
X234599Y155100D01*
X232600D01*
X232100Y155600D01*
Y156599D01*
X232600Y157099D01*
X235099Y160098D02*
Y158099D01*
X233599D01*
X234099Y159099D01*
Y159599D01*
X233599Y160098D01*
X232600D01*
X232100Y159599D01*
Y158599D01*
X232600Y158099D01*
X235099Y163097D02*
X234599Y162098D01*
X233599Y161098D01*
X232600D01*
X232100Y161598D01*
Y162598D01*
X232600Y163097D01*
X233100D01*
X233599Y162598D01*
Y161098D01*
X231600Y164097D02*
Y166096D01*
X232100Y169096D02*
Y167096D01*
X234099Y169096D01*
X234599D01*
X235099Y168596D01*
Y167596D01*
X234599Y167096D01*
X338099Y219599D02*
X338599Y219099D01*
Y218100D01*
X338099Y217600D01*
X336100D01*
X335600Y218100D01*
Y219099D01*
X336100Y219599D01*
X338599Y222598D02*
Y220599D01*
X337100D01*
X337599Y221599D01*
Y222098D01*
X337100Y222598D01*
X336100D01*
X335600Y222098D01*
Y221099D01*
X336100Y220599D01*
X338599Y225597D02*
X338099Y224598D01*
X337100Y223598D01*
X336100D01*
X335600Y224098D01*
Y225098D01*
X336100Y225597D01*
X336600D01*
X337100Y225098D01*
Y223598D01*
X335100Y226597D02*
Y228596D01*
X335600Y229596D02*
Y230596D01*
Y230096D01*
X338599D01*
X338099Y229596D01*
X57799Y215799D02*
X58299Y215300D01*
Y214300D01*
X57799Y213800D01*
X55800D01*
X55300Y214300D01*
Y215300D01*
X55800Y215799D01*
X58299Y218798D02*
Y216799D01*
X56800D01*
X57299Y217799D01*
Y218299D01*
X56800Y218798D01*
X55800D01*
X55300Y218299D01*
Y217299D01*
X55800Y216799D01*
X58299Y221797D02*
Y219798D01*
X56800D01*
X57299Y220798D01*
Y221298D01*
X56800Y221797D01*
X55800D01*
X55300Y221298D01*
Y220298D01*
X55800Y219798D01*
X54800Y222797D02*
Y224796D01*
X55300Y227296D02*
X58299D01*
X56800Y225796D01*
Y227796D01*
X149799Y277999D02*
X150299Y277500D01*
Y276500D01*
X149799Y276000D01*
X147800D01*
X147300Y276500D01*
Y277500D01*
X147800Y277999D01*
X150299Y280998D02*
Y278999D01*
X148800D01*
X149299Y279999D01*
Y280499D01*
X148800Y280998D01*
X147800D01*
X147300Y280499D01*
Y279499D01*
X147800Y278999D01*
X150299Y283997D02*
Y281998D01*
X148800D01*
X149299Y282998D01*
Y283498D01*
X148800Y283997D01*
X147800D01*
X147300Y283498D01*
Y282498D01*
X147800Y281998D01*
X146800Y284997D02*
Y286996D01*
X149799Y287996D02*
X150299Y288496D01*
Y289496D01*
X149799Y289996D01*
X149299D01*
X148800Y289496D01*
Y288996D01*
Y289496D01*
X148300Y289996D01*
X147800D01*
X147300Y289496D01*
Y288496D01*
X147800Y287996D01*
X255099Y225199D02*
X255599Y224699D01*
Y223700D01*
X255099Y223200D01*
X253100D01*
X252600Y223700D01*
Y224699D01*
X253100Y225199D01*
X255599Y228198D02*
Y226199D01*
X254099D01*
X254599Y227199D01*
Y227698D01*
X254099Y228198D01*
X253100D01*
X252600Y227698D01*
Y226699D01*
X253100Y226199D01*
X255599Y231197D02*
Y229198D01*
X254099D01*
X254599Y230198D01*
Y230698D01*
X254099Y231197D01*
X253100D01*
X252600Y230698D01*
Y229698D01*
X253100Y229198D01*
X252100Y232197D02*
Y234196D01*
X252600Y237195D02*
Y235196D01*
X254599Y237195D01*
X255099D01*
X255599Y236696D01*
Y235696D01*
X255099Y235196D01*
X327799Y278399D02*
X328299Y277900D01*
Y276900D01*
X327799Y276400D01*
X325800D01*
X325300Y276900D01*
Y277900D01*
X325800Y278399D01*
X328299Y281398D02*
Y279399D01*
X326800D01*
X327299Y280399D01*
Y280898D01*
X326800Y281398D01*
X325800D01*
X325300Y280898D01*
Y279899D01*
X325800Y279399D01*
X328299Y284397D02*
Y282398D01*
X326800D01*
X327299Y283398D01*
Y283898D01*
X326800Y284397D01*
X325800D01*
X325300Y283898D01*
Y282898D01*
X325800Y282398D01*
X324800Y285397D02*
Y287396D01*
X325300Y288396D02*
Y289396D01*
Y288896D01*
X328299D01*
X327799Y288396D01*
X62599Y215799D02*
X63099Y215300D01*
Y214300D01*
X62599Y213800D01*
X60600D01*
X60100Y214300D01*
Y215300D01*
X60600Y215799D01*
X63099Y218798D02*
Y216799D01*
X61599D01*
X62099Y217799D01*
Y218299D01*
X61599Y218798D01*
X60600D01*
X60100Y218299D01*
Y217299D01*
X60600Y216799D01*
X60100Y221298D02*
X63099D01*
X61599Y219798D01*
Y221797D01*
X59600Y222797D02*
Y224796D01*
X60100Y227296D02*
X63099D01*
X61599Y225796D01*
Y227796D01*
X154099Y278099D02*
X154599Y277600D01*
Y276600D01*
X154099Y276100D01*
X152100D01*
X151600Y276600D01*
Y277600D01*
X152100Y278099D01*
X154599Y281098D02*
Y279099D01*
X153100D01*
X153599Y280099D01*
Y280598D01*
X153100Y281098D01*
X152100D01*
X151600Y280598D01*
Y279599D01*
X152100Y279099D01*
X151600Y283598D02*
X154599D01*
X153100Y282098D01*
Y284097D01*
X151100Y285097D02*
Y287096D01*
X154099Y288096D02*
X154599Y288596D01*
Y289596D01*
X154099Y290095D01*
X153599D01*
X153100Y289596D01*
Y289096D01*
Y289596D01*
X152600Y290095D01*
X152100D01*
X151600Y289596D01*
Y288596D01*
X152100Y288096D01*
X259799Y225199D02*
X260299Y224699D01*
Y223700D01*
X259799Y223200D01*
X257800D01*
X257300Y223700D01*
Y224699D01*
X257800Y225199D01*
X260299Y228198D02*
Y226199D01*
X258800D01*
X259299Y227199D01*
Y227698D01*
X258800Y228198D01*
X257800D01*
X257300Y227698D01*
Y226699D01*
X257800Y226199D01*
X257300Y230698D02*
X260299D01*
X258800Y229198D01*
Y231197D01*
X256800Y232197D02*
Y234196D01*
X257300Y237195D02*
Y235196D01*
X259299Y237195D01*
X259799D01*
X260299Y236696D01*
Y235696D01*
X259799Y235196D01*
X332299Y278399D02*
X332799Y277900D01*
Y276900D01*
X332299Y276400D01*
X330300D01*
X329800Y276900D01*
Y277900D01*
X330300Y278399D01*
X332799Y281398D02*
Y279399D01*
X331299D01*
X331799Y280399D01*
Y280898D01*
X331299Y281398D01*
X330300D01*
X329800Y280898D01*
Y279899D01*
X330300Y279399D01*
X329800Y283898D02*
X332799D01*
X331299Y282398D01*
Y284397D01*
X329300Y285397D02*
Y287396D01*
X329800Y288396D02*
Y289396D01*
Y288896D01*
X332799D01*
X332299Y288396D01*
X35801Y166099D02*
X36301Y166599D01*
X37300D01*
X37800Y166099D01*
Y164100D01*
X37300Y163600D01*
X36301D01*
X35801Y164100D01*
X32802Y166599D02*
X34801D01*
Y165100D01*
X33801Y165599D01*
X33301D01*
X32802Y165100D01*
Y164100D01*
X33301Y163600D01*
X34301D01*
X34801Y164100D01*
X31802Y166099D02*
X31302Y166599D01*
X30302D01*
X29803Y166099D01*
Y165599D01*
X30302Y165100D01*
X30802D01*
X30302D01*
X29803Y164600D01*
Y164100D01*
X30302Y163600D01*
X31302D01*
X31802Y164100D01*
X28803Y163100D02*
X26804D01*
X24304Y163600D02*
Y166599D01*
X25804Y165100D01*
X23805D01*
X163199Y219199D02*
X163699Y218700D01*
Y217700D01*
X163199Y217200D01*
X161200D01*
X160700Y217700D01*
Y218700D01*
X161200Y219199D01*
X163699Y222198D02*
Y220199D01*
X162199D01*
X162699Y221199D01*
Y221698D01*
X162199Y222198D01*
X161200D01*
X160700Y221698D01*
Y220699D01*
X161200Y220199D01*
X163199Y223198D02*
X163699Y223698D01*
Y224698D01*
X163199Y225197D01*
X162699D01*
X162199Y224698D01*
Y224198D01*
Y224698D01*
X161700Y225197D01*
X161200D01*
X160700Y224698D01*
Y223698D01*
X161200Y223198D01*
X160200Y226197D02*
Y228196D01*
X163199Y229196D02*
X163699Y229696D01*
Y230696D01*
X163199Y231195D01*
X162699D01*
X162199Y230696D01*
Y230196D01*
Y230696D01*
X161700Y231195D01*
X161200D01*
X160700Y230696D01*
Y229696D01*
X161200Y229196D01*
X248599Y156999D02*
X249099Y156500D01*
Y155500D01*
X248599Y155000D01*
X246600D01*
X246100Y155500D01*
Y156500D01*
X246600Y156999D01*
X249099Y159998D02*
Y157999D01*
X247600D01*
X248099Y158999D01*
Y159499D01*
X247600Y159998D01*
X246600D01*
X246100Y159499D01*
Y158499D01*
X246600Y157999D01*
X248599Y160998D02*
X249099Y161498D01*
Y162498D01*
X248599Y162997D01*
X248099D01*
X247600Y162498D01*
Y161998D01*
Y162498D01*
X247100Y162997D01*
X246600D01*
X246100Y162498D01*
Y161498D01*
X246600Y160998D01*
X245600Y163997D02*
Y165996D01*
X246100Y168995D02*
Y166996D01*
X248099Y168995D01*
X248599D01*
X249099Y168496D01*
Y167496D01*
X248599Y166996D01*
X309701Y248399D02*
X310201Y248899D01*
X311200D01*
X311700Y248399D01*
Y246400D01*
X311200Y245900D01*
X310201D01*
X309701Y246400D01*
X306702Y248899D02*
X308701D01*
Y247399D01*
X307701Y247899D01*
X307202D01*
X306702Y247399D01*
Y246400D01*
X307202Y245900D01*
X308201D01*
X308701Y246400D01*
X305702Y248399D02*
X305202Y248899D01*
X304202D01*
X303703Y248399D01*
Y247899D01*
X304202Y247399D01*
X304702D01*
X304202D01*
X303703Y246900D01*
Y246400D01*
X304202Y245900D01*
X305202D01*
X305702Y246400D01*
X302703Y245400D02*
X300704D01*
X299704Y245900D02*
X298704D01*
X299204D01*
Y248899D01*
X299704Y248399D01*
X80499Y171299D02*
X80999Y170800D01*
Y169800D01*
X80499Y169300D01*
X78500D01*
X78000Y169800D01*
Y170800D01*
X78500Y171299D01*
X80999Y174298D02*
Y172299D01*
X79500D01*
X79999Y173299D01*
Y173799D01*
X79500Y174298D01*
X78500D01*
X78000Y173799D01*
Y172799D01*
X78500Y172299D01*
X78000Y177297D02*
Y175298D01*
X79999Y177297D01*
X80499D01*
X80999Y176798D01*
Y175798D01*
X80499Y175298D01*
X77500Y178297D02*
Y180296D01*
X78000Y182796D02*
X80999D01*
X79500Y181296D01*
Y183296D01*
X167899Y209099D02*
X168399Y208599D01*
Y207600D01*
X167899Y207100D01*
X165900D01*
X165400Y207600D01*
Y208599D01*
X165900Y209099D01*
X168399Y212098D02*
Y210099D01*
X166900D01*
X167399Y211099D01*
Y211598D01*
X166900Y212098D01*
X165900D01*
X165400Y211598D01*
Y210599D01*
X165900Y210099D01*
X165400Y215097D02*
Y213098D01*
X167399Y215097D01*
X167899D01*
X168399Y214598D01*
Y213598D01*
X167899Y213098D01*
X164900Y216097D02*
Y218096D01*
X167899Y219096D02*
X168399Y219596D01*
Y220596D01*
X167899Y221095D01*
X167399D01*
X166900Y220596D01*
Y220096D01*
Y220596D01*
X166400Y221095D01*
X165900D01*
X165400Y220596D01*
Y219596D01*
X165900Y219096D01*
X253599Y157199D02*
X254099Y156700D01*
Y155700D01*
X253599Y155200D01*
X251600D01*
X251100Y155700D01*
Y156700D01*
X251600Y157199D01*
X254099Y160198D02*
Y158199D01*
X252600D01*
X253099Y159199D01*
Y159699D01*
X252600Y160198D01*
X251600D01*
X251100Y159699D01*
Y158699D01*
X251600Y158199D01*
X251100Y163197D02*
Y161198D01*
X253099Y163197D01*
X253599D01*
X254099Y162698D01*
Y161698D01*
X253599Y161198D01*
X250600Y164197D02*
Y166196D01*
X251100Y169195D02*
Y167196D01*
X253099Y169195D01*
X253599D01*
X254099Y168696D01*
Y167696D01*
X253599Y167196D01*
X343699Y219599D02*
X344199Y219099D01*
Y218100D01*
X343699Y217600D01*
X341700D01*
X341200Y218100D01*
Y219099D01*
X341700Y219599D01*
X344199Y222598D02*
Y220599D01*
X342700D01*
X343199Y221599D01*
Y222098D01*
X342700Y222598D01*
X341700D01*
X341200Y222098D01*
Y221099D01*
X341700Y220599D01*
X341200Y225597D02*
Y223598D01*
X343199Y225597D01*
X343699D01*
X344199Y225098D01*
Y224098D01*
X343699Y223598D01*
X340700Y226597D02*
Y228596D01*
X341200Y229596D02*
Y230596D01*
Y230096D01*
X344199D01*
X343699Y229596D01*
X97501Y193399D02*
X98001Y193899D01*
X99000D01*
X99500Y193399D01*
Y191400D01*
X99000Y190900D01*
X98001D01*
X97501Y191400D01*
X94502Y193899D02*
X96501D01*
Y192400D01*
X95501Y192899D01*
X95001D01*
X94502Y192400D01*
Y191400D01*
X95001Y190900D01*
X96001D01*
X96501Y191400D01*
X93502Y190900D02*
X92502D01*
X93002D01*
Y193899D01*
X93502Y193399D01*
X91003Y190400D02*
X89003D01*
X86504Y190900D02*
Y193899D01*
X88004Y192400D01*
X86004D01*
X176999Y259499D02*
X177499Y258999D01*
Y258000D01*
X176999Y257500D01*
X175000D01*
X174500Y258000D01*
Y258999D01*
X175000Y259499D01*
X177499Y262498D02*
Y260499D01*
X175999D01*
X176499Y261499D01*
Y261999D01*
X175999Y262498D01*
X175000D01*
X174500Y261999D01*
Y260999D01*
X175000Y260499D01*
X174500Y263498D02*
Y264498D01*
Y263998D01*
X177499D01*
X176999Y263498D01*
X174000Y265997D02*
Y267997D01*
X176999Y268996D02*
X177499Y269496D01*
Y270496D01*
X176999Y270996D01*
X176499D01*
X175999Y270496D01*
Y269996D01*
Y270496D01*
X175500Y270996D01*
X175000D01*
X174500Y270496D01*
Y269496D01*
X175000Y268996D01*
X272001Y182899D02*
X272500Y183399D01*
X273500D01*
X274000Y182899D01*
Y180900D01*
X273500Y180400D01*
X272500D01*
X272001Y180900D01*
X269002Y183399D02*
X271001D01*
Y181899D01*
X270001Y182399D01*
X269501D01*
X269002Y181899D01*
Y180900D01*
X269501Y180400D01*
X270501D01*
X271001Y180900D01*
X268002Y180400D02*
X267002D01*
X267502D01*
Y183399D01*
X268002Y182899D01*
X265503Y179900D02*
X263503D01*
X260504Y180400D02*
X262504D01*
X260504Y182399D01*
Y182899D01*
X261004Y183399D01*
X262004D01*
X262504Y182899D01*
X368101Y253999D02*
X368601Y254499D01*
X369600D01*
X370100Y253999D01*
Y252000D01*
X369600Y251500D01*
X368601D01*
X368101Y252000D01*
X365102Y254499D02*
X367101D01*
Y252999D01*
X366101Y253499D01*
X365601D01*
X365102Y252999D01*
Y252000D01*
X365601Y251500D01*
X366601D01*
X367101Y252000D01*
X364102Y251500D02*
X363102D01*
X363602D01*
Y254499D01*
X364102Y253999D01*
X361603Y251000D02*
X359603D01*
X358604Y251500D02*
X357604D01*
X358104D01*
Y254499D01*
X358604Y253999D01*
X75799Y215899D02*
X76299Y215400D01*
Y214400D01*
X75799Y213900D01*
X73800D01*
X73300Y214400D01*
Y215400D01*
X73800Y215899D01*
X76299Y218898D02*
Y216899D01*
X74800D01*
X75299Y217899D01*
Y218398D01*
X74800Y218898D01*
X73800D01*
X73300Y218398D01*
Y217399D01*
X73800Y216899D01*
X75799Y219898D02*
X76299Y220398D01*
Y221398D01*
X75799Y221897D01*
X73800D01*
X73300Y221398D01*
Y220398D01*
X73800Y219898D01*
X75799D01*
X72800Y222897D02*
Y224896D01*
X73300Y227396D02*
X76299D01*
X74800Y225896D01*
Y227895D01*
X167699Y277799D02*
X168199Y277299D01*
Y276300D01*
X167699Y275800D01*
X165700D01*
X165200Y276300D01*
Y277299D01*
X165700Y277799D01*
X168199Y280798D02*
Y278799D01*
X166700D01*
X167199Y279799D01*
Y280298D01*
X166700Y280798D01*
X165700D01*
X165200Y280298D01*
Y279299D01*
X165700Y278799D01*
X167699Y281798D02*
X168199Y282298D01*
Y283298D01*
X167699Y283797D01*
X165700D01*
X165200Y283298D01*
Y282298D01*
X165700Y281798D01*
X167699D01*
X164700Y284797D02*
Y286796D01*
X167699Y287796D02*
X168199Y288296D01*
Y289296D01*
X167699Y289795D01*
X167199D01*
X166700Y289296D01*
Y288796D01*
Y289296D01*
X166200Y289795D01*
X165700D01*
X165200Y289296D01*
Y288296D01*
X165700Y287796D01*
X273999Y224899D02*
X274499Y224399D01*
Y223400D01*
X273999Y222900D01*
X272000D01*
X271500Y223400D01*
Y224399D01*
X272000Y224899D01*
X274499Y227898D02*
Y225899D01*
X273000D01*
X273499Y226899D01*
Y227398D01*
X273000Y227898D01*
X272000D01*
X271500Y227398D01*
Y226399D01*
X272000Y225899D01*
X273999Y228898D02*
X274499Y229398D01*
Y230398D01*
X273999Y230897D01*
X272000D01*
X271500Y230398D01*
Y229398D01*
X272000Y228898D01*
X273999D01*
X271000Y231897D02*
Y233896D01*
X271500Y236895D02*
Y234896D01*
X273499Y236895D01*
X273999D01*
X274499Y236396D01*
Y235396D01*
X273999Y234896D01*
X345699Y278199D02*
X346199Y277699D01*
Y276700D01*
X345699Y276200D01*
X343700D01*
X343200Y276700D01*
Y277699D01*
X343700Y278199D01*
X346199Y281198D02*
Y279199D01*
X344700D01*
X345199Y280199D01*
Y280698D01*
X344700Y281198D01*
X343700D01*
X343200Y280698D01*
Y279699D01*
X343700Y279199D01*
X345699Y282198D02*
X346199Y282698D01*
Y283698D01*
X345699Y284197D01*
X343700D01*
X343200Y283698D01*
Y282698D01*
X343700Y282198D01*
X345699D01*
X342700Y285197D02*
Y287196D01*
X343200Y288196D02*
Y289196D01*
Y288696D01*
X346199D01*
X345699Y288196D01*
X42201Y120899D02*
X42700Y121399D01*
X43700D01*
X44200Y120899D01*
Y118900D01*
X43700Y118400D01*
X42700D01*
X42201Y118900D01*
X39701Y118400D02*
Y121399D01*
X41201Y119899D01*
X39202D01*
X38202Y118900D02*
X37702Y118400D01*
X36702D01*
X36203Y118900D01*
Y120899D01*
X36702Y121399D01*
X37702D01*
X38202Y120899D01*
Y120399D01*
X37702Y119899D01*
X36203D01*
X35203Y117900D02*
X33204D01*
X30704Y118400D02*
Y121399D01*
X32204Y119899D01*
X30204D01*
X123301Y121399D02*
X123801Y121899D01*
X124800D01*
X125300Y121399D01*
Y119400D01*
X124800Y118900D01*
X123801D01*
X123301Y119400D01*
X120801Y118900D02*
Y121899D01*
X122301Y120399D01*
X120302D01*
X119302Y119400D02*
X118802Y118900D01*
X117802D01*
X117303Y119400D01*
Y121399D01*
X117802Y121899D01*
X118802D01*
X119302Y121399D01*
Y120899D01*
X118802Y120399D01*
X117303D01*
X116303Y118400D02*
X114304D01*
X113304Y121399D02*
X112804Y121899D01*
X111804D01*
X111304Y121399D01*
Y120899D01*
X111804Y120399D01*
X112304D01*
X111804D01*
X111304Y119900D01*
Y119400D01*
X111804Y118900D01*
X112804D01*
X113304Y119400D01*
X204701Y121199D02*
X205201Y121699D01*
X206200D01*
X206700Y121199D01*
Y119200D01*
X206200Y118700D01*
X205201D01*
X204701Y119200D01*
X202201Y118700D02*
Y121699D01*
X203701Y120200D01*
X201702D01*
X200702Y119200D02*
X200202Y118700D01*
X199202D01*
X198703Y119200D01*
Y121199D01*
X199202Y121699D01*
X200202D01*
X200702Y121199D01*
Y120699D01*
X200202Y120200D01*
X198703D01*
X197703Y118200D02*
X195704D01*
X192704Y118700D02*
X194704D01*
X192704Y120699D01*
Y121199D01*
X193204Y121699D01*
X194204D01*
X194704Y121199D01*
X284801D02*
X285300Y121699D01*
X286300D01*
X286800Y121199D01*
Y119200D01*
X286300Y118700D01*
X285300D01*
X284801Y119200D01*
X282301Y118700D02*
Y121699D01*
X283801Y120200D01*
X281802D01*
X280802Y119200D02*
X280302Y118700D01*
X279302D01*
X278803Y119200D01*
Y121199D01*
X279302Y121699D01*
X280302D01*
X280802Y121199D01*
Y120699D01*
X280302Y120200D01*
X278803D01*
X277803Y118200D02*
X275804D01*
X274804Y118700D02*
X273804D01*
X274304D01*
Y121699D01*
X274804Y121199D01*
X35801Y161599D02*
X36301Y162099D01*
X37300D01*
X37800Y161599D01*
Y159600D01*
X37300Y159100D01*
X36301D01*
X35801Y159600D01*
X33301Y159100D02*
Y162099D01*
X34801Y160600D01*
X32802D01*
X31802Y161599D02*
X31302Y162099D01*
X30302D01*
X29803Y161599D01*
Y161099D01*
X30302Y160600D01*
X29803Y160100D01*
Y159600D01*
X30302Y159100D01*
X31302D01*
X31802Y159600D01*
Y160100D01*
X31302Y160600D01*
X31802Y161099D01*
Y161599D01*
X31302Y160600D02*
X30302D01*
X28803Y158600D02*
X26804D01*
X24304Y159100D02*
Y162099D01*
X25804Y160600D01*
X23805D01*
X110599Y232499D02*
X111099Y231999D01*
Y231000D01*
X110599Y230500D01*
X108600D01*
X108100Y231000D01*
Y231999D01*
X108600Y232499D01*
X108100Y234998D02*
X111099D01*
X109599Y233499D01*
Y235498D01*
X110599Y236498D02*
X111099Y236998D01*
Y237998D01*
X110599Y238497D01*
X110099D01*
X109599Y237998D01*
X109100Y238497D01*
X108600D01*
X108100Y237998D01*
Y236998D01*
X108600Y236498D01*
X109100D01*
X109599Y236998D01*
X110099Y236498D01*
X110599D01*
X109599Y236998D02*
Y237998D01*
X107600Y239497D02*
Y241496D01*
X110599Y242496D02*
X111099Y242996D01*
Y243996D01*
X110599Y244496D01*
X110099D01*
X109599Y243996D01*
Y243496D01*
Y243996D01*
X109100Y244496D01*
X108600D01*
X108100Y243996D01*
Y242996D01*
X108600Y242496D01*
X196501Y163599D02*
X197001Y164099D01*
X198000D01*
X198500Y163599D01*
Y161600D01*
X198000Y161100D01*
X197001D01*
X196501Y161600D01*
X194001Y161100D02*
Y164099D01*
X195501Y162600D01*
X193502D01*
X192502Y163599D02*
X192002Y164099D01*
X191002D01*
X190503Y163599D01*
Y163099D01*
X191002Y162600D01*
X190503Y162100D01*
Y161600D01*
X191002Y161100D01*
X192002D01*
X192502Y161600D01*
Y162100D01*
X192002Y162600D01*
X192502Y163099D01*
Y163599D01*
X192002Y162600D02*
X191002D01*
X189503Y160600D02*
X187504D01*
X184504Y161100D02*
X186504D01*
X184504Y163099D01*
Y163599D01*
X185004Y164099D01*
X186004D01*
X186504Y163599D01*
X296599Y232899D02*
X297099Y232400D01*
Y231400D01*
X296599Y230900D01*
X294600D01*
X294100Y231400D01*
Y232400D01*
X294600Y232899D01*
X294100Y235399D02*
X297099D01*
X295600Y233899D01*
Y235898D01*
X296599Y236898D02*
X297099Y237398D01*
Y238398D01*
X296599Y238897D01*
X296099D01*
X295600Y238398D01*
X295100Y238897D01*
X294600D01*
X294100Y238398D01*
Y237398D01*
X294600Y236898D01*
X295100D01*
X295600Y237398D01*
X296099Y236898D01*
X296599D01*
X295600Y237398D02*
Y238398D01*
X293600Y239897D02*
Y241896D01*
X294100Y242896D02*
Y243896D01*
Y243396D01*
X297099D01*
X296599Y242896D01*
X16799Y152099D02*
X17299Y151600D01*
Y150600D01*
X16799Y150100D01*
X14800D01*
X14300Y150600D01*
Y151600D01*
X14800Y152099D01*
X14300Y154599D02*
X17299D01*
X15800Y153099D01*
Y155098D01*
X17299Y156098D02*
Y158097D01*
X16799D01*
X14800Y156098D01*
X14300D01*
X13800Y159097D02*
Y161096D01*
X14300Y163596D02*
X17299D01*
X15800Y162096D01*
Y164095D01*
X125299Y220799D02*
X125799Y220300D01*
Y219300D01*
X125299Y218800D01*
X123300D01*
X122800Y219300D01*
Y220300D01*
X123300Y220799D01*
X122800Y223299D02*
X125799D01*
X124300Y221799D01*
Y223798D01*
X125799Y224798D02*
Y226797D01*
X125299D01*
X123300Y224798D01*
X122800D01*
X122300Y227797D02*
Y229796D01*
X125299Y230796D02*
X125799Y231296D01*
Y232296D01*
X125299Y232796D01*
X124799D01*
X124300Y232296D01*
Y231796D01*
Y232296D01*
X123800Y232796D01*
X123300D01*
X122800Y232296D01*
Y231296D01*
X123300Y230796D01*
X205801Y168399D02*
X206300Y168899D01*
X207300D01*
X207800Y168399D01*
Y166400D01*
X207300Y165900D01*
X206300D01*
X205801Y166400D01*
X203301Y165900D02*
Y168899D01*
X204801Y167400D01*
X202802D01*
X201802Y168899D02*
X199803D01*
Y168399D01*
X201802Y166400D01*
Y165900D01*
X198803Y165400D02*
X196804D01*
X193805Y165900D02*
X195804D01*
X193805Y167899D01*
Y168399D01*
X194304Y168899D01*
X195304D01*
X195804Y168399D01*
X291499Y223599D02*
X291999Y223099D01*
Y222100D01*
X291499Y221600D01*
X289500D01*
X289000Y222100D01*
Y223099D01*
X289500Y223599D01*
X289000Y226098D02*
X291999D01*
X290499Y224599D01*
Y226598D01*
X291999Y227598D02*
Y229597D01*
X291499D01*
X289500Y227598D01*
X289000D01*
X288500Y230597D02*
Y232596D01*
X289000Y233596D02*
Y234596D01*
Y234096D01*
X291999D01*
X291499Y233596D01*
X32501Y193399D02*
X33000Y193899D01*
X34000D01*
X34500Y193399D01*
Y191400D01*
X34000Y190900D01*
X33000D01*
X32501Y191400D01*
X30001Y190900D02*
Y193899D01*
X31501Y192400D01*
X29502D01*
X26503Y193899D02*
X27502Y193399D01*
X28502Y192400D01*
Y191400D01*
X28002Y190900D01*
X27002D01*
X26503Y191400D01*
Y191900D01*
X27002Y192400D01*
X28502D01*
X25503Y190400D02*
X23504D01*
X21004Y190900D02*
Y193899D01*
X22504Y192400D01*
X20504D01*
X224501Y162099D02*
X225001Y162599D01*
X226000D01*
X226500Y162099D01*
Y160100D01*
X226000Y159600D01*
X225001D01*
X224501Y160100D01*
X222002Y159600D02*
Y162599D01*
X223501Y161100D01*
X221502D01*
X218503Y162599D02*
X219502Y162099D01*
X220502Y161100D01*
Y160100D01*
X220002Y159600D01*
X219002D01*
X218503Y160100D01*
Y160600D01*
X219002Y161100D01*
X220502D01*
X217503Y159100D02*
X215504D01*
X212505Y159600D02*
X214504D01*
X212505Y161599D01*
Y162099D01*
X213004Y162599D01*
X214004D01*
X214504Y162099D01*
X294001Y271399D02*
X294500Y271899D01*
X295500D01*
X296000Y271399D01*
Y269400D01*
X295500Y268900D01*
X294500D01*
X294001Y269400D01*
X291501Y268900D02*
Y271899D01*
X293001Y270399D01*
X291002D01*
X288003Y271899D02*
X289002Y271399D01*
X290002Y270399D01*
Y269400D01*
X289502Y268900D01*
X288502D01*
X288003Y269400D01*
Y269900D01*
X288502Y270399D01*
X290002D01*
X287003Y268400D02*
X285004D01*
X284004Y268900D02*
X283004D01*
X283504D01*
Y271899D01*
X284004Y271399D01*
X189699Y196199D02*
X190199Y195700D01*
Y194700D01*
X189699Y194200D01*
X187700D01*
X187200Y194700D01*
Y195700D01*
X187700Y196199D01*
X187200Y198699D02*
X190199D01*
X188699Y197199D01*
Y199198D01*
X190199Y202197D02*
Y200198D01*
X188699D01*
X189199Y201198D01*
Y201698D01*
X188699Y202197D01*
X187700D01*
X187200Y201698D01*
Y200698D01*
X187700Y200198D01*
X186700Y203197D02*
Y205196D01*
X187200Y208195D02*
Y206196D01*
X189199Y208195D01*
X189699D01*
X190199Y207696D01*
Y206696D01*
X189699Y206196D01*
X114201Y165199D02*
X114700Y165699D01*
X115700D01*
X116200Y165199D01*
Y163200D01*
X115700Y162700D01*
X114700D01*
X114201Y163200D01*
X111701Y162700D02*
Y165699D01*
X113201Y164199D01*
X111202D01*
X108702Y162700D02*
Y165699D01*
X110202Y164199D01*
X108203D01*
X107203Y162200D02*
X105204D01*
X102704Y162700D02*
Y165699D01*
X104204Y164199D01*
X102205D01*
X196101Y236999D02*
X196600Y237499D01*
X197600D01*
X198100Y236999D01*
Y235000D01*
X197600Y234500D01*
X196600D01*
X196101Y235000D01*
X193601Y234500D02*
Y237499D01*
X195101Y235999D01*
X193102D01*
X190602Y234500D02*
Y237499D01*
X192102Y235999D01*
X190103D01*
X189103Y234000D02*
X187104D01*
X186104Y236999D02*
X185604Y237499D01*
X184604D01*
X184105Y236999D01*
Y236499D01*
X184604Y235999D01*
X185104D01*
X184604D01*
X184105Y235500D01*
Y235000D01*
X184604Y234500D01*
X185604D01*
X186104Y235000D01*
X279399Y149499D02*
X279899Y149000D01*
Y148000D01*
X279399Y147500D01*
X277400D01*
X276900Y148000D01*
Y149000D01*
X277400Y149499D01*
X276900Y151999D02*
X279899D01*
X278399Y150499D01*
Y152498D01*
X276900Y154998D02*
X279899D01*
X278399Y153498D01*
Y155497D01*
X276400Y156497D02*
Y158496D01*
X276900Y161495D02*
Y159496D01*
X278899Y161495D01*
X279399D01*
X279899Y160996D01*
Y159996D01*
X279399Y159496D01*
X321101Y226099D02*
X321601Y226599D01*
X322600D01*
X323100Y226099D01*
Y224100D01*
X322600Y223600D01*
X321601D01*
X321101Y224100D01*
X318601Y223600D02*
Y226599D01*
X320101Y225099D01*
X318102D01*
X315602Y223600D02*
Y226599D01*
X317102Y225099D01*
X315103D01*
X314103Y223100D02*
X312104D01*
X311104Y223600D02*
X310104D01*
X310604D01*
Y226599D01*
X311104Y226099D01*
X113399Y169999D02*
X113899Y169500D01*
Y168500D01*
X113399Y168000D01*
X111400D01*
X110900Y168500D01*
Y169500D01*
X111400Y169999D01*
X110900Y172499D02*
X113899D01*
X112399Y170999D01*
Y172998D01*
X113399Y173998D02*
X113899Y174498D01*
Y175498D01*
X113399Y175997D01*
X112899D01*
X112399Y175498D01*
Y174998D01*
Y175498D01*
X111900Y175997D01*
X111400D01*
X110900Y175498D01*
Y174498D01*
X111400Y173998D01*
X110400Y176997D02*
Y178996D01*
X110900Y181496D02*
X113899D01*
X112399Y179996D01*
Y181995D01*
X196101Y225899D02*
X196600Y226399D01*
X197600D01*
X198100Y225899D01*
Y223900D01*
X197600Y223400D01*
X196600D01*
X196101Y223900D01*
X193601Y223400D02*
Y226399D01*
X195101Y224900D01*
X193102D01*
X192102Y225899D02*
X191602Y226399D01*
X190602D01*
X190103Y225899D01*
Y225399D01*
X190602Y224900D01*
X191102D01*
X190602D01*
X190103Y224400D01*
Y223900D01*
X190602Y223400D01*
X191602D01*
X192102Y223900D01*
X189103Y222900D02*
X187104D01*
X186104Y225899D02*
X185604Y226399D01*
X184604D01*
X184105Y225899D01*
Y225399D01*
X184604Y224900D01*
X185104D01*
X184604D01*
X184105Y224400D01*
Y223900D01*
X184604Y223400D01*
X185604D01*
X186104Y223900D01*
X312201Y220899D02*
X312701Y221399D01*
X313700D01*
X314200Y220899D01*
Y218900D01*
X313700Y218400D01*
X312701D01*
X312201Y218900D01*
X309701Y218400D02*
Y221399D01*
X311201Y219900D01*
X309202D01*
X308202Y220899D02*
X307702Y221399D01*
X306702D01*
X306203Y220899D01*
Y220399D01*
X306702Y219900D01*
X307202D01*
X306702D01*
X306203Y219400D01*
Y218900D01*
X306702Y218400D01*
X307702D01*
X308202Y218900D01*
X305203Y217900D02*
X303204D01*
X302204Y218400D02*
X301204D01*
X301704D01*
Y221399D01*
X302204Y220899D01*
X97401Y197999D02*
X97900Y198499D01*
X98900D01*
X99400Y197999D01*
Y196000D01*
X98900Y195500D01*
X97900D01*
X97401Y196000D01*
X94901Y195500D02*
Y198499D01*
X96401Y197000D01*
X94402D01*
X91403Y195500D02*
X93402D01*
X91403Y197499D01*
Y197999D01*
X91902Y198499D01*
X92902D01*
X93402Y197999D01*
X90403Y195000D02*
X88404D01*
X85904Y195500D02*
Y198499D01*
X87404Y197000D01*
X85404D01*
X205601Y251299D02*
X206101Y251799D01*
X207100D01*
X207600Y251299D01*
Y249300D01*
X207100Y248800D01*
X206101D01*
X205601Y249300D01*
X203101Y248800D02*
Y251799D01*
X204601Y250300D01*
X202602D01*
X199603Y248800D02*
X201602D01*
X199603Y250799D01*
Y251299D01*
X200102Y251799D01*
X201102D01*
X201602Y251299D01*
X198603Y248300D02*
X196604D01*
X195604Y251299D02*
X195104Y251799D01*
X194104D01*
X193605Y251299D01*
Y250799D01*
X194104Y250300D01*
X194604D01*
X194104D01*
X193605Y249800D01*
Y249300D01*
X194104Y248800D01*
X195104D01*
X195604Y249300D01*
X272001Y186999D02*
X272500Y187499D01*
X273500D01*
X274000Y186999D01*
Y185000D01*
X273500Y184500D01*
X272500D01*
X272001Y185000D01*
X269501Y184500D02*
Y187499D01*
X271001Y186000D01*
X269002D01*
X266003Y184500D02*
X268002D01*
X266003Y186499D01*
Y186999D01*
X266502Y187499D01*
X267502D01*
X268002Y186999D01*
X265003Y184000D02*
X263004D01*
X260004Y184500D02*
X262004D01*
X260004Y186499D01*
Y186999D01*
X260504Y187499D01*
X261504D01*
X262004Y186999D01*
X326601Y206099D02*
X327100Y206599D01*
X328100D01*
X328600Y206099D01*
Y204100D01*
X328100Y203600D01*
X327100D01*
X326601Y204100D01*
X324101Y203600D02*
Y206599D01*
X325601Y205100D01*
X323602D01*
X320603Y203600D02*
X322602D01*
X320603Y205599D01*
Y206099D01*
X321102Y206599D01*
X322102D01*
X322602Y206099D01*
X319603Y203100D02*
X317604D01*
X316604Y203600D02*
X315604D01*
X316104D01*
Y206599D01*
X316604Y206099D01*
X137899Y200499D02*
X138399Y199999D01*
Y199000D01*
X137899Y198500D01*
X135900D01*
X135400Y199000D01*
Y199999D01*
X135900Y200499D01*
X135400Y202999D02*
X138399D01*
X136899Y201499D01*
Y203498D01*
X135400Y204498D02*
Y205498D01*
Y204998D01*
X138399D01*
X137899Y204498D01*
X134900Y206997D02*
Y208997D01*
X135400Y211496D02*
X138399D01*
X136899Y209996D01*
Y211996D01*
X292399Y190699D02*
X292899Y190199D01*
Y189200D01*
X292399Y188700D01*
X290400D01*
X289900Y189200D01*
Y190199D01*
X290400Y190699D01*
X289900Y193199D02*
X292899D01*
X291400Y191699D01*
Y193698D01*
X289900Y194698D02*
Y195698D01*
Y195198D01*
X292899D01*
X292399Y194698D01*
X289400Y197197D02*
Y199197D01*
X289900Y202196D02*
Y200196D01*
X291899Y202196D01*
X292399D01*
X292899Y201696D01*
Y200696D01*
X292399Y200196D01*
X93901Y87599D02*
X94401Y88099D01*
X95400D01*
X95900Y87599D01*
Y85600D01*
X95400Y85100D01*
X94401D01*
X93901Y85600D01*
X91401Y85100D02*
Y88099D01*
X92901Y86599D01*
X90902D01*
X89902Y87599D02*
X89402Y88099D01*
X88402D01*
X87903Y87599D01*
Y85600D01*
X88402Y85100D01*
X89402D01*
X89902Y85600D01*
Y87599D01*
X86903Y84600D02*
X84904D01*
X82404Y85100D02*
Y88099D01*
X83904Y86599D01*
X81905D01*
X175101Y88299D02*
X175601Y88799D01*
X176600D01*
X177100Y88299D01*
Y86300D01*
X176600Y85800D01*
X175601D01*
X175101Y86300D01*
X172601Y85800D02*
Y88799D01*
X174101Y87300D01*
X172102D01*
X171102Y88299D02*
X170602Y88799D01*
X169602D01*
X169103Y88299D01*
Y86300D01*
X169602Y85800D01*
X170602D01*
X171102Y86300D01*
Y88299D01*
X168103Y85300D02*
X166104D01*
X165104Y88299D02*
X164604Y88799D01*
X163604D01*
X163104Y88299D01*
Y87799D01*
X163604Y87300D01*
X164104D01*
X163604D01*
X163104Y86800D01*
Y86300D01*
X163604Y85800D01*
X164604D01*
X165104Y86300D01*
X256301Y88099D02*
X256801Y88599D01*
X257800D01*
X258300Y88099D01*
Y86100D01*
X257800Y85600D01*
X256801D01*
X256301Y86100D01*
X253801Y85600D02*
Y88599D01*
X255301Y87099D01*
X253302D01*
X252302Y88099D02*
X251802Y88599D01*
X250802D01*
X250303Y88099D01*
Y86100D01*
X250802Y85600D01*
X251802D01*
X252302Y86100D01*
Y88099D01*
X249303Y85100D02*
X247304D01*
X244304Y85600D02*
X246304D01*
X244304Y87599D01*
Y88099D01*
X244804Y88599D01*
X245804D01*
X246304Y88099D01*
X336601Y87799D02*
X337101Y88299D01*
X338100D01*
X338600Y87799D01*
Y85800D01*
X338100Y85300D01*
X337101D01*
X336601Y85800D01*
X334102Y85300D02*
Y88299D01*
X335601Y86800D01*
X333602D01*
X332602Y87799D02*
X332102Y88299D01*
X331102D01*
X330603Y87799D01*
Y85800D01*
X331102Y85300D01*
X332102D01*
X332602Y85800D01*
Y87799D01*
X329603Y84800D02*
X327604D01*
X326604Y85300D02*
X325604D01*
X326104D01*
Y88299D01*
X326604Y87799D01*
X53099Y215799D02*
X53599Y215300D01*
Y214300D01*
X53099Y213800D01*
X51100D01*
X50600Y214300D01*
Y215300D01*
X51100Y215799D01*
X53099Y216799D02*
X53599Y217299D01*
Y218299D01*
X53099Y218798D01*
X52599D01*
X52100Y218299D01*
Y217799D01*
Y218299D01*
X51600Y218798D01*
X51100D01*
X50600Y218299D01*
Y217299D01*
X51100Y216799D01*
Y219798D02*
X50600Y220298D01*
Y221298D01*
X51100Y221797D01*
X53099D01*
X53599Y221298D01*
Y220298D01*
X53099Y219798D01*
X52599D01*
X52100Y220298D01*
Y221797D01*
X50100Y222797D02*
Y224796D01*
X50600Y227296D02*
X53599D01*
X52100Y225796D01*
Y227796D01*
X145199Y278099D02*
X145699Y277600D01*
Y276600D01*
X145199Y276100D01*
X143200D01*
X142700Y276600D01*
Y277600D01*
X143200Y278099D01*
X145199Y279099D02*
X145699Y279599D01*
Y280598D01*
X145199Y281098D01*
X144699D01*
X144200Y280598D01*
Y280099D01*
Y280598D01*
X143700Y281098D01*
X143200D01*
X142700Y280598D01*
Y279599D01*
X143200Y279099D01*
Y282098D02*
X142700Y282598D01*
Y283598D01*
X143200Y284097D01*
X145199D01*
X145699Y283598D01*
Y282598D01*
X145199Y282098D01*
X144699D01*
X144200Y282598D01*
Y284097D01*
X142200Y285097D02*
Y287096D01*
X145199Y288096D02*
X145699Y288596D01*
Y289596D01*
X145199Y290095D01*
X144699D01*
X144200Y289596D01*
Y289096D01*
Y289596D01*
X143700Y290095D01*
X143200D01*
X142700Y289596D01*
Y288596D01*
X143200Y288096D01*
X250199Y225199D02*
X250699Y224699D01*
Y223700D01*
X250199Y223200D01*
X248200D01*
X247700Y223700D01*
Y224699D01*
X248200Y225199D01*
X250199Y226199D02*
X250699Y226699D01*
Y227698D01*
X250199Y228198D01*
X249699D01*
X249200Y227698D01*
Y227199D01*
Y227698D01*
X248700Y228198D01*
X248200D01*
X247700Y227698D01*
Y226699D01*
X248200Y226199D01*
Y229198D02*
X247700Y229698D01*
Y230698D01*
X248200Y231197D01*
X250199D01*
X250699Y230698D01*
Y229698D01*
X250199Y229198D01*
X249699D01*
X249200Y229698D01*
Y231197D01*
X247200Y232197D02*
Y234196D01*
X247700Y237195D02*
Y235196D01*
X249699Y237195D01*
X250199D01*
X250699Y236696D01*
Y235696D01*
X250199Y235196D01*
X323299Y278499D02*
X323799Y277999D01*
Y277000D01*
X323299Y276500D01*
X321300D01*
X320800Y277000D01*
Y277999D01*
X321300Y278499D01*
X323299Y279499D02*
X323799Y279999D01*
Y280998D01*
X323299Y281498D01*
X322799D01*
X322300Y280998D01*
Y280499D01*
Y280998D01*
X321800Y281498D01*
X321300D01*
X320800Y280998D01*
Y279999D01*
X321300Y279499D01*
Y282498D02*
X320800Y282998D01*
Y283998D01*
X321300Y284497D01*
X323299D01*
X323799Y283998D01*
Y282998D01*
X323299Y282498D01*
X322799D01*
X322300Y282998D01*
Y284497D01*
X320300Y285497D02*
Y287496D01*
X320800Y288496D02*
Y289496D01*
Y288996D01*
X323799D01*
X323299Y288496D01*
X32099Y217699D02*
X32599Y217199D01*
Y216200D01*
X32099Y215700D01*
X30100D01*
X29600Y216200D01*
Y217199D01*
X30100Y217699D01*
X32099Y218699D02*
X32599Y219199D01*
Y220198D01*
X32099Y220698D01*
X31599D01*
X31100Y220198D01*
Y219699D01*
Y220198D01*
X30600Y220698D01*
X30100D01*
X29600Y220198D01*
Y219199D01*
X30100Y218699D01*
X32099Y221698D02*
X32599Y222198D01*
Y223198D01*
X32099Y223697D01*
X31599D01*
X31100Y223198D01*
X30600Y223697D01*
X30100D01*
X29600Y223198D01*
Y222198D01*
X30100Y221698D01*
X30600D01*
X31100Y222198D01*
X31599Y221698D01*
X32099D01*
X31100Y222198D02*
Y223198D01*
X29100Y224697D02*
Y226696D01*
X29600Y229196D02*
X32599D01*
X31100Y227696D01*
Y229696D01*
X219099Y210599D02*
X219599Y210100D01*
Y209100D01*
X219099Y208600D01*
X217100D01*
X216600Y209100D01*
Y210100D01*
X217100Y210599D01*
X219099Y211599D02*
X219599Y212099D01*
Y213099D01*
X219099Y213598D01*
X218599D01*
X218099Y213099D01*
Y212599D01*
Y213099D01*
X217600Y213598D01*
X217100D01*
X216600Y213099D01*
Y212099D01*
X217100Y211599D01*
X219099Y214598D02*
X219599Y215098D01*
Y216098D01*
X219099Y216597D01*
X218599D01*
X218099Y216098D01*
X217600Y216597D01*
X217100D01*
X216600Y216098D01*
Y215098D01*
X217100Y214598D01*
X217600D01*
X218099Y215098D01*
X218599Y214598D01*
X219099D01*
X218099Y215098D02*
Y216098D01*
X216100Y217597D02*
Y219596D01*
X216600Y222596D02*
Y220596D01*
X218599Y222596D01*
X219099D01*
X219599Y222096D01*
Y221096D01*
X219099Y220596D01*
X275401Y289799D02*
X275901Y290299D01*
X276900D01*
X277400Y289799D01*
Y287800D01*
X276900Y287300D01*
X275901D01*
X275401Y287800D01*
X274401Y289799D02*
X273901Y290299D01*
X272902D01*
X272402Y289799D01*
Y289299D01*
X272902Y288800D01*
X273401D01*
X272902D01*
X272402Y288300D01*
Y287800D01*
X272902Y287300D01*
X273901D01*
X274401Y287800D01*
X271402Y289799D02*
X270902Y290299D01*
X269902D01*
X269403Y289799D01*
Y289299D01*
X269902Y288800D01*
X269403Y288300D01*
Y287800D01*
X269902Y287300D01*
X270902D01*
X271402Y287800D01*
Y288300D01*
X270902Y288800D01*
X271402Y289299D01*
Y289799D01*
X270902Y288800D02*
X269902D01*
X268403Y286800D02*
X266404D01*
X265404Y287300D02*
X264404D01*
X264904D01*
Y290299D01*
X265404Y289799D01*
X97901Y231899D02*
X98400Y232399D01*
X99400D01*
X99900Y231899D01*
Y229900D01*
X99400Y229400D01*
X98400D01*
X97901Y229900D01*
X96901Y231899D02*
X96401Y232399D01*
X95401D01*
X94902Y231899D01*
Y231399D01*
X95401Y230900D01*
X95901D01*
X95401D01*
X94902Y230400D01*
Y229900D01*
X95401Y229400D01*
X96401D01*
X96901Y229900D01*
X93902Y232399D02*
X91903D01*
Y231899D01*
X93902Y229900D01*
Y229400D01*
X90903Y228900D02*
X88904D01*
X86404Y229400D02*
Y232399D01*
X87904Y230900D01*
X85905D01*
X173601Y299999D02*
X174100Y300499D01*
X175100D01*
X175600Y299999D01*
Y298000D01*
X175100Y297500D01*
X174100D01*
X173601Y298000D01*
X172601Y299999D02*
X172101Y300499D01*
X171101D01*
X170602Y299999D01*
Y299499D01*
X171101Y299000D01*
X171601D01*
X171101D01*
X170602Y298500D01*
Y298000D01*
X171101Y297500D01*
X172101D01*
X172601Y298000D01*
X169602Y300499D02*
X167603D01*
Y299999D01*
X169602Y298000D01*
Y297500D01*
X166603Y297000D02*
X164604D01*
X163604Y299999D02*
X163104Y300499D01*
X162104D01*
X161604Y299999D01*
Y299499D01*
X162104Y299000D01*
X162604D01*
X162104D01*
X161604Y298500D01*
Y298000D01*
X162104Y297500D01*
X163104D01*
X163604Y298000D01*
X366401Y209099D02*
X366900Y209599D01*
X367900D01*
X368400Y209099D01*
Y207100D01*
X367900Y206600D01*
X366900D01*
X366401Y207100D01*
X365401Y209099D02*
X364901Y209599D01*
X363901D01*
X363402Y209099D01*
Y208599D01*
X363901Y208100D01*
X364401D01*
X363901D01*
X363402Y207600D01*
Y207100D01*
X363901Y206600D01*
X364901D01*
X365401Y207100D01*
X362402Y209599D02*
X360403D01*
Y209099D01*
X362402Y207100D01*
Y206600D01*
X359403Y206100D02*
X357404D01*
X356404Y206600D02*
X355404D01*
X355904D01*
Y209599D01*
X356404Y209099D01*
X88899Y216199D02*
X89399Y215700D01*
Y214700D01*
X88899Y214200D01*
X86900D01*
X86400Y214700D01*
Y215700D01*
X86900Y216199D01*
X88899Y217199D02*
X89399Y217699D01*
Y218699D01*
X88899Y219198D01*
X88399D01*
X87900Y218699D01*
Y218199D01*
Y218699D01*
X87400Y219198D01*
X86900D01*
X86400Y218699D01*
Y217699D01*
X86900Y217199D01*
X89399Y222197D02*
X88899Y221198D01*
X87900Y220198D01*
X86900D01*
X86400Y220698D01*
Y221698D01*
X86900Y222197D01*
X87400D01*
X87900Y221698D01*
Y220198D01*
X85900Y223197D02*
Y225196D01*
X86400Y227696D02*
X89399D01*
X87900Y226196D01*
Y228196D01*
X192801Y301699D02*
X193300Y302199D01*
X194300D01*
X194800Y301699D01*
Y299700D01*
X194300Y299200D01*
X193300D01*
X192801Y299700D01*
X191801Y301699D02*
X191301Y302199D01*
X190301D01*
X189802Y301699D01*
Y301199D01*
X190301Y300699D01*
X190801D01*
X190301D01*
X189802Y300200D01*
Y299700D01*
X190301Y299200D01*
X191301D01*
X191801Y299700D01*
X186803Y302199D02*
X187802Y301699D01*
X188802Y300699D01*
Y299700D01*
X188302Y299200D01*
X187302D01*
X186803Y299700D01*
Y300200D01*
X187302Y300699D01*
X188802D01*
X185803Y298700D02*
X183804D01*
X182804Y301699D02*
X182304Y302199D01*
X181304D01*
X180805Y301699D01*
Y301199D01*
X181304Y300699D01*
X181804D01*
X181304D01*
X180805Y300200D01*
Y299700D01*
X181304Y299200D01*
X182304D01*
X182804Y299700D01*
X241199Y244399D02*
X241699Y243899D01*
Y242900D01*
X241199Y242400D01*
X239200D01*
X238700Y242900D01*
Y243899D01*
X239200Y244399D01*
X241199Y245399D02*
X241699Y245899D01*
Y246899D01*
X241199Y247398D01*
X240699D01*
X240199Y246899D01*
Y246399D01*
Y246899D01*
X239700Y247398D01*
X239200D01*
X238700Y246899D01*
Y245899D01*
X239200Y245399D01*
X241699Y250397D02*
X241199Y249398D01*
X240199Y248398D01*
X239200D01*
X238700Y248898D01*
Y249898D01*
X239200Y250397D01*
X239700D01*
X240199Y249898D01*
Y248398D01*
X238200Y251397D02*
Y253396D01*
X238700Y256396D02*
Y254396D01*
X240699Y256396D01*
X241199D01*
X241699Y255896D01*
Y254896D01*
X241199Y254396D01*
X384401Y225399D02*
X384900Y225899D01*
X385900D01*
X386400Y225399D01*
Y223400D01*
X385900Y222900D01*
X384900D01*
X384401Y223400D01*
X383401Y225399D02*
X382901Y225899D01*
X381902D01*
X381402Y225399D01*
Y224899D01*
X381902Y224399D01*
X382401D01*
X381902D01*
X381402Y223900D01*
Y223400D01*
X381902Y222900D01*
X382901D01*
X383401Y223400D01*
X378403Y225899D02*
X379402Y225399D01*
X380402Y224399D01*
Y223400D01*
X379902Y222900D01*
X378902D01*
X378403Y223400D01*
Y223900D01*
X378902Y224399D01*
X380402D01*
X377403Y222400D02*
X375404D01*
X374404Y222900D02*
X373404D01*
X373904D01*
Y225899D01*
X374404Y225399D01*
X114299Y8199D02*
X114799Y7700D01*
Y6700D01*
X114299Y6200D01*
X112300D01*
X111800Y6700D01*
Y7700D01*
X112300Y8199D01*
X114299Y9199D02*
X114799Y9699D01*
Y10699D01*
X114299Y11198D01*
X113799D01*
X113300Y10699D01*
Y10199D01*
Y10699D01*
X112800Y11198D01*
X112300D01*
X111800Y10699D01*
Y9699D01*
X112300Y9199D01*
X114799Y14197D02*
Y12198D01*
X113300D01*
X113799Y13198D01*
Y13698D01*
X113300Y14197D01*
X112300D01*
X111800Y13698D01*
Y12698D01*
X112300Y12198D01*
X111300Y15197D02*
Y17196D01*
X111800Y19696D02*
X114799D01*
X113300Y18196D01*
Y20196D01*
X195899Y7799D02*
X196399Y7299D01*
Y6300D01*
X195899Y5800D01*
X193900D01*
X193400Y6300D01*
Y7299D01*
X193900Y7799D01*
X195899Y8799D02*
X196399Y9299D01*
Y10299D01*
X195899Y10798D01*
X195399D01*
X194899Y10299D01*
Y9799D01*
Y10299D01*
X194400Y10798D01*
X193900D01*
X193400Y10299D01*
Y9299D01*
X193900Y8799D01*
X196399Y13797D02*
Y11798D01*
X194899D01*
X195399Y12798D01*
Y13298D01*
X194899Y13797D01*
X193900D01*
X193400Y13298D01*
Y12298D01*
X193900Y11798D01*
X192900Y14797D02*
Y16796D01*
X195899Y17796D02*
X196399Y18296D01*
Y19296D01*
X195899Y19795D01*
X195399D01*
X194899Y19296D01*
Y18796D01*
Y19296D01*
X194400Y19795D01*
X193900D01*
X193400Y19296D01*
Y18296D01*
X193900Y17796D01*
X276799Y8499D02*
X277299Y7999D01*
Y7000D01*
X276799Y6500D01*
X274800D01*
X274300Y7000D01*
Y7999D01*
X274800Y8499D01*
X276799Y9499D02*
X277299Y9999D01*
Y10999D01*
X276799Y11498D01*
X276299D01*
X275799Y10999D01*
Y10499D01*
Y10999D01*
X275300Y11498D01*
X274800D01*
X274300Y10999D01*
Y9999D01*
X274800Y9499D01*
X277299Y14497D02*
Y12498D01*
X275799D01*
X276299Y13498D01*
Y13998D01*
X275799Y14497D01*
X274800D01*
X274300Y13998D01*
Y12998D01*
X274800Y12498D01*
X273800Y15497D02*
Y17496D01*
X274300Y20495D02*
Y18496D01*
X276299Y20495D01*
X276799D01*
X277299Y19996D01*
Y18996D01*
X276799Y18496D01*
X357599Y8699D02*
X358099Y8200D01*
Y7200D01*
X357599Y6700D01*
X355600D01*
X355100Y7200D01*
Y8200D01*
X355600Y8699D01*
X357599Y9699D02*
X358099Y10199D01*
Y11199D01*
X357599Y11698D01*
X357099D01*
X356599Y11199D01*
Y10699D01*
Y11199D01*
X356100Y11698D01*
X355600D01*
X355100Y11199D01*
Y10199D01*
X355600Y9699D01*
X358099Y14697D02*
Y12698D01*
X356599D01*
X357099Y13698D01*
Y14198D01*
X356599Y14697D01*
X355600D01*
X355100Y14198D01*
Y13198D01*
X355600Y12698D01*
X354600Y15697D02*
Y17696D01*
X355100Y18696D02*
Y19696D01*
Y19196D01*
X358099D01*
X357599Y18696D01*
X281701Y349999D02*
X282201Y350499D01*
X283200D01*
X283700Y349999D01*
Y348000D01*
X283200Y347500D01*
X282201D01*
X281701Y348000D01*
X278702Y347500D02*
X280701D01*
X278702Y349499D01*
Y349999D01*
X279202Y350499D01*
X280201D01*
X280701Y349999D01*
X277702D02*
X277202Y350499D01*
X276202D01*
X275703Y349999D01*
Y349499D01*
X276202Y349000D01*
X276702D01*
X276202D01*
X275703Y348500D01*
Y348000D01*
X276202Y347500D01*
X277202D01*
X277702Y348000D01*
X281701Y354799D02*
X282201Y355299D01*
X283200D01*
X283700Y354799D01*
Y352800D01*
X283200Y352300D01*
X282201D01*
X281701Y352800D01*
X278702Y352300D02*
X280701D01*
X278702Y354299D01*
Y354799D01*
X279202Y355299D01*
X280201D01*
X280701Y354799D01*
X275703Y352300D02*
X277702D01*
X275703Y354299D01*
Y354799D01*
X276202Y355299D01*
X277202D01*
X277702Y354799D01*
X264199Y366899D02*
X264699Y366400D01*
Y365400D01*
X264199Y364900D01*
X262200D01*
X261700Y365400D01*
Y366400D01*
X262200Y366899D01*
X261700Y369898D02*
Y367899D01*
X263699Y369898D01*
X264199D01*
X264699Y369398D01*
Y368399D01*
X264199Y367899D01*
X261700Y370898D02*
Y371898D01*
Y371398D01*
X264699D01*
X264199Y370898D01*
X259899Y366999D02*
X260399Y366499D01*
Y365500D01*
X259899Y365000D01*
X257900D01*
X257400Y365500D01*
Y366499D01*
X257900Y366999D01*
X257400Y369998D02*
Y367999D01*
X259399Y369998D01*
X259899D01*
X260399Y369498D01*
Y368499D01*
X259899Y367999D01*
Y370998D02*
X260399Y371498D01*
Y372498D01*
X259899Y372997D01*
X257900D01*
X257400Y372498D01*
Y371498D01*
X257900Y370998D01*
X259899D01*
X281601Y344899D02*
X282101Y345399D01*
X283100D01*
X283600Y344899D01*
Y342900D01*
X283100Y342400D01*
X282101D01*
X281601Y342900D01*
X280601Y342400D02*
X279601D01*
X280101D01*
Y345399D01*
X280601Y344899D01*
X278102Y342900D02*
X277602Y342400D01*
X276602D01*
X276102Y342900D01*
Y344899D01*
X276602Y345399D01*
X277602D01*
X278102Y344899D01*
Y344399D01*
X277602Y343899D01*
X276102D01*
X281301Y335599D02*
X281801Y336099D01*
X282800D01*
X283300Y335599D01*
Y333600D01*
X282800Y333100D01*
X281801D01*
X281301Y333600D01*
X280301Y333100D02*
X279301D01*
X279801D01*
Y336099D01*
X280301Y335599D01*
X277802D02*
X277302Y336099D01*
X276302D01*
X275802Y335599D01*
Y335099D01*
X276302Y334599D01*
X275802Y334100D01*
Y333600D01*
X276302Y333100D01*
X277302D01*
X277802Y333600D01*
Y334100D01*
X277302Y334599D01*
X277802Y335099D01*
Y335599D01*
X277302Y334599D02*
X276302D01*
X271799Y379599D02*
X272299Y379099D01*
Y378100D01*
X271799Y377600D01*
X269800D01*
X269300Y378100D01*
Y379099D01*
X269800Y379599D01*
X269300Y380599D02*
Y381599D01*
Y381099D01*
X272299D01*
X271799Y380599D01*
X272299Y383098D02*
Y385098D01*
X271799D01*
X269800Y383098D01*
X269300D01*
X295499Y369099D02*
X295999Y368600D01*
Y367600D01*
X295499Y367100D01*
X293500D01*
X293000Y367600D01*
Y368600D01*
X293500Y369099D01*
X293000Y370099D02*
Y371099D01*
Y370599D01*
X295999D01*
X295499Y370099D01*
X295999Y374598D02*
X295499Y373598D01*
X294499Y372598D01*
X293500D01*
X293000Y373098D01*
Y374098D01*
X293500Y374598D01*
X294000D01*
X294499Y374098D01*
Y372598D01*
X276299Y379599D02*
X276799Y379099D01*
Y378100D01*
X276299Y377600D01*
X274300D01*
X273800Y378100D01*
Y379099D01*
X274300Y379599D01*
X273800Y380599D02*
Y381599D01*
Y381099D01*
X276799D01*
X276299Y380599D01*
X276799Y385098D02*
Y383098D01*
X275300D01*
X275799Y384098D01*
Y384598D01*
X275300Y385098D01*
X274300D01*
X273800Y384598D01*
Y383598D01*
X274300Y383098D01*
X245999Y366899D02*
X246499Y366400D01*
Y365400D01*
X245999Y364900D01*
X244000D01*
X243500Y365400D01*
Y366400D01*
X244000Y366899D01*
X243500Y367899D02*
Y368899D01*
Y368399D01*
X246499D01*
X245999Y367899D01*
X243500Y372398D02*
Y370398D01*
X245499Y372398D01*
X245999D01*
X246499Y371898D01*
Y370898D01*
X245999Y370398D01*
X255099Y367199D02*
X255599Y366700D01*
Y365700D01*
X255099Y365200D01*
X253100D01*
X252600Y365700D01*
Y366700D01*
X253100Y367199D01*
X252600Y368199D02*
Y369199D01*
Y368699D01*
X255599D01*
X255099Y368199D01*
X252600Y370698D02*
Y371698D01*
Y371198D01*
X255599D01*
X255099Y370698D01*
X281401Y339899D02*
X281901Y340399D01*
X282900D01*
X283400Y339899D01*
Y337900D01*
X282900Y337400D01*
X281901D01*
X281401Y337900D01*
X280401Y337400D02*
X279401D01*
X279901D01*
Y340399D01*
X280401Y339899D01*
X277902D02*
X277402Y340399D01*
X276402D01*
X275902Y339899D01*
Y337900D01*
X276402Y337400D01*
X277402D01*
X277902Y337900D01*
Y339899D01*
X256199Y324999D02*
X256699Y324500D01*
Y323500D01*
X256199Y323000D01*
X254200D01*
X253700Y323500D01*
Y324500D01*
X254200Y324999D01*
Y325999D02*
X253700Y326499D01*
Y327499D01*
X254200Y327998D01*
X256199D01*
X256699Y327499D01*
Y326499D01*
X256199Y325999D01*
X255699D01*
X255200Y326499D01*
Y327998D01*
X266199Y324599D02*
X266699Y324099D01*
Y323100D01*
X266199Y322600D01*
X264200D01*
X263700Y323100D01*
Y324099D01*
X264200Y324599D01*
X266199Y325599D02*
X266699Y326099D01*
Y327098D01*
X266199Y327598D01*
X265699D01*
X265199Y327098D01*
X264700Y327598D01*
X264200D01*
X263700Y327098D01*
Y326099D01*
X264200Y325599D01*
X264700D01*
X265199Y326099D01*
X265699Y325599D01*
X266199D01*
X265199Y326099D02*
Y327098D01*
X281101Y330899D02*
X281600Y331399D01*
X282600D01*
X283100Y330899D01*
Y328900D01*
X282600Y328400D01*
X281600D01*
X281101Y328900D01*
X280101Y331399D02*
X278102D01*
Y330899D01*
X280101Y328900D01*
Y328400D01*
X239501Y336499D02*
X240001Y336999D01*
X241000D01*
X241500Y336499D01*
Y334500D01*
X241000Y334000D01*
X240001D01*
X239501Y334500D01*
X236502Y336999D02*
X237501Y336499D01*
X238501Y335500D01*
Y334500D01*
X238001Y334000D01*
X237001D01*
X236502Y334500D01*
Y335000D01*
X237001Y335500D01*
X238501D01*
X239701Y345899D02*
X240200Y346399D01*
X241200D01*
X241700Y345899D01*
Y343900D01*
X241200Y343400D01*
X240200D01*
X239701Y343900D01*
X236702Y346399D02*
X238701D01*
Y344900D01*
X237701Y345399D01*
X237201D01*
X236702Y344900D01*
Y343900D01*
X237201Y343400D01*
X238201D01*
X238701Y343900D01*
X184901Y364899D02*
X185400Y365399D01*
X186400D01*
X186900Y364899D01*
Y362900D01*
X186400Y362400D01*
X185400D01*
X184901Y362900D01*
X181902Y362400D02*
X183901D01*
X181902Y364399D01*
Y364899D01*
X182401Y365399D01*
X183401D01*
X183901Y364899D01*
X182601Y379399D02*
X183100Y379899D01*
X184100D01*
X184600Y379399D01*
Y377400D01*
X184100Y376900D01*
X183100D01*
X182601Y377400D01*
X181601Y376900D02*
X180601D01*
X181101D01*
Y379899D01*
X181601Y379399D01*
D218*
X371766Y168595D02*
G03*
X371766Y168595I-197J0D01*
G01*
X34966Y269895D02*
G03*
X34966Y269895I-197J0D01*
G01*
M02*
