G04*
G04 #@! TF.GenerationSoftware,Altium Limited,Altium Designer,21.1.1 (26)*
G04*
G04 Layer_Physical_Order=2*
G04 Layer_Color=32768*
%FSLAX25Y25*%
%MOIN*%
G70*
G04*
G04 #@! TF.SameCoordinates,1DE770B5-5229-4C7E-BA00-58D6BC8AB395*
G04*
G04*
G04 #@! TF.FilePolarity,Negative*
G04*
G01*
G75*
%ADD16C,0.02000*%
%ADD94C,0.04000*%
%ADD95C,0.08055*%
%ADD96C,0.07504*%
%ADD97C,0.16598*%
%ADD98C,0.05500*%
%ADD99C,0.05200*%
%ADD100C,0.04787*%
%ADD101C,0.04800*%
%ADD102C,0.05000*%
G36*
X21413Y379760D02*
X22488Y379315D01*
X23455Y378669D01*
X24278Y377846D01*
X24924Y376879D01*
X25369Y375804D01*
X25596Y374663D01*
Y374082D01*
Y373500D01*
X25369Y372359D01*
X24924Y371285D01*
X24278Y370317D01*
X23455Y369495D01*
X22488Y368848D01*
X21413Y368403D01*
X20272Y368176D01*
X19109D01*
X17968Y368403D01*
X16894Y368848D01*
X15926Y369495D01*
X15104Y370317D01*
X14457Y371285D01*
X14012Y372359D01*
X13785Y373500D01*
Y374082D01*
Y374663D01*
X14012Y375804D01*
X14457Y376879D01*
X15104Y377846D01*
X15926Y378669D01*
X16894Y379315D01*
X17968Y379760D01*
X19109Y379987D01*
X20272D01*
X21413Y379760D01*
D02*
G37*
G36*
X375704Y379688D02*
X376779Y379243D01*
X377746Y378596D01*
X378569Y377774D01*
X379215Y376806D01*
X379660Y375732D01*
X379887Y374591D01*
Y374009D01*
Y373428D01*
X379660Y372287D01*
X379215Y371212D01*
X378569Y370245D01*
X377746Y369422D01*
X376779Y368776D01*
X375704Y368331D01*
X374564Y368104D01*
X373400D01*
X372259Y368331D01*
X371184Y368776D01*
X370217Y369422D01*
X369395Y370245D01*
X368748Y371212D01*
X368303Y372287D01*
X368076Y373428D01*
Y374009D01*
Y374591D01*
X368303Y375732D01*
X368748Y376806D01*
X369395Y377774D01*
X370217Y378596D01*
X371184Y379243D01*
X372259Y379688D01*
X373400Y379915D01*
X374564D01*
X375704Y379688D01*
D02*
G37*
G36*
X375823Y25879D02*
X376897Y25433D01*
X377865Y24787D01*
X378687Y23965D01*
X379333Y22997D01*
X379779Y21923D01*
X380006Y20782D01*
Y20200D01*
Y19618D01*
X379779Y18477D01*
X379333Y17403D01*
X378687Y16435D01*
X377865Y15613D01*
X376897Y14967D01*
X375823Y14521D01*
X374682Y14295D01*
X373518D01*
X372377Y14521D01*
X371303Y14967D01*
X370335Y15613D01*
X369513Y16435D01*
X368867Y17403D01*
X368421Y18477D01*
X368195Y19618D01*
Y20200D01*
Y20782D01*
X368421Y21923D01*
X368867Y22997D01*
X369513Y23965D01*
X370335Y24787D01*
X371303Y25433D01*
X372377Y25879D01*
X373518Y26105D01*
X374682D01*
X375823Y25879D01*
D02*
G37*
G36*
X21423Y25364D02*
X22497Y24918D01*
X23464Y24272D01*
X24287Y23450D01*
X24933Y22482D01*
X25379Y21408D01*
X25605Y20267D01*
Y19685D01*
Y19103D01*
X25379Y17963D01*
X24933Y16888D01*
X24287Y15921D01*
X23464Y15098D01*
X22497Y14452D01*
X21423Y14006D01*
X20282Y13780D01*
X19118D01*
X17977Y14006D01*
X16903Y14452D01*
X15935Y15098D01*
X15113Y15921D01*
X14467Y16888D01*
X14021Y17963D01*
X13794Y19103D01*
Y19685D01*
Y20267D01*
X14021Y21408D01*
X14467Y22482D01*
X15113Y23450D01*
X15935Y24272D01*
X16903Y24918D01*
X17977Y25364D01*
X19118Y25591D01*
X20282D01*
X21423Y25364D01*
D02*
G37*
D16*
X28301Y27465D02*
Y52065D01*
X35101Y58865D01*
X359101D01*
X28301Y27465D02*
X36901Y18865D01*
X357801D01*
X359101Y58865D02*
X365401Y52565D01*
Y26465D02*
Y52565D01*
X357801Y18865D02*
X365401Y26465D01*
D94*
X374214Y393749D02*
X376833Y393503D01*
X372900Y393700D02*
X374214Y393749D01*
X19300Y393700D02*
X372900Y393700D01*
X17986Y393651D02*
X19300Y393700D01*
X15393Y393210D02*
X17986Y393651D01*
X12880Y392435D02*
X15393Y393210D01*
X10489Y391338D02*
X12880Y392435D01*
X8262Y389939D02*
X10489Y391338D01*
X6237Y388261D02*
X8262Y389939D01*
X4448Y386333D02*
X6237Y388261D01*
X2926Y384188D02*
X4448Y386333D01*
X1697Y381863D02*
X2926Y384188D01*
X782Y379397D02*
X1697Y381863D01*
X196Y376833D02*
X782Y379397D01*
X-49Y374214D02*
X196Y376833D01*
X-49Y374214D02*
X0Y372900D01*
X-0Y19300D02*
X0Y372900D01*
X-0Y19300D02*
X49Y17986D01*
X490Y15393D01*
X1265Y12880D01*
X2362Y10489D01*
X3761Y8262D01*
X5439Y6237D01*
X7367Y4448D01*
X9512Y2926D01*
X11837Y1697D01*
X14303Y782D01*
X16867Y196D01*
X19486Y-49D01*
X20800Y0D01*
X374400D01*
X375714Y49D01*
X378307Y490D01*
X380820Y1265D01*
X383211Y2362D01*
X385438Y3761D01*
X387463Y5439D01*
X389252Y7367D01*
X390774Y9512D01*
X392003Y11837D01*
X392918Y14303D01*
X393504Y16867D01*
X393749Y19486D01*
X393700Y20800D02*
X393749Y19486D01*
X393700Y374400D02*
X393700Y20800D01*
X393651Y375714D02*
X393700Y374400D01*
X393210Y378307D02*
X393651Y375714D01*
X392435Y380820D02*
X393210Y378307D01*
X391338Y383211D02*
X392435Y380820D01*
X389939Y385438D02*
X391338Y383211D01*
X388261Y387463D02*
X389939Y385438D01*
X386333Y389252D02*
X388261Y387463D01*
X384188Y390774D02*
X386333Y389252D01*
X381863Y392003D02*
X384188Y390774D01*
X379397Y392918D02*
X381863Y392003D01*
X376833Y393503D02*
X379397Y392918D01*
X374682Y26105D02*
X375823Y25879D01*
X376897Y25433D01*
X377865Y24787D01*
X378687Y23965D01*
X379333Y22997D01*
X379779Y21923D01*
X380006Y20782D01*
Y20200D02*
Y20782D01*
Y19618D02*
Y20200D01*
X379779Y18477D02*
X380006Y19618D01*
X379333Y17403D02*
X379779Y18477D01*
X378687Y16435D02*
X379333Y17403D01*
X377865Y15613D02*
X378687Y16435D01*
X376897Y14967D02*
X377865Y15613D01*
X375823Y14521D02*
X376897Y14967D01*
X374682Y14295D02*
X375823Y14521D01*
X373518Y14295D02*
X374682D01*
X372377Y14521D02*
X373518Y14295D01*
X371303Y14967D02*
X372377Y14521D01*
X370335Y15613D02*
X371303Y14967D01*
X369513Y16435D02*
X370335Y15613D01*
X368867Y17403D02*
X369513Y16435D01*
X368421Y18477D02*
X368867Y17403D01*
X368195Y19618D02*
X368421Y18477D01*
X368195Y19618D02*
Y20200D01*
Y20782D01*
X368421Y21923D01*
X368867Y22997D01*
X369513Y23965D01*
X370335Y24787D01*
X371303Y25433D01*
X372377Y25879D01*
X373518Y26105D01*
X374682D01*
X374564Y379915D02*
X375704Y379688D01*
X376779Y379243D01*
X377746Y378596D01*
X378569Y377774D01*
X379215Y376806D01*
X379660Y375732D01*
X379887Y374591D01*
Y374009D02*
Y374591D01*
Y373428D02*
Y374009D01*
X379660Y372287D02*
X379887Y373428D01*
X379215Y371212D02*
X379660Y372287D01*
X378569Y370245D02*
X379215Y371212D01*
X377746Y369422D02*
X378569Y370245D01*
X376779Y368776D02*
X377746Y369422D01*
X375704Y368331D02*
X376779Y368776D01*
X374564Y368104D02*
X375704Y368331D01*
X373400Y368104D02*
X374564D01*
X372259Y368331D02*
X373400Y368104D01*
X371184Y368776D02*
X372259Y368331D01*
X370217Y369422D02*
X371184Y368776D01*
X369395Y370245D02*
X370217Y369422D01*
X368748Y371212D02*
X369395Y370245D01*
X368303Y372287D02*
X368748Y371212D01*
X368076Y373428D02*
X368303Y372287D01*
X368076Y373428D02*
Y374009D01*
Y374591D01*
X368303Y375732D01*
X368748Y376806D01*
X369395Y377774D01*
X370217Y378596D01*
X371184Y379243D01*
X372259Y379688D01*
X373400Y379915D01*
X374564D01*
X20272Y379987D02*
X21413Y379760D01*
X22488Y379315D01*
X23455Y378669D01*
X24278Y377846D01*
X24924Y376879D01*
X25369Y375804D01*
X25596Y374663D01*
Y374082D02*
Y374663D01*
Y373500D02*
Y374082D01*
X25369Y372359D02*
X25596Y373500D01*
X24924Y371285D02*
X25369Y372359D01*
X24278Y370317D02*
X24924Y371285D01*
X23455Y369495D02*
X24278Y370317D01*
X22488Y368848D02*
X23455Y369495D01*
X21413Y368403D02*
X22488Y368848D01*
X20272Y368176D02*
X21413Y368403D01*
X19109Y368176D02*
X20272D01*
X17968Y368403D02*
X19109Y368176D01*
X16894Y368848D02*
X17968Y368403D01*
X15926Y369495D02*
X16894Y368848D01*
X15104Y370317D02*
X15926Y369495D01*
X14457Y371285D02*
X15104Y370317D01*
X14012Y372359D02*
X14457Y371285D01*
X13785Y373500D02*
X14012Y372359D01*
X13785Y373500D02*
Y374082D01*
Y374663D01*
X14012Y375804D01*
X14457Y376879D01*
X15104Y377846D01*
X15926Y378669D01*
X16894Y379315D01*
X17968Y379760D01*
X19109Y379987D01*
X20272D01*
X20282Y25591D02*
X21423Y25364D01*
X22497Y24918D01*
X23464Y24272D01*
X24287Y23450D01*
X24933Y22482D01*
X25379Y21408D01*
X25605Y20267D01*
Y19685D02*
Y20267D01*
Y19103D02*
Y19685D01*
X25379Y17963D02*
X25605Y19103D01*
X24933Y16888D02*
X25379Y17963D01*
X24287Y15921D02*
X24933Y16888D01*
X23464Y15098D02*
X24287Y15921D01*
X22497Y14452D02*
X23464Y15098D01*
X21423Y14006D02*
X22497Y14452D01*
X20282Y13780D02*
X21423Y14006D01*
X19118Y13780D02*
X20282D01*
X17977Y14006D02*
X19118Y13780D01*
X16903Y14452D02*
X17977Y14006D01*
X15935Y15098D02*
X16903Y14452D01*
X15113Y15921D02*
X15935Y15098D01*
X14467Y16888D02*
X15113Y15921D01*
X14021Y17963D02*
X14467Y16888D01*
X13794Y19103D02*
X14021Y17963D01*
X13794Y19103D02*
Y19685D01*
Y20267D01*
X14021Y21408D01*
X14467Y22482D01*
X15113Y23450D01*
X15935Y24272D01*
X16903Y24918D01*
X17977Y25364D01*
X19118Y25591D01*
X20282D01*
D95*
X49724Y124766D02*
D03*
X59724D02*
D03*
X97677D02*
D03*
X87677D02*
D03*
X292424Y124765D02*
D03*
X302424D02*
D03*
X340377D02*
D03*
X330377D02*
D03*
X212224D02*
D03*
X222224D02*
D03*
X260177D02*
D03*
X250177D02*
D03*
X130824Y124766D02*
D03*
X140824D02*
D03*
X178777D02*
D03*
X168777D02*
D03*
D96*
X49705Y114766D02*
D03*
X57697D02*
D03*
X65689D02*
D03*
X97697D02*
D03*
X89705D02*
D03*
X81713D02*
D03*
X53720Y104766D02*
D03*
X61713D02*
D03*
X69705D02*
D03*
X93681D02*
D03*
X85689D02*
D03*
X77697D02*
D03*
X292405Y114765D02*
D03*
X300397D02*
D03*
X308389D02*
D03*
X340397D02*
D03*
X332405D02*
D03*
X324413D02*
D03*
X296421Y104765D02*
D03*
X304413D02*
D03*
X312405D02*
D03*
X336381D02*
D03*
X328389D02*
D03*
X320397D02*
D03*
X212205Y114765D02*
D03*
X220197D02*
D03*
X228189D02*
D03*
X260197D02*
D03*
X252205D02*
D03*
X244213D02*
D03*
X216220Y104765D02*
D03*
X224213D02*
D03*
X232205D02*
D03*
X256181D02*
D03*
X248189D02*
D03*
X240197D02*
D03*
X130805Y114766D02*
D03*
X138797D02*
D03*
X146789D02*
D03*
X178797D02*
D03*
X170805D02*
D03*
X162813D02*
D03*
X134820Y104766D02*
D03*
X142813D02*
D03*
X150805D02*
D03*
X174781D02*
D03*
X166789D02*
D03*
X158797D02*
D03*
D97*
X48701Y44766D02*
D03*
X98701D02*
D03*
X291401Y44765D02*
D03*
X341401D02*
D03*
X211201D02*
D03*
X261201D02*
D03*
X129801Y44766D02*
D03*
X179801D02*
D03*
D98*
X122441Y350314D02*
D03*
X119298Y350207D02*
D03*
X107557Y352603D02*
D03*
X110857D02*
D03*
X113857Y352703D02*
D03*
X59053Y320400D02*
D03*
X56053D02*
D03*
X81300Y325700D02*
D03*
X70200Y319500D02*
D03*
X75800Y322600D02*
D03*
X73700Y325700D02*
D03*
X70100D02*
D03*
X79500Y322600D02*
D03*
X71900D02*
D03*
X77500Y325700D02*
D03*
X81400Y319600D02*
D03*
X77800Y319500D02*
D03*
X74000D02*
D03*
X10708Y254789D02*
D03*
X6800Y254800D02*
D03*
X14681Y254788D02*
D03*
X4500Y257900D02*
D03*
X12708Y257908D02*
D03*
X8600Y257900D02*
D03*
X205292Y169393D02*
D03*
X205307Y174944D02*
D03*
X24400Y327000D02*
D03*
X28300D02*
D03*
X32791Y326978D02*
D03*
X37591D02*
D03*
X26500Y323600D02*
D03*
X30500Y323400D02*
D03*
X35300D02*
D03*
X24200Y320200D02*
D03*
X28600Y320100D02*
D03*
X33100Y320000D02*
D03*
X37600Y319700D02*
D03*
X172100Y221000D02*
D03*
Y217300D02*
D03*
X172200Y213900D02*
D03*
X175300Y219100D02*
D03*
X175500Y215500D02*
D03*
X178200Y221000D02*
D03*
X178500Y217100D02*
D03*
X178600Y213800D02*
D03*
X5200Y177400D02*
D03*
X9100Y177300D02*
D03*
X13100Y177200D02*
D03*
X17000D02*
D03*
X7200Y174100D02*
D03*
X11200Y174000D02*
D03*
X15100D02*
D03*
X5300Y170800D02*
D03*
X9300Y170900D02*
D03*
X13200Y170800D02*
D03*
X17200D02*
D03*
X84900Y161900D02*
D03*
X85000Y157300D02*
D03*
X87300Y159400D02*
D03*
X89600Y161800D02*
D03*
X89759Y157253D02*
D03*
X108500Y242300D02*
D03*
X112682Y242290D02*
D03*
X110757Y239501D02*
D03*
X108461Y236810D02*
D03*
X112805Y236736D02*
D03*
X110806Y234046D02*
D03*
X115203Y239387D02*
D03*
X115221Y234019D02*
D03*
X206700Y280400D02*
D03*
X210500Y278200D02*
D03*
X210700Y273300D02*
D03*
X213900Y284500D02*
D03*
X214000Y280200D02*
D03*
X206600Y284600D02*
D03*
X214100Y276200D02*
D03*
X206700Y275900D02*
D03*
X210300Y282400D02*
D03*
X331400Y161900D02*
D03*
X336100Y161800D02*
D03*
X333700Y159600D02*
D03*
X331300Y156700D02*
D03*
X336100Y156500D02*
D03*
X333800Y153900D02*
D03*
X331400Y151100D02*
D03*
X336200Y151000D02*
D03*
X377300Y175300D02*
D03*
X381700Y175100D02*
D03*
X385100Y175300D02*
D03*
X379600Y172200D02*
D03*
X383300D02*
D03*
X377500Y169300D02*
D03*
X381700Y169200D02*
D03*
X385100Y169300D02*
D03*
X372845Y175303D02*
D03*
X357200Y206100D02*
D03*
X354558Y208195D02*
D03*
X357100Y209800D02*
D03*
X348900Y211900D02*
D03*
X351800Y206000D02*
D03*
X348900Y204600D02*
D03*
Y208100D02*
D03*
X354558Y204695D02*
D03*
Y211995D02*
D03*
X351700Y209700D02*
D03*
X81700Y254900D02*
D03*
X81800Y251100D02*
D03*
X81900Y246600D02*
D03*
X78500Y253000D02*
D03*
Y248900D02*
D03*
Y243700D02*
D03*
X75600Y250700D02*
D03*
Y246200D02*
D03*
Y241100D02*
D03*
X109600Y204700D02*
D03*
X113300D02*
D03*
X117000D02*
D03*
X118828Y201500D02*
D03*
X115129D02*
D03*
X111428D02*
D03*
X123628Y196200D02*
D03*
X119929D02*
D03*
X116228D02*
D03*
X125529Y193200D02*
D03*
X121828D02*
D03*
X118129D02*
D03*
X123828Y189900D02*
D03*
X120129D02*
D03*
X116428D02*
D03*
X363300Y211700D02*
D03*
X366725Y211674D02*
D03*
X364881Y209076D02*
D03*
X366600Y206800D02*
D03*
X363175Y206826D02*
D03*
X364900Y204600D02*
D03*
X197200Y175000D02*
D03*
X201168Y174962D02*
D03*
X199100Y172100D02*
D03*
X203615Y172051D02*
D03*
X203600Y166500D02*
D03*
X199085Y166549D02*
D03*
X201153Y169412D02*
D03*
X197185Y169449D02*
D03*
X291300Y210400D02*
D03*
X294600Y210300D02*
D03*
X301000Y210200D02*
D03*
X297700Y210300D02*
D03*
X299300Y207300D02*
D03*
X302600Y207200D02*
D03*
X296200Y207300D02*
D03*
X292900Y207400D02*
D03*
X297700Y204400D02*
D03*
X301000Y204300D02*
D03*
X294600Y204400D02*
D03*
X291300Y204500D02*
D03*
X199400Y80600D02*
D03*
X203722Y80578D02*
D03*
X194929Y80620D02*
D03*
X197107Y76942D02*
D03*
X205900Y76900D02*
D03*
X201578Y76922D02*
D03*
X194907Y73542D02*
D03*
X203700Y73500D02*
D03*
X199378Y73522D02*
D03*
X196907Y70042D02*
D03*
X205700Y70000D02*
D03*
X201378Y70022D02*
D03*
X194807Y67042D02*
D03*
X203600Y67000D02*
D03*
X199278Y67022D02*
D03*
X177800Y185100D02*
D03*
X181500D02*
D03*
X185200D02*
D03*
X188900Y185000D02*
D03*
X190511Y181642D02*
D03*
X186811Y181742D02*
D03*
X183111D02*
D03*
X179411D02*
D03*
X188711Y178442D02*
D03*
X185011Y178542D02*
D03*
X181311D02*
D03*
X177611D02*
D03*
X190311Y175242D02*
D03*
X186611Y175342D02*
D03*
X182911D02*
D03*
X179211D02*
D03*
X259400Y256200D02*
D03*
X262400D02*
D03*
X265700Y256100D02*
D03*
X267300Y253100D02*
D03*
X264000Y253200D02*
D03*
X261000D02*
D03*
X265700Y250300D02*
D03*
X262400Y250400D02*
D03*
X259400D02*
D03*
X262992Y233769D02*
D03*
X264800Y231000D02*
D03*
X261500Y242500D02*
D03*
X265000D02*
D03*
X263000Y239500D02*
D03*
X264808Y236731D02*
D03*
X261308D02*
D03*
X261300Y231000D02*
D03*
X289745Y141612D02*
D03*
X275157Y139209D02*
D03*
X169211Y206218D02*
D03*
X113435Y124696D02*
D03*
X109116Y144483D02*
D03*
X295000Y348700D02*
D03*
Y345700D02*
D03*
X303400Y356200D02*
D03*
Y359200D02*
D03*
X243883Y364136D02*
D03*
X171298Y210594D02*
D03*
X5100Y227000D02*
D03*
Y222900D02*
D03*
X8100Y224900D02*
D03*
X8000Y220300D02*
D03*
X5200Y217800D02*
D03*
X10700Y217500D02*
D03*
X279300Y382900D02*
D03*
X274300D02*
D03*
X272700Y378900D02*
D03*
X269900Y382900D02*
D03*
X281900Y378900D02*
D03*
X277100D02*
D03*
X283600Y382900D02*
D03*
X253071Y372008D02*
D03*
X168318Y359277D02*
D03*
X158818Y359177D02*
D03*
X163418Y359277D02*
D03*
X154118Y359177D02*
D03*
X70767Y388502D02*
D03*
X62924Y388533D02*
D03*
X19400Y220400D02*
D03*
X16300Y217400D02*
D03*
X13500Y220400D02*
D03*
X46242Y267331D02*
D03*
X41416D02*
D03*
X39400Y270400D02*
D03*
X43900D02*
D03*
X41400Y273600D02*
D03*
X45900D02*
D03*
X300300Y317600D02*
D03*
X300800Y333100D02*
D03*
X170200Y366600D02*
D03*
X164900D02*
D03*
X167600Y369900D02*
D03*
X174600Y373200D02*
D03*
X170200D02*
D03*
X164900D02*
D03*
X70600Y385000D02*
D03*
X66800Y382900D02*
D03*
Y387400D02*
D03*
X63000Y385000D02*
D03*
X58800Y383200D02*
D03*
Y387400D02*
D03*
X152500Y386300D02*
D03*
X149100Y384300D02*
D03*
X145600Y382400D02*
D03*
X145500Y386400D02*
D03*
X142200Y384400D02*
D03*
X138500Y382400D02*
D03*
X138600Y386400D02*
D03*
X309500Y366800D02*
D03*
X288700Y350700D02*
D03*
X83100Y353600D02*
D03*
Y357900D02*
D03*
Y362100D02*
D03*
X79600Y355700D02*
D03*
Y360100D02*
D03*
X75900Y353500D02*
D03*
Y357900D02*
D03*
Y362000D02*
D03*
X327300Y386900D02*
D03*
X320700Y389700D02*
D03*
X243000Y389900D02*
D03*
X239200Y387000D02*
D03*
X315200Y375250D02*
D03*
Y378250D02*
D03*
X337135Y303600D02*
D03*
X340135D02*
D03*
X248335Y246800D02*
D03*
X245335D02*
D03*
X309500Y369800D02*
D03*
X168300Y298900D02*
D03*
Y301900D02*
D03*
X84800Y272300D02*
D03*
Y269300D02*
D03*
D99*
X292150Y335300D02*
D03*
X294850D02*
D03*
X260700Y321700D02*
D03*
D100*
X326900Y276700D02*
D03*
X256294Y228175D02*
D03*
X269223Y195865D02*
D03*
X59387Y161202D02*
D03*
X56300Y214300D02*
D03*
X63473Y213800D02*
D03*
X64500Y217200D02*
D03*
X145200Y229800D02*
D03*
X158889Y229782D02*
D03*
X151700Y224600D02*
D03*
X136700Y267700D02*
D03*
X40900Y205000D02*
D03*
X52808Y167013D02*
D03*
X66233Y167039D02*
D03*
X40400Y177800D02*
D03*
X38400Y161100D02*
D03*
X41000Y174600D02*
D03*
X31400Y173700D02*
D03*
X80071Y172957D02*
D03*
X38979Y188200D02*
D03*
X43600Y190600D02*
D03*
X130900Y152400D02*
D03*
X86578Y191548D02*
D03*
X79984Y212090D02*
D03*
X134700Y224600D02*
D03*
X148600Y276200D02*
D03*
X155688Y275400D02*
D03*
X156500Y278800D02*
D03*
X170700Y234500D02*
D03*
X180900Y257500D02*
D03*
X127900Y231100D02*
D03*
X134770Y237256D02*
D03*
X165400Y292200D02*
D03*
X175400Y279500D02*
D03*
X264700Y365400D02*
D03*
X200600Y286200D02*
D03*
X362100Y124800D02*
D03*
X362200Y129400D02*
D03*
X342241Y151471D02*
D03*
X325800Y230400D02*
D03*
X337000Y229800D02*
D03*
X330000Y224900D02*
D03*
X345600Y234100D02*
D03*
X307900Y232100D02*
D03*
X354900Y255800D02*
D03*
X312580Y225044D02*
D03*
X314592Y239325D02*
D03*
X312400Y232300D02*
D03*
X307800Y227600D02*
D03*
X132200Y253300D02*
D03*
X72729Y258198D02*
D03*
X130900Y247400D02*
D03*
X179000Y254200D02*
D03*
X173245Y273134D02*
D03*
X311448Y252862D02*
D03*
X349800Y268700D02*
D03*
X353300Y257400D02*
D03*
X355000Y272000D02*
D03*
X219000Y378500D02*
D03*
X40020Y181822D02*
D03*
X85500Y226800D02*
D03*
X85073Y217495D02*
D03*
X87300Y194500D02*
D03*
X234200Y169000D02*
D03*
X238800Y161600D02*
D03*
X244900Y168700D02*
D03*
X224000Y207800D02*
D03*
X221700Y179000D02*
D03*
X219162Y176488D02*
D03*
X235500Y215300D02*
D03*
X335500Y278000D02*
D03*
X334588Y275400D02*
D03*
X242880Y214023D02*
D03*
X315225Y269257D02*
D03*
X222300Y191200D02*
D03*
X266300Y191700D02*
D03*
X243800Y219700D02*
D03*
X290500Y219400D02*
D03*
X261900Y206800D02*
D03*
X257500Y210700D02*
D03*
X217500Y186800D02*
D03*
X305962Y244349D02*
D03*
X250300Y138400D02*
D03*
X246900Y151600D02*
D03*
X302600Y196800D02*
D03*
X344500Y292900D02*
D03*
X252700Y230900D02*
D03*
X226200Y242500D02*
D03*
X380100Y263800D02*
D03*
X348700Y272400D02*
D03*
X353000Y283000D02*
D03*
X259974Y171566D02*
D03*
X45800Y344400D02*
D03*
D101*
X236500Y327000D02*
D03*
X285000Y326300D02*
D03*
X233221Y339183D02*
D03*
X21118Y256629D02*
D03*
X18330Y250308D02*
D03*
X264600Y383100D02*
D03*
Y378700D02*
D03*
X34021Y277200D02*
D03*
X32100Y270100D02*
D03*
X284800Y334900D02*
D03*
X288700Y339500D02*
D03*
X251000Y321700D02*
D03*
D102*
X273600Y356600D02*
D03*
X274700Y328200D02*
D03*
M02*
