G04*
G04 #@! TF.GenerationSoftware,Altium Limited,Altium Designer,21.1.1 (26)*
G04*
G04 Layer_Color=16711935*
%FSLAX25Y25*%
%MOIN*%
G70*
G04*
G04 #@! TF.SameCoordinates,1DE770B5-5229-4C7E-BA00-58D6BC8AB395*
G04*
G04*
G04 #@! TF.FilePolarity,Positive*
G04*
G01*
G75*
%ADD10C,0.01000*%
D10*
X394200Y374400D02*
G03*
X394200Y374419I-500J0D01*
G01*
X394200Y374400D02*
G03*
X394200Y374419I-500J0D01*
G01*
D02*
G03*
X372891Y394200I-20550J-769D01*
G01*
X394200Y374392D02*
G03*
X394200Y374400I-500J8D01*
G01*
X394200Y374392D02*
G03*
X394200Y374400I-500J8D01*
G01*
X394214Y20050D02*
G03*
X394200Y20810I-20564J0D01*
G01*
X374419Y-500D02*
G03*
X394214Y20050I-769J20550D01*
G01*
X374400Y-500D02*
G03*
X374419Y-500I0J500D01*
G01*
X374400Y-500D02*
G03*
X374419Y-500I0J500D01*
G01*
X19306Y394200D02*
G03*
X19281Y394200I-6J-500D01*
G01*
X19306Y394200D02*
G03*
X19281Y394200I-6J-500D01*
G01*
D02*
G03*
X-500Y372892I769J-20550D01*
G01*
X-500Y19277D02*
G03*
X20808Y-500I20550J773D01*
G01*
X-500Y19281D02*
G03*
X-500Y19277I20550J769D01*
G01*
X-500Y19300D02*
G03*
X-500Y19281I500J0D01*
G01*
X-500Y19300D02*
G03*
X-500Y19277I500J0D01*
G01*
X394200Y374392D02*
Y374400D01*
Y374392D02*
X394200Y20810D01*
X19306Y394200D02*
X372891D01*
X19300D02*
X19306D01*
X20808Y-500D02*
X374400Y-500D01*
X-500Y372892D02*
X-500Y19300D01*
M02*
