G04*
G04 #@! TF.GenerationSoftware,Altium Limited,Altium Designer,21.1.1 (26)*
G04*
G04 Layer_Color=2752767*
%FSLAX25Y25*%
%MOIN*%
G70*
G04*
G04 #@! TF.SameCoordinates,1DE770B5-5229-4C7E-BA00-58D6BC8AB395*
G04*
G04*
G04 #@! TF.FilePolarity,Positive*
G04*
G01*
G75*
%ADD223C,0.00200*%
%ADD224C,0.00267*%
%ADD225C,0.00133*%
D223*
X31472Y340499D02*
Y342099D01*
X33072D01*
Y340499D01*
X31472D01*
X81866D02*
Y342099D01*
X83466D01*
Y340499D01*
X81866D01*
X49705Y113966D02*
X48905Y115566D01*
X50505D01*
X49705Y113966D01*
X57697D02*
X56897Y115566D01*
X58497D01*
X57697Y113966D01*
X65689D02*
X64889Y115566D01*
X66489D01*
X65689Y113966D01*
X97697D02*
X96897Y115566D01*
X98497D01*
X97697Y113966D01*
X89705D02*
X88905Y115566D01*
X90505D01*
X89705Y113966D01*
X81713D02*
X80913Y115566D01*
X82513D01*
X81713Y113966D01*
X53720Y103966D02*
X52921Y105566D01*
X54520D01*
X53720Y103966D01*
X61713D02*
X60913Y105566D01*
X62513D01*
X61713Y103966D01*
X69705D02*
X68905Y105566D01*
X70505D01*
X69705Y103966D01*
X93681D02*
X92881Y105566D01*
X94481D01*
X93681Y103966D01*
X85689D02*
X84889Y105566D01*
X86489D01*
X85689Y103966D01*
X77697D02*
X76897Y105566D01*
X78497D01*
X77697Y103966D01*
X41949Y31446D02*
X42349Y31846D01*
X42749D01*
X42349Y32247D01*
X42749Y32647D01*
X42349D01*
X41949Y33046D01*
X41549Y32647D01*
X41149D01*
X41549Y32247D01*
X41149Y31846D01*
X41549D01*
X41949Y31446D01*
X105453D02*
X105853Y31846D01*
X106253D01*
X105853Y32247D01*
X106253Y32647D01*
X105853D01*
X105453Y33046D01*
X105053Y32647D01*
X104653D01*
X105053Y32247D01*
X104653Y31846D01*
X105053D01*
X105453Y31446D01*
X47901Y43966D02*
X48301Y44766D01*
X47901Y45566D01*
X48701Y45166D01*
X49501Y45566D01*
X49101Y44766D01*
X49501Y43966D01*
X48701Y44366D01*
X47901Y43966D01*
X97901D02*
X98301Y44766D01*
X97901Y45566D01*
X98701Y45166D01*
X99501Y45566D01*
X99101Y44766D01*
X99501Y43966D01*
X98701Y44366D01*
X97901Y43966D01*
X292405Y113965D02*
X291605Y115565D01*
X293205D01*
X292405Y113965D01*
X300397D02*
X299597Y115565D01*
X301197D01*
X300397Y113965D01*
X308389D02*
X307589Y115565D01*
X309189D01*
X308389Y113965D01*
X340397D02*
X339597Y115565D01*
X341197D01*
X340397Y113965D01*
X332405D02*
X331605Y115565D01*
X333205D01*
X332405Y113965D01*
X324413D02*
X323613Y115565D01*
X325213D01*
X324413Y113965D01*
X296421Y103965D02*
X295620Y105565D01*
X297220D01*
X296421Y103965D01*
X304413D02*
X303613Y105565D01*
X305213D01*
X304413Y103965D01*
X312405D02*
X311605Y105565D01*
X313205D01*
X312405Y103965D01*
X336381D02*
X335581Y105565D01*
X337181D01*
X336381Y103965D01*
X328389D02*
X327589Y105565D01*
X329189D01*
X328389Y103965D01*
X320397D02*
X319597Y105565D01*
X321197D01*
X320397Y103965D01*
X284649Y31446D02*
X285049Y31846D01*
X285449D01*
X285049Y32246D01*
X285449Y32646D01*
X285049D01*
X284649Y33046D01*
X284249Y32646D01*
X283849D01*
X284249Y32246D01*
X283849Y31846D01*
X284249D01*
X284649Y31446D01*
X348153D02*
X348553Y31846D01*
X348953D01*
X348553Y32246D01*
X348953Y32646D01*
X348553D01*
X348153Y33046D01*
X347753Y32646D01*
X347353D01*
X347753Y32246D01*
X347353Y31846D01*
X347753D01*
X348153Y31446D01*
X290601Y43965D02*
X291001Y44765D01*
X290601Y45565D01*
X291401Y45165D01*
X292201Y45565D01*
X291801Y44765D01*
X292201Y43965D01*
X291401Y44365D01*
X290601Y43965D01*
X340601D02*
X341001Y44765D01*
X340601Y45565D01*
X341401Y45165D01*
X342201Y45565D01*
X341801Y44765D01*
X342201Y43965D01*
X341401Y44365D01*
X340601Y43965D01*
X212205Y113965D02*
X211405Y115565D01*
X213005D01*
X212205Y113965D01*
X220197D02*
X219397Y115565D01*
X220997D01*
X220197Y113965D01*
X228189D02*
X227389Y115565D01*
X228989D01*
X228189Y113965D01*
X260197D02*
X259397Y115565D01*
X260997D01*
X260197Y113965D01*
X252205D02*
X251405Y115565D01*
X253005D01*
X252205Y113965D01*
X244213D02*
X243413Y115565D01*
X245013D01*
X244213Y113965D01*
X216220Y103965D02*
X215421Y105565D01*
X217021D01*
X216220Y103965D01*
X224213D02*
X223413Y105565D01*
X225013D01*
X224213Y103965D01*
X232205D02*
X231405Y105565D01*
X233005D01*
X232205Y103965D01*
X256181D02*
X255381Y105565D01*
X256981D01*
X256181Y103965D01*
X248189D02*
X247389Y105565D01*
X248989D01*
X248189Y103965D01*
X240197D02*
X239397Y105565D01*
X240997D01*
X240197Y103965D01*
X204449Y31446D02*
X204849Y31846D01*
X205249D01*
X204849Y32246D01*
X205249Y32646D01*
X204849D01*
X204449Y33046D01*
X204049Y32646D01*
X203649D01*
X204049Y32246D01*
X203649Y31846D01*
X204049D01*
X204449Y31446D01*
X267953D02*
X268353Y31846D01*
X268753D01*
X268353Y32246D01*
X268753Y32646D01*
X268353D01*
X267953Y33046D01*
X267553Y32646D01*
X267153D01*
X267553Y32246D01*
X267153Y31846D01*
X267553D01*
X267953Y31446D01*
X210401Y43965D02*
X210801Y44765D01*
X210401Y45565D01*
X211201Y45165D01*
X212001Y45565D01*
X211601Y44765D01*
X212001Y43965D01*
X211201Y44365D01*
X210401Y43965D01*
X260401D02*
X260801Y44765D01*
X260401Y45565D01*
X261201Y45165D01*
X262001Y45565D01*
X261601Y44765D01*
X262001Y43965D01*
X261201Y44365D01*
X260401Y43965D01*
X130805Y113966D02*
X130005Y115566D01*
X131605D01*
X130805Y113966D01*
X138797D02*
X137997Y115566D01*
X139597D01*
X138797Y113966D01*
X146789D02*
X145989Y115566D01*
X147589D01*
X146789Y113966D01*
X178797D02*
X177997Y115566D01*
X179597D01*
X178797Y113966D01*
X170805D02*
X170005Y115566D01*
X171605D01*
X170805Y113966D01*
X162813D02*
X162013Y115566D01*
X163613D01*
X162813Y113966D01*
X134820Y103966D02*
X134020Y105566D01*
X135620D01*
X134820Y103966D01*
X142813D02*
X142013Y105566D01*
X143613D01*
X142813Y103966D01*
X150805D02*
X150005Y105566D01*
X151605D01*
X150805Y103966D01*
X174781D02*
X173981Y105566D01*
X175581D01*
X174781Y103966D01*
X166789D02*
X165989Y105566D01*
X167589D01*
X166789Y103966D01*
X158797D02*
X157997Y105566D01*
X159597D01*
X158797Y103966D01*
X123049Y31446D02*
X123449Y31846D01*
X123849D01*
X123449Y32247D01*
X123849Y32647D01*
X123449D01*
X123049Y33046D01*
X122649Y32647D01*
X122249D01*
X122649Y32247D01*
X122249Y31846D01*
X122649D01*
X123049Y31446D01*
X186553D02*
X186953Y31846D01*
X187353D01*
X186953Y32247D01*
X187353Y32647D01*
X186953D01*
X186553Y33046D01*
X186153Y32647D01*
X185753D01*
X186153Y32247D01*
X185753Y31846D01*
X186153D01*
X186553Y31446D01*
X129001Y43966D02*
X129401Y44766D01*
X129001Y45566D01*
X129801Y45166D01*
X130601Y45566D01*
X130201Y44766D01*
X130601Y43966D01*
X129801Y44366D01*
X129001Y43966D01*
X179001D02*
X179401Y44766D01*
X179001Y45566D01*
X179801Y45166D01*
X180601Y45566D01*
X180201Y44766D01*
X180601Y43966D01*
X179801Y44366D01*
X179001Y43966D01*
X364968Y163568D02*
Y163169D01*
X365769D01*
Y163568D01*
X366168D01*
Y164368D01*
X365769D01*
Y164769D01*
X364968D01*
Y164368D01*
X364568D01*
Y163568D01*
X364968D01*
X361032D02*
Y163169D01*
X361831D01*
Y163568D01*
X362231D01*
Y164368D01*
X361831D01*
Y164769D01*
X361032D01*
Y164368D01*
X360631D01*
Y163568D01*
X361032D01*
X364968Y159632D02*
Y159231D01*
X365769D01*
Y159632D01*
X366168D01*
Y160432D01*
X365769D01*
Y160831D01*
X364968D01*
Y160432D01*
X364568D01*
Y159632D01*
X364968D01*
X361032D02*
Y159231D01*
X361831D01*
Y159632D01*
X362231D01*
Y160432D01*
X361831D01*
Y160831D01*
X361032D01*
Y160432D01*
X360631D01*
Y159632D01*
X361032D01*
X245439Y350661D02*
Y350261D01*
X246239D01*
Y350661D01*
X246639D01*
Y351461D01*
X246239D01*
Y351861D01*
X245439D01*
Y351461D01*
X245039D01*
Y350661D01*
X245439D01*
X249769D02*
Y350261D01*
X250569D01*
Y350661D01*
X250969D01*
Y351461D01*
X250569D01*
Y351861D01*
X249769D01*
Y351461D01*
X249369D01*
Y350661D01*
X249769D01*
X254100D02*
Y350261D01*
X254900D01*
Y350661D01*
X255300D01*
Y351461D01*
X254900D01*
Y351861D01*
X254100D01*
Y351461D01*
X253700D01*
Y350661D01*
X254100D01*
X258431D02*
Y350261D01*
X259231D01*
Y350661D01*
X259631D01*
Y351461D01*
X259231D01*
Y351861D01*
X258431D01*
Y351461D01*
X258031D01*
Y350661D01*
X258431D01*
X262761D02*
Y350261D01*
X263561D01*
Y350661D01*
X263961D01*
Y351461D01*
X263561D01*
Y351861D01*
X262761D01*
Y351461D01*
X262361D01*
Y350661D01*
X262761D01*
X245439Y346331D02*
Y345931D01*
X246239D01*
Y346331D01*
X246639D01*
Y347131D01*
X246239D01*
Y347531D01*
X245439D01*
Y347131D01*
X245039D01*
Y346331D01*
X245439D01*
X249769D02*
Y345931D01*
X250569D01*
Y346331D01*
X250969D01*
Y347131D01*
X250569D01*
Y347531D01*
X249769D01*
Y347131D01*
X249369D01*
Y346331D01*
X249769D01*
X254100D02*
Y345931D01*
X254900D01*
Y346331D01*
X255300D01*
Y347131D01*
X254900D01*
Y347531D01*
X254100D01*
Y347131D01*
X253700D01*
Y346331D01*
X254100D01*
X258431D02*
Y345931D01*
X259231D01*
Y346331D01*
X259631D01*
Y347131D01*
X259231D01*
Y347531D01*
X258431D01*
Y347131D01*
X258031D01*
Y346331D01*
X258431D01*
X262761D02*
Y345931D01*
X263561D01*
Y346331D01*
X263961D01*
Y347131D01*
X263561D01*
Y347531D01*
X262761D01*
Y347131D01*
X262361D01*
Y346331D01*
X262761D01*
X245439Y342000D02*
Y341600D01*
X246239D01*
Y342000D01*
X246639D01*
Y342800D01*
X246239D01*
Y343200D01*
X245439D01*
Y342800D01*
X245039D01*
Y342000D01*
X245439D01*
X249769D02*
Y341600D01*
X250569D01*
Y342000D01*
X250969D01*
Y342800D01*
X250569D01*
Y343200D01*
X249769D01*
Y342800D01*
X249369D01*
Y342000D01*
X249769D01*
X254100D02*
Y341600D01*
X254900D01*
Y342000D01*
X255300D01*
Y342800D01*
X254900D01*
Y343200D01*
X254100D01*
Y342800D01*
X253700D01*
Y342000D01*
X254100D01*
X258431D02*
Y341600D01*
X259231D01*
Y342000D01*
X259631D01*
Y342800D01*
X259231D01*
Y343200D01*
X258431D01*
Y342800D01*
X258031D01*
Y342000D01*
X258431D01*
X262761D02*
Y341600D01*
X263561D01*
Y342000D01*
X263961D01*
Y342800D01*
X263561D01*
Y343200D01*
X262761D01*
Y342800D01*
X262361D01*
Y342000D01*
X262761D01*
X245439Y337669D02*
Y337269D01*
X246239D01*
Y337669D01*
X246639D01*
Y338469D01*
X246239D01*
Y338869D01*
X245439D01*
Y338469D01*
X245039D01*
Y337669D01*
X245439D01*
X249769D02*
Y337269D01*
X250569D01*
Y337669D01*
X250969D01*
Y338469D01*
X250569D01*
Y338869D01*
X249769D01*
Y338469D01*
X249369D01*
Y337669D01*
X249769D01*
X254100D02*
Y337269D01*
X254900D01*
Y337669D01*
X255300D01*
Y338469D01*
X254900D01*
Y338869D01*
X254100D01*
Y338469D01*
X253700D01*
Y337669D01*
X254100D01*
X258431D02*
Y337269D01*
X259231D01*
Y337669D01*
X259631D01*
Y338469D01*
X259231D01*
Y338869D01*
X258431D01*
Y338469D01*
X258031D01*
Y337669D01*
X258431D01*
X262761D02*
Y337269D01*
X263561D01*
Y337669D01*
X263961D01*
Y338469D01*
X263561D01*
Y338869D01*
X262761D01*
Y338469D01*
X262361D01*
Y337669D01*
X262761D01*
X245439Y333339D02*
Y332939D01*
X246239D01*
Y333339D01*
X246639D01*
Y334139D01*
X246239D01*
Y334539D01*
X245439D01*
Y334139D01*
X245039D01*
Y333339D01*
X245439D01*
X249769D02*
Y332939D01*
X250569D01*
Y333339D01*
X250969D01*
Y334139D01*
X250569D01*
Y334539D01*
X249769D01*
Y334139D01*
X249369D01*
Y333339D01*
X249769D01*
X254100D02*
Y332939D01*
X254900D01*
Y333339D01*
X255300D01*
Y334139D01*
X254900D01*
Y334539D01*
X254100D01*
Y334139D01*
X253700D01*
Y333339D01*
X254100D01*
X258431D02*
Y332939D01*
X259231D01*
Y333339D01*
X259631D01*
Y334139D01*
X259231D01*
Y334539D01*
X258431D01*
Y334139D01*
X258031D01*
Y333339D01*
X258431D01*
X262761D02*
Y332939D01*
X263561D01*
Y333339D01*
X263961D01*
Y334139D01*
X263561D01*
Y334539D01*
X262761D01*
Y334139D01*
X262361D01*
Y333339D01*
X262761D01*
X253328Y180239D02*
Y179839D01*
X254128D01*
Y180239D01*
X254528D01*
Y181039D01*
X254128D01*
Y181439D01*
X253328D01*
Y181039D01*
X252928D01*
Y180239D01*
X253328D01*
X248997D02*
Y179839D01*
X249797D01*
Y180239D01*
X250197D01*
Y181039D01*
X249797D01*
Y181439D01*
X248997D01*
Y181039D01*
X248597D01*
Y180239D01*
X248997D01*
X244666D02*
Y179839D01*
X245466D01*
Y180239D01*
X245866D01*
Y181039D01*
X245466D01*
Y181439D01*
X244666D01*
Y181039D01*
X244266D01*
Y180239D01*
X244666D01*
X240335D02*
Y179839D01*
X241135D01*
Y180239D01*
X241535D01*
Y181039D01*
X241135D01*
Y181439D01*
X240335D01*
Y181039D01*
X239935D01*
Y180239D01*
X240335D01*
X236005D02*
Y179839D01*
X236805D01*
Y180239D01*
X237205D01*
Y181039D01*
X236805D01*
Y181439D01*
X236005D01*
Y181039D01*
X235605D01*
Y180239D01*
X236005D01*
X231674D02*
Y179839D01*
X232474D01*
Y180239D01*
X232874D01*
Y181039D01*
X232474D01*
Y181439D01*
X231674D01*
Y181039D01*
X231274D01*
Y180239D01*
X231674D01*
X253328Y184569D02*
Y184169D01*
X254128D01*
Y184569D01*
X254528D01*
Y185369D01*
X254128D01*
Y185769D01*
X253328D01*
Y185369D01*
X252928D01*
Y184569D01*
X253328D01*
X248997D02*
Y184169D01*
X249797D01*
Y184569D01*
X250197D01*
Y185369D01*
X249797D01*
Y185769D01*
X248997D01*
Y185369D01*
X248597D01*
Y184569D01*
X248997D01*
X244666D02*
Y184169D01*
X245466D01*
Y184569D01*
X245866D01*
Y185369D01*
X245466D01*
Y185769D01*
X244666D01*
Y185369D01*
X244266D01*
Y184569D01*
X244666D01*
X240335D02*
Y184169D01*
X241135D01*
Y184569D01*
X241535D01*
Y185369D01*
X241135D01*
Y185769D01*
X240335D01*
Y185369D01*
X239935D01*
Y184569D01*
X240335D01*
X236005D02*
Y184169D01*
X236805D01*
Y184569D01*
X237205D01*
Y185369D01*
X236805D01*
Y185769D01*
X236005D01*
Y185369D01*
X235605D01*
Y184569D01*
X236005D01*
X231674D02*
Y184169D01*
X232474D01*
Y184569D01*
X232874D01*
Y185369D01*
X232474D01*
Y185769D01*
X231674D01*
Y185369D01*
X231274D01*
Y184569D01*
X231674D01*
X253328Y188900D02*
Y188500D01*
X254128D01*
Y188900D01*
X254528D01*
Y189700D01*
X254128D01*
Y190100D01*
X253328D01*
Y189700D01*
X252928D01*
Y188900D01*
X253328D01*
X248997D02*
Y188500D01*
X249797D01*
Y188900D01*
X250197D01*
Y189700D01*
X249797D01*
Y190100D01*
X248997D01*
Y189700D01*
X248597D01*
Y188900D01*
X248997D01*
X244666D02*
Y188500D01*
X245466D01*
Y188900D01*
X245866D01*
Y189700D01*
X245466D01*
Y190100D01*
X244666D01*
Y189700D01*
X244266D01*
Y188900D01*
X244666D01*
X240335D02*
Y188500D01*
X241135D01*
Y188900D01*
X241535D01*
Y189700D01*
X241135D01*
Y190100D01*
X240335D01*
Y189700D01*
X239935D01*
Y188900D01*
X240335D01*
X236005D02*
Y188500D01*
X236805D01*
Y188900D01*
X237205D01*
Y189700D01*
X236805D01*
Y190100D01*
X236005D01*
Y189700D01*
X235605D01*
Y188900D01*
X236005D01*
X231674D02*
Y188500D01*
X232474D01*
Y188900D01*
X232874D01*
Y189700D01*
X232474D01*
Y190100D01*
X231674D01*
Y189700D01*
X231274D01*
Y188900D01*
X231674D01*
X253328Y193231D02*
Y192831D01*
X254128D01*
Y193231D01*
X254528D01*
Y194031D01*
X254128D01*
Y194431D01*
X253328D01*
Y194031D01*
X252928D01*
Y193231D01*
X253328D01*
X248997D02*
Y192831D01*
X249797D01*
Y193231D01*
X250197D01*
Y194031D01*
X249797D01*
Y194431D01*
X248997D01*
Y194031D01*
X248597D01*
Y193231D01*
X248997D01*
X244666D02*
Y192831D01*
X245466D01*
Y193231D01*
X245866D01*
Y194031D01*
X245466D01*
Y194431D01*
X244666D01*
Y194031D01*
X244266D01*
Y193231D01*
X244666D01*
X240335D02*
Y192831D01*
X241135D01*
Y193231D01*
X241535D01*
Y194031D01*
X241135D01*
Y194431D01*
X240335D01*
Y194031D01*
X239935D01*
Y193231D01*
X240335D01*
X236005D02*
Y192831D01*
X236805D01*
Y193231D01*
X237205D01*
Y194031D01*
X236805D01*
Y194431D01*
X236005D01*
Y194031D01*
X235605D01*
Y193231D01*
X236005D01*
X231674D02*
Y192831D01*
X232474D01*
Y193231D01*
X232874D01*
Y194031D01*
X232474D01*
Y194431D01*
X231674D01*
Y194031D01*
X231274D01*
Y193231D01*
X231674D01*
X253328Y197562D02*
Y197161D01*
X254128D01*
Y197562D01*
X254528D01*
Y198362D01*
X254128D01*
Y198761D01*
X253328D01*
Y198362D01*
X252928D01*
Y197562D01*
X253328D01*
X248997D02*
Y197161D01*
X249797D01*
Y197562D01*
X250197D01*
Y198362D01*
X249797D01*
Y198761D01*
X248997D01*
Y198362D01*
X248597D01*
Y197562D01*
X248997D01*
X244666D02*
Y197161D01*
X245466D01*
Y197562D01*
X245866D01*
Y198362D01*
X245466D01*
Y198761D01*
X244666D01*
Y198362D01*
X244266D01*
Y197562D01*
X244666D01*
X240335D02*
Y197161D01*
X241135D01*
Y197562D01*
X241535D01*
Y198362D01*
X241135D01*
Y198761D01*
X240335D01*
Y198362D01*
X239935D01*
Y197562D01*
X240335D01*
X236005D02*
Y197161D01*
X236805D01*
Y197562D01*
X237205D01*
Y198362D01*
X236805D01*
Y198761D01*
X236005D01*
Y198362D01*
X235605D01*
Y197562D01*
X236005D01*
X231674D02*
Y197161D01*
X232474D01*
Y197562D01*
X232874D01*
Y198362D01*
X232474D01*
Y198761D01*
X231674D01*
Y198362D01*
X231274D01*
Y197562D01*
X231674D01*
X253328Y201892D02*
Y201492D01*
X254128D01*
Y201892D01*
X254528D01*
Y202692D01*
X254128D01*
Y203092D01*
X253328D01*
Y202692D01*
X252928D01*
Y201892D01*
X253328D01*
X248997D02*
Y201492D01*
X249797D01*
Y201892D01*
X250197D01*
Y202692D01*
X249797D01*
Y203092D01*
X248997D01*
Y202692D01*
X248597D01*
Y201892D01*
X248997D01*
X244666D02*
Y201492D01*
X245466D01*
Y201892D01*
X245866D01*
Y202692D01*
X245466D01*
Y203092D01*
X244666D01*
Y202692D01*
X244266D01*
Y201892D01*
X244666D01*
X240335D02*
Y201492D01*
X241135D01*
Y201892D01*
X241535D01*
Y202692D01*
X241135D01*
Y203092D01*
X240335D01*
Y202692D01*
X239935D01*
Y201892D01*
X240335D01*
X236005D02*
Y201492D01*
X236805D01*
Y201892D01*
X237205D01*
Y202692D01*
X236805D01*
Y203092D01*
X236005D01*
Y202692D01*
X235605D01*
Y201892D01*
X236005D01*
X231674D02*
Y201492D01*
X232474D01*
Y201892D01*
X232874D01*
Y202692D01*
X232474D01*
Y203092D01*
X231674D01*
Y202692D01*
X231274D01*
Y201892D01*
X231674D01*
X24231Y260931D02*
Y260531D01*
X25032D01*
Y260931D01*
X25431D01*
Y261732D01*
X25032D01*
Y262132D01*
X24231D01*
Y261732D01*
X23832D01*
Y260931D01*
X24231D01*
X28168D02*
Y260531D01*
X28969D01*
Y260931D01*
X29368D01*
Y261732D01*
X28969D01*
Y262132D01*
X28168D01*
Y261732D01*
X27768D01*
Y260931D01*
X28168D01*
X24231Y264868D02*
Y264469D01*
X25032D01*
Y264868D01*
X25431D01*
Y265669D01*
X25032D01*
Y266069D01*
X24231D01*
Y265669D01*
X23832D01*
Y264868D01*
X24231D01*
X28168D02*
Y264469D01*
X28969D01*
Y264868D01*
X29368D01*
Y265669D01*
X28969D01*
Y266069D01*
X28168D01*
Y265669D01*
X27768D01*
Y264868D01*
X28168D01*
X74062Y179704D02*
Y179304D01*
X74862D01*
Y179704D01*
X75262D01*
Y180504D01*
X74862D01*
Y180904D01*
X74062D01*
Y180504D01*
X73662D01*
Y179704D01*
X74062D01*
X69731D02*
Y179304D01*
X70531D01*
Y179704D01*
X70932D01*
Y180504D01*
X70531D01*
Y180904D01*
X69731D01*
Y180504D01*
X69332D01*
Y179704D01*
X69731D01*
X65401D02*
Y179304D01*
X66201D01*
Y179704D01*
X66601D01*
Y180504D01*
X66201D01*
Y180904D01*
X65401D01*
Y180504D01*
X65001D01*
Y179704D01*
X65401D01*
X61070D02*
Y179304D01*
X61870D01*
Y179704D01*
X62270D01*
Y180504D01*
X61870D01*
Y180904D01*
X61070D01*
Y180504D01*
X60670D01*
Y179704D01*
X61070D01*
X56739D02*
Y179304D01*
X57539D01*
Y179704D01*
X57939D01*
Y180504D01*
X57539D01*
Y180904D01*
X56739D01*
Y180504D01*
X56339D01*
Y179704D01*
X56739D01*
X52409D02*
Y179304D01*
X53209D01*
Y179704D01*
X53609D01*
Y180504D01*
X53209D01*
Y180904D01*
X52409D01*
Y180504D01*
X52009D01*
Y179704D01*
X52409D01*
X74062Y184035D02*
Y183635D01*
X74862D01*
Y184035D01*
X75262D01*
Y184835D01*
X74862D01*
Y185235D01*
X74062D01*
Y184835D01*
X73662D01*
Y184035D01*
X74062D01*
X69731D02*
Y183635D01*
X70531D01*
Y184035D01*
X70932D01*
Y184835D01*
X70531D01*
Y185235D01*
X69731D01*
Y184835D01*
X69332D01*
Y184035D01*
X69731D01*
X65401D02*
Y183635D01*
X66201D01*
Y184035D01*
X66601D01*
Y184835D01*
X66201D01*
Y185235D01*
X65401D01*
Y184835D01*
X65001D01*
Y184035D01*
X65401D01*
X61070D02*
Y183635D01*
X61870D01*
Y184035D01*
X62270D01*
Y184835D01*
X61870D01*
Y185235D01*
X61070D01*
Y184835D01*
X60670D01*
Y184035D01*
X61070D01*
X56739D02*
Y183635D01*
X57539D01*
Y184035D01*
X57939D01*
Y184835D01*
X57539D01*
Y185235D01*
X56739D01*
Y184835D01*
X56339D01*
Y184035D01*
X56739D01*
X52409D02*
Y183635D01*
X53209D01*
Y184035D01*
X53609D01*
Y184835D01*
X53209D01*
Y185235D01*
X52409D01*
Y184835D01*
X52009D01*
Y184035D01*
X52409D01*
X74062Y188365D02*
Y187965D01*
X74862D01*
Y188365D01*
X75262D01*
Y189165D01*
X74862D01*
Y189565D01*
X74062D01*
Y189165D01*
X73662D01*
Y188365D01*
X74062D01*
X69731D02*
Y187965D01*
X70531D01*
Y188365D01*
X70932D01*
Y189165D01*
X70531D01*
Y189565D01*
X69731D01*
Y189165D01*
X69332D01*
Y188365D01*
X69731D01*
X65401D02*
Y187965D01*
X66201D01*
Y188365D01*
X66601D01*
Y189165D01*
X66201D01*
Y189565D01*
X65401D01*
Y189165D01*
X65001D01*
Y188365D01*
X65401D01*
X61070D02*
Y187965D01*
X61870D01*
Y188365D01*
X62270D01*
Y189165D01*
X61870D01*
Y189565D01*
X61070D01*
Y189165D01*
X60670D01*
Y188365D01*
X61070D01*
X56739D02*
Y187965D01*
X57539D01*
Y188365D01*
X57939D01*
Y189165D01*
X57539D01*
Y189565D01*
X56739D01*
Y189165D01*
X56339D01*
Y188365D01*
X56739D01*
X52409D02*
Y187965D01*
X53209D01*
Y188365D01*
X53609D01*
Y189165D01*
X53209D01*
Y189565D01*
X52409D01*
Y189165D01*
X52009D01*
Y188365D01*
X52409D01*
X74062Y192696D02*
Y192296D01*
X74862D01*
Y192696D01*
X75262D01*
Y193496D01*
X74862D01*
Y193896D01*
X74062D01*
Y193496D01*
X73662D01*
Y192696D01*
X74062D01*
X69731D02*
Y192296D01*
X70531D01*
Y192696D01*
X70932D01*
Y193496D01*
X70531D01*
Y193896D01*
X69731D01*
Y193496D01*
X69332D01*
Y192696D01*
X69731D01*
X65401D02*
Y192296D01*
X66201D01*
Y192696D01*
X66601D01*
Y193496D01*
X66201D01*
Y193896D01*
X65401D01*
Y193496D01*
X65001D01*
Y192696D01*
X65401D01*
X61070D02*
Y192296D01*
X61870D01*
Y192696D01*
X62270D01*
Y193496D01*
X61870D01*
Y193896D01*
X61070D01*
Y193496D01*
X60670D01*
Y192696D01*
X61070D01*
X56739D02*
Y192296D01*
X57539D01*
Y192696D01*
X57939D01*
Y193496D01*
X57539D01*
Y193896D01*
X56739D01*
Y193496D01*
X56339D01*
Y192696D01*
X56739D01*
X52409D02*
Y192296D01*
X53209D01*
Y192696D01*
X53609D01*
Y193496D01*
X53209D01*
Y193896D01*
X52409D01*
Y193496D01*
X52009D01*
Y192696D01*
X52409D01*
X74062Y197027D02*
Y196627D01*
X74862D01*
Y197027D01*
X75262D01*
Y197827D01*
X74862D01*
Y198227D01*
X74062D01*
Y197827D01*
X73662D01*
Y197027D01*
X74062D01*
X69731D02*
Y196627D01*
X70531D01*
Y197027D01*
X70932D01*
Y197827D01*
X70531D01*
Y198227D01*
X69731D01*
Y197827D01*
X69332D01*
Y197027D01*
X69731D01*
X65401D02*
Y196627D01*
X66201D01*
Y197027D01*
X66601D01*
Y197827D01*
X66201D01*
Y198227D01*
X65401D01*
Y197827D01*
X65001D01*
Y197027D01*
X65401D01*
X61070D02*
Y196627D01*
X61870D01*
Y197027D01*
X62270D01*
Y197827D01*
X61870D01*
Y198227D01*
X61070D01*
Y197827D01*
X60670D01*
Y197027D01*
X61070D01*
X56739D02*
Y196627D01*
X57539D01*
Y197027D01*
X57939D01*
Y197827D01*
X57539D01*
Y198227D01*
X56739D01*
Y197827D01*
X56339D01*
Y197027D01*
X56739D01*
X52409D02*
Y196627D01*
X53209D01*
Y197027D01*
X53609D01*
Y197827D01*
X53209D01*
Y198227D01*
X52409D01*
Y197827D01*
X52009D01*
Y197027D01*
X52409D01*
X74062Y201358D02*
Y200957D01*
X74862D01*
Y201358D01*
X75262D01*
Y202157D01*
X74862D01*
Y202557D01*
X74062D01*
Y202157D01*
X73662D01*
Y201358D01*
X74062D01*
X69731D02*
Y200957D01*
X70531D01*
Y201358D01*
X70932D01*
Y202157D01*
X70531D01*
Y202557D01*
X69731D01*
Y202157D01*
X69332D01*
Y201358D01*
X69731D01*
X65401D02*
Y200957D01*
X66201D01*
Y201358D01*
X66601D01*
Y202157D01*
X66201D01*
Y202557D01*
X65401D01*
Y202157D01*
X65001D01*
Y201358D01*
X65401D01*
X61070D02*
Y200957D01*
X61870D01*
Y201358D01*
X62270D01*
Y202157D01*
X61870D01*
Y202557D01*
X61070D01*
Y202157D01*
X60670D01*
Y201358D01*
X61070D01*
X56739D02*
Y200957D01*
X57539D01*
Y201358D01*
X57939D01*
Y202157D01*
X57539D01*
Y202557D01*
X56739D01*
Y202157D01*
X56339D01*
Y201358D01*
X56739D01*
X52409D02*
Y200957D01*
X53209D01*
Y201358D01*
X53609D01*
Y202157D01*
X53209D01*
Y202557D01*
X52409D01*
Y202157D01*
X52009D01*
Y201358D01*
X52409D01*
X345128Y242139D02*
Y241739D01*
X345928D01*
Y242139D01*
X346328D01*
Y242939D01*
X345928D01*
Y243339D01*
X345128D01*
Y242939D01*
X344728D01*
Y242139D01*
X345128D01*
X340797D02*
Y241739D01*
X341597D01*
Y242139D01*
X341997D01*
Y242939D01*
X341597D01*
Y243339D01*
X340797D01*
Y242939D01*
X340397D01*
Y242139D01*
X340797D01*
X336466D02*
Y241739D01*
X337266D01*
Y242139D01*
X337666D01*
Y242939D01*
X337266D01*
Y243339D01*
X336466D01*
Y242939D01*
X336066D01*
Y242139D01*
X336466D01*
X332135D02*
Y241739D01*
X332935D01*
Y242139D01*
X333335D01*
Y242939D01*
X332935D01*
Y243339D01*
X332135D01*
Y242939D01*
X331735D01*
Y242139D01*
X332135D01*
X327805D02*
Y241739D01*
X328605D01*
Y242139D01*
X329005D01*
Y242939D01*
X328605D01*
Y243339D01*
X327805D01*
Y242939D01*
X327405D01*
Y242139D01*
X327805D01*
X323474D02*
Y241739D01*
X324274D01*
Y242139D01*
X324674D01*
Y242939D01*
X324274D01*
Y243339D01*
X323474D01*
Y242939D01*
X323074D01*
Y242139D01*
X323474D01*
X345128Y246469D02*
Y246069D01*
X345928D01*
Y246469D01*
X346328D01*
Y247269D01*
X345928D01*
Y247669D01*
X345128D01*
Y247269D01*
X344728D01*
Y246469D01*
X345128D01*
X340797D02*
Y246069D01*
X341597D01*
Y246469D01*
X341997D01*
Y247269D01*
X341597D01*
Y247669D01*
X340797D01*
Y247269D01*
X340397D01*
Y246469D01*
X340797D01*
X336466D02*
Y246069D01*
X337266D01*
Y246469D01*
X337666D01*
Y247269D01*
X337266D01*
Y247669D01*
X336466D01*
Y247269D01*
X336066D01*
Y246469D01*
X336466D01*
X332135D02*
Y246069D01*
X332935D01*
Y246469D01*
X333335D01*
Y247269D01*
X332935D01*
Y247669D01*
X332135D01*
Y247269D01*
X331735D01*
Y246469D01*
X332135D01*
X327805D02*
Y246069D01*
X328605D01*
Y246469D01*
X329005D01*
Y247269D01*
X328605D01*
Y247669D01*
X327805D01*
Y247269D01*
X327405D01*
Y246469D01*
X327805D01*
X323474D02*
Y246069D01*
X324274D01*
Y246469D01*
X324674D01*
Y247269D01*
X324274D01*
Y247669D01*
X323474D01*
Y247269D01*
X323074D01*
Y246469D01*
X323474D01*
X345128Y250800D02*
Y250400D01*
X345928D01*
Y250800D01*
X346328D01*
Y251600D01*
X345928D01*
Y252000D01*
X345128D01*
Y251600D01*
X344728D01*
Y250800D01*
X345128D01*
X340797D02*
Y250400D01*
X341597D01*
Y250800D01*
X341997D01*
Y251600D01*
X341597D01*
Y252000D01*
X340797D01*
Y251600D01*
X340397D01*
Y250800D01*
X340797D01*
X336466D02*
Y250400D01*
X337266D01*
Y250800D01*
X337666D01*
Y251600D01*
X337266D01*
Y252000D01*
X336466D01*
Y251600D01*
X336066D01*
Y250800D01*
X336466D01*
X332135D02*
Y250400D01*
X332935D01*
Y250800D01*
X333335D01*
Y251600D01*
X332935D01*
Y252000D01*
X332135D01*
Y251600D01*
X331735D01*
Y250800D01*
X332135D01*
X327805D02*
Y250400D01*
X328605D01*
Y250800D01*
X329005D01*
Y251600D01*
X328605D01*
Y252000D01*
X327805D01*
Y251600D01*
X327405D01*
Y250800D01*
X327805D01*
X323474D02*
Y250400D01*
X324274D01*
Y250800D01*
X324674D01*
Y251600D01*
X324274D01*
Y252000D01*
X323474D01*
Y251600D01*
X323074D01*
Y250800D01*
X323474D01*
X345128Y255131D02*
Y254731D01*
X345928D01*
Y255131D01*
X346328D01*
Y255931D01*
X345928D01*
Y256331D01*
X345128D01*
Y255931D01*
X344728D01*
Y255131D01*
X345128D01*
X340797D02*
Y254731D01*
X341597D01*
Y255131D01*
X341997D01*
Y255931D01*
X341597D01*
Y256331D01*
X340797D01*
Y255931D01*
X340397D01*
Y255131D01*
X340797D01*
X336466D02*
Y254731D01*
X337266D01*
Y255131D01*
X337666D01*
Y255931D01*
X337266D01*
Y256331D01*
X336466D01*
Y255931D01*
X336066D01*
Y255131D01*
X336466D01*
X332135D02*
Y254731D01*
X332935D01*
Y255131D01*
X333335D01*
Y255931D01*
X332935D01*
Y256331D01*
X332135D01*
Y255931D01*
X331735D01*
Y255131D01*
X332135D01*
X327805D02*
Y254731D01*
X328605D01*
Y255131D01*
X329005D01*
Y255931D01*
X328605D01*
Y256331D01*
X327805D01*
Y255931D01*
X327405D01*
Y255131D01*
X327805D01*
X323474D02*
Y254731D01*
X324274D01*
Y255131D01*
X324674D01*
Y255931D01*
X324274D01*
Y256331D01*
X323474D01*
Y255931D01*
X323074D01*
Y255131D01*
X323474D01*
X345128Y259461D02*
Y259062D01*
X345928D01*
Y259461D01*
X346328D01*
Y260262D01*
X345928D01*
Y260662D01*
X345128D01*
Y260262D01*
X344728D01*
Y259461D01*
X345128D01*
X340797D02*
Y259062D01*
X341597D01*
Y259461D01*
X341997D01*
Y260262D01*
X341597D01*
Y260662D01*
X340797D01*
Y260262D01*
X340397D01*
Y259461D01*
X340797D01*
X336466D02*
Y259062D01*
X337266D01*
Y259461D01*
X337666D01*
Y260262D01*
X337266D01*
Y260662D01*
X336466D01*
Y260262D01*
X336066D01*
Y259461D01*
X336466D01*
X332135D02*
Y259062D01*
X332935D01*
Y259461D01*
X333335D01*
Y260262D01*
X332935D01*
Y260662D01*
X332135D01*
Y260262D01*
X331735D01*
Y259461D01*
X332135D01*
X327805D02*
Y259062D01*
X328605D01*
Y259461D01*
X329005D01*
Y260262D01*
X328605D01*
Y260662D01*
X327805D01*
Y260262D01*
X327405D01*
Y259461D01*
X327805D01*
X323474D02*
Y259062D01*
X324274D01*
Y259461D01*
X324674D01*
Y260262D01*
X324274D01*
Y260662D01*
X323474D01*
Y260262D01*
X323074D01*
Y259461D01*
X323474D01*
X345128Y263792D02*
Y263392D01*
X345928D01*
Y263792D01*
X346328D01*
Y264592D01*
X345928D01*
Y264992D01*
X345128D01*
Y264592D01*
X344728D01*
Y263792D01*
X345128D01*
X340797D02*
Y263392D01*
X341597D01*
Y263792D01*
X341997D01*
Y264592D01*
X341597D01*
Y264992D01*
X340797D01*
Y264592D01*
X340397D01*
Y263792D01*
X340797D01*
X336466D02*
Y263392D01*
X337266D01*
Y263792D01*
X337666D01*
Y264592D01*
X337266D01*
Y264992D01*
X336466D01*
Y264592D01*
X336066D01*
Y263792D01*
X336466D01*
X332135D02*
Y263392D01*
X332935D01*
Y263792D01*
X333335D01*
Y264592D01*
X332935D01*
Y264992D01*
X332135D01*
Y264592D01*
X331735D01*
Y263792D01*
X332135D01*
X327805D02*
Y263392D01*
X328605D01*
Y263792D01*
X329005D01*
Y264592D01*
X328605D01*
Y264992D01*
X327805D01*
Y264592D01*
X327405D01*
Y263792D01*
X327805D01*
X323474D02*
Y263392D01*
X324274D01*
Y263792D01*
X324674D01*
Y264592D01*
X324274D01*
Y264992D01*
X323474D01*
Y264592D01*
X323074D01*
Y263792D01*
X323474D01*
X144574Y264092D02*
Y263692D01*
X145374D01*
Y264092D01*
X145774D01*
Y264892D01*
X145374D01*
Y265292D01*
X144574D01*
Y264892D01*
X144174D01*
Y264092D01*
X144574D01*
X148905D02*
Y263692D01*
X149705D01*
Y264092D01*
X150105D01*
Y264892D01*
X149705D01*
Y265292D01*
X148905D01*
Y264892D01*
X148505D01*
Y264092D01*
X148905D01*
X153235D02*
Y263692D01*
X154035D01*
Y264092D01*
X154435D01*
Y264892D01*
X154035D01*
Y265292D01*
X153235D01*
Y264892D01*
X152835D01*
Y264092D01*
X153235D01*
X157566D02*
Y263692D01*
X158366D01*
Y264092D01*
X158766D01*
Y264892D01*
X158366D01*
Y265292D01*
X157566D01*
Y264892D01*
X157166D01*
Y264092D01*
X157566D01*
X161897D02*
Y263692D01*
X162697D01*
Y264092D01*
X163097D01*
Y264892D01*
X162697D01*
Y265292D01*
X161897D01*
Y264892D01*
X161497D01*
Y264092D01*
X161897D01*
X166228D02*
Y263692D01*
X167028D01*
Y264092D01*
X167428D01*
Y264892D01*
X167028D01*
Y265292D01*
X166228D01*
Y264892D01*
X165828D01*
Y264092D01*
X166228D01*
X144574Y259761D02*
Y259361D01*
X145374D01*
Y259761D01*
X145774D01*
Y260561D01*
X145374D01*
Y260961D01*
X144574D01*
Y260561D01*
X144174D01*
Y259761D01*
X144574D01*
X148905D02*
Y259361D01*
X149705D01*
Y259761D01*
X150105D01*
Y260561D01*
X149705D01*
Y260961D01*
X148905D01*
Y260561D01*
X148505D01*
Y259761D01*
X148905D01*
X153235D02*
Y259361D01*
X154035D01*
Y259761D01*
X154435D01*
Y260561D01*
X154035D01*
Y260961D01*
X153235D01*
Y260561D01*
X152835D01*
Y259761D01*
X153235D01*
X157566D02*
Y259361D01*
X158366D01*
Y259761D01*
X158766D01*
Y260561D01*
X158366D01*
Y260961D01*
X157566D01*
Y260561D01*
X157166D01*
Y259761D01*
X157566D01*
X161897D02*
Y259361D01*
X162697D01*
Y259761D01*
X163097D01*
Y260561D01*
X162697D01*
Y260961D01*
X161897D01*
Y260561D01*
X161497D01*
Y259761D01*
X161897D01*
X166228D02*
Y259361D01*
X167028D01*
Y259761D01*
X167428D01*
Y260561D01*
X167028D01*
Y260961D01*
X166228D01*
Y260561D01*
X165828D01*
Y259761D01*
X166228D01*
X144574Y255431D02*
Y255031D01*
X145374D01*
Y255431D01*
X145774D01*
Y256231D01*
X145374D01*
Y256631D01*
X144574D01*
Y256231D01*
X144174D01*
Y255431D01*
X144574D01*
X148905D02*
Y255031D01*
X149705D01*
Y255431D01*
X150105D01*
Y256231D01*
X149705D01*
Y256631D01*
X148905D01*
Y256231D01*
X148505D01*
Y255431D01*
X148905D01*
X153235D02*
Y255031D01*
X154035D01*
Y255431D01*
X154435D01*
Y256231D01*
X154035D01*
Y256631D01*
X153235D01*
Y256231D01*
X152835D01*
Y255431D01*
X153235D01*
X157566D02*
Y255031D01*
X158366D01*
Y255431D01*
X158766D01*
Y256231D01*
X158366D01*
Y256631D01*
X157566D01*
Y256231D01*
X157166D01*
Y255431D01*
X157566D01*
X161897D02*
Y255031D01*
X162697D01*
Y255431D01*
X163097D01*
Y256231D01*
X162697D01*
Y256631D01*
X161897D01*
Y256231D01*
X161497D01*
Y255431D01*
X161897D01*
X166228D02*
Y255031D01*
X167028D01*
Y255431D01*
X167428D01*
Y256231D01*
X167028D01*
Y256631D01*
X166228D01*
Y256231D01*
X165828D01*
Y255431D01*
X166228D01*
X144574Y251100D02*
Y250700D01*
X145374D01*
Y251100D01*
X145774D01*
Y251900D01*
X145374D01*
Y252300D01*
X144574D01*
Y251900D01*
X144174D01*
Y251100D01*
X144574D01*
X148905D02*
Y250700D01*
X149705D01*
Y251100D01*
X150105D01*
Y251900D01*
X149705D01*
Y252300D01*
X148905D01*
Y251900D01*
X148505D01*
Y251100D01*
X148905D01*
X153235D02*
Y250700D01*
X154035D01*
Y251100D01*
X154435D01*
Y251900D01*
X154035D01*
Y252300D01*
X153235D01*
Y251900D01*
X152835D01*
Y251100D01*
X153235D01*
X157566D02*
Y250700D01*
X158366D01*
Y251100D01*
X158766D01*
Y251900D01*
X158366D01*
Y252300D01*
X157566D01*
Y251900D01*
X157166D01*
Y251100D01*
X157566D01*
X161897D02*
Y250700D01*
X162697D01*
Y251100D01*
X163097D01*
Y251900D01*
X162697D01*
Y252300D01*
X161897D01*
Y251900D01*
X161497D01*
Y251100D01*
X161897D01*
X166228D02*
Y250700D01*
X167028D01*
Y251100D01*
X167428D01*
Y251900D01*
X167028D01*
Y252300D01*
X166228D01*
Y251900D01*
X165828D01*
Y251100D01*
X166228D01*
X144574Y246769D02*
Y246369D01*
X145374D01*
Y246769D01*
X145774D01*
Y247569D01*
X145374D01*
Y247969D01*
X144574D01*
Y247569D01*
X144174D01*
Y246769D01*
X144574D01*
X148905D02*
Y246369D01*
X149705D01*
Y246769D01*
X150105D01*
Y247569D01*
X149705D01*
Y247969D01*
X148905D01*
Y247569D01*
X148505D01*
Y246769D01*
X148905D01*
X153235D02*
Y246369D01*
X154035D01*
Y246769D01*
X154435D01*
Y247569D01*
X154035D01*
Y247969D01*
X153235D01*
Y247569D01*
X152835D01*
Y246769D01*
X153235D01*
X157566D02*
Y246369D01*
X158366D01*
Y246769D01*
X158766D01*
Y247569D01*
X158366D01*
Y247969D01*
X157566D01*
Y247569D01*
X157166D01*
Y246769D01*
X157566D01*
X161897D02*
Y246369D01*
X162697D01*
Y246769D01*
X163097D01*
Y247569D01*
X162697D01*
Y247969D01*
X161897D01*
Y247569D01*
X161497D01*
Y246769D01*
X161897D01*
X166228D02*
Y246369D01*
X167028D01*
Y246769D01*
X167428D01*
Y247569D01*
X167028D01*
Y247969D01*
X166228D01*
Y247569D01*
X165828D01*
Y246769D01*
X166228D01*
X144574Y242439D02*
Y242039D01*
X145374D01*
Y242439D01*
X145774D01*
Y243239D01*
X145374D01*
Y243639D01*
X144574D01*
Y243239D01*
X144174D01*
Y242439D01*
X144574D01*
X148905D02*
Y242039D01*
X149705D01*
Y242439D01*
X150105D01*
Y243239D01*
X149705D01*
Y243639D01*
X148905D01*
Y243239D01*
X148505D01*
Y242439D01*
X148905D01*
X153235D02*
Y242039D01*
X154035D01*
Y242439D01*
X154435D01*
Y243239D01*
X154035D01*
Y243639D01*
X153235D01*
Y243239D01*
X152835D01*
Y242439D01*
X153235D01*
X157566D02*
Y242039D01*
X158366D01*
Y242439D01*
X158766D01*
Y243239D01*
X158366D01*
Y243639D01*
X157566D01*
Y243239D01*
X157166D01*
Y242439D01*
X157566D01*
X161897D02*
Y242039D01*
X162697D01*
Y242439D01*
X163097D01*
Y243239D01*
X162697D01*
Y243639D01*
X161897D01*
Y243239D01*
X161497D01*
Y242439D01*
X161897D01*
X166228D02*
Y242039D01*
X167028D01*
Y242439D01*
X167428D01*
Y243239D01*
X167028D01*
Y243639D01*
X166228D01*
Y243239D01*
X165828D01*
Y242439D01*
X166228D01*
X121641Y349514D02*
X122041D01*
X122441Y349914D01*
X122841Y349514D01*
X123241D01*
Y349914D01*
X122841Y350314D01*
X123241Y350714D01*
Y351114D01*
X122841D01*
X122441Y350714D01*
X122041Y351114D01*
X121641D01*
Y350714D01*
X122041Y350314D01*
X121641Y349914D01*
Y349514D01*
X118498Y349407D02*
X118897D01*
X119298Y349807D01*
X119697Y349407D01*
X120097D01*
Y349807D01*
X119697Y350207D01*
X120097Y350607D01*
Y351007D01*
X119697D01*
X119298Y350607D01*
X118897Y351007D01*
X118498D01*
Y350607D01*
X118897Y350207D01*
X118498Y349807D01*
Y349407D01*
X106757Y351803D02*
X107157D01*
X107557Y352203D01*
X107957Y351803D01*
X108357D01*
Y352203D01*
X107957Y352603D01*
X108357Y353003D01*
Y353403D01*
X107957D01*
X107557Y353003D01*
X107157Y353403D01*
X106757D01*
Y353003D01*
X107157Y352603D01*
X106757Y352203D01*
Y351803D01*
X110057D02*
X110457D01*
X110857Y352203D01*
X111257Y351803D01*
X111657D01*
Y352203D01*
X111257Y352603D01*
X111657Y353003D01*
Y353403D01*
X111257D01*
X110857Y353003D01*
X110457Y353403D01*
X110057D01*
Y353003D01*
X110457Y352603D01*
X110057Y352203D01*
Y351803D01*
X113057Y351903D02*
X113457D01*
X113857Y352303D01*
X114257Y351903D01*
X114657D01*
Y352303D01*
X114257Y352703D01*
X114657Y353103D01*
Y353503D01*
X114257D01*
X113857Y353103D01*
X113457Y353503D01*
X113057D01*
Y353103D01*
X113457Y352703D01*
X113057Y352303D01*
Y351903D01*
X207001Y359990D02*
X207801Y360790D01*
X208601Y359990D01*
X207801Y359190D01*
X207001Y359990D01*
X209194Y360843D02*
X209995Y361643D01*
X210794Y360843D01*
X209995Y360043D01*
X209194Y360843D01*
X299800Y249800D02*
X300600Y250600D01*
X301400Y249800D01*
X300600Y249000D01*
X299800Y249800D01*
X296200D02*
X297000Y250600D01*
X297800Y249800D01*
X297000Y249000D01*
X296200Y249800D01*
X6100Y243500D02*
X6900Y244300D01*
X7700Y243500D01*
X6900Y242700D01*
X6100Y243500D01*
X2400Y243700D02*
X3200Y244500D01*
X4000Y243700D01*
X3200Y242900D01*
X2400Y243700D01*
X4200Y246300D02*
X5000Y247100D01*
X5800Y246300D01*
X5000Y245500D01*
X4200Y246300D01*
X6000Y249000D02*
X6800Y249800D01*
X7600Y249000D01*
X6800Y248200D01*
X6000Y249000D01*
X2300Y249100D02*
X3100Y249900D01*
X3900Y249100D01*
X3100Y248300D01*
X2300Y249100D01*
X7500Y275600D02*
X8300Y276400D01*
X9100Y275600D01*
X8300Y274800D01*
X7500Y275600D01*
X7400Y279000D02*
X8200Y279800D01*
X9000Y279000D01*
X8200Y278200D01*
X7400Y279000D01*
X4500Y277400D02*
X5300Y278200D01*
X6100Y277400D01*
X5300Y276600D01*
X4500Y277400D01*
X2000Y275800D02*
X2800Y276600D01*
X3600Y275800D01*
X2800Y275000D01*
X2000Y275800D01*
Y279200D02*
X2800Y280000D01*
X3600Y279200D01*
X2800Y278400D01*
X2000Y279200D01*
X58253Y319600D02*
X58653D01*
X59053Y320000D01*
X59453Y319600D01*
X59853D01*
Y320000D01*
X59453Y320400D01*
X59853Y320800D01*
Y321200D01*
X59453D01*
X59053Y320800D01*
X58653Y321200D01*
X58253D01*
Y320800D01*
X58653Y320400D01*
X58253Y320000D01*
Y319600D01*
X291350Y334500D02*
Y336100D01*
X292950D01*
Y334500D01*
X291350D01*
X291750Y334900D02*
Y335700D01*
X292550D01*
Y334900D01*
X291750D01*
X55253Y319600D02*
X55653D01*
X56053Y320000D01*
X56453Y319600D01*
X56853D01*
Y320000D01*
X56453Y320400D01*
X56853Y320800D01*
Y321200D01*
X56453D01*
X56053Y320800D01*
X55653Y321200D01*
X55253D01*
Y320800D01*
X55653Y320400D01*
X55253Y320000D01*
Y319600D01*
X294050Y334500D02*
Y336100D01*
X295650D01*
Y334500D01*
X294050D01*
X294450Y334900D02*
Y335700D01*
X295250D01*
Y334900D01*
X294450D01*
X80500Y324900D02*
X80900D01*
X81300Y325300D01*
X81700Y324900D01*
X82100D01*
Y325300D01*
X81700Y325700D01*
X82100Y326100D01*
Y326500D01*
X81700D01*
X81300Y326100D01*
X80900Y326500D01*
X80500D01*
Y326100D01*
X80900Y325700D01*
X80500Y325300D01*
Y324900D01*
X69400Y318700D02*
X69800D01*
X70200Y319100D01*
X70600Y318700D01*
X71000D01*
Y319100D01*
X70600Y319500D01*
X71000Y319900D01*
Y320300D01*
X70600D01*
X70200Y319900D01*
X69800Y320300D01*
X69400D01*
Y319900D01*
X69800Y319500D01*
X69400Y319100D01*
Y318700D01*
X75000Y321800D02*
X75400D01*
X75800Y322200D01*
X76200Y321800D01*
X76600D01*
Y322200D01*
X76200Y322600D01*
X76600Y323000D01*
Y323400D01*
X76200D01*
X75800Y323000D01*
X75400Y323400D01*
X75000D01*
Y323000D01*
X75400Y322600D01*
X75000Y322200D01*
Y321800D01*
X72900Y324900D02*
X73300D01*
X73700Y325300D01*
X74100Y324900D01*
X74500D01*
Y325300D01*
X74100Y325700D01*
X74500Y326100D01*
Y326500D01*
X74100D01*
X73700Y326100D01*
X73300Y326500D01*
X72900D01*
Y326100D01*
X73300Y325700D01*
X72900Y325300D01*
Y324900D01*
X69300D02*
X69700D01*
X70100Y325300D01*
X70500Y324900D01*
X70900D01*
Y325300D01*
X70500Y325700D01*
X70900Y326100D01*
Y326500D01*
X70500D01*
X70100Y326100D01*
X69700Y326500D01*
X69300D01*
Y326100D01*
X69700Y325700D01*
X69300Y325300D01*
Y324900D01*
X78700Y321800D02*
X79100D01*
X79500Y322200D01*
X79900Y321800D01*
X80300D01*
Y322200D01*
X79900Y322600D01*
X80300Y323000D01*
Y323400D01*
X79900D01*
X79500Y323000D01*
X79100Y323400D01*
X78700D01*
Y323000D01*
X79100Y322600D01*
X78700Y322200D01*
Y321800D01*
X71100D02*
X71500D01*
X71900Y322200D01*
X72300Y321800D01*
X72700D01*
Y322200D01*
X72300Y322600D01*
X72700Y323000D01*
Y323400D01*
X72300D01*
X71900Y323000D01*
X71500Y323400D01*
X71100D01*
Y323000D01*
X71500Y322600D01*
X71100Y322200D01*
Y321800D01*
X76700Y324900D02*
X77100D01*
X77500Y325300D01*
X77900Y324900D01*
X78300D01*
Y325300D01*
X77900Y325700D01*
X78300Y326100D01*
Y326500D01*
X77900D01*
X77500Y326100D01*
X77100Y326500D01*
X76700D01*
Y326100D01*
X77100Y325700D01*
X76700Y325300D01*
Y324900D01*
X80600Y318800D02*
X81000D01*
X81400Y319200D01*
X81800Y318800D01*
X82200D01*
Y319200D01*
X81800Y319600D01*
X82200Y320000D01*
Y320400D01*
X81800D01*
X81400Y320000D01*
X81000Y320400D01*
X80600D01*
Y320000D01*
X81000Y319600D01*
X80600Y319200D01*
Y318800D01*
X77000Y318700D02*
X77400D01*
X77800Y319100D01*
X78200Y318700D01*
X78600D01*
Y319100D01*
X78200Y319500D01*
X78600Y319900D01*
Y320300D01*
X78200D01*
X77800Y319900D01*
X77400Y320300D01*
X77000D01*
Y319900D01*
X77400Y319500D01*
X77000Y319100D01*
Y318700D01*
X73200D02*
X73600D01*
X74000Y319100D01*
X74400Y318700D01*
X74800D01*
Y319100D01*
X74400Y319500D01*
X74800Y319900D01*
Y320300D01*
X74400D01*
X74000Y319900D01*
X73600Y320300D01*
X73200D01*
Y319900D01*
X73600Y319500D01*
X73200Y319100D01*
Y318700D01*
X28800Y13900D02*
X29600Y14700D01*
X30400Y13900D01*
X29600Y13100D01*
X28800Y13900D01*
X29700Y17200D02*
X30500Y18000D01*
X31300Y17200D01*
X30500Y16400D01*
X29700Y17200D01*
X24400Y29400D02*
X25200Y30200D01*
X26000Y29400D01*
X25200Y28600D01*
X24400Y29400D01*
X20400Y30500D02*
X21200Y31300D01*
X22000Y30500D01*
X21200Y29700D01*
X20400Y30500D01*
X16700D02*
X17500Y31300D01*
X18300Y30500D01*
X17500Y29700D01*
X16700Y30500D01*
X13000Y29300D02*
X13800Y30100D01*
X14600Y29300D01*
X13800Y28500D01*
X13000Y29300D01*
X9900Y27000D02*
X10700Y27800D01*
X11500Y27000D01*
X10700Y26200D01*
X9900Y27000D01*
X8600Y23500D02*
X9400Y24300D01*
X10200Y23500D01*
X9400Y22700D01*
X8600Y23500D01*
X8200Y19800D02*
X9000Y20600D01*
X9800Y19800D01*
X9000Y19000D01*
X8200Y19800D01*
X8700Y16300D02*
X9500Y17100D01*
X10300Y16300D01*
X9500Y15500D01*
X8700Y16300D01*
X29750Y20406D02*
X30549Y21206D01*
X31350Y20406D01*
X30549Y19606D01*
X29750Y20406D01*
X16000Y9500D02*
X16800Y10300D01*
X17600Y9500D01*
X16800Y8700D01*
X16000Y9500D01*
X20100Y9200D02*
X20900Y10000D01*
X21700Y9200D01*
X20900Y8400D01*
X20100Y9200D01*
X23700Y9600D02*
X24500Y10400D01*
X25300Y9600D01*
X24500Y8800D01*
X23700Y9600D01*
X26500Y11000D02*
X27300Y11800D01*
X28100Y11000D01*
X27300Y10200D01*
X26500Y11000D01*
X380900Y11500D02*
X381700Y12300D01*
X382500Y11500D01*
X381700Y10700D01*
X380900Y11500D01*
X378100Y10100D02*
X378900Y10900D01*
X379700Y10100D01*
X378900Y9300D01*
X378100Y10100D01*
X374500Y9700D02*
X375300Y10500D01*
X376100Y9700D01*
X375300Y8900D01*
X374500Y9700D01*
X370400Y10000D02*
X371200Y10800D01*
X372000Y10000D01*
X371200Y9200D01*
X370400Y10000D01*
X384150Y20906D02*
X384949Y21706D01*
X385750Y20906D01*
X384949Y20106D01*
X384150Y20906D01*
X366700Y11600D02*
X367500Y12400D01*
X368300Y11600D01*
X367500Y10800D01*
X366700Y11600D01*
X364500Y13800D02*
X365300Y14600D01*
X366100Y13800D01*
X365300Y13000D01*
X364500Y13800D01*
X363100Y16800D02*
X363900Y17600D01*
X364700Y16800D01*
X363900Y16000D01*
X363100Y16800D01*
X362600Y20300D02*
X363400Y21100D01*
X364200Y20300D01*
X363400Y19500D01*
X362600Y20300D01*
X367400Y29800D02*
X368200Y30600D01*
X369000Y29800D01*
X368200Y29000D01*
X367400Y29800D01*
X371100Y31000D02*
X371900Y31800D01*
X372700Y31000D01*
X371900Y30200D01*
X371100Y31000D01*
X374800D02*
X375600Y31800D01*
X376400Y31000D01*
X375600Y30200D01*
X374800Y31000D01*
X378800Y29900D02*
X379600Y30700D01*
X380400Y29900D01*
X379600Y29100D01*
X378800Y29900D01*
X382000Y27400D02*
X382800Y28200D01*
X383600Y27400D01*
X382800Y26600D01*
X382000Y27400D01*
X383600Y24400D02*
X384400Y25200D01*
X385200Y24400D01*
X384400Y23600D01*
X383600Y24400D01*
X384100Y17700D02*
X384900Y18500D01*
X385700Y17700D01*
X384900Y16900D01*
X384100Y17700D01*
X383200Y14400D02*
X384000Y15200D01*
X384800Y14400D01*
X384000Y13600D01*
X383200Y14400D01*
X369900Y363300D02*
X370700Y364100D01*
X371500Y363300D01*
X370700Y362500D01*
X369900Y363300D01*
X377500Y363500D02*
X378300Y364300D01*
X379100Y363500D01*
X378300Y362700D01*
X377500Y363500D01*
X380600Y365400D02*
X381400Y366200D01*
X382200Y365400D01*
X381400Y364600D01*
X380600Y365400D01*
X384200Y374800D02*
X385000Y375600D01*
X385800Y374800D01*
X385000Y374000D01*
X384200Y374800D01*
X366594Y365396D02*
X367393Y366196D01*
X368194Y365396D01*
X367393Y364597D01*
X366594Y365396D01*
X364393Y367597D02*
X365194Y368396D01*
X365993Y367597D01*
X365194Y366796D01*
X364393Y367597D01*
X362994Y370597D02*
X363793Y371396D01*
X364594Y370597D01*
X363793Y369796D01*
X362994Y370597D01*
X362493Y374096D02*
X363294Y374897D01*
X364093Y374096D01*
X363294Y373296D01*
X362493Y374096D01*
X362894Y377797D02*
X363693Y378596D01*
X364493Y377797D01*
X363693Y376996D01*
X362894Y377797D01*
X364194Y381296D02*
X364994Y382097D01*
X365793Y381296D01*
X364994Y380497D01*
X364194Y381296D01*
X367294Y383596D02*
X368093Y384397D01*
X368894Y383596D01*
X368093Y382797D01*
X367294Y383596D01*
X370993Y384797D02*
X371794Y385596D01*
X372593Y384797D01*
X371794Y383997D01*
X370993Y384797D01*
X374693D02*
X375494Y385596D01*
X376293Y384797D01*
X375494Y383997D01*
X374693Y384797D01*
X378694Y383697D02*
X379493Y384496D01*
X380293Y383697D01*
X379493Y382896D01*
X378694Y383697D01*
X381893Y381196D02*
X382694Y381996D01*
X383493Y381196D01*
X382694Y380397D01*
X381893Y381196D01*
X383493Y378197D02*
X384294Y378996D01*
X385093Y378197D01*
X384294Y377396D01*
X383493Y378197D01*
X383994Y371497D02*
X384793Y372297D01*
X385594Y371497D01*
X384793Y370696D01*
X383994Y371497D01*
X383094Y368197D02*
X383893Y368997D01*
X384694Y368197D01*
X383893Y367396D01*
X383094Y368197D01*
X28800Y368300D02*
X29600Y369100D01*
X30400Y368300D01*
X29600Y367500D01*
X28800Y368300D01*
X29700Y371600D02*
X30500Y372400D01*
X31300Y371600D01*
X30500Y370800D01*
X29700Y371600D01*
X29200Y378300D02*
X30000Y379100D01*
X30800Y378300D01*
X30000Y377500D01*
X29200Y378300D01*
X27600Y381300D02*
X28400Y382100D01*
X29200Y381300D01*
X28400Y380500D01*
X27600Y381300D01*
X24400Y383800D02*
X25200Y384600D01*
X26000Y383800D01*
X25200Y383000D01*
X24400Y383800D01*
X20400Y384900D02*
X21200Y385700D01*
X22000Y384900D01*
X21200Y384100D01*
X20400Y384900D01*
X16700D02*
X17500Y385700D01*
X18300Y384900D01*
X17500Y384100D01*
X16700Y384900D01*
X13000Y383700D02*
X13800Y384500D01*
X14600Y383700D01*
X13800Y382900D01*
X13000Y383700D01*
X9900Y381400D02*
X10700Y382200D01*
X11500Y381400D01*
X10700Y380600D01*
X9900Y381400D01*
X8600Y377900D02*
X9400Y378700D01*
X10200Y377900D01*
X9400Y377100D01*
X8600Y377900D01*
X8200Y374200D02*
X9000Y375000D01*
X9800Y374200D01*
X9000Y373400D01*
X8200Y374200D01*
X8700Y370700D02*
X9500Y371500D01*
X10300Y370700D01*
X9500Y369900D01*
X8700Y370700D01*
X10100Y367700D02*
X10900Y368500D01*
X11700Y367700D01*
X10900Y366900D01*
X10100Y367700D01*
X12300Y365500D02*
X13100Y366300D01*
X13900Y365500D01*
X13100Y364700D01*
X12300Y365500D01*
X9908Y253989D02*
X10308D01*
X10708Y254389D01*
X11108Y253989D01*
X11508D01*
Y254389D01*
X11108Y254789D01*
X11508Y255189D01*
Y255589D01*
X11108D01*
X10708Y255189D01*
X10308Y255589D01*
X9908D01*
Y255189D01*
X10308Y254789D01*
X9908Y254389D01*
Y253989D01*
X6000Y254000D02*
X6400D01*
X6800Y254400D01*
X7200Y254000D01*
X7600D01*
Y254400D01*
X7200Y254800D01*
X7600Y255200D01*
Y255600D01*
X7200D01*
X6800Y255200D01*
X6400Y255600D01*
X6000D01*
Y255200D01*
X6400Y254800D01*
X6000Y254400D01*
Y254000D01*
X13881Y253989D02*
X14281D01*
X14681Y254388D01*
X15081Y253989D01*
X15481D01*
Y254388D01*
X15081Y254788D01*
X15481Y255188D01*
Y255589D01*
X15081D01*
X14681Y255188D01*
X14281Y255589D01*
X13881D01*
Y255188D01*
X14281Y254788D01*
X13881Y254388D01*
Y253989D01*
X3700Y257100D02*
X4100D01*
X4500Y257500D01*
X4900Y257100D01*
X5300D01*
Y257500D01*
X4900Y257900D01*
X5300Y258300D01*
Y258700D01*
X4900D01*
X4500Y258300D01*
X4100Y258700D01*
X3700D01*
Y258300D01*
X4100Y257900D01*
X3700Y257500D01*
Y257100D01*
X11908Y257108D02*
X12308D01*
X12708Y257508D01*
X13108Y257108D01*
X13508D01*
Y257508D01*
X13108Y257908D01*
X13508Y258308D01*
Y258708D01*
X13108D01*
X12708Y258308D01*
X12308Y258708D01*
X11908D01*
Y258308D01*
X12308Y257908D01*
X11908Y257508D01*
Y257108D01*
X7800Y257100D02*
X8200D01*
X8600Y257500D01*
X9000Y257100D01*
X9400D01*
Y257500D01*
X9000Y257900D01*
X9400Y258300D01*
Y258700D01*
X9000D01*
X8600Y258300D01*
X8200Y258700D01*
X7800D01*
Y258300D01*
X8200Y257900D01*
X7800Y257500D01*
Y257100D01*
X208900Y178900D02*
X209700Y179700D01*
X210500Y178900D01*
X209700Y178100D01*
X208900Y178900D01*
X204492Y168593D02*
X204892D01*
X205292Y168993D01*
X205692Y168593D01*
X206092D01*
Y168993D01*
X205692Y169393D01*
X206092Y169793D01*
Y170193D01*
X205692D01*
X205292Y169793D01*
X204892Y170193D01*
X204492D01*
Y169793D01*
X204892Y169393D01*
X204492Y168993D01*
Y168593D01*
X204507Y174144D02*
X204907D01*
X205307Y174544D01*
X205707Y174144D01*
X206107D01*
Y174544D01*
X205707Y174944D01*
X206107Y175344D01*
Y175744D01*
X205707D01*
X205307Y175344D01*
X204907Y175744D01*
X204507D01*
Y175344D01*
X204907Y174944D01*
X204507Y174544D01*
Y174144D01*
X261000Y177200D02*
X261800Y178000D01*
X262600Y177200D01*
X261800Y176400D01*
X261000Y177200D01*
X21437Y176083D02*
X22237Y176883D01*
X23037Y176083D01*
X22237Y175283D01*
X21437Y176083D01*
X21268Y180367D02*
X22068Y181167D01*
X22868Y180367D01*
X22068Y179567D01*
X21268Y180367D01*
X141900Y341000D02*
X142700Y341800D01*
X143500Y341000D01*
X142700Y340200D01*
X141900Y341000D01*
X154400D02*
X155200Y341800D01*
X156000Y341000D01*
X155200Y340200D01*
X154400Y341000D01*
X166900D02*
X167700Y341800D01*
X168500Y341000D01*
X167700Y340200D01*
X166900Y341000D01*
X179400D02*
X180200Y341800D01*
X181000Y341000D01*
X180200Y340200D01*
X179400Y341000D01*
X191900D02*
X192700Y341800D01*
X193500Y341000D01*
X192700Y340200D01*
X191900Y341000D01*
X204400D02*
X205200Y341800D01*
X206000Y341000D01*
X205200Y340200D01*
X204400Y341000D01*
X123600Y332600D02*
X124400Y333400D01*
X125200Y332600D01*
X124400Y331800D01*
X123600Y332600D01*
X136100D02*
X136900Y333400D01*
X137700Y332600D01*
X136900Y331800D01*
X136100Y332600D01*
X148600D02*
X149400Y333400D01*
X150200Y332600D01*
X149400Y331800D01*
X148600Y332600D01*
X161100D02*
X161900Y333400D01*
X162700Y332600D01*
X161900Y331800D01*
X161100Y332600D01*
X173600D02*
X174400Y333400D01*
X175200Y332600D01*
X174400Y331800D01*
X173600Y332600D01*
X186100D02*
X186900Y333400D01*
X187700Y332600D01*
X186900Y331800D01*
X186100Y332600D01*
X198600D02*
X199400Y333400D01*
X200200Y332600D01*
X199400Y331800D01*
X198600Y332600D01*
X374200Y362500D02*
X375000Y363300D01*
X375800Y362500D01*
X375000Y361700D01*
X374200Y362500D01*
X380450Y350000D02*
X381250Y350800D01*
X382050Y350000D01*
X381250Y349200D01*
X380450Y350000D01*
X374200Y337500D02*
X375000Y338300D01*
X375800Y337500D01*
X375000Y336700D01*
X374200Y337500D01*
X380450Y325000D02*
X381250Y325800D01*
X382050Y325000D01*
X381250Y324200D01*
X380450Y325000D01*
X374200Y312500D02*
X375000Y313300D01*
X375800Y312500D01*
X375000Y311700D01*
X374200Y312500D01*
X380450Y300000D02*
X381250Y300800D01*
X382050Y300000D01*
X381250Y299200D01*
X380450Y300000D01*
X374200Y287500D02*
X375000Y288300D01*
X375800Y287500D01*
X375000Y286700D01*
X374200Y287500D01*
X380450Y275000D02*
X381250Y275800D01*
X382050Y275000D01*
X381250Y274200D01*
X380450Y275000D01*
Y225000D02*
X381250Y225800D01*
X382050Y225000D01*
X381250Y224200D01*
X380450Y225000D01*
Y200000D02*
X381250Y200800D01*
X382050Y200000D01*
X381250Y199200D01*
X380450Y200000D01*
X374200Y187500D02*
X375000Y188300D01*
X375800Y187500D01*
X375000Y186700D01*
X374200Y187500D01*
X380450Y150000D02*
X381250Y150800D01*
X382050Y150000D01*
X381250Y149200D01*
X380450Y150000D01*
Y50000D02*
X381250Y50800D01*
X382050Y50000D01*
X381250Y49200D01*
X380450Y50000D01*
X374200Y37500D02*
X375000Y38300D01*
X375800Y37500D01*
X375000Y36700D01*
X374200Y37500D01*
X361700Y362500D02*
X362500Y363300D01*
X363300Y362500D01*
X362500Y361700D01*
X361700Y362500D01*
X367950Y350000D02*
X368750Y350800D01*
X369550Y350000D01*
X368750Y349200D01*
X367950Y350000D01*
X361700Y337500D02*
X362500Y338300D01*
X363300Y337500D01*
X362500Y336700D01*
X361700Y337500D01*
X367950Y325000D02*
X368750Y325800D01*
X369550Y325000D01*
X368750Y324200D01*
X367950Y325000D01*
X361700Y287500D02*
X362500Y288300D01*
X363300Y287500D01*
X362500Y286700D01*
X361700Y287500D01*
Y112500D02*
X362500Y113300D01*
X363300Y112500D01*
X362500Y111700D01*
X361700Y112500D01*
X367950Y100000D02*
X368750Y100800D01*
X369550Y100000D01*
X368750Y99200D01*
X367950Y100000D01*
X361700Y87500D02*
X362500Y88300D01*
X363300Y87500D01*
X362500Y86700D01*
X361700Y87500D01*
X367950Y50000D02*
X368750Y50800D01*
X369550Y50000D01*
X368750Y49200D01*
X367950Y50000D01*
X355450Y375000D02*
X356250Y375800D01*
X357050Y375000D01*
X356250Y374200D01*
X355450Y375000D01*
X349200Y362500D02*
X350000Y363300D01*
X350800Y362500D01*
X350000Y361700D01*
X349200Y362500D01*
X355450Y350000D02*
X356250Y350800D01*
X357050Y350000D01*
X356250Y349200D01*
X355450Y350000D01*
X349200Y337500D02*
X350000Y338300D01*
X350800Y337500D01*
X350000Y336700D01*
X349200Y337500D01*
X355450Y325000D02*
X356250Y325800D01*
X357050Y325000D01*
X356250Y324200D01*
X355450Y325000D01*
X349200Y312500D02*
X350000Y313300D01*
X350800Y312500D01*
X350000Y311700D01*
X349200Y312500D01*
X355450Y300000D02*
X356250Y300800D01*
X357050Y300000D01*
X356250Y299200D01*
X355450Y300000D01*
X349200Y287500D02*
X350000Y288300D01*
X350800Y287500D01*
X350000Y286700D01*
X349200Y287500D01*
Y237500D02*
X350000Y238300D01*
X350800Y237500D01*
X350000Y236700D01*
X349200Y237500D01*
X355450Y225000D02*
X356250Y225800D01*
X357050Y225000D01*
X356250Y224200D01*
X355450Y225000D01*
Y100000D02*
X356250Y100800D01*
X357050Y100000D01*
X356250Y99200D01*
X355450Y100000D01*
X349200Y87500D02*
X350000Y88300D01*
X350800Y87500D01*
X350000Y86700D01*
X349200Y87500D01*
X342950Y375000D02*
X343750Y375800D01*
X344550Y375000D01*
X343750Y374200D01*
X342950Y375000D01*
Y350000D02*
X343750Y350800D01*
X344550Y350000D01*
X343750Y349200D01*
X342950Y350000D01*
X336700Y137500D02*
X337500Y138300D01*
X338300Y137500D01*
X337500Y136700D01*
X336700Y137500D01*
X342950Y100000D02*
X343750Y100800D01*
X344550Y100000D01*
X343750Y99200D01*
X342950Y100000D01*
X336700Y87500D02*
X337500Y88300D01*
X338300Y87500D01*
X337500Y86700D01*
X336700Y87500D01*
X324200Y287500D02*
X325000Y288300D01*
X325800Y287500D01*
X325000Y286700D01*
X324200Y287500D01*
X330450Y200000D02*
X331250Y200800D01*
X332050Y200000D01*
X331250Y199200D01*
X330450Y200000D01*
X324200Y162500D02*
X325000Y163300D01*
X325800Y162500D01*
X325000Y161700D01*
X324200Y162500D01*
Y87500D02*
X325000Y88300D01*
X325800Y87500D01*
X325000Y86700D01*
X324200Y87500D01*
Y12500D02*
X325000Y13300D01*
X325800Y12500D01*
X325000Y11700D01*
X324200Y12500D01*
X317950Y200000D02*
X318750Y200800D01*
X319550Y200000D01*
X318750Y199200D01*
X317950Y200000D01*
Y175000D02*
X318750Y175800D01*
X319550Y175000D01*
X318750Y174200D01*
X317950Y175000D01*
X311700Y87500D02*
X312500Y88300D01*
X313300Y87500D01*
X312500Y86700D01*
X311700Y87500D01*
Y12500D02*
X312500Y13300D01*
X313300Y12500D01*
X312500Y11700D01*
X311700Y12500D01*
X305450Y350000D02*
X306250Y350800D01*
X307050Y350000D01*
X306250Y349200D01*
X305450Y350000D01*
X299200Y337500D02*
X300000Y338300D01*
X300800Y337500D01*
X300000Y336700D01*
X299200Y337500D01*
Y287500D02*
X300000Y288300D01*
X300800Y287500D01*
X300000Y286700D01*
X299200Y287500D01*
Y87500D02*
X300000Y88300D01*
X300800Y87500D01*
X300000Y86700D01*
X299200Y87500D01*
Y12500D02*
X300000Y13300D01*
X300800Y12500D01*
X300000Y11700D01*
X299200Y12500D01*
X286700Y287500D02*
X287500Y288300D01*
X288300Y287500D01*
X287500Y286700D01*
X286700Y287500D01*
X292950Y175000D02*
X293750Y175800D01*
X294550Y175000D01*
X293750Y174200D01*
X292950Y175000D01*
X286700Y87500D02*
X287500Y88300D01*
X288300Y87500D01*
X287500Y86700D01*
X286700Y87500D01*
Y12500D02*
X287500Y13300D01*
X288300Y12500D01*
X287500Y11700D01*
X286700Y12500D01*
X274200Y287500D02*
X275000Y288300D01*
X275800Y287500D01*
X275000Y286700D01*
X274200Y287500D01*
Y112500D02*
X275000Y113300D01*
X275800Y112500D01*
X275000Y111700D01*
X274200Y112500D01*
X280450Y100000D02*
X281250Y100800D01*
X282050Y100000D01*
X281250Y99200D01*
X280450Y100000D01*
X274200Y87500D02*
X275000Y88300D01*
X275800Y87500D01*
X275000Y86700D01*
X274200Y87500D01*
X261700Y262500D02*
X262500Y263300D01*
X263300Y262500D01*
X262500Y261700D01*
X261700Y262500D01*
X267950Y100000D02*
X268750Y100800D01*
X269550Y100000D01*
X268750Y99200D01*
X267950Y100000D01*
X261700Y87500D02*
X262500Y88300D01*
X263300Y87500D01*
X262500Y86700D01*
X261700Y87500D01*
Y12500D02*
X262500Y13300D01*
X263300Y12500D01*
X262500Y11700D01*
X261700Y12500D01*
X249200Y87500D02*
X250000Y88300D01*
X250800Y87500D01*
X250000Y86700D01*
X249200Y87500D01*
Y12500D02*
X250000Y13300D01*
X250800Y12500D01*
X250000Y11700D01*
X249200Y12500D01*
X236700Y287500D02*
X237500Y288300D01*
X238300Y287500D01*
X237500Y286700D01*
X236700Y287500D01*
Y262500D02*
X237500Y263300D01*
X238300Y262500D01*
X237500Y261700D01*
X236700Y262500D01*
Y87500D02*
X237500Y88300D01*
X238300Y87500D01*
X237500Y86700D01*
X236700Y87500D01*
Y12500D02*
X237500Y13300D01*
X238300Y12500D01*
X237500Y11700D01*
X236700Y12500D01*
X230450Y325000D02*
X231250Y325800D01*
X232050Y325000D01*
X231250Y324200D01*
X230450Y325000D01*
X224200Y287500D02*
X225000Y288300D01*
X225800Y287500D01*
X225000Y286700D01*
X224200Y287500D01*
X230450Y275000D02*
X231250Y275800D01*
X232050Y275000D01*
X231250Y274200D01*
X230450Y275000D01*
X224200Y262500D02*
X225000Y263300D01*
X225800Y262500D01*
X225000Y261700D01*
X224200Y262500D01*
Y237500D02*
X225000Y238300D01*
X225800Y237500D01*
X225000Y236700D01*
X224200Y237500D01*
X230450Y150000D02*
X231250Y150800D01*
X232050Y150000D01*
X231250Y149200D01*
X230450Y150000D01*
X224200Y87500D02*
X225000Y88300D01*
X225800Y87500D01*
X225000Y86700D01*
X224200Y87500D01*
Y12500D02*
X225000Y13300D01*
X225800Y12500D01*
X225000Y11700D01*
X224200Y12500D01*
X217950Y350000D02*
X218750Y350800D01*
X219550Y350000D01*
X218750Y349200D01*
X217950Y350000D01*
Y325000D02*
X218750Y325800D01*
X219550Y325000D01*
X218750Y324200D01*
X217950Y325000D01*
Y250000D02*
X218750Y250800D01*
X219550Y250000D01*
X218750Y249200D01*
X217950Y250000D01*
Y225000D02*
X218750Y225800D01*
X219550Y225000D01*
X218750Y224200D01*
X217950Y225000D01*
Y150000D02*
X218750Y150800D01*
X219550Y150000D01*
X218750Y149200D01*
X217950Y150000D01*
X211700Y87500D02*
X212500Y88300D01*
X213300Y87500D01*
X212500Y86700D01*
X211700Y87500D01*
Y12500D02*
X212500Y13300D01*
X213300Y12500D01*
X212500Y11700D01*
X211700Y12500D01*
X205450Y375000D02*
X206250Y375800D01*
X207050Y375000D01*
X206250Y374200D01*
X205450Y375000D01*
Y350000D02*
X206250Y350800D01*
X207050Y350000D01*
X206250Y349200D01*
X205450Y350000D01*
Y325000D02*
X206250Y325800D01*
X207050Y325000D01*
X206250Y324200D01*
X205450Y325000D01*
X199200Y237500D02*
X200000Y238300D01*
X200800Y237500D01*
X200000Y236700D01*
X199200Y237500D01*
Y112500D02*
X200000Y113300D01*
X200800Y112500D01*
X200000Y111700D01*
X199200Y112500D01*
X205450Y100000D02*
X206250Y100800D01*
X207050Y100000D01*
X206250Y99200D01*
X205450Y100000D01*
X199200Y87500D02*
X200000Y88300D01*
X200800Y87500D01*
X200000Y86700D01*
X199200Y87500D01*
Y12500D02*
X200000Y13300D01*
X200800Y12500D01*
X200000Y11700D01*
X199200Y12500D01*
X192950Y375000D02*
X193750Y375800D01*
X194550Y375000D01*
X193750Y374200D01*
X192950Y375000D01*
Y325000D02*
X193750Y325800D01*
X194550Y325000D01*
X193750Y324200D01*
X192950Y325000D01*
X186700Y162500D02*
X187500Y163300D01*
X188300Y162500D01*
X187500Y161700D01*
X186700Y162500D01*
X192950Y150000D02*
X193750Y150800D01*
X194550Y150000D01*
X193750Y149200D01*
X192950Y150000D01*
Y125000D02*
X193750Y125800D01*
X194550Y125000D01*
X193750Y124200D01*
X192950Y125000D01*
Y100000D02*
X193750Y100800D01*
X194550Y100000D01*
X193750Y99200D01*
X192950Y100000D01*
X186700Y87500D02*
X187500Y88300D01*
X188300Y87500D01*
X187500Y86700D01*
X186700Y87500D01*
Y62500D02*
X187500Y63300D01*
X188300Y62500D01*
X187500Y61700D01*
X186700Y62500D01*
X180450Y325000D02*
X181250Y325800D01*
X182050Y325000D01*
X181250Y324200D01*
X180450Y325000D01*
X174200Y162500D02*
X175000Y163300D01*
X175800Y162500D01*
X175000Y161700D01*
X174200Y162500D01*
X180450Y150000D02*
X181250Y150800D01*
X182050Y150000D01*
X181250Y149200D01*
X180450Y150000D01*
Y100000D02*
X181250Y100800D01*
X182050Y100000D01*
X181250Y99200D01*
X180450Y100000D01*
X174200Y87500D02*
X175000Y88300D01*
X175800Y87500D01*
X175000Y86700D01*
X174200Y87500D01*
X180450Y75000D02*
X181250Y75800D01*
X182050Y75000D01*
X181250Y74200D01*
X180450Y75000D01*
X174200Y62500D02*
X175000Y63300D01*
X175800Y62500D01*
X175000Y61700D01*
X174200Y62500D01*
X167950Y325000D02*
X168750Y325800D01*
X169550Y325000D01*
X168750Y324200D01*
X167950Y325000D01*
X161700Y87500D02*
X162500Y88300D01*
X163300Y87500D01*
X162500Y86700D01*
X161700Y87500D01*
X167950Y75000D02*
X168750Y75800D01*
X169550Y75000D01*
X168750Y74200D01*
X167950Y75000D01*
X161700Y62500D02*
X162500Y63300D01*
X163300Y62500D01*
X162500Y61700D01*
X161700Y62500D01*
Y12500D02*
X162500Y13300D01*
X163300Y12500D01*
X162500Y11700D01*
X161700Y12500D01*
X155450Y325000D02*
X156250Y325800D01*
X157050Y325000D01*
X156250Y324200D01*
X155450Y325000D01*
Y300000D02*
X156250Y300800D01*
X157050Y300000D01*
X156250Y299200D01*
X155450Y300000D01*
X149200Y87500D02*
X150000Y88300D01*
X150800Y87500D01*
X150000Y86700D01*
X149200Y87500D01*
X155450Y75000D02*
X156250Y75800D01*
X157050Y75000D01*
X156250Y74200D01*
X155450Y75000D01*
X149200Y62500D02*
X150000Y63300D01*
X150800Y62500D01*
X150000Y61700D01*
X149200Y62500D01*
Y12500D02*
X150000Y13300D01*
X150800Y12500D01*
X150000Y11700D01*
X149200Y12500D01*
X142950Y375000D02*
X143750Y375800D01*
X144550Y375000D01*
X143750Y374200D01*
X142950Y375000D01*
Y325000D02*
X143750Y325800D01*
X144550Y325000D01*
X143750Y324200D01*
X142950Y325000D01*
Y225000D02*
X143750Y225800D01*
X144550Y225000D01*
X143750Y224200D01*
X142950Y225000D01*
X136700Y87500D02*
X137500Y88300D01*
X138300Y87500D01*
X137500Y86700D01*
X136700Y87500D01*
X142950Y75000D02*
X143750Y75800D01*
X144550Y75000D01*
X143750Y74200D01*
X142950Y75000D01*
X136700Y62500D02*
X137500Y63300D01*
X138300Y62500D01*
X137500Y61700D01*
X136700Y62500D01*
Y12500D02*
X137500Y13300D01*
X138300Y12500D01*
X137500Y11700D01*
X136700Y12500D01*
X130450Y375000D02*
X131250Y375800D01*
X132050Y375000D01*
X131250Y374200D01*
X130450Y375000D01*
Y325000D02*
X131250Y325800D01*
X132050Y325000D01*
X131250Y324200D01*
X130450Y325000D01*
Y300000D02*
X131250Y300800D01*
X132050Y300000D01*
X131250Y299200D01*
X130450Y300000D01*
X124200Y287500D02*
X125000Y288300D01*
X125800Y287500D01*
X125000Y286700D01*
X124200Y287500D01*
X130450Y100000D02*
X131250Y100800D01*
X132050Y100000D01*
X131250Y99200D01*
X130450Y100000D01*
X124200Y87500D02*
X125000Y88300D01*
X125800Y87500D01*
X125000Y86700D01*
X124200Y87500D01*
X130450Y75000D02*
X131250Y75800D01*
X132050Y75000D01*
X131250Y74200D01*
X130450Y75000D01*
X124200Y62500D02*
X125000Y63300D01*
X125800Y62500D01*
X125000Y61700D01*
X124200Y62500D01*
Y12500D02*
X125000Y13300D01*
X125800Y12500D01*
X125000Y11700D01*
X124200Y12500D01*
X117950Y300000D02*
X118750Y300800D01*
X119550Y300000D01*
X118750Y299200D01*
X117950Y300000D01*
X111700Y112500D02*
X112500Y113300D01*
X113300Y112500D01*
X112500Y111700D01*
X111700Y112500D01*
X117950Y100000D02*
X118750Y100800D01*
X119550Y100000D01*
X118750Y99200D01*
X117950Y100000D01*
X111700Y87500D02*
X112500Y88300D01*
X113300Y87500D01*
X112500Y86700D01*
X111700Y87500D01*
X117950Y75000D02*
X118750Y75800D01*
X119550Y75000D01*
X118750Y74200D01*
X117950Y75000D01*
X111700Y62500D02*
X112500Y63300D01*
X113300Y62500D01*
X112500Y61700D01*
X111700Y62500D01*
X99200Y287500D02*
X100000Y288300D01*
X100800Y287500D01*
X100000Y286700D01*
X99200Y287500D01*
X105450Y150000D02*
X106250Y150800D01*
X107050Y150000D01*
X106250Y149200D01*
X105450Y150000D01*
Y100000D02*
X106250Y100800D01*
X107050Y100000D01*
X106250Y99200D01*
X105450Y100000D01*
X99200Y87500D02*
X100000Y88300D01*
X100800Y87500D01*
X100000Y86700D01*
X99200Y87500D01*
X105450Y75000D02*
X106250Y75800D01*
X107050Y75000D01*
X106250Y74200D01*
X105450Y75000D01*
X99200Y62500D02*
X100000Y63300D01*
X100800Y62500D01*
X100000Y61700D01*
X99200Y62500D01*
Y12500D02*
X100000Y13300D01*
X100800Y12500D01*
X100000Y11700D01*
X99200Y12500D01*
X86700Y287500D02*
X87500Y288300D01*
X88300Y287500D01*
X87500Y286700D01*
X86700Y287500D01*
X92950Y275000D02*
X93750Y275800D01*
X94550Y275000D01*
X93750Y274200D01*
X92950Y275000D01*
X86700Y262500D02*
X87500Y263300D01*
X88300Y262500D01*
X87500Y261700D01*
X86700Y262500D01*
Y87500D02*
X87500Y88300D01*
X88300Y87500D01*
X87500Y86700D01*
X86700Y87500D01*
X92950Y75000D02*
X93750Y75800D01*
X94550Y75000D01*
X93750Y74200D01*
X92950Y75000D01*
X86700Y62500D02*
X87500Y63300D01*
X88300Y62500D01*
X87500Y61700D01*
X86700Y62500D01*
Y12500D02*
X87500Y13300D01*
X88300Y12500D01*
X87500Y11700D01*
X86700Y12500D01*
X80450Y375000D02*
X81250Y375800D01*
X82050Y375000D01*
X81250Y374200D01*
X80450Y375000D01*
X74200Y262500D02*
X75000Y263300D01*
X75800Y262500D01*
X75000Y261700D01*
X74200Y262500D01*
X80450Y225000D02*
X81250Y225800D01*
X82050Y225000D01*
X81250Y224200D01*
X80450Y225000D01*
X74200Y162500D02*
X75000Y163300D01*
X75800Y162500D01*
X75000Y161700D01*
X74200Y162500D01*
Y87500D02*
X75000Y88300D01*
X75800Y87500D01*
X75000Y86700D01*
X74200Y87500D01*
X80450Y75000D02*
X81250Y75800D01*
X82050Y75000D01*
X81250Y74200D01*
X80450Y75000D01*
X74200Y62500D02*
X75000Y63300D01*
X75800Y62500D01*
X75000Y61700D01*
X74200Y62500D01*
Y12500D02*
X75000Y13300D01*
X75800Y12500D01*
X75000Y11700D01*
X74200Y12500D01*
X67950Y375000D02*
X68750Y375800D01*
X69550Y375000D01*
X68750Y374200D01*
X67950Y375000D01*
Y275000D02*
X68750Y275800D01*
X69550Y275000D01*
X68750Y274200D01*
X67950Y275000D01*
X61700Y87500D02*
X62500Y88300D01*
X63300Y87500D01*
X62500Y86700D01*
X61700Y87500D01*
X67950Y75000D02*
X68750Y75800D01*
X69550Y75000D01*
X68750Y74200D01*
X67950Y75000D01*
X61700Y62500D02*
X62500Y63300D01*
X63300Y62500D01*
X62500Y61700D01*
X61700Y62500D01*
Y12500D02*
X62500Y13300D01*
X63300Y12500D01*
X62500Y11700D01*
X61700Y12500D01*
X55450Y375000D02*
X56250Y375800D01*
X57050Y375000D01*
X56250Y374200D01*
X55450Y375000D01*
Y350000D02*
X56250Y350800D01*
X57050Y350000D01*
X56250Y349200D01*
X55450Y350000D01*
X49200Y312500D02*
X50000Y313300D01*
X50800Y312500D01*
X50000Y311700D01*
X49200Y312500D01*
Y287500D02*
X50000Y288300D01*
X50800Y287500D01*
X50000Y286700D01*
X49200Y287500D01*
X55450Y275000D02*
X56250Y275800D01*
X57050Y275000D01*
X56250Y274200D01*
X55450Y275000D01*
Y250000D02*
X56250Y250800D01*
X57050Y250000D01*
X56250Y249200D01*
X55450Y250000D01*
X49200Y87500D02*
X50000Y88300D01*
X50800Y87500D01*
X50000Y86700D01*
X49200Y87500D01*
X55450Y75000D02*
X56250Y75800D01*
X57050Y75000D01*
X56250Y74200D01*
X55450Y75000D01*
X49200Y62500D02*
X50000Y63300D01*
X50800Y62500D01*
X50000Y61700D01*
X49200Y62500D01*
Y12500D02*
X50000Y13300D01*
X50800Y12500D01*
X50000Y11700D01*
X49200Y12500D01*
X42950Y375000D02*
X43750Y375800D01*
X44550Y375000D01*
X43750Y374200D01*
X42950Y375000D01*
X36700Y312500D02*
X37500Y313300D01*
X38300Y312500D01*
X37500Y311700D01*
X36700Y312500D01*
X42950Y150000D02*
X43750Y150800D01*
X44550Y150000D01*
X43750Y149200D01*
X42950Y150000D01*
X36700Y137500D02*
X37500Y138300D01*
X38300Y137500D01*
X37500Y136700D01*
X36700Y137500D01*
X42950Y125000D02*
X43750Y125800D01*
X44550Y125000D01*
X43750Y124200D01*
X42950Y125000D01*
X36700Y112500D02*
X37500Y113300D01*
X38300Y112500D01*
X37500Y111700D01*
X36700Y112500D01*
X42950Y100000D02*
X43750Y100800D01*
X44550Y100000D01*
X43750Y99200D01*
X42950Y100000D01*
X36700Y87500D02*
X37500Y88300D01*
X38300Y87500D01*
X37500Y86700D01*
X36700Y87500D01*
X42950Y75000D02*
X43750Y75800D01*
X44550Y75000D01*
X43750Y74200D01*
X42950Y75000D01*
X36700Y62500D02*
X37500Y63300D01*
X38300Y62500D01*
X37500Y61700D01*
X36700Y62500D01*
Y12500D02*
X37500Y13300D01*
X38300Y12500D01*
X37500Y11700D01*
X36700Y12500D01*
X30450Y375000D02*
X31250Y375800D01*
X32050Y375000D01*
X31250Y374200D01*
X30450Y375000D01*
Y350000D02*
X31250Y350800D01*
X32050Y350000D01*
X31250Y349200D01*
X30450Y350000D01*
X24200Y337500D02*
X25000Y338300D01*
X25800Y337500D01*
X25000Y336700D01*
X24200Y337500D01*
Y312500D02*
X25000Y313300D01*
X25800Y312500D01*
X25000Y311700D01*
X24200Y312500D01*
Y162500D02*
X25000Y163300D01*
X25800Y162500D01*
X25000Y161700D01*
X24200Y162500D01*
X30450Y150000D02*
X31250Y150800D01*
X32050Y150000D01*
X31250Y149200D01*
X30450Y150000D01*
X24200Y137500D02*
X25000Y138300D01*
X25800Y137500D01*
X25000Y136700D01*
X24200Y137500D01*
X30450Y125000D02*
X31250Y125800D01*
X32050Y125000D01*
X31250Y124200D01*
X30450Y125000D01*
X24200Y112500D02*
X25000Y113300D01*
X25800Y112500D01*
X25000Y111700D01*
X24200Y112500D01*
X30450Y100000D02*
X31250Y100800D01*
X32050Y100000D01*
X31250Y99200D01*
X30450Y100000D01*
X24200Y87500D02*
X25000Y88300D01*
X25800Y87500D01*
X25000Y86700D01*
X24200Y87500D01*
X30450Y75000D02*
X31250Y75800D01*
X32050Y75000D01*
X31250Y74200D01*
X30450Y75000D01*
X24200Y62500D02*
X25000Y63300D01*
X25800Y62500D01*
X25000Y61700D01*
X24200Y62500D01*
Y37500D02*
X25000Y38300D01*
X25800Y37500D01*
X25000Y36700D01*
X24200Y37500D01*
X11700Y362500D02*
X12500Y363300D01*
X13300Y362500D01*
X12500Y361700D01*
X11700Y362500D01*
Y337500D02*
X12500Y338300D01*
X13300Y337500D01*
X12500Y336700D01*
X11700Y337500D01*
X17950Y300000D02*
X18750Y300800D01*
X19550Y300000D01*
X18750Y299200D01*
X17950Y300000D01*
Y150000D02*
X18750Y150800D01*
X19550Y150000D01*
X18750Y149200D01*
X17950Y150000D01*
X11700Y137500D02*
X12500Y138300D01*
X13300Y137500D01*
X12500Y136700D01*
X11700Y137500D01*
X17950Y125000D02*
X18750Y125800D01*
X19550Y125000D01*
X18750Y124200D01*
X17950Y125000D01*
X11700Y112500D02*
X12500Y113300D01*
X13300Y112500D01*
X12500Y111700D01*
X11700Y112500D01*
X17950Y100000D02*
X18750Y100800D01*
X19550Y100000D01*
X18750Y99200D01*
X17950Y100000D01*
X11700Y87500D02*
X12500Y88300D01*
X13300Y87500D01*
X12500Y86700D01*
X11700Y87500D01*
X17950Y75000D02*
X18750Y75800D01*
X19550Y75000D01*
X18750Y74200D01*
X17950Y75000D01*
X11700Y62500D02*
X12500Y63300D01*
X13300Y62500D01*
X12500Y61700D01*
X11700Y62500D01*
X17950Y50000D02*
X18750Y50800D01*
X19550Y50000D01*
X18750Y49200D01*
X17950Y50000D01*
X11700Y37500D02*
X12500Y38300D01*
X13300Y37500D01*
X12500Y36700D01*
X11700Y37500D01*
Y12500D02*
X12500Y13300D01*
X13300Y12500D01*
X12500Y11700D01*
X11700Y12500D01*
X122300Y250600D02*
X123100Y251400D01*
X123900Y250600D01*
X123100Y249800D01*
X122300Y250600D01*
X125260Y242516D02*
Y242116D01*
X126060D01*
Y242516D01*
X126461D01*
Y243317D01*
X126060D01*
Y243717D01*
X125260D01*
Y243317D01*
X124861D01*
Y242516D01*
X125260D01*
X77800Y228300D02*
X78600Y229100D01*
X79400Y228300D01*
X78600Y227500D01*
X77800Y228300D01*
X79600Y231100D02*
X80400Y231900D01*
X81200Y231100D01*
X80400Y230300D01*
X79600Y231100D01*
X76100D02*
X76900Y231900D01*
X77700Y231100D01*
X76900Y230300D01*
X76100Y231100D01*
X326500Y276300D02*
Y275900D01*
X327300D01*
Y276300D01*
X327700D01*
Y277100D01*
X327300D01*
Y277500D01*
X326500D01*
Y277100D01*
X326100D01*
Y276300D01*
X326500D01*
X301100Y241900D02*
X301900Y242700D01*
X302700Y241900D01*
X301900Y241100D01*
X301100Y241900D01*
X298400D02*
X299200Y242700D01*
X300000Y241900D01*
X299200Y241100D01*
X298400Y241900D01*
X275000Y231000D02*
X275800Y231800D01*
X276600Y231000D01*
X275800Y230200D01*
X275000Y231000D01*
X272600Y229200D02*
X273400Y230000D01*
X274200Y229200D01*
X273400Y228400D01*
X272600Y229200D01*
Y233000D02*
X273400Y233800D01*
X274200Y233000D01*
X273400Y232200D01*
X272600Y233000D01*
X260600Y225500D02*
Y225100D01*
X261400D01*
Y225500D01*
X261800D01*
Y226300D01*
X261400D01*
Y226700D01*
X260600D01*
Y226300D01*
X260200D01*
Y225500D01*
X260600D01*
X255894Y227775D02*
Y227375D01*
X256694D01*
Y227775D01*
X257094D01*
Y228575D01*
X256694D01*
Y228975D01*
X255894D01*
Y228575D01*
X255494D01*
Y227775D01*
X255894D01*
X268823Y195465D02*
Y195065D01*
X269623D01*
Y195465D01*
X270023D01*
Y196265D01*
X269623D01*
Y196665D01*
X268823D01*
Y196265D01*
X268423D01*
Y195465D01*
X268823D01*
X303238Y322916D02*
X304037Y323716D01*
X304837Y322916D01*
X304037Y322116D01*
X303238Y322916D01*
X58987Y160802D02*
Y160402D01*
X59787D01*
Y160802D01*
X60187D01*
Y161602D01*
X59787D01*
Y162002D01*
X58987D01*
Y161602D01*
X58587D01*
Y160802D01*
X58987D01*
X55900Y213900D02*
Y213500D01*
X56700D01*
Y213900D01*
X57100D01*
Y214700D01*
X56700D01*
Y215100D01*
X55900D01*
Y214700D01*
X55500D01*
Y213900D01*
X55900D01*
X63073Y213400D02*
Y213000D01*
X63873D01*
Y213400D01*
X64273D01*
Y214200D01*
X63873D01*
Y214600D01*
X63073D01*
Y214200D01*
X62673D01*
Y213400D01*
X63073D01*
X64100Y216800D02*
Y216400D01*
X64900D01*
Y216800D01*
X65300D01*
Y217600D01*
X64900D01*
Y218000D01*
X64100D01*
Y217600D01*
X63700D01*
Y216800D01*
X64100D01*
X23600Y326200D02*
X24000D01*
X24400Y326600D01*
X24800Y326200D01*
X25200D01*
Y326600D01*
X24800Y327000D01*
X25200Y327400D01*
Y327800D01*
X24800D01*
X24400Y327400D01*
X24000Y327800D01*
X23600D01*
Y327400D01*
X24000Y327000D01*
X23600Y326600D01*
Y326200D01*
X27500D02*
X27900D01*
X28300Y326600D01*
X28700Y326200D01*
X29100D01*
Y326600D01*
X28700Y327000D01*
X29100Y327400D01*
Y327800D01*
X28700D01*
X28300Y327400D01*
X27900Y327800D01*
X27500D01*
Y327400D01*
X27900Y327000D01*
X27500Y326600D01*
Y326200D01*
X31991Y326178D02*
X32391D01*
X32791Y326578D01*
X33191Y326178D01*
X33591D01*
Y326578D01*
X33191Y326978D01*
X33591Y327378D01*
Y327778D01*
X33191D01*
X32791Y327378D01*
X32391Y327778D01*
X31991D01*
Y327378D01*
X32391Y326978D01*
X31991Y326578D01*
Y326178D01*
X36791D02*
X37191D01*
X37591Y326578D01*
X37991Y326178D01*
X38391D01*
Y326578D01*
X37991Y326978D01*
X38391Y327378D01*
Y327778D01*
X37991D01*
X37591Y327378D01*
X37191Y327778D01*
X36791D01*
Y327378D01*
X37191Y326978D01*
X36791Y326578D01*
Y326178D01*
X25700Y322800D02*
X26100D01*
X26500Y323200D01*
X26900Y322800D01*
X27300D01*
Y323200D01*
X26900Y323600D01*
X27300Y324000D01*
Y324400D01*
X26900D01*
X26500Y324000D01*
X26100Y324400D01*
X25700D01*
Y324000D01*
X26100Y323600D01*
X25700Y323200D01*
Y322800D01*
X29700Y322600D02*
X30100D01*
X30500Y323000D01*
X30900Y322600D01*
X31300D01*
Y323000D01*
X30900Y323400D01*
X31300Y323800D01*
Y324200D01*
X30900D01*
X30500Y323800D01*
X30100Y324200D01*
X29700D01*
Y323800D01*
X30100Y323400D01*
X29700Y323000D01*
Y322600D01*
X34500D02*
X34900D01*
X35300Y323000D01*
X35700Y322600D01*
X36100D01*
Y323000D01*
X35700Y323400D01*
X36100Y323800D01*
Y324200D01*
X35700D01*
X35300Y323800D01*
X34900Y324200D01*
X34500D01*
Y323800D01*
X34900Y323400D01*
X34500Y323000D01*
Y322600D01*
X23400Y319400D02*
X23800D01*
X24200Y319800D01*
X24600Y319400D01*
X25000D01*
Y319800D01*
X24600Y320200D01*
X25000Y320600D01*
Y321000D01*
X24600D01*
X24200Y320600D01*
X23800Y321000D01*
X23400D01*
Y320600D01*
X23800Y320200D01*
X23400Y319800D01*
Y319400D01*
X27800Y319300D02*
X28200D01*
X28600Y319700D01*
X29000Y319300D01*
X29400D01*
Y319700D01*
X29000Y320100D01*
X29400Y320500D01*
Y320900D01*
X29000D01*
X28600Y320500D01*
X28200Y320900D01*
X27800D01*
Y320500D01*
X28200Y320100D01*
X27800Y319700D01*
Y319300D01*
X32300Y319200D02*
X32700D01*
X33100Y319600D01*
X33500Y319200D01*
X33900D01*
Y319600D01*
X33500Y320000D01*
X33900Y320400D01*
Y320800D01*
X33500D01*
X33100Y320400D01*
X32700Y320800D01*
X32300D01*
Y320400D01*
X32700Y320000D01*
X32300Y319600D01*
Y319200D01*
X36800Y318900D02*
X37200D01*
X37600Y319300D01*
X38000Y318900D01*
X38400D01*
Y319300D01*
X38000Y319700D01*
X38400Y320100D01*
Y320500D01*
X38000D01*
X37600Y320100D01*
X37200Y320500D01*
X36800D01*
Y320100D01*
X37200Y319700D01*
X36800Y319300D01*
Y318900D01*
X144800Y229400D02*
Y229000D01*
X145600D01*
Y229400D01*
X146000D01*
Y230200D01*
X145600D01*
Y230600D01*
X144800D01*
Y230200D01*
X144400D01*
Y229400D01*
X144800D01*
X158489Y229382D02*
Y228982D01*
X159289D01*
Y229382D01*
X159689D01*
Y230182D01*
X159289D01*
Y230582D01*
X158489D01*
Y230182D01*
X158089D01*
Y229382D01*
X158489D01*
X151300Y224200D02*
Y223800D01*
X152100D01*
Y224200D01*
X152500D01*
Y225000D01*
X152100D01*
Y225400D01*
X151300D01*
Y225000D01*
X150900D01*
Y224200D01*
X151300D01*
X171300Y220200D02*
X171700D01*
X172100Y220600D01*
X172500Y220200D01*
X172900D01*
Y220600D01*
X172500Y221000D01*
X172900Y221400D01*
Y221800D01*
X172500D01*
X172100Y221400D01*
X171700Y221800D01*
X171300D01*
Y221400D01*
X171700Y221000D01*
X171300Y220600D01*
Y220200D01*
Y216500D02*
X171700D01*
X172100Y216900D01*
X172500Y216500D01*
X172900D01*
Y216900D01*
X172500Y217300D01*
X172900Y217700D01*
Y218100D01*
X172500D01*
X172100Y217700D01*
X171700Y218100D01*
X171300D01*
Y217700D01*
X171700Y217300D01*
X171300Y216900D01*
Y216500D01*
X171400Y213100D02*
X171800D01*
X172200Y213500D01*
X172600Y213100D01*
X173000D01*
Y213500D01*
X172600Y213900D01*
X173000Y214300D01*
Y214700D01*
X172600D01*
X172200Y214300D01*
X171800Y214700D01*
X171400D01*
Y214300D01*
X171800Y213900D01*
X171400Y213500D01*
Y213100D01*
X174500Y218300D02*
X174900D01*
X175300Y218700D01*
X175700Y218300D01*
X176100D01*
Y218700D01*
X175700Y219100D01*
X176100Y219500D01*
Y219900D01*
X175700D01*
X175300Y219500D01*
X174900Y219900D01*
X174500D01*
Y219500D01*
X174900Y219100D01*
X174500Y218700D01*
Y218300D01*
X174700Y214700D02*
X175100D01*
X175500Y215100D01*
X175900Y214700D01*
X176300D01*
Y215100D01*
X175900Y215500D01*
X176300Y215900D01*
Y216300D01*
X175900D01*
X175500Y215900D01*
X175100Y216300D01*
X174700D01*
Y215900D01*
X175100Y215500D01*
X174700Y215100D01*
Y214700D01*
X177400Y220200D02*
X177800D01*
X178200Y220600D01*
X178600Y220200D01*
X179000D01*
Y220600D01*
X178600Y221000D01*
X179000Y221400D01*
Y221800D01*
X178600D01*
X178200Y221400D01*
X177800Y221800D01*
X177400D01*
Y221400D01*
X177800Y221000D01*
X177400Y220600D01*
Y220200D01*
X177700Y216300D02*
X178100D01*
X178500Y216700D01*
X178900Y216300D01*
X179300D01*
Y216700D01*
X178900Y217100D01*
X179300Y217500D01*
Y217900D01*
X178900D01*
X178500Y217500D01*
X178100Y217900D01*
X177700D01*
Y217500D01*
X178100Y217100D01*
X177700Y216700D01*
Y216300D01*
X177800Y213000D02*
X178200D01*
X178600Y213400D01*
X179000Y213000D01*
X179400D01*
Y213400D01*
X179000Y213800D01*
X179400Y214200D01*
Y214600D01*
X179000D01*
X178600Y214200D01*
X178200Y214600D01*
X177800D01*
Y214200D01*
X178200Y213800D01*
X177800Y213400D01*
Y213000D01*
X136300Y267300D02*
Y266900D01*
X137100D01*
Y267300D01*
X137500D01*
Y268100D01*
X137100D01*
Y268500D01*
X136300D01*
Y268100D01*
X135900D01*
Y267300D01*
X136300D01*
X40500Y204600D02*
Y204200D01*
X41300D01*
Y204600D01*
X41700D01*
Y205400D01*
X41300D01*
Y205800D01*
X40500D01*
Y205400D01*
X40100D01*
Y204600D01*
X40500D01*
X52408Y166613D02*
Y166212D01*
X53208D01*
Y166613D01*
X53608D01*
Y167412D01*
X53208D01*
Y167813D01*
X52408D01*
Y167412D01*
X52008D01*
Y166613D01*
X52408D01*
X65833Y166639D02*
Y166239D01*
X66633D01*
Y166639D01*
X67033D01*
Y167439D01*
X66633D01*
Y167839D01*
X65833D01*
Y167439D01*
X65433D01*
Y166639D01*
X65833D01*
X40000Y177400D02*
Y177000D01*
X40800D01*
Y177400D01*
X41200D01*
Y178200D01*
X40800D01*
Y178600D01*
X40000D01*
Y178200D01*
X39600D01*
Y177400D01*
X40000D01*
X38000Y160700D02*
Y160300D01*
X38800D01*
Y160700D01*
X39200D01*
Y161500D01*
X38800D01*
Y161900D01*
X38000D01*
Y161500D01*
X37600D01*
Y160700D01*
X38000D01*
X40600Y174200D02*
Y173800D01*
X41400D01*
Y174200D01*
X41800D01*
Y175000D01*
X41400D01*
Y175400D01*
X40600D01*
Y175000D01*
X40200D01*
Y174200D01*
X40600D01*
X31000Y173300D02*
Y172900D01*
X31800D01*
Y173300D01*
X32200D01*
Y174100D01*
X31800D01*
Y174500D01*
X31000D01*
Y174100D01*
X30600D01*
Y173300D01*
X31000D01*
X4400Y176600D02*
X4800D01*
X5200Y177000D01*
X5600Y176600D01*
X6000D01*
Y177000D01*
X5600Y177400D01*
X6000Y177800D01*
Y178200D01*
X5600D01*
X5200Y177800D01*
X4800Y178200D01*
X4400D01*
Y177800D01*
X4800Y177400D01*
X4400Y177000D01*
Y176600D01*
X8300Y176500D02*
X8700D01*
X9100Y176900D01*
X9500Y176500D01*
X9900D01*
Y176900D01*
X9500Y177300D01*
X9900Y177700D01*
Y178100D01*
X9500D01*
X9100Y177700D01*
X8700Y178100D01*
X8300D01*
Y177700D01*
X8700Y177300D01*
X8300Y176900D01*
Y176500D01*
X12300Y176400D02*
X12700D01*
X13100Y176800D01*
X13500Y176400D01*
X13900D01*
Y176800D01*
X13500Y177200D01*
X13900Y177600D01*
Y178000D01*
X13500D01*
X13100Y177600D01*
X12700Y178000D01*
X12300D01*
Y177600D01*
X12700Y177200D01*
X12300Y176800D01*
Y176400D01*
X16200D02*
X16600D01*
X17000Y176800D01*
X17400Y176400D01*
X17800D01*
Y176800D01*
X17400Y177200D01*
X17800Y177600D01*
Y178000D01*
X17400D01*
X17000Y177600D01*
X16600Y178000D01*
X16200D01*
Y177600D01*
X16600Y177200D01*
X16200Y176800D01*
Y176400D01*
X6400Y173300D02*
X6800D01*
X7200Y173700D01*
X7600Y173300D01*
X8000D01*
Y173700D01*
X7600Y174100D01*
X8000Y174500D01*
Y174900D01*
X7600D01*
X7200Y174500D01*
X6800Y174900D01*
X6400D01*
Y174500D01*
X6800Y174100D01*
X6400Y173700D01*
Y173300D01*
X10400Y173200D02*
X10800D01*
X11200Y173600D01*
X11600Y173200D01*
X12000D01*
Y173600D01*
X11600Y174000D01*
X12000Y174400D01*
Y174800D01*
X11600D01*
X11200Y174400D01*
X10800Y174800D01*
X10400D01*
Y174400D01*
X10800Y174000D01*
X10400Y173600D01*
Y173200D01*
X14300D02*
X14700D01*
X15100Y173600D01*
X15500Y173200D01*
X15900D01*
Y173600D01*
X15500Y174000D01*
X15900Y174400D01*
Y174800D01*
X15500D01*
X15100Y174400D01*
X14700Y174800D01*
X14300D01*
Y174400D01*
X14700Y174000D01*
X14300Y173600D01*
Y173200D01*
X4500Y170000D02*
X4900D01*
X5300Y170400D01*
X5700Y170000D01*
X6100D01*
Y170400D01*
X5700Y170800D01*
X6100Y171200D01*
Y171600D01*
X5700D01*
X5300Y171200D01*
X4900Y171600D01*
X4500D01*
Y171200D01*
X4900Y170800D01*
X4500Y170400D01*
Y170000D01*
X8500Y170100D02*
X8900D01*
X9300Y170500D01*
X9700Y170100D01*
X10100D01*
Y170500D01*
X9700Y170900D01*
X10100Y171300D01*
Y171700D01*
X9700D01*
X9300Y171300D01*
X8900Y171700D01*
X8500D01*
Y171300D01*
X8900Y170900D01*
X8500Y170500D01*
Y170100D01*
X12400Y170000D02*
X12800D01*
X13200Y170400D01*
X13600Y170000D01*
X14000D01*
Y170400D01*
X13600Y170800D01*
X14000Y171200D01*
Y171600D01*
X13600D01*
X13200Y171200D01*
X12800Y171600D01*
X12400D01*
Y171200D01*
X12800Y170800D01*
X12400Y170400D01*
Y170000D01*
X16400D02*
X16800D01*
X17200Y170400D01*
X17600Y170000D01*
X18000D01*
Y170400D01*
X17600Y170800D01*
X18000Y171200D01*
Y171600D01*
X17600D01*
X17200Y171200D01*
X16800Y171600D01*
X16400D01*
Y171200D01*
X16800Y170800D01*
X16400Y170400D01*
Y170000D01*
X79671Y172556D02*
Y172157D01*
X80471D01*
Y172556D01*
X80871D01*
Y173356D01*
X80471D01*
Y173757D01*
X79671D01*
Y173356D01*
X79271D01*
Y172556D01*
X79671D01*
X38579Y187800D02*
Y187400D01*
X39379D01*
Y187800D01*
X39779D01*
Y188600D01*
X39379D01*
Y189000D01*
X38579D01*
Y188600D01*
X38179D01*
Y187800D01*
X38579D01*
X43200Y190200D02*
Y189800D01*
X44000D01*
Y190200D01*
X44400D01*
Y191000D01*
X44000D01*
Y191400D01*
X43200D01*
Y191000D01*
X42800D01*
Y190200D01*
X43200D01*
X84100Y161100D02*
X84500D01*
X84900Y161500D01*
X85300Y161100D01*
X85700D01*
Y161500D01*
X85300Y161900D01*
X85700Y162300D01*
Y162700D01*
X85300D01*
X84900Y162300D01*
X84500Y162700D01*
X84100D01*
Y162300D01*
X84500Y161900D01*
X84100Y161500D01*
Y161100D01*
X84200Y156500D02*
X84600D01*
X85000Y156900D01*
X85400Y156500D01*
X85800D01*
Y156900D01*
X85400Y157300D01*
X85800Y157700D01*
Y158100D01*
X85400D01*
X85000Y157700D01*
X84600Y158100D01*
X84200D01*
Y157700D01*
X84600Y157300D01*
X84200Y156900D01*
Y156500D01*
X86500Y158600D02*
X86900D01*
X87300Y159000D01*
X87700Y158600D01*
X88100D01*
Y159000D01*
X87700Y159400D01*
X88100Y159800D01*
Y160200D01*
X87700D01*
X87300Y159800D01*
X86900Y160200D01*
X86500D01*
Y159800D01*
X86900Y159400D01*
X86500Y159000D01*
Y158600D01*
X88800Y161000D02*
X89200D01*
X89600Y161400D01*
X90000Y161000D01*
X90400D01*
Y161400D01*
X90000Y161800D01*
X90400Y162200D01*
Y162600D01*
X90000D01*
X89600Y162200D01*
X89200Y162600D01*
X88800D01*
Y162200D01*
X89200Y161800D01*
X88800Y161400D01*
Y161000D01*
X88959Y156453D02*
X89359D01*
X89759Y156853D01*
X90159Y156453D01*
X90559D01*
Y156853D01*
X90159Y157253D01*
X90559Y157653D01*
Y158053D01*
X90159D01*
X89759Y157653D01*
X89359Y158053D01*
X88959D01*
Y157653D01*
X89359Y157253D01*
X88959Y156853D01*
Y156453D01*
X130500Y152000D02*
Y151600D01*
X131300D01*
Y152000D01*
X131700D01*
Y152800D01*
X131300D01*
Y153200D01*
X130500D01*
Y152800D01*
X130100D01*
Y152000D01*
X130500D01*
X86178Y191147D02*
Y190747D01*
X86978D01*
Y191147D01*
X87378D01*
Y191947D01*
X86978D01*
Y192348D01*
X86178D01*
Y191947D01*
X85778D01*
Y191147D01*
X86178D01*
X79584Y211690D02*
Y211290D01*
X80384D01*
Y211690D01*
X80784D01*
Y212490D01*
X80384D01*
Y212890D01*
X79584D01*
Y212490D01*
X79184D01*
Y211690D01*
X79584D01*
X134300Y224200D02*
Y223800D01*
X135100D01*
Y224200D01*
X135500D01*
Y225000D01*
X135100D01*
Y225400D01*
X134300D01*
Y225000D01*
X133900D01*
Y224200D01*
X134300D01*
X107700Y241500D02*
X108100D01*
X108500Y241900D01*
X108900Y241500D01*
X109300D01*
Y241900D01*
X108900Y242300D01*
X109300Y242700D01*
Y243100D01*
X108900D01*
X108500Y242700D01*
X108100Y243100D01*
X107700D01*
Y242700D01*
X108100Y242300D01*
X107700Y241900D01*
Y241500D01*
X111882Y241490D02*
X112282D01*
X112682Y241890D01*
X113082Y241490D01*
X113482D01*
Y241890D01*
X113082Y242290D01*
X113482Y242690D01*
Y243090D01*
X113082D01*
X112682Y242690D01*
X112282Y243090D01*
X111882D01*
Y242690D01*
X112282Y242290D01*
X111882Y241890D01*
Y241490D01*
X109957Y238701D02*
X110356D01*
X110757Y239101D01*
X111156Y238701D01*
X111556D01*
Y239101D01*
X111156Y239501D01*
X111556Y239901D01*
Y240301D01*
X111156D01*
X110757Y239901D01*
X110356Y240301D01*
X109957D01*
Y239901D01*
X110356Y239501D01*
X109957Y239101D01*
Y238701D01*
X107661Y236010D02*
X108061D01*
X108461Y236410D01*
X108861Y236010D01*
X109261D01*
Y236410D01*
X108861Y236810D01*
X109261Y237210D01*
Y237610D01*
X108861D01*
X108461Y237210D01*
X108061Y237610D01*
X107661D01*
Y237210D01*
X108061Y236810D01*
X107661Y236410D01*
Y236010D01*
X112005Y235936D02*
X112405D01*
X112805Y236336D01*
X113205Y235936D01*
X113605D01*
Y236336D01*
X113205Y236736D01*
X113605Y237136D01*
Y237536D01*
X113205D01*
X112805Y237136D01*
X112405Y237536D01*
X112005D01*
Y237136D01*
X112405Y236736D01*
X112005Y236336D01*
Y235936D01*
X110006Y233246D02*
X110406D01*
X110806Y233646D01*
X111206Y233246D01*
X111606D01*
Y233646D01*
X111206Y234046D01*
X111606Y234446D01*
Y234846D01*
X111206D01*
X110806Y234446D01*
X110406Y234846D01*
X110006D01*
Y234446D01*
X110406Y234046D01*
X110006Y233646D01*
Y233246D01*
X114403Y238587D02*
X114804D01*
X115203Y238987D01*
X115603Y238587D01*
X116004D01*
Y238987D01*
X115603Y239387D01*
X116004Y239787D01*
Y240187D01*
X115603D01*
X115203Y239787D01*
X114804Y240187D01*
X114403D01*
Y239787D01*
X114804Y239387D01*
X114403Y238987D01*
Y238587D01*
X114421Y233219D02*
X114821D01*
X115221Y233619D01*
X115621Y233219D01*
X116021D01*
Y233619D01*
X115621Y234019D01*
X116021Y234419D01*
Y234819D01*
X115621D01*
X115221Y234419D01*
X114821Y234819D01*
X114421D01*
Y234419D01*
X114821Y234019D01*
X114421Y233619D01*
Y233219D01*
X148200Y275800D02*
Y275400D01*
X149000D01*
Y275800D01*
X149400D01*
Y276600D01*
X149000D01*
Y277000D01*
X148200D01*
Y276600D01*
X147800D01*
Y275800D01*
X148200D01*
X155288Y275000D02*
Y274600D01*
X156088D01*
Y275000D01*
X156488D01*
Y275800D01*
X156088D01*
Y276200D01*
X155288D01*
Y275800D01*
X154888D01*
Y275000D01*
X155288D01*
X156100Y278400D02*
Y278000D01*
X156900D01*
Y278400D01*
X157300D01*
Y279200D01*
X156900D01*
Y279600D01*
X156100D01*
Y279200D01*
X155700D01*
Y278400D01*
X156100D01*
X170300Y234100D02*
Y233700D01*
X171100D01*
Y234100D01*
X171500D01*
Y234900D01*
X171100D01*
Y235300D01*
X170300D01*
Y234900D01*
X169900D01*
Y234100D01*
X170300D01*
X180500Y257100D02*
Y256700D01*
X181300D01*
Y257100D01*
X181700D01*
Y257900D01*
X181300D01*
Y258300D01*
X180500D01*
Y257900D01*
X180100D01*
Y257100D01*
X180500D01*
X127500Y230700D02*
Y230300D01*
X128300D01*
Y230700D01*
X128700D01*
Y231500D01*
X128300D01*
Y231900D01*
X127500D01*
Y231500D01*
X127100D01*
Y230700D01*
X127500D01*
X134370Y236856D02*
Y236456D01*
X135170D01*
Y236856D01*
X135570D01*
Y237656D01*
X135170D01*
Y238056D01*
X134370D01*
Y237656D01*
X133970D01*
Y236856D01*
X134370D01*
X165000Y291800D02*
Y291400D01*
X165800D01*
Y291800D01*
X166200D01*
Y292600D01*
X165800D01*
Y293000D01*
X165000D01*
Y292600D01*
X164600D01*
Y291800D01*
X165000D01*
X175000Y279100D02*
Y278700D01*
X175800D01*
Y279100D01*
X176200D01*
Y279900D01*
X175800D01*
Y280300D01*
X175000D01*
Y279900D01*
X174600D01*
Y279100D01*
X175000D01*
X264300Y365000D02*
Y364600D01*
X265100D01*
Y365000D01*
X265500D01*
Y365800D01*
X265100D01*
Y366200D01*
X264300D01*
Y365800D01*
X263900D01*
Y365000D01*
X264300D01*
X205900Y279600D02*
X206300D01*
X206700Y280000D01*
X207100Y279600D01*
X207500D01*
Y280000D01*
X207100Y280400D01*
X207500Y280800D01*
Y281200D01*
X207100D01*
X206700Y280800D01*
X206300Y281200D01*
X205900D01*
Y280800D01*
X206300Y280400D01*
X205900Y280000D01*
Y279600D01*
X209700Y277400D02*
X210100D01*
X210500Y277800D01*
X210900Y277400D01*
X211300D01*
Y277800D01*
X210900Y278200D01*
X211300Y278600D01*
Y279000D01*
X210900D01*
X210500Y278600D01*
X210100Y279000D01*
X209700D01*
Y278600D01*
X210100Y278200D01*
X209700Y277800D01*
Y277400D01*
X209900Y272500D02*
X210300D01*
X210700Y272900D01*
X211100Y272500D01*
X211500D01*
Y272900D01*
X211100Y273300D01*
X211500Y273700D01*
Y274100D01*
X211100D01*
X210700Y273700D01*
X210300Y274100D01*
X209900D01*
Y273700D01*
X210300Y273300D01*
X209900Y272900D01*
Y272500D01*
X213100Y283700D02*
X213500D01*
X213900Y284100D01*
X214300Y283700D01*
X214700D01*
Y284100D01*
X214300Y284500D01*
X214700Y284900D01*
Y285300D01*
X214300D01*
X213900Y284900D01*
X213500Y285300D01*
X213100D01*
Y284900D01*
X213500Y284500D01*
X213100Y284100D01*
Y283700D01*
X213200Y279400D02*
X213600D01*
X214000Y279800D01*
X214400Y279400D01*
X214800D01*
Y279800D01*
X214400Y280200D01*
X214800Y280600D01*
Y281000D01*
X214400D01*
X214000Y280600D01*
X213600Y281000D01*
X213200D01*
Y280600D01*
X213600Y280200D01*
X213200Y279800D01*
Y279400D01*
X205800Y283800D02*
X206200D01*
X206600Y284200D01*
X207000Y283800D01*
X207400D01*
Y284200D01*
X207000Y284600D01*
X207400Y285000D01*
Y285400D01*
X207000D01*
X206600Y285000D01*
X206200Y285400D01*
X205800D01*
Y285000D01*
X206200Y284600D01*
X205800Y284200D01*
Y283800D01*
X213300Y275400D02*
X213700D01*
X214100Y275800D01*
X214500Y275400D01*
X214900D01*
Y275800D01*
X214500Y276200D01*
X214900Y276600D01*
Y277000D01*
X214500D01*
X214100Y276600D01*
X213700Y277000D01*
X213300D01*
Y276600D01*
X213700Y276200D01*
X213300Y275800D01*
Y275400D01*
X205900Y275100D02*
X206300D01*
X206700Y275500D01*
X207100Y275100D01*
X207500D01*
Y275500D01*
X207100Y275900D01*
X207500Y276300D01*
Y276700D01*
X207100D01*
X206700Y276300D01*
X206300Y276700D01*
X205900D01*
Y276300D01*
X206300Y275900D01*
X205900Y275500D01*
Y275100D01*
X209500Y281600D02*
X209900D01*
X210300Y282000D01*
X210700Y281600D01*
X211100D01*
Y282000D01*
X210700Y282400D01*
X211100Y282800D01*
Y283200D01*
X210700D01*
X210300Y282800D01*
X209900Y283200D01*
X209500D01*
Y282800D01*
X209900Y282400D01*
X209500Y282000D01*
Y281600D01*
X200200Y285800D02*
Y285400D01*
X201000D01*
Y285800D01*
X201400D01*
Y286600D01*
X201000D01*
Y287000D01*
X200200D01*
Y286600D01*
X199800D01*
Y285800D01*
X200200D01*
X361700Y124400D02*
Y124000D01*
X362500D01*
Y124400D01*
X362900D01*
Y125200D01*
X362500D01*
Y125600D01*
X361700D01*
Y125200D01*
X361300D01*
Y124400D01*
X361700D01*
X361800Y129000D02*
Y128600D01*
X362600D01*
Y129000D01*
X363000D01*
Y129800D01*
X362600D01*
Y130200D01*
X361800D01*
Y129800D01*
X361400D01*
Y129000D01*
X361800D01*
X330600Y161100D02*
X331000D01*
X331400Y161500D01*
X331800Y161100D01*
X332200D01*
Y161500D01*
X331800Y161900D01*
X332200Y162300D01*
Y162700D01*
X331800D01*
X331400Y162300D01*
X331000Y162700D01*
X330600D01*
Y162300D01*
X331000Y161900D01*
X330600Y161500D01*
Y161100D01*
X335300Y161000D02*
X335700D01*
X336100Y161400D01*
X336500Y161000D01*
X336900D01*
Y161400D01*
X336500Y161800D01*
X336900Y162200D01*
Y162600D01*
X336500D01*
X336100Y162200D01*
X335700Y162600D01*
X335300D01*
Y162200D01*
X335700Y161800D01*
X335300Y161400D01*
Y161000D01*
X332900Y158800D02*
X333300D01*
X333700Y159200D01*
X334100Y158800D01*
X334500D01*
Y159200D01*
X334100Y159600D01*
X334500Y160000D01*
Y160400D01*
X334100D01*
X333700Y160000D01*
X333300Y160400D01*
X332900D01*
Y160000D01*
X333300Y159600D01*
X332900Y159200D01*
Y158800D01*
X330500Y155900D02*
X330900D01*
X331300Y156300D01*
X331700Y155900D01*
X332100D01*
Y156300D01*
X331700Y156700D01*
X332100Y157100D01*
Y157500D01*
X331700D01*
X331300Y157100D01*
X330900Y157500D01*
X330500D01*
Y157100D01*
X330900Y156700D01*
X330500Y156300D01*
Y155900D01*
X335300Y155700D02*
X335700D01*
X336100Y156100D01*
X336500Y155700D01*
X336900D01*
Y156100D01*
X336500Y156500D01*
X336900Y156900D01*
Y157300D01*
X336500D01*
X336100Y156900D01*
X335700Y157300D01*
X335300D01*
Y156900D01*
X335700Y156500D01*
X335300Y156100D01*
Y155700D01*
X333000Y153100D02*
X333400D01*
X333800Y153500D01*
X334200Y153100D01*
X334600D01*
Y153500D01*
X334200Y153900D01*
X334600Y154300D01*
Y154700D01*
X334200D01*
X333800Y154300D01*
X333400Y154700D01*
X333000D01*
Y154300D01*
X333400Y153900D01*
X333000Y153500D01*
Y153100D01*
X330600Y150300D02*
X331000D01*
X331400Y150700D01*
X331800Y150300D01*
X332200D01*
Y150700D01*
X331800Y151100D01*
X332200Y151500D01*
Y151900D01*
X331800D01*
X331400Y151500D01*
X331000Y151900D01*
X330600D01*
Y151500D01*
X331000Y151100D01*
X330600Y150700D01*
Y150300D01*
X335400Y150200D02*
X335800D01*
X336200Y150600D01*
X336600Y150200D01*
X337000D01*
Y150600D01*
X336600Y151000D01*
X337000Y151400D01*
Y151800D01*
X336600D01*
X336200Y151400D01*
X335800Y151800D01*
X335400D01*
Y151400D01*
X335800Y151000D01*
X335400Y150600D01*
Y150200D01*
X376500Y174500D02*
X376900D01*
X377300Y174900D01*
X377700Y174500D01*
X378100D01*
Y174900D01*
X377700Y175300D01*
X378100Y175700D01*
Y176100D01*
X377700D01*
X377300Y175700D01*
X376900Y176100D01*
X376500D01*
Y175700D01*
X376900Y175300D01*
X376500Y174900D01*
Y174500D01*
X380900Y174300D02*
X381300D01*
X381700Y174700D01*
X382100Y174300D01*
X382500D01*
Y174700D01*
X382100Y175100D01*
X382500Y175500D01*
Y175900D01*
X382100D01*
X381700Y175500D01*
X381300Y175900D01*
X380900D01*
Y175500D01*
X381300Y175100D01*
X380900Y174700D01*
Y174300D01*
X384300Y174500D02*
X384700D01*
X385100Y174900D01*
X385500Y174500D01*
X385900D01*
Y174900D01*
X385500Y175300D01*
X385900Y175700D01*
Y176100D01*
X385500D01*
X385100Y175700D01*
X384700Y176100D01*
X384300D01*
Y175700D01*
X384700Y175300D01*
X384300Y174900D01*
Y174500D01*
X378800Y171400D02*
X379200D01*
X379600Y171800D01*
X380000Y171400D01*
X380400D01*
Y171800D01*
X380000Y172200D01*
X380400Y172600D01*
Y173000D01*
X380000D01*
X379600Y172600D01*
X379200Y173000D01*
X378800D01*
Y172600D01*
X379200Y172200D01*
X378800Y171800D01*
Y171400D01*
X382500D02*
X382900D01*
X383300Y171800D01*
X383700Y171400D01*
X384100D01*
Y171800D01*
X383700Y172200D01*
X384100Y172600D01*
Y173000D01*
X383700D01*
X383300Y172600D01*
X382900Y173000D01*
X382500D01*
Y172600D01*
X382900Y172200D01*
X382500Y171800D01*
Y171400D01*
X376700Y168500D02*
X377100D01*
X377500Y168900D01*
X377900Y168500D01*
X378300D01*
Y168900D01*
X377900Y169300D01*
X378300Y169700D01*
Y170100D01*
X377900D01*
X377500Y169700D01*
X377100Y170100D01*
X376700D01*
Y169700D01*
X377100Y169300D01*
X376700Y168900D01*
Y168500D01*
X380900Y168400D02*
X381300D01*
X381700Y168800D01*
X382100Y168400D01*
X382500D01*
Y168800D01*
X382100Y169200D01*
X382500Y169600D01*
Y170000D01*
X382100D01*
X381700Y169600D01*
X381300Y170000D01*
X380900D01*
Y169600D01*
X381300Y169200D01*
X380900Y168800D01*
Y168400D01*
X384300Y168500D02*
X384700D01*
X385100Y168900D01*
X385500Y168500D01*
X385900D01*
Y168900D01*
X385500Y169300D01*
X385900Y169700D01*
Y170100D01*
X385500D01*
X385100Y169700D01*
X384700Y170100D01*
X384300D01*
Y169700D01*
X384700Y169300D01*
X384300Y168900D01*
Y168500D01*
X341841Y151071D02*
Y150671D01*
X342641D01*
Y151071D01*
X343041D01*
Y151871D01*
X342641D01*
Y152271D01*
X341841D01*
Y151871D01*
X341441D01*
Y151071D01*
X341841D01*
X372045Y174503D02*
X372445D01*
X372845Y174903D01*
X373245Y174503D01*
X373645D01*
Y174903D01*
X373245Y175303D01*
X373645Y175703D01*
Y176103D01*
X373245D01*
X372845Y175703D01*
X372445Y176103D01*
X372045D01*
Y175703D01*
X372445Y175303D01*
X372045Y174903D01*
Y174503D01*
X325400Y230000D02*
Y229600D01*
X326200D01*
Y230000D01*
X326600D01*
Y230800D01*
X326200D01*
Y231200D01*
X325400D01*
Y230800D01*
X325000D01*
Y230000D01*
X325400D01*
X336600Y229400D02*
Y229000D01*
X337400D01*
Y229400D01*
X337800D01*
Y230200D01*
X337400D01*
Y230600D01*
X336600D01*
Y230200D01*
X336200D01*
Y229400D01*
X336600D01*
X329600Y224500D02*
Y224100D01*
X330400D01*
Y224500D01*
X330800D01*
Y225300D01*
X330400D01*
Y225700D01*
X329600D01*
Y225300D01*
X329200D01*
Y224500D01*
X329600D01*
X345200Y233700D02*
Y233300D01*
X346000D01*
Y233700D01*
X346400D01*
Y234500D01*
X346000D01*
Y234900D01*
X345200D01*
Y234500D01*
X344800D01*
Y233700D01*
X345200D01*
X307500Y231700D02*
Y231300D01*
X308300D01*
Y231700D01*
X308700D01*
Y232500D01*
X308300D01*
Y232900D01*
X307500D01*
Y232500D01*
X307100D01*
Y231700D01*
X307500D01*
X354500Y255400D02*
Y255000D01*
X355300D01*
Y255400D01*
X355700D01*
Y256200D01*
X355300D01*
Y256600D01*
X354500D01*
Y256200D01*
X354100D01*
Y255400D01*
X354500D01*
X356400Y205300D02*
X356800D01*
X357200Y205700D01*
X357600Y205300D01*
X358000D01*
Y205700D01*
X357600Y206100D01*
X358000Y206500D01*
Y206900D01*
X357600D01*
X357200Y206500D01*
X356800Y206900D01*
X356400D01*
Y206500D01*
X356800Y206100D01*
X356400Y205700D01*
Y205300D01*
X353758Y207395D02*
X354158D01*
X354558Y207795D01*
X354958Y207395D01*
X355358D01*
Y207795D01*
X354958Y208195D01*
X355358Y208595D01*
Y208995D01*
X354958D01*
X354558Y208595D01*
X354158Y208995D01*
X353758D01*
Y208595D01*
X354158Y208195D01*
X353758Y207795D01*
Y207395D01*
X356300Y209000D02*
X356700D01*
X357100Y209400D01*
X357500Y209000D01*
X357900D01*
Y209400D01*
X357500Y209800D01*
X357900Y210200D01*
Y210600D01*
X357500D01*
X357100Y210200D01*
X356700Y210600D01*
X356300D01*
Y210200D01*
X356700Y209800D01*
X356300Y209400D01*
Y209000D01*
X348100Y211100D02*
X348500D01*
X348900Y211500D01*
X349300Y211100D01*
X349700D01*
Y211500D01*
X349300Y211900D01*
X349700Y212300D01*
Y212700D01*
X349300D01*
X348900Y212300D01*
X348500Y212700D01*
X348100D01*
Y212300D01*
X348500Y211900D01*
X348100Y211500D01*
Y211100D01*
X351000Y205200D02*
X351400D01*
X351800Y205600D01*
X352200Y205200D01*
X352600D01*
Y205600D01*
X352200Y206000D01*
X352600Y206400D01*
Y206800D01*
X352200D01*
X351800Y206400D01*
X351400Y206800D01*
X351000D01*
Y206400D01*
X351400Y206000D01*
X351000Y205600D01*
Y205200D01*
X348100Y203800D02*
X348500D01*
X348900Y204200D01*
X349300Y203800D01*
X349700D01*
Y204200D01*
X349300Y204600D01*
X349700Y205000D01*
Y205400D01*
X349300D01*
X348900Y205000D01*
X348500Y205400D01*
X348100D01*
Y205000D01*
X348500Y204600D01*
X348100Y204200D01*
Y203800D01*
Y207300D02*
X348500D01*
X348900Y207700D01*
X349300Y207300D01*
X349700D01*
Y207700D01*
X349300Y208100D01*
X349700Y208500D01*
Y208900D01*
X349300D01*
X348900Y208500D01*
X348500Y208900D01*
X348100D01*
Y208500D01*
X348500Y208100D01*
X348100Y207700D01*
Y207300D01*
X353758Y203895D02*
X354158D01*
X354558Y204295D01*
X354958Y203895D01*
X355358D01*
Y204295D01*
X354958Y204695D01*
X355358Y205095D01*
Y205495D01*
X354958D01*
X354558Y205095D01*
X354158Y205495D01*
X353758D01*
Y205095D01*
X354158Y204695D01*
X353758Y204295D01*
Y203895D01*
Y211195D02*
X354158D01*
X354558Y211595D01*
X354958Y211195D01*
X355358D01*
Y211595D01*
X354958Y211995D01*
X355358Y212395D01*
Y212795D01*
X354958D01*
X354558Y212395D01*
X354158Y212795D01*
X353758D01*
Y212395D01*
X354158Y211995D01*
X353758Y211595D01*
Y211195D01*
X350900Y208900D02*
X351300D01*
X351700Y209300D01*
X352100Y208900D01*
X352500D01*
Y209300D01*
X352100Y209700D01*
X352500Y210100D01*
Y210500D01*
X352100D01*
X351700Y210100D01*
X351300Y210500D01*
X350900D01*
Y210100D01*
X351300Y209700D01*
X350900Y209300D01*
Y208900D01*
X312180Y224644D02*
Y224244D01*
X312980D01*
Y224644D01*
X313380D01*
Y225444D01*
X312980D01*
Y225844D01*
X312180D01*
Y225444D01*
X311780D01*
Y224644D01*
X312180D01*
X314192Y238926D02*
Y238526D01*
X314992D01*
Y238926D01*
X315392D01*
Y239725D01*
X314992D01*
Y240125D01*
X314192D01*
Y239725D01*
X313792D01*
Y238926D01*
X314192D01*
X312000Y231900D02*
Y231500D01*
X312800D01*
Y231900D01*
X313200D01*
Y232700D01*
X312800D01*
Y233100D01*
X312000D01*
Y232700D01*
X311600D01*
Y231900D01*
X312000D01*
X307400Y227200D02*
Y226800D01*
X308200D01*
Y227200D01*
X308600D01*
Y228000D01*
X308200D01*
Y228400D01*
X307400D01*
Y228000D01*
X307000D01*
Y227200D01*
X307400D01*
X131800Y252900D02*
Y252500D01*
X132600D01*
Y252900D01*
X133000D01*
Y253700D01*
X132600D01*
Y254100D01*
X131800D01*
Y253700D01*
X131400D01*
Y252900D01*
X131800D01*
X72329Y257798D02*
Y257398D01*
X73129D01*
Y257798D01*
X73529D01*
Y258598D01*
X73129D01*
Y258998D01*
X72329D01*
Y258598D01*
X71929D01*
Y257798D01*
X72329D01*
X80900Y254100D02*
X81300D01*
X81700Y254500D01*
X82100Y254100D01*
X82500D01*
Y254500D01*
X82100Y254900D01*
X82500Y255300D01*
Y255700D01*
X82100D01*
X81700Y255300D01*
X81300Y255700D01*
X80900D01*
Y255300D01*
X81300Y254900D01*
X80900Y254500D01*
Y254100D01*
X81000Y250300D02*
X81400D01*
X81800Y250700D01*
X82200Y250300D01*
X82600D01*
Y250700D01*
X82200Y251100D01*
X82600Y251500D01*
Y251900D01*
X82200D01*
X81800Y251500D01*
X81400Y251900D01*
X81000D01*
Y251500D01*
X81400Y251100D01*
X81000Y250700D01*
Y250300D01*
X81100Y245800D02*
X81500D01*
X81900Y246200D01*
X82300Y245800D01*
X82700D01*
Y246200D01*
X82300Y246600D01*
X82700Y247000D01*
Y247400D01*
X82300D01*
X81900Y247000D01*
X81500Y247400D01*
X81100D01*
Y247000D01*
X81500Y246600D01*
X81100Y246200D01*
Y245800D01*
X77700Y252200D02*
X78100D01*
X78500Y252600D01*
X78900Y252200D01*
X79300D01*
Y252600D01*
X78900Y253000D01*
X79300Y253400D01*
Y253800D01*
X78900D01*
X78500Y253400D01*
X78100Y253800D01*
X77700D01*
Y253400D01*
X78100Y253000D01*
X77700Y252600D01*
Y252200D01*
Y248100D02*
X78100D01*
X78500Y248500D01*
X78900Y248100D01*
X79300D01*
Y248500D01*
X78900Y248900D01*
X79300Y249300D01*
Y249700D01*
X78900D01*
X78500Y249300D01*
X78100Y249700D01*
X77700D01*
Y249300D01*
X78100Y248900D01*
X77700Y248500D01*
Y248100D01*
Y242900D02*
X78100D01*
X78500Y243300D01*
X78900Y242900D01*
X79300D01*
Y243300D01*
X78900Y243700D01*
X79300Y244100D01*
Y244500D01*
X78900D01*
X78500Y244100D01*
X78100Y244500D01*
X77700D01*
Y244100D01*
X78100Y243700D01*
X77700Y243300D01*
Y242900D01*
X74800Y249900D02*
X75200D01*
X75600Y250300D01*
X76000Y249900D01*
X76400D01*
Y250300D01*
X76000Y250700D01*
X76400Y251100D01*
Y251500D01*
X76000D01*
X75600Y251100D01*
X75200Y251500D01*
X74800D01*
Y251100D01*
X75200Y250700D01*
X74800Y250300D01*
Y249900D01*
Y245400D02*
X75200D01*
X75600Y245800D01*
X76000Y245400D01*
X76400D01*
Y245800D01*
X76000Y246200D01*
X76400Y246600D01*
Y247000D01*
X76000D01*
X75600Y246600D01*
X75200Y247000D01*
X74800D01*
Y246600D01*
X75200Y246200D01*
X74800Y245800D01*
Y245400D01*
Y240300D02*
X75200D01*
X75600Y240700D01*
X76000Y240300D01*
X76400D01*
Y240700D01*
X76000Y241100D01*
X76400Y241500D01*
Y241900D01*
X76000D01*
X75600Y241500D01*
X75200Y241900D01*
X74800D01*
Y241500D01*
X75200Y241100D01*
X74800Y240700D01*
Y240300D01*
X130500Y247000D02*
Y246600D01*
X131300D01*
Y247000D01*
X131700D01*
Y247800D01*
X131300D01*
Y248200D01*
X130500D01*
Y247800D01*
X130100D01*
Y247000D01*
X130500D01*
X178600Y253800D02*
Y253400D01*
X179400D01*
Y253800D01*
X179800D01*
Y254600D01*
X179400D01*
Y255000D01*
X178600D01*
Y254600D01*
X178200D01*
Y253800D01*
X178600D01*
X172845Y272734D02*
Y272334D01*
X173645D01*
Y272734D01*
X174045D01*
Y273534D01*
X173645D01*
Y273934D01*
X172845D01*
Y273534D01*
X172445D01*
Y272734D01*
X172845D01*
X311048Y252462D02*
Y252062D01*
X311848D01*
Y252462D01*
X312248D01*
Y253262D01*
X311848D01*
Y253662D01*
X311048D01*
Y253262D01*
X310648D01*
Y252462D01*
X311048D01*
X349400Y268300D02*
Y267900D01*
X350200D01*
Y268300D01*
X350600D01*
Y269100D01*
X350200D01*
Y269500D01*
X349400D01*
Y269100D01*
X349000D01*
Y268300D01*
X349400D01*
X352900Y257000D02*
Y256600D01*
X353700D01*
Y257000D01*
X354100D01*
Y257800D01*
X353700D01*
Y258200D01*
X352900D01*
Y257800D01*
X352500D01*
Y257000D01*
X352900D01*
X354600Y271600D02*
Y271200D01*
X355400D01*
Y271600D01*
X355800D01*
Y272400D01*
X355400D01*
Y272800D01*
X354600D01*
Y272400D01*
X354200D01*
Y271600D01*
X354600D01*
X218600Y378100D02*
Y377700D01*
X219400D01*
Y378100D01*
X219800D01*
Y378900D01*
X219400D01*
Y379300D01*
X218600D01*
Y378900D01*
X218200D01*
Y378100D01*
X218600D01*
X39620Y181422D02*
Y181022D01*
X40420D01*
Y181422D01*
X40820D01*
Y182222D01*
X40420D01*
Y182622D01*
X39620D01*
Y182222D01*
X39220D01*
Y181422D01*
X39620D01*
X85100Y226400D02*
Y226000D01*
X85900D01*
Y226400D01*
X86300D01*
Y227200D01*
X85900D01*
Y227600D01*
X85100D01*
Y227200D01*
X84700D01*
Y226400D01*
X85100D01*
X84673Y217095D02*
Y216695D01*
X85473D01*
Y217095D01*
X85873D01*
Y217895D01*
X85473D01*
Y218295D01*
X84673D01*
Y217895D01*
X84273D01*
Y217095D01*
X84673D01*
X108800Y203900D02*
X109200D01*
X109600Y204300D01*
X110000Y203900D01*
X110400D01*
Y204300D01*
X110000Y204700D01*
X110400Y205100D01*
Y205500D01*
X110000D01*
X109600Y205100D01*
X109200Y205500D01*
X108800D01*
Y205100D01*
X109200Y204700D01*
X108800Y204300D01*
Y203900D01*
X112500D02*
X112900D01*
X113300Y204300D01*
X113700Y203900D01*
X114100D01*
Y204300D01*
X113700Y204700D01*
X114100Y205100D01*
Y205500D01*
X113700D01*
X113300Y205100D01*
X112900Y205500D01*
X112500D01*
Y205100D01*
X112900Y204700D01*
X112500Y204300D01*
Y203900D01*
X116200D02*
X116600D01*
X117000Y204300D01*
X117400Y203900D01*
X117800D01*
Y204300D01*
X117400Y204700D01*
X117800Y205100D01*
Y205500D01*
X117400D01*
X117000Y205100D01*
X116600Y205500D01*
X116200D01*
Y205100D01*
X116600Y204700D01*
X116200Y204300D01*
Y203900D01*
X118028Y200700D02*
X118429D01*
X118828Y201100D01*
X119228Y200700D01*
X119629D01*
Y201100D01*
X119228Y201500D01*
X119629Y201900D01*
Y202300D01*
X119228D01*
X118828Y201900D01*
X118429Y202300D01*
X118028D01*
Y201900D01*
X118429Y201500D01*
X118028Y201100D01*
Y200700D01*
X114329D02*
X114728D01*
X115129Y201100D01*
X115529Y200700D01*
X115928D01*
Y201100D01*
X115529Y201500D01*
X115928Y201900D01*
Y202300D01*
X115529D01*
X115129Y201900D01*
X114728Y202300D01*
X114329D01*
Y201900D01*
X114728Y201500D01*
X114329Y201100D01*
Y200700D01*
X110628D02*
X111029D01*
X111428Y201100D01*
X111828Y200700D01*
X112229D01*
Y201100D01*
X111828Y201500D01*
X112229Y201900D01*
Y202300D01*
X111828D01*
X111428Y201900D01*
X111029Y202300D01*
X110628D01*
Y201900D01*
X111029Y201500D01*
X110628Y201100D01*
Y200700D01*
X122828Y195400D02*
X123229D01*
X123628Y195800D01*
X124029Y195400D01*
X124428D01*
Y195800D01*
X124029Y196200D01*
X124428Y196600D01*
Y197000D01*
X124029D01*
X123628Y196600D01*
X123229Y197000D01*
X122828D01*
Y196600D01*
X123229Y196200D01*
X122828Y195800D01*
Y195400D01*
X119129D02*
X119528D01*
X119929Y195800D01*
X120328Y195400D01*
X120729D01*
Y195800D01*
X120328Y196200D01*
X120729Y196600D01*
Y197000D01*
X120328D01*
X119929Y196600D01*
X119528Y197000D01*
X119129D01*
Y196600D01*
X119528Y196200D01*
X119129Y195800D01*
Y195400D01*
X115428D02*
X115829D01*
X116228Y195800D01*
X116629Y195400D01*
X117028D01*
Y195800D01*
X116629Y196200D01*
X117028Y196600D01*
Y197000D01*
X116629D01*
X116228Y196600D01*
X115829Y197000D01*
X115428D01*
Y196600D01*
X115829Y196200D01*
X115428Y195800D01*
Y195400D01*
X124729Y192400D02*
X125128D01*
X125529Y192800D01*
X125928Y192400D01*
X126329D01*
Y192800D01*
X125928Y193200D01*
X126329Y193600D01*
Y194000D01*
X125928D01*
X125529Y193600D01*
X125128Y194000D01*
X124729D01*
Y193600D01*
X125128Y193200D01*
X124729Y192800D01*
Y192400D01*
X121028D02*
X121429D01*
X121828Y192800D01*
X122229Y192400D01*
X122628D01*
Y192800D01*
X122229Y193200D01*
X122628Y193600D01*
Y194000D01*
X122229D01*
X121828Y193600D01*
X121429Y194000D01*
X121028D01*
Y193600D01*
X121429Y193200D01*
X121028Y192800D01*
Y192400D01*
X117329D02*
X117728D01*
X118129Y192800D01*
X118528Y192400D01*
X118929D01*
Y192800D01*
X118528Y193200D01*
X118929Y193600D01*
Y194000D01*
X118528D01*
X118129Y193600D01*
X117728Y194000D01*
X117329D01*
Y193600D01*
X117728Y193200D01*
X117329Y192800D01*
Y192400D01*
X123029Y189100D02*
X123428D01*
X123828Y189500D01*
X124229Y189100D01*
X124628D01*
Y189500D01*
X124229Y189900D01*
X124628Y190300D01*
Y190700D01*
X124229D01*
X123828Y190300D01*
X123428Y190700D01*
X123029D01*
Y190300D01*
X123428Y189900D01*
X123029Y189500D01*
Y189100D01*
X119328D02*
X119729D01*
X120129Y189500D01*
X120528Y189100D01*
X120929D01*
Y189500D01*
X120528Y189900D01*
X120929Y190300D01*
Y190700D01*
X120528D01*
X120129Y190300D01*
X119729Y190700D01*
X119328D01*
Y190300D01*
X119729Y189900D01*
X119328Y189500D01*
Y189100D01*
X115629D02*
X116028D01*
X116428Y189500D01*
X116829Y189100D01*
X117228D01*
Y189500D01*
X116829Y189900D01*
X117228Y190300D01*
Y190700D01*
X116829D01*
X116428Y190300D01*
X116028Y190700D01*
X115629D01*
Y190300D01*
X116028Y189900D01*
X115629Y189500D01*
Y189100D01*
X86900Y194100D02*
Y193700D01*
X87700D01*
Y194100D01*
X88100D01*
Y194900D01*
X87700D01*
Y195300D01*
X86900D01*
Y194900D01*
X86500D01*
Y194100D01*
X86900D01*
X362500Y210900D02*
X362900D01*
X363300Y211300D01*
X363700Y210900D01*
X364100D01*
Y211300D01*
X363700Y211700D01*
X364100Y212100D01*
Y212500D01*
X363700D01*
X363300Y212100D01*
X362900Y212500D01*
X362500D01*
Y212100D01*
X362900Y211700D01*
X362500Y211300D01*
Y210900D01*
X365925Y210874D02*
X366325D01*
X366725Y211274D01*
X367125Y210874D01*
X367525D01*
Y211274D01*
X367125Y211674D01*
X367525Y212074D01*
Y212474D01*
X367125D01*
X366725Y212074D01*
X366325Y212474D01*
X365925D01*
Y212074D01*
X366325Y211674D01*
X365925Y211274D01*
Y210874D01*
X364081Y208277D02*
X364481D01*
X364881Y208677D01*
X365281Y208277D01*
X365681D01*
Y208677D01*
X365281Y209076D01*
X365681Y209476D01*
Y209876D01*
X365281D01*
X364881Y209476D01*
X364481Y209876D01*
X364081D01*
Y209476D01*
X364481Y209076D01*
X364081Y208677D01*
Y208277D01*
X365800Y206000D02*
X366200D01*
X366600Y206400D01*
X367000Y206000D01*
X367400D01*
Y206400D01*
X367000Y206800D01*
X367400Y207200D01*
Y207600D01*
X367000D01*
X366600Y207200D01*
X366200Y207600D01*
X365800D01*
Y207200D01*
X366200Y206800D01*
X365800Y206400D01*
Y206000D01*
X362375Y206026D02*
X362775D01*
X363175Y206426D01*
X363575Y206026D01*
X363975D01*
Y206426D01*
X363575Y206826D01*
X363975Y207226D01*
Y207626D01*
X363575D01*
X363175Y207226D01*
X362775Y207626D01*
X362375D01*
Y207226D01*
X362775Y206826D01*
X362375Y206426D01*
Y206026D01*
X364100Y203800D02*
X364500D01*
X364900Y204200D01*
X365300Y203800D01*
X365700D01*
Y204200D01*
X365300Y204600D01*
X365700Y205000D01*
Y205400D01*
X365300D01*
X364900Y205000D01*
X364500Y205400D01*
X364100D01*
Y205000D01*
X364500Y204600D01*
X364100Y204200D01*
Y203800D01*
X233800Y168600D02*
Y168200D01*
X234600D01*
Y168600D01*
X235000D01*
Y169400D01*
X234600D01*
Y169800D01*
X233800D01*
Y169400D01*
X233400D01*
Y168600D01*
X233800D01*
X238400Y161200D02*
Y160800D01*
X239200D01*
Y161200D01*
X239600D01*
Y162000D01*
X239200D01*
Y162400D01*
X238400D01*
Y162000D01*
X238000D01*
Y161200D01*
X238400D01*
X244500Y168300D02*
Y167900D01*
X245300D01*
Y168300D01*
X245700D01*
Y169100D01*
X245300D01*
Y169500D01*
X244500D01*
Y169100D01*
X244100D01*
Y168300D01*
X244500D01*
X223600Y207400D02*
Y207000D01*
X224400D01*
Y207400D01*
X224800D01*
Y208200D01*
X224400D01*
Y208600D01*
X223600D01*
Y208200D01*
X223200D01*
Y207400D01*
X223600D01*
X221300Y178600D02*
Y178200D01*
X222100D01*
Y178600D01*
X222500D01*
Y179400D01*
X222100D01*
Y179800D01*
X221300D01*
Y179400D01*
X220900D01*
Y178600D01*
X221300D01*
X218762Y176088D02*
Y175688D01*
X219562D01*
Y176088D01*
X219962D01*
Y176888D01*
X219562D01*
Y177288D01*
X218762D01*
Y176888D01*
X218362D01*
Y176088D01*
X218762D01*
X196400Y174200D02*
X196800D01*
X197200Y174600D01*
X197600Y174200D01*
X198000D01*
Y174600D01*
X197600Y175000D01*
X198000Y175400D01*
Y175800D01*
X197600D01*
X197200Y175400D01*
X196800Y175800D01*
X196400D01*
Y175400D01*
X196800Y175000D01*
X196400Y174600D01*
Y174200D01*
X200368Y174162D02*
X200768D01*
X201168Y174563D01*
X201568Y174162D01*
X201968D01*
Y174563D01*
X201568Y174962D01*
X201968Y175363D01*
Y175762D01*
X201568D01*
X201168Y175363D01*
X200768Y175762D01*
X200368D01*
Y175363D01*
X200768Y174962D01*
X200368Y174563D01*
Y174162D01*
X198300Y171300D02*
X198700D01*
X199100Y171700D01*
X199500Y171300D01*
X199900D01*
Y171700D01*
X199500Y172100D01*
X199900Y172500D01*
Y172900D01*
X199500D01*
X199100Y172500D01*
X198700Y172900D01*
X198300D01*
Y172500D01*
X198700Y172100D01*
X198300Y171700D01*
Y171300D01*
X202815Y171251D02*
X203215D01*
X203615Y171651D01*
X204015Y171251D01*
X204415D01*
Y171651D01*
X204015Y172051D01*
X204415Y172451D01*
Y172851D01*
X204015D01*
X203615Y172451D01*
X203215Y172851D01*
X202815D01*
Y172451D01*
X203215Y172051D01*
X202815Y171651D01*
Y171251D01*
X202800Y165700D02*
X203200D01*
X203600Y166100D01*
X204000Y165700D01*
X204400D01*
Y166100D01*
X204000Y166500D01*
X204400Y166900D01*
Y167300D01*
X204000D01*
X203600Y166900D01*
X203200Y167300D01*
X202800D01*
Y166900D01*
X203200Y166500D01*
X202800Y166100D01*
Y165700D01*
X198285Y165749D02*
X198685D01*
X199085Y166149D01*
X199485Y165749D01*
X199885D01*
Y166149D01*
X199485Y166549D01*
X199885Y166949D01*
Y167349D01*
X199485D01*
X199085Y166949D01*
X198685Y167349D01*
X198285D01*
Y166949D01*
X198685Y166549D01*
X198285Y166149D01*
Y165749D01*
X200353Y168612D02*
X200753D01*
X201153Y169011D01*
X201553Y168612D01*
X201953D01*
Y169011D01*
X201553Y169412D01*
X201953Y169811D01*
Y170212D01*
X201553D01*
X201153Y169811D01*
X200753Y170212D01*
X200353D01*
Y169811D01*
X200753Y169412D01*
X200353Y169011D01*
Y168612D01*
X196385Y168649D02*
X196785D01*
X197185Y169049D01*
X197585Y168649D01*
X197985D01*
Y169049D01*
X197585Y169449D01*
X197985Y169849D01*
Y170249D01*
X197585D01*
X197185Y169849D01*
X196785Y170249D01*
X196385D01*
Y169849D01*
X196785Y169449D01*
X196385Y169049D01*
Y168649D01*
X235100Y214900D02*
Y214500D01*
X235900D01*
Y214900D01*
X236300D01*
Y215700D01*
X235900D01*
Y216100D01*
X235100D01*
Y215700D01*
X234700D01*
Y214900D01*
X235100D01*
X335100Y277600D02*
Y277200D01*
X335900D01*
Y277600D01*
X336300D01*
Y278400D01*
X335900D01*
Y278800D01*
X335100D01*
Y278400D01*
X334700D01*
Y277600D01*
X335100D01*
X334188Y275000D02*
Y274600D01*
X334988D01*
Y275000D01*
X335388D01*
Y275800D01*
X334988D01*
Y276200D01*
X334188D01*
Y275800D01*
X333788D01*
Y275000D01*
X334188D01*
X242480Y213623D02*
Y213223D01*
X243280D01*
Y213623D01*
X243680D01*
Y214423D01*
X243280D01*
Y214823D01*
X242480D01*
Y214423D01*
X242080D01*
Y213623D01*
X242480D01*
X314825Y268857D02*
Y268457D01*
X315625D01*
Y268857D01*
X316025D01*
Y269657D01*
X315625D01*
Y270057D01*
X314825D01*
Y269657D01*
X314425D01*
Y268857D01*
X314825D01*
X221900Y190800D02*
Y190400D01*
X222700D01*
Y190800D01*
X223100D01*
Y191600D01*
X222700D01*
Y192000D01*
X221900D01*
Y191600D01*
X221500D01*
Y190800D01*
X221900D01*
X265900Y191300D02*
Y190900D01*
X266700D01*
Y191300D01*
X267100D01*
Y192100D01*
X266700D01*
Y192500D01*
X265900D01*
Y192100D01*
X265500D01*
Y191300D01*
X265900D01*
X243400Y219300D02*
Y218900D01*
X244200D01*
Y219300D01*
X244600D01*
Y220100D01*
X244200D01*
Y220500D01*
X243400D01*
Y220100D01*
X243000D01*
Y219300D01*
X243400D01*
X290500Y209600D02*
X290900D01*
X291300Y210000D01*
X291700Y209600D01*
X292100D01*
Y210000D01*
X291700Y210400D01*
X292100Y210800D01*
Y211200D01*
X291700D01*
X291300Y210800D01*
X290900Y211200D01*
X290500D01*
Y210800D01*
X290900Y210400D01*
X290500Y210000D01*
Y209600D01*
X293800Y209500D02*
X294200D01*
X294600Y209900D01*
X295000Y209500D01*
X295400D01*
Y209900D01*
X295000Y210300D01*
X295400Y210700D01*
Y211100D01*
X295000D01*
X294600Y210700D01*
X294200Y211100D01*
X293800D01*
Y210700D01*
X294200Y210300D01*
X293800Y209900D01*
Y209500D01*
X300200Y209400D02*
X300600D01*
X301000Y209800D01*
X301400Y209400D01*
X301800D01*
Y209800D01*
X301400Y210200D01*
X301800Y210600D01*
Y211000D01*
X301400D01*
X301000Y210600D01*
X300600Y211000D01*
X300200D01*
Y210600D01*
X300600Y210200D01*
X300200Y209800D01*
Y209400D01*
X296900Y209500D02*
X297300D01*
X297700Y209900D01*
X298100Y209500D01*
X298500D01*
Y209900D01*
X298100Y210300D01*
X298500Y210700D01*
Y211100D01*
X298100D01*
X297700Y210700D01*
X297300Y211100D01*
X296900D01*
Y210700D01*
X297300Y210300D01*
X296900Y209900D01*
Y209500D01*
X298500Y206500D02*
X298900D01*
X299300Y206900D01*
X299700Y206500D01*
X300100D01*
Y206900D01*
X299700Y207300D01*
X300100Y207700D01*
Y208100D01*
X299700D01*
X299300Y207700D01*
X298900Y208100D01*
X298500D01*
Y207700D01*
X298900Y207300D01*
X298500Y206900D01*
Y206500D01*
X301800Y206400D02*
X302200D01*
X302600Y206800D01*
X303000Y206400D01*
X303400D01*
Y206800D01*
X303000Y207200D01*
X303400Y207600D01*
Y208000D01*
X303000D01*
X302600Y207600D01*
X302200Y208000D01*
X301800D01*
Y207600D01*
X302200Y207200D01*
X301800Y206800D01*
Y206400D01*
X295400Y206500D02*
X295800D01*
X296200Y206900D01*
X296600Y206500D01*
X297000D01*
Y206900D01*
X296600Y207300D01*
X297000Y207700D01*
Y208100D01*
X296600D01*
X296200Y207700D01*
X295800Y208100D01*
X295400D01*
Y207700D01*
X295800Y207300D01*
X295400Y206900D01*
Y206500D01*
X292100Y206600D02*
X292500D01*
X292900Y207000D01*
X293300Y206600D01*
X293700D01*
Y207000D01*
X293300Y207400D01*
X293700Y207800D01*
Y208200D01*
X293300D01*
X292900Y207800D01*
X292500Y208200D01*
X292100D01*
Y207800D01*
X292500Y207400D01*
X292100Y207000D01*
Y206600D01*
X296900Y203600D02*
X297300D01*
X297700Y204000D01*
X298100Y203600D01*
X298500D01*
Y204000D01*
X298100Y204400D01*
X298500Y204800D01*
Y205200D01*
X298100D01*
X297700Y204800D01*
X297300Y205200D01*
X296900D01*
Y204800D01*
X297300Y204400D01*
X296900Y204000D01*
Y203600D01*
X300200Y203500D02*
X300600D01*
X301000Y203900D01*
X301400Y203500D01*
X301800D01*
Y203900D01*
X301400Y204300D01*
X301800Y204700D01*
Y205100D01*
X301400D01*
X301000Y204700D01*
X300600Y205100D01*
X300200D01*
Y204700D01*
X300600Y204300D01*
X300200Y203900D01*
Y203500D01*
X293800Y203600D02*
X294200D01*
X294600Y204000D01*
X295000Y203600D01*
X295400D01*
Y204000D01*
X295000Y204400D01*
X295400Y204800D01*
Y205200D01*
X295000D01*
X294600Y204800D01*
X294200Y205200D01*
X293800D01*
Y204800D01*
X294200Y204400D01*
X293800Y204000D01*
Y203600D01*
X290500Y203700D02*
X290900D01*
X291300Y204100D01*
X291700Y203700D01*
X292100D01*
Y204100D01*
X291700Y204500D01*
X292100Y204900D01*
Y205300D01*
X291700D01*
X291300Y204900D01*
X290900Y205300D01*
X290500D01*
Y204900D01*
X290900Y204500D01*
X290500Y204100D01*
Y203700D01*
X290100Y219000D02*
Y218600D01*
X290900D01*
Y219000D01*
X291300D01*
Y219800D01*
X290900D01*
Y220200D01*
X290100D01*
Y219800D01*
X289700D01*
Y219000D01*
X290100D01*
X261500Y206400D02*
Y206000D01*
X262300D01*
Y206400D01*
X262700D01*
Y207200D01*
X262300D01*
Y207600D01*
X261500D01*
Y207200D01*
X261100D01*
Y206400D01*
X261500D01*
X257100Y210300D02*
Y209900D01*
X257900D01*
Y210300D01*
X258300D01*
Y211100D01*
X257900D01*
Y211500D01*
X257100D01*
Y211100D01*
X256700D01*
Y210300D01*
X257100D01*
X217100Y186400D02*
Y186000D01*
X217900D01*
Y186400D01*
X218300D01*
Y187200D01*
X217900D01*
Y187600D01*
X217100D01*
Y187200D01*
X216700D01*
Y186400D01*
X217100D01*
X305562Y243949D02*
Y243549D01*
X306363D01*
Y243949D01*
X306763D01*
Y244749D01*
X306363D01*
Y245149D01*
X305562D01*
Y244749D01*
X305163D01*
Y243949D01*
X305562D01*
X249900Y138000D02*
Y137600D01*
X250700D01*
Y138000D01*
X251100D01*
Y138800D01*
X250700D01*
Y139200D01*
X249900D01*
Y138800D01*
X249500D01*
Y138000D01*
X249900D01*
X246500Y151200D02*
Y150800D01*
X247300D01*
Y151200D01*
X247700D01*
Y152000D01*
X247300D01*
Y152400D01*
X246500D01*
Y152000D01*
X246100D01*
Y151200D01*
X246500D01*
X302200Y196400D02*
Y196000D01*
X303000D01*
Y196400D01*
X303400D01*
Y197200D01*
X303000D01*
Y197600D01*
X302200D01*
Y197200D01*
X301800D01*
Y196400D01*
X302200D01*
X198600Y79800D02*
X199000D01*
X199400Y80200D01*
X199800Y79800D01*
X200200D01*
Y80200D01*
X199800Y80600D01*
X200200Y81000D01*
Y81400D01*
X199800D01*
X199400Y81000D01*
X199000Y81400D01*
X198600D01*
Y81000D01*
X199000Y80600D01*
X198600Y80200D01*
Y79800D01*
X202922Y79778D02*
X203322D01*
X203722Y80178D01*
X204122Y79778D01*
X204522D01*
Y80178D01*
X204122Y80578D01*
X204522Y80978D01*
Y81378D01*
X204122D01*
X203722Y80978D01*
X203322Y81378D01*
X202922D01*
Y80978D01*
X203322Y80578D01*
X202922Y80178D01*
Y79778D01*
X194129Y79820D02*
X194529D01*
X194929Y80220D01*
X195329Y79820D01*
X195729D01*
Y80220D01*
X195329Y80620D01*
X195729Y81020D01*
Y81420D01*
X195329D01*
X194929Y81020D01*
X194529Y81420D01*
X194129D01*
Y81020D01*
X194529Y80620D01*
X194129Y80220D01*
Y79820D01*
X196307Y76142D02*
X196707D01*
X197107Y76542D01*
X197507Y76142D01*
X197907D01*
Y76542D01*
X197507Y76942D01*
X197907Y77342D01*
Y77742D01*
X197507D01*
X197107Y77342D01*
X196707Y77742D01*
X196307D01*
Y77342D01*
X196707Y76942D01*
X196307Y76542D01*
Y76142D01*
X205100Y76100D02*
X205500D01*
X205900Y76500D01*
X206300Y76100D01*
X206700D01*
Y76500D01*
X206300Y76900D01*
X206700Y77300D01*
Y77700D01*
X206300D01*
X205900Y77300D01*
X205500Y77700D01*
X205100D01*
Y77300D01*
X205500Y76900D01*
X205100Y76500D01*
Y76100D01*
X200778Y76122D02*
X201178D01*
X201578Y76522D01*
X201978Y76122D01*
X202378D01*
Y76522D01*
X201978Y76922D01*
X202378Y77322D01*
Y77722D01*
X201978D01*
X201578Y77322D01*
X201178Y77722D01*
X200778D01*
Y77322D01*
X201178Y76922D01*
X200778Y76522D01*
Y76122D01*
X194107Y72742D02*
X194507D01*
X194907Y73142D01*
X195307Y72742D01*
X195707D01*
Y73142D01*
X195307Y73542D01*
X195707Y73942D01*
Y74342D01*
X195307D01*
X194907Y73942D01*
X194507Y74342D01*
X194107D01*
Y73942D01*
X194507Y73542D01*
X194107Y73142D01*
Y72742D01*
X202900Y72700D02*
X203300D01*
X203700Y73100D01*
X204100Y72700D01*
X204500D01*
Y73100D01*
X204100Y73500D01*
X204500Y73900D01*
Y74300D01*
X204100D01*
X203700Y73900D01*
X203300Y74300D01*
X202900D01*
Y73900D01*
X203300Y73500D01*
X202900Y73100D01*
Y72700D01*
X198578Y72722D02*
X198978D01*
X199378Y73122D01*
X199778Y72722D01*
X200178D01*
Y73122D01*
X199778Y73522D01*
X200178Y73922D01*
Y74322D01*
X199778D01*
X199378Y73922D01*
X198978Y74322D01*
X198578D01*
Y73922D01*
X198978Y73522D01*
X198578Y73122D01*
Y72722D01*
X196107Y69242D02*
X196507D01*
X196907Y69642D01*
X197307Y69242D01*
X197707D01*
Y69642D01*
X197307Y70042D01*
X197707Y70442D01*
Y70842D01*
X197307D01*
X196907Y70442D01*
X196507Y70842D01*
X196107D01*
Y70442D01*
X196507Y70042D01*
X196107Y69642D01*
Y69242D01*
X204900Y69200D02*
X205300D01*
X205700Y69600D01*
X206100Y69200D01*
X206500D01*
Y69600D01*
X206100Y70000D01*
X206500Y70400D01*
Y70800D01*
X206100D01*
X205700Y70400D01*
X205300Y70800D01*
X204900D01*
Y70400D01*
X205300Y70000D01*
X204900Y69600D01*
Y69200D01*
X200578Y69222D02*
X200978D01*
X201378Y69622D01*
X201778Y69222D01*
X202178D01*
Y69622D01*
X201778Y70022D01*
X202178Y70422D01*
Y70822D01*
X201778D01*
X201378Y70422D01*
X200978Y70822D01*
X200578D01*
Y70422D01*
X200978Y70022D01*
X200578Y69622D01*
Y69222D01*
X194007Y66242D02*
X194407D01*
X194807Y66642D01*
X195207Y66242D01*
X195607D01*
Y66642D01*
X195207Y67042D01*
X195607Y67442D01*
Y67842D01*
X195207D01*
X194807Y67442D01*
X194407Y67842D01*
X194007D01*
Y67442D01*
X194407Y67042D01*
X194007Y66642D01*
Y66242D01*
X202800Y66200D02*
X203200D01*
X203600Y66600D01*
X204000Y66200D01*
X204400D01*
Y66600D01*
X204000Y67000D01*
X204400Y67400D01*
Y67800D01*
X204000D01*
X203600Y67400D01*
X203200Y67800D01*
X202800D01*
Y67400D01*
X203200Y67000D01*
X202800Y66600D01*
Y66200D01*
X198478Y66222D02*
X198878D01*
X199278Y66622D01*
X199678Y66222D01*
X200078D01*
Y66622D01*
X199678Y67022D01*
X200078Y67422D01*
Y67822D01*
X199678D01*
X199278Y67422D01*
X198878Y67822D01*
X198478D01*
Y67422D01*
X198878Y67022D01*
X198478Y66622D01*
Y66222D01*
X344100Y292500D02*
Y292100D01*
X344900D01*
Y292500D01*
X345300D01*
Y293300D01*
X344900D01*
Y293700D01*
X344100D01*
Y293300D01*
X343700D01*
Y292500D01*
X344100D01*
X252300Y230500D02*
Y230100D01*
X253100D01*
Y230500D01*
X253500D01*
Y231300D01*
X253100D01*
Y231700D01*
X252300D01*
Y231300D01*
X251900D01*
Y230500D01*
X252300D01*
X225800Y242100D02*
Y241700D01*
X226600D01*
Y242100D01*
X227000D01*
Y242900D01*
X226600D01*
Y243300D01*
X225800D01*
Y242900D01*
X225400D01*
Y242100D01*
X225800D01*
X379700Y263400D02*
Y263000D01*
X380500D01*
Y263400D01*
X380900D01*
Y264200D01*
X380500D01*
Y264600D01*
X379700D01*
Y264200D01*
X379300D01*
Y263400D01*
X379700D01*
X348300Y272000D02*
Y271600D01*
X349100D01*
Y272000D01*
X349500D01*
Y272800D01*
X349100D01*
Y273200D01*
X348300D01*
Y272800D01*
X347900D01*
Y272000D01*
X348300D01*
X352600Y282600D02*
Y282200D01*
X353400D01*
Y282600D01*
X353800D01*
Y283400D01*
X353400D01*
Y283800D01*
X352600D01*
Y283400D01*
X352200D01*
Y282600D01*
X352600D01*
X259574Y171166D02*
Y170766D01*
X260374D01*
Y171166D01*
X260774D01*
Y171966D01*
X260374D01*
Y172366D01*
X259574D01*
Y171966D01*
X259174D01*
Y171166D01*
X259574D01*
X177000Y184300D02*
X177400D01*
X177800Y184700D01*
X178200Y184300D01*
X178600D01*
Y184700D01*
X178200Y185100D01*
X178600Y185500D01*
Y185900D01*
X178200D01*
X177800Y185500D01*
X177400Y185900D01*
X177000D01*
Y185500D01*
X177400Y185100D01*
X177000Y184700D01*
Y184300D01*
X180700D02*
X181100D01*
X181500Y184700D01*
X181900Y184300D01*
X182300D01*
Y184700D01*
X181900Y185100D01*
X182300Y185500D01*
Y185900D01*
X181900D01*
X181500Y185500D01*
X181100Y185900D01*
X180700D01*
Y185500D01*
X181100Y185100D01*
X180700Y184700D01*
Y184300D01*
X184400D02*
X184800D01*
X185200Y184700D01*
X185600Y184300D01*
X186000D01*
Y184700D01*
X185600Y185100D01*
X186000Y185500D01*
Y185900D01*
X185600D01*
X185200Y185500D01*
X184800Y185900D01*
X184400D01*
Y185500D01*
X184800Y185100D01*
X184400Y184700D01*
Y184300D01*
X188100Y184200D02*
X188500D01*
X188900Y184600D01*
X189300Y184200D01*
X189700D01*
Y184600D01*
X189300Y185000D01*
X189700Y185400D01*
Y185800D01*
X189300D01*
X188900Y185400D01*
X188500Y185800D01*
X188100D01*
Y185400D01*
X188500Y185000D01*
X188100Y184600D01*
Y184200D01*
X189711Y180842D02*
X190111D01*
X190511Y181242D01*
X190911Y180842D01*
X191311D01*
Y181242D01*
X190911Y181642D01*
X191311Y182042D01*
Y182442D01*
X190911D01*
X190511Y182042D01*
X190111Y182442D01*
X189711D01*
Y182042D01*
X190111Y181642D01*
X189711Y181242D01*
Y180842D01*
X186011Y180942D02*
X186411D01*
X186811Y181342D01*
X187211Y180942D01*
X187611D01*
Y181342D01*
X187211Y181742D01*
X187611Y182142D01*
Y182542D01*
X187211D01*
X186811Y182142D01*
X186411Y182542D01*
X186011D01*
Y182142D01*
X186411Y181742D01*
X186011Y181342D01*
Y180942D01*
X182311D02*
X182711D01*
X183111Y181342D01*
X183511Y180942D01*
X183911D01*
Y181342D01*
X183511Y181742D01*
X183911Y182142D01*
Y182542D01*
X183511D01*
X183111Y182142D01*
X182711Y182542D01*
X182311D01*
Y182142D01*
X182711Y181742D01*
X182311Y181342D01*
Y180942D01*
X178611D02*
X179011D01*
X179411Y181342D01*
X179811Y180942D01*
X180211D01*
Y181342D01*
X179811Y181742D01*
X180211Y182142D01*
Y182542D01*
X179811D01*
X179411Y182142D01*
X179011Y182542D01*
X178611D01*
Y182142D01*
X179011Y181742D01*
X178611Y181342D01*
Y180942D01*
X187911Y177642D02*
X188311D01*
X188711Y178042D01*
X189111Y177642D01*
X189511D01*
Y178042D01*
X189111Y178442D01*
X189511Y178842D01*
Y179242D01*
X189111D01*
X188711Y178842D01*
X188311Y179242D01*
X187911D01*
Y178842D01*
X188311Y178442D01*
X187911Y178042D01*
Y177642D01*
X184211Y177742D02*
X184611D01*
X185011Y178142D01*
X185411Y177742D01*
X185811D01*
Y178142D01*
X185411Y178542D01*
X185811Y178942D01*
Y179342D01*
X185411D01*
X185011Y178942D01*
X184611Y179342D01*
X184211D01*
Y178942D01*
X184611Y178542D01*
X184211Y178142D01*
Y177742D01*
X180511D02*
X180911D01*
X181311Y178142D01*
X181711Y177742D01*
X182111D01*
Y178142D01*
X181711Y178542D01*
X182111Y178942D01*
Y179342D01*
X181711D01*
X181311Y178942D01*
X180911Y179342D01*
X180511D01*
Y178942D01*
X180911Y178542D01*
X180511Y178142D01*
Y177742D01*
X176811D02*
X177211D01*
X177611Y178142D01*
X178011Y177742D01*
X178411D01*
Y178142D01*
X178011Y178542D01*
X178411Y178942D01*
Y179342D01*
X178011D01*
X177611Y178942D01*
X177211Y179342D01*
X176811D01*
Y178942D01*
X177211Y178542D01*
X176811Y178142D01*
Y177742D01*
X189511Y174442D02*
X189911D01*
X190311Y174842D01*
X190711Y174442D01*
X191111D01*
Y174842D01*
X190711Y175242D01*
X191111Y175642D01*
Y176042D01*
X190711D01*
X190311Y175642D01*
X189911Y176042D01*
X189511D01*
Y175642D01*
X189911Y175242D01*
X189511Y174842D01*
Y174442D01*
X185811Y174542D02*
X186211D01*
X186611Y174942D01*
X187011Y174542D01*
X187411D01*
Y174942D01*
X187011Y175342D01*
X187411Y175742D01*
Y176142D01*
X187011D01*
X186611Y175742D01*
X186211Y176142D01*
X185811D01*
Y175742D01*
X186211Y175342D01*
X185811Y174942D01*
Y174542D01*
X182111D02*
X182511D01*
X182911Y174942D01*
X183311Y174542D01*
X183711D01*
Y174942D01*
X183311Y175342D01*
X183711Y175742D01*
Y176142D01*
X183311D01*
X182911Y175742D01*
X182511Y176142D01*
X182111D01*
Y175742D01*
X182511Y175342D01*
X182111Y174942D01*
Y174542D01*
X178411D02*
X178811D01*
X179211Y174942D01*
X179611Y174542D01*
X180011D01*
Y174942D01*
X179611Y175342D01*
X180011Y175742D01*
Y176142D01*
X179611D01*
X179211Y175742D01*
X178811Y176142D01*
X178411D01*
Y175742D01*
X178811Y175342D01*
X178411Y174942D01*
Y174542D01*
X45400Y344000D02*
Y343600D01*
X46200D01*
Y344000D01*
X46600D01*
Y344800D01*
X46200D01*
Y345200D01*
X45400D01*
Y344800D01*
X45000D01*
Y344000D01*
X45400D01*
X28300Y190900D02*
Y190500D01*
X29100D01*
Y190900D01*
X29500D01*
Y191700D01*
X29100D01*
Y192100D01*
X28300D01*
Y191700D01*
X27900D01*
Y190900D01*
X28300D01*
X28200Y204500D02*
Y204100D01*
X29000D01*
Y204500D01*
X29400D01*
Y205300D01*
X29000D01*
Y205700D01*
X28200D01*
Y205300D01*
X27800D01*
Y204500D01*
X28200D01*
X258600Y255400D02*
X259000D01*
X259400Y255800D01*
X259800Y255400D01*
X260200D01*
Y255800D01*
X259800Y256200D01*
X260200Y256600D01*
Y257000D01*
X259800D01*
X259400Y256600D01*
X259000Y257000D01*
X258600D01*
Y256600D01*
X259000Y256200D01*
X258600Y255800D01*
Y255400D01*
X261600D02*
X262000D01*
X262400Y255800D01*
X262800Y255400D01*
X263200D01*
Y255800D01*
X262800Y256200D01*
X263200Y256600D01*
Y257000D01*
X262800D01*
X262400Y256600D01*
X262000Y257000D01*
X261600D01*
Y256600D01*
X262000Y256200D01*
X261600Y255800D01*
Y255400D01*
X264900Y255300D02*
X265300D01*
X265700Y255700D01*
X266100Y255300D01*
X266500D01*
Y255700D01*
X266100Y256100D01*
X266500Y256500D01*
Y256900D01*
X266100D01*
X265700Y256500D01*
X265300Y256900D01*
X264900D01*
Y256500D01*
X265300Y256100D01*
X264900Y255700D01*
Y255300D01*
X266500Y252300D02*
X266900D01*
X267300Y252700D01*
X267700Y252300D01*
X268100D01*
Y252700D01*
X267700Y253100D01*
X268100Y253500D01*
Y253900D01*
X267700D01*
X267300Y253500D01*
X266900Y253900D01*
X266500D01*
Y253500D01*
X266900Y253100D01*
X266500Y252700D01*
Y252300D01*
X263200Y252400D02*
X263600D01*
X264000Y252800D01*
X264400Y252400D01*
X264800D01*
Y252800D01*
X264400Y253200D01*
X264800Y253600D01*
Y254000D01*
X264400D01*
X264000Y253600D01*
X263600Y254000D01*
X263200D01*
Y253600D01*
X263600Y253200D01*
X263200Y252800D01*
Y252400D01*
X260200D02*
X260600D01*
X261000Y252800D01*
X261400Y252400D01*
X261800D01*
Y252800D01*
X261400Y253200D01*
X261800Y253600D01*
Y254000D01*
X261400D01*
X261000Y253600D01*
X260600Y254000D01*
X260200D01*
Y253600D01*
X260600Y253200D01*
X260200Y252800D01*
Y252400D01*
X264900Y249500D02*
X265300D01*
X265700Y249900D01*
X266100Y249500D01*
X266500D01*
Y249900D01*
X266100Y250300D01*
X266500Y250700D01*
Y251100D01*
X266100D01*
X265700Y250700D01*
X265300Y251100D01*
X264900D01*
Y250700D01*
X265300Y250300D01*
X264900Y249900D01*
Y249500D01*
X261600Y249600D02*
X262000D01*
X262400Y250000D01*
X262800Y249600D01*
X263200D01*
Y250000D01*
X262800Y250400D01*
X263200Y250800D01*
Y251200D01*
X262800D01*
X262400Y250800D01*
X262000Y251200D01*
X261600D01*
Y250800D01*
X262000Y250400D01*
X261600Y250000D01*
Y249600D01*
X258600D02*
X259000D01*
X259400Y250000D01*
X259800Y249600D01*
X260200D01*
Y250000D01*
X259800Y250400D01*
X260200Y250800D01*
Y251200D01*
X259800D01*
X259400Y250800D01*
X259000Y251200D01*
X258600D01*
Y250800D01*
X259000Y250400D01*
X258600Y250000D01*
Y249600D01*
X262192Y232969D02*
X262592D01*
X262992Y233369D01*
X263392Y232969D01*
X263792D01*
Y233369D01*
X263392Y233769D01*
X263792Y234169D01*
Y234569D01*
X263392D01*
X262992Y234169D01*
X262592Y234569D01*
X262192D01*
Y234169D01*
X262592Y233769D01*
X262192Y233369D01*
Y232969D01*
X264000Y230200D02*
X264400D01*
X264800Y230600D01*
X265200Y230200D01*
X265600D01*
Y230600D01*
X265200Y231000D01*
X265600Y231400D01*
Y231800D01*
X265200D01*
X264800Y231400D01*
X264400Y231800D01*
X264000D01*
Y231400D01*
X264400Y231000D01*
X264000Y230600D01*
Y230200D01*
X260700Y241700D02*
X261100D01*
X261500Y242100D01*
X261900Y241700D01*
X262300D01*
Y242100D01*
X261900Y242500D01*
X262300Y242900D01*
Y243300D01*
X261900D01*
X261500Y242900D01*
X261100Y243300D01*
X260700D01*
Y242900D01*
X261100Y242500D01*
X260700Y242100D01*
Y241700D01*
X264200D02*
X264600D01*
X265000Y242100D01*
X265400Y241700D01*
X265800D01*
Y242100D01*
X265400Y242500D01*
X265800Y242900D01*
Y243300D01*
X265400D01*
X265000Y242900D01*
X264600Y243300D01*
X264200D01*
Y242900D01*
X264600Y242500D01*
X264200Y242100D01*
Y241700D01*
X262200Y238700D02*
X262600D01*
X263000Y239100D01*
X263400Y238700D01*
X263800D01*
Y239100D01*
X263400Y239500D01*
X263800Y239900D01*
Y240300D01*
X263400D01*
X263000Y239900D01*
X262600Y240300D01*
X262200D01*
Y239900D01*
X262600Y239500D01*
X262200Y239100D01*
Y238700D01*
X264008Y235931D02*
X264408D01*
X264808Y236331D01*
X265208Y235931D01*
X265608D01*
Y236331D01*
X265208Y236731D01*
X265608Y237131D01*
Y237531D01*
X265208D01*
X264808Y237131D01*
X264408Y237531D01*
X264008D01*
Y237131D01*
X264408Y236731D01*
X264008Y236331D01*
Y235931D01*
X260508D02*
X260908D01*
X261308Y236331D01*
X261708Y235931D01*
X262108D01*
Y236331D01*
X261708Y236731D01*
X262108Y237131D01*
Y237531D01*
X261708D01*
X261308Y237131D01*
X260908Y237531D01*
X260508D01*
Y237131D01*
X260908Y236731D01*
X260508Y236331D01*
Y235931D01*
X260500Y230200D02*
X260900D01*
X261300Y230600D01*
X261700Y230200D01*
X262100D01*
Y230600D01*
X261700Y231000D01*
X262100Y231400D01*
Y231800D01*
X261700D01*
X261300Y231400D01*
X260900Y231800D01*
X260500D01*
Y231400D01*
X260900Y231000D01*
X260500Y230600D01*
Y230200D01*
X288945Y140812D02*
X289345D01*
X289745Y141211D01*
X290145Y140812D01*
X290545D01*
Y141211D01*
X290145Y141612D01*
X290545Y142011D01*
Y142411D01*
X290145D01*
X289745Y142011D01*
X289345Y142411D01*
X288945D01*
Y142011D01*
X289345Y141612D01*
X288945Y141211D01*
Y140812D01*
X274357Y138409D02*
X274757D01*
X275157Y138809D01*
X275557Y138409D01*
X275957D01*
Y138809D01*
X275557Y139209D01*
X275957Y139609D01*
Y140009D01*
X275557D01*
X275157Y139609D01*
X274757Y140009D01*
X274357D01*
Y139609D01*
X274757Y139209D01*
X274357Y138809D01*
Y138409D01*
X168411Y205418D02*
X168811D01*
X169211Y205818D01*
X169611Y205418D01*
X170011D01*
Y205818D01*
X169611Y206218D01*
X170011Y206618D01*
Y207018D01*
X169611D01*
X169211Y206618D01*
X168811Y207018D01*
X168411D01*
Y206618D01*
X168811Y206218D01*
X168411Y205818D01*
Y205418D01*
X112635Y123896D02*
X113035D01*
X113435Y124296D01*
X113835Y123896D01*
X114235D01*
Y124296D01*
X113835Y124696D01*
X114235Y125096D01*
Y125496D01*
X113835D01*
X113435Y125096D01*
X113035Y125496D01*
X112635D01*
Y125096D01*
X113035Y124696D01*
X112635Y124296D01*
Y123896D01*
X108316Y143683D02*
X108716D01*
X109116Y144083D01*
X109516Y143683D01*
X109916D01*
Y144083D01*
X109516Y144483D01*
X109916Y144883D01*
Y145283D01*
X109516D01*
X109116Y144883D01*
X108716Y145283D01*
X108316D01*
Y144883D01*
X108716Y144483D01*
X108316Y144083D01*
Y143683D01*
X294200Y347900D02*
X294600D01*
X295000Y348300D01*
X295400Y347900D01*
X295800D01*
Y348300D01*
X295400Y348700D01*
X295800Y349100D01*
Y349500D01*
X295400D01*
X295000Y349100D01*
X294600Y349500D01*
X294200D01*
Y349100D01*
X294600Y348700D01*
X294200Y348300D01*
Y347900D01*
Y344900D02*
X294600D01*
X295000Y345300D01*
X295400Y344900D01*
X295800D01*
Y345300D01*
X295400Y345700D01*
X295800Y346100D01*
Y346500D01*
X295400D01*
X295000Y346100D01*
X294600Y346500D01*
X294200D01*
Y346100D01*
X294600Y345700D01*
X294200Y345300D01*
Y344900D01*
X302600Y355400D02*
X303000D01*
X303400Y355800D01*
X303800Y355400D01*
X304200D01*
Y355800D01*
X303800Y356200D01*
X304200Y356600D01*
Y357000D01*
X303800D01*
X303400Y356600D01*
X303000Y357000D01*
X302600D01*
Y356600D01*
X303000Y356200D01*
X302600Y355800D01*
Y355400D01*
Y358400D02*
X303000D01*
X303400Y358800D01*
X303800Y358400D01*
X304200D01*
Y358800D01*
X303800Y359200D01*
X304200Y359600D01*
Y360000D01*
X303800D01*
X303400Y359600D01*
X303000Y360000D01*
X302600D01*
Y359600D01*
X303000Y359200D01*
X302600Y358800D01*
Y358400D01*
X243084Y363336D02*
X243483D01*
X243883Y363736D01*
X244284Y363336D01*
X244684D01*
Y363736D01*
X244284Y364136D01*
X244684Y364536D01*
Y364936D01*
X244284D01*
X243883Y364536D01*
X243483Y364936D01*
X243084D01*
Y364536D01*
X243483Y364136D01*
X243084Y363736D01*
Y363336D01*
X170498Y209794D02*
X170898D01*
X171298Y210194D01*
X171698Y209794D01*
X172098D01*
Y210194D01*
X171698Y210594D01*
X172098Y210994D01*
Y211394D01*
X171698D01*
X171298Y210994D01*
X170898Y211394D01*
X170498D01*
Y210994D01*
X170898Y210594D01*
X170498Y210194D01*
Y209794D01*
X4300Y226200D02*
X4700D01*
X5100Y226600D01*
X5500Y226200D01*
X5900D01*
Y226600D01*
X5500Y227000D01*
X5900Y227400D01*
Y227800D01*
X5500D01*
X5100Y227400D01*
X4700Y227800D01*
X4300D01*
Y227400D01*
X4700Y227000D01*
X4300Y226600D01*
Y226200D01*
Y222100D02*
X4700D01*
X5100Y222500D01*
X5500Y222100D01*
X5900D01*
Y222500D01*
X5500Y222900D01*
X5900Y223300D01*
Y223700D01*
X5500D01*
X5100Y223300D01*
X4700Y223700D01*
X4300D01*
Y223300D01*
X4700Y222900D01*
X4300Y222500D01*
Y222100D01*
X7300Y224100D02*
X7700D01*
X8100Y224500D01*
X8500Y224100D01*
X8900D01*
Y224500D01*
X8500Y224900D01*
X8900Y225300D01*
Y225700D01*
X8500D01*
X8100Y225300D01*
X7700Y225700D01*
X7300D01*
Y225300D01*
X7700Y224900D01*
X7300Y224500D01*
Y224100D01*
X7200Y219500D02*
X7600D01*
X8000Y219900D01*
X8400Y219500D01*
X8800D01*
Y219900D01*
X8400Y220300D01*
X8800Y220700D01*
Y221100D01*
X8400D01*
X8000Y220700D01*
X7600Y221100D01*
X7200D01*
Y220700D01*
X7600Y220300D01*
X7200Y219900D01*
Y219500D01*
X4400Y217000D02*
X4800D01*
X5200Y217400D01*
X5600Y217000D01*
X6000D01*
Y217400D01*
X5600Y217800D01*
X6000Y218200D01*
Y218600D01*
X5600D01*
X5200Y218200D01*
X4800Y218600D01*
X4400D01*
Y218200D01*
X4800Y217800D01*
X4400Y217400D01*
Y217000D01*
X9900Y216700D02*
X10300D01*
X10700Y217100D01*
X11100Y216700D01*
X11500D01*
Y217100D01*
X11100Y217500D01*
X11500Y217900D01*
Y218300D01*
X11100D01*
X10700Y217900D01*
X10300Y218300D01*
X9900D01*
Y217900D01*
X10300Y217500D01*
X9900Y217100D01*
Y216700D01*
X272800Y356600D02*
X273600Y357400D01*
X274400Y356600D01*
X273600Y355800D01*
X272800Y356600D01*
X278500Y382100D02*
X278900D01*
X279300Y382500D01*
X279700Y382100D01*
X280100D01*
Y382500D01*
X279700Y382900D01*
X280100Y383300D01*
Y383700D01*
X279700D01*
X279300Y383300D01*
X278900Y383700D01*
X278500D01*
Y383300D01*
X278900Y382900D01*
X278500Y382500D01*
Y382100D01*
X273500D02*
X273900D01*
X274300Y382500D01*
X274700Y382100D01*
X275100D01*
Y382500D01*
X274700Y382900D01*
X275100Y383300D01*
Y383700D01*
X274700D01*
X274300Y383300D01*
X273900Y383700D01*
X273500D01*
Y383300D01*
X273900Y382900D01*
X273500Y382500D01*
Y382100D01*
X271900Y378100D02*
X272300D01*
X272700Y378500D01*
X273100Y378100D01*
X273500D01*
Y378500D01*
X273100Y378900D01*
X273500Y379300D01*
Y379700D01*
X273100D01*
X272700Y379300D01*
X272300Y379700D01*
X271900D01*
Y379300D01*
X272300Y378900D01*
X271900Y378500D01*
Y378100D01*
X269100Y382100D02*
X269500D01*
X269900Y382500D01*
X270300Y382100D01*
X270700D01*
Y382500D01*
X270300Y382900D01*
X270700Y383300D01*
Y383700D01*
X270300D01*
X269900Y383300D01*
X269500Y383700D01*
X269100D01*
Y383300D01*
X269500Y382900D01*
X269100Y382500D01*
Y382100D01*
X281100Y378100D02*
X281500D01*
X281900Y378500D01*
X282300Y378100D01*
X282700D01*
Y378500D01*
X282300Y378900D01*
X282700Y379300D01*
Y379700D01*
X282300D01*
X281900Y379300D01*
X281500Y379700D01*
X281100D01*
Y379300D01*
X281500Y378900D01*
X281100Y378500D01*
Y378100D01*
X276300D02*
X276700D01*
X277100Y378500D01*
X277500Y378100D01*
X277900D01*
Y378500D01*
X277500Y378900D01*
X277900Y379300D01*
Y379700D01*
X277500D01*
X277100Y379300D01*
X276700Y379700D01*
X276300D01*
Y379300D01*
X276700Y378900D01*
X276300Y378500D01*
Y378100D01*
X282800Y382100D02*
X283200D01*
X283600Y382500D01*
X284000Y382100D01*
X284400D01*
Y382500D01*
X284000Y382900D01*
X284400Y383300D01*
Y383700D01*
X284000D01*
X283600Y383300D01*
X283200Y383700D01*
X282800D01*
Y383300D01*
X283200Y382900D01*
X282800Y382500D01*
Y382100D01*
X252271Y371208D02*
X252671D01*
X253071Y371608D01*
X253471Y371208D01*
X253871D01*
Y371608D01*
X253471Y372008D01*
X253871Y372408D01*
Y372808D01*
X253471D01*
X253071Y372408D01*
X252671Y372808D01*
X252271D01*
Y372408D01*
X252671Y372008D01*
X252271Y371608D01*
Y371208D01*
X167518Y358477D02*
X167918D01*
X168318Y358877D01*
X168718Y358477D01*
X169118D01*
Y358877D01*
X168718Y359277D01*
X169118Y359677D01*
Y360077D01*
X168718D01*
X168318Y359677D01*
X167918Y360077D01*
X167518D01*
Y359677D01*
X167918Y359277D01*
X167518Y358877D01*
Y358477D01*
X158018Y358377D02*
X158418D01*
X158818Y358777D01*
X159218Y358377D01*
X159618D01*
Y358777D01*
X159218Y359177D01*
X159618Y359577D01*
Y359977D01*
X159218D01*
X158818Y359577D01*
X158418Y359977D01*
X158018D01*
Y359577D01*
X158418Y359177D01*
X158018Y358777D01*
Y358377D01*
X162618Y358477D02*
X163018D01*
X163418Y358877D01*
X163818Y358477D01*
X164218D01*
Y358877D01*
X163818Y359277D01*
X164218Y359677D01*
Y360077D01*
X163818D01*
X163418Y359677D01*
X163018Y360077D01*
X162618D01*
Y359677D01*
X163018Y359277D01*
X162618Y358877D01*
Y358477D01*
X153318Y358377D02*
X153718D01*
X154118Y358777D01*
X154518Y358377D01*
X154918D01*
Y358777D01*
X154518Y359177D01*
X154918Y359577D01*
Y359977D01*
X154518D01*
X154118Y359577D01*
X153718Y359977D01*
X153318D01*
Y359577D01*
X153718Y359177D01*
X153318Y358777D01*
Y358377D01*
X69967Y387702D02*
X70367D01*
X70767Y388102D01*
X71167Y387702D01*
X71567D01*
Y388102D01*
X71167Y388502D01*
X71567Y388902D01*
Y389302D01*
X71167D01*
X70767Y388902D01*
X70367Y389302D01*
X69967D01*
Y388902D01*
X70367Y388502D01*
X69967Y388102D01*
Y387702D01*
X62124Y387733D02*
X62524D01*
X62924Y388133D01*
X63324Y387733D01*
X63724D01*
Y388133D01*
X63324Y388533D01*
X63724Y388933D01*
Y389333D01*
X63324D01*
X62924Y388933D01*
X62524Y389333D01*
X62124D01*
Y388933D01*
X62524Y388533D01*
X62124Y388133D01*
Y387733D01*
X18600Y219600D02*
X19000D01*
X19400Y220000D01*
X19800Y219600D01*
X20200D01*
Y220000D01*
X19800Y220400D01*
X20200Y220800D01*
Y221200D01*
X19800D01*
X19400Y220800D01*
X19000Y221200D01*
X18600D01*
Y220800D01*
X19000Y220400D01*
X18600Y220000D01*
Y219600D01*
X15500Y216600D02*
X15900D01*
X16300Y217000D01*
X16700Y216600D01*
X17100D01*
Y217000D01*
X16700Y217400D01*
X17100Y217800D01*
Y218200D01*
X16700D01*
X16300Y217800D01*
X15900Y218200D01*
X15500D01*
Y217800D01*
X15900Y217400D01*
X15500Y217000D01*
Y216600D01*
X12700Y219600D02*
X13100D01*
X13500Y220000D01*
X13900Y219600D01*
X14300D01*
Y220000D01*
X13900Y220400D01*
X14300Y220800D01*
Y221200D01*
X13900D01*
X13500Y220800D01*
X13100Y221200D01*
X12700D01*
Y220800D01*
X13100Y220400D01*
X12700Y220000D01*
Y219600D01*
X45442Y266531D02*
X45842D01*
X46242Y266931D01*
X46642Y266531D01*
X47042D01*
Y266931D01*
X46642Y267331D01*
X47042Y267731D01*
Y268131D01*
X46642D01*
X46242Y267731D01*
X45842Y268131D01*
X45442D01*
Y267731D01*
X45842Y267331D01*
X45442Y266931D01*
Y266531D01*
X40616D02*
X41016D01*
X41416Y266931D01*
X41816Y266531D01*
X42216D01*
Y266931D01*
X41816Y267331D01*
X42216Y267731D01*
Y268131D01*
X41816D01*
X41416Y267731D01*
X41016Y268131D01*
X40616D01*
Y267731D01*
X41016Y267331D01*
X40616Y266931D01*
Y266531D01*
X38600Y269600D02*
X39000D01*
X39400Y270000D01*
X39800Y269600D01*
X40200D01*
Y270000D01*
X39800Y270400D01*
X40200Y270800D01*
Y271200D01*
X39800D01*
X39400Y270800D01*
X39000Y271200D01*
X38600D01*
Y270800D01*
X39000Y270400D01*
X38600Y270000D01*
Y269600D01*
X43100D02*
X43500D01*
X43900Y270000D01*
X44300Y269600D01*
X44700D01*
Y270000D01*
X44300Y270400D01*
X44700Y270800D01*
Y271200D01*
X44300D01*
X43900Y270800D01*
X43500Y271200D01*
X43100D01*
Y270800D01*
X43500Y270400D01*
X43100Y270000D01*
Y269600D01*
X40600Y272800D02*
X41000D01*
X41400Y273200D01*
X41800Y272800D01*
X42200D01*
Y273200D01*
X41800Y273600D01*
X42200Y274000D01*
Y274400D01*
X41800D01*
X41400Y274000D01*
X41000Y274400D01*
X40600D01*
Y274000D01*
X41000Y273600D01*
X40600Y273200D01*
Y272800D01*
X45100D02*
X45500D01*
X45900Y273200D01*
X46300Y272800D01*
X46700D01*
Y273200D01*
X46300Y273600D01*
X46700Y274000D01*
Y274400D01*
X46300D01*
X45900Y274000D01*
X45500Y274400D01*
X45100D01*
Y274000D01*
X45500Y273600D01*
X45100Y273200D01*
Y272800D01*
X299500Y316800D02*
X299900D01*
X300300Y317200D01*
X300700Y316800D01*
X301100D01*
Y317200D01*
X300700Y317600D01*
X301100Y318000D01*
Y318400D01*
X300700D01*
X300300Y318000D01*
X299900Y318400D01*
X299500D01*
Y318000D01*
X299900Y317600D01*
X299500Y317200D01*
Y316800D01*
X300000Y332300D02*
X300400D01*
X300800Y332700D01*
X301200Y332300D01*
X301600D01*
Y332700D01*
X301200Y333100D01*
X301600Y333500D01*
Y333900D01*
X301200D01*
X300800Y333500D01*
X300400Y333900D01*
X300000D01*
Y333500D01*
X300400Y333100D01*
X300000Y332700D01*
Y332300D01*
X169400Y365800D02*
X169800D01*
X170200Y366200D01*
X170600Y365800D01*
X171000D01*
Y366200D01*
X170600Y366600D01*
X171000Y367000D01*
Y367400D01*
X170600D01*
X170200Y367000D01*
X169800Y367400D01*
X169400D01*
Y367000D01*
X169800Y366600D01*
X169400Y366200D01*
Y365800D01*
X164100D02*
X164500D01*
X164900Y366200D01*
X165300Y365800D01*
X165700D01*
Y366200D01*
X165300Y366600D01*
X165700Y367000D01*
Y367400D01*
X165300D01*
X164900Y367000D01*
X164500Y367400D01*
X164100D01*
Y367000D01*
X164500Y366600D01*
X164100Y366200D01*
Y365800D01*
X166800Y369100D02*
X167200D01*
X167600Y369500D01*
X168000Y369100D01*
X168400D01*
Y369500D01*
X168000Y369900D01*
X168400Y370300D01*
Y370700D01*
X168000D01*
X167600Y370300D01*
X167200Y370700D01*
X166800D01*
Y370300D01*
X167200Y369900D01*
X166800Y369500D01*
Y369100D01*
X173800Y372400D02*
X174200D01*
X174600Y372800D01*
X175000Y372400D01*
X175400D01*
Y372800D01*
X175000Y373200D01*
X175400Y373600D01*
Y374000D01*
X175000D01*
X174600Y373600D01*
X174200Y374000D01*
X173800D01*
Y373600D01*
X174200Y373200D01*
X173800Y372800D01*
Y372400D01*
X169400D02*
X169800D01*
X170200Y372800D01*
X170600Y372400D01*
X171000D01*
Y372800D01*
X170600Y373200D01*
X171000Y373600D01*
Y374000D01*
X170600D01*
X170200Y373600D01*
X169800Y374000D01*
X169400D01*
Y373600D01*
X169800Y373200D01*
X169400Y372800D01*
Y372400D01*
X164100D02*
X164500D01*
X164900Y372800D01*
X165300Y372400D01*
X165700D01*
Y372800D01*
X165300Y373200D01*
X165700Y373600D01*
Y374000D01*
X165300D01*
X164900Y373600D01*
X164500Y374000D01*
X164100D01*
Y373600D01*
X164500Y373200D01*
X164100Y372800D01*
Y372400D01*
X69800Y384200D02*
X70200D01*
X70600Y384600D01*
X71000Y384200D01*
X71400D01*
Y384600D01*
X71000Y385000D01*
X71400Y385400D01*
Y385800D01*
X71000D01*
X70600Y385400D01*
X70200Y385800D01*
X69800D01*
Y385400D01*
X70200Y385000D01*
X69800Y384600D01*
Y384200D01*
X66000Y382100D02*
X66400D01*
X66800Y382500D01*
X67200Y382100D01*
X67600D01*
Y382500D01*
X67200Y382900D01*
X67600Y383300D01*
Y383700D01*
X67200D01*
X66800Y383300D01*
X66400Y383700D01*
X66000D01*
Y383300D01*
X66400Y382900D01*
X66000Y382500D01*
Y382100D01*
Y386600D02*
X66400D01*
X66800Y387000D01*
X67200Y386600D01*
X67600D01*
Y387000D01*
X67200Y387400D01*
X67600Y387800D01*
Y388200D01*
X67200D01*
X66800Y387800D01*
X66400Y388200D01*
X66000D01*
Y387800D01*
X66400Y387400D01*
X66000Y387000D01*
Y386600D01*
X62200Y384200D02*
X62600D01*
X63000Y384600D01*
X63400Y384200D01*
X63800D01*
Y384600D01*
X63400Y385000D01*
X63800Y385400D01*
Y385800D01*
X63400D01*
X63000Y385400D01*
X62600Y385800D01*
X62200D01*
Y385400D01*
X62600Y385000D01*
X62200Y384600D01*
Y384200D01*
X58000Y382400D02*
X58400D01*
X58800Y382800D01*
X59200Y382400D01*
X59600D01*
Y382800D01*
X59200Y383200D01*
X59600Y383600D01*
Y384000D01*
X59200D01*
X58800Y383600D01*
X58400Y384000D01*
X58000D01*
Y383600D01*
X58400Y383200D01*
X58000Y382800D01*
Y382400D01*
Y386600D02*
X58400D01*
X58800Y387000D01*
X59200Y386600D01*
X59600D01*
Y387000D01*
X59200Y387400D01*
X59600Y387800D01*
Y388200D01*
X59200D01*
X58800Y387800D01*
X58400Y388200D01*
X58000D01*
Y387800D01*
X58400Y387400D01*
X58000Y387000D01*
Y386600D01*
X151700Y385500D02*
X152100D01*
X152500Y385900D01*
X152900Y385500D01*
X153300D01*
Y385900D01*
X152900Y386300D01*
X153300Y386700D01*
Y387100D01*
X152900D01*
X152500Y386700D01*
X152100Y387100D01*
X151700D01*
Y386700D01*
X152100Y386300D01*
X151700Y385900D01*
Y385500D01*
X148300Y383500D02*
X148700D01*
X149100Y383900D01*
X149500Y383500D01*
X149900D01*
Y383900D01*
X149500Y384300D01*
X149900Y384700D01*
Y385100D01*
X149500D01*
X149100Y384700D01*
X148700Y385100D01*
X148300D01*
Y384700D01*
X148700Y384300D01*
X148300Y383900D01*
Y383500D01*
X144800Y381600D02*
X145200D01*
X145600Y382000D01*
X146000Y381600D01*
X146400D01*
Y382000D01*
X146000Y382400D01*
X146400Y382800D01*
Y383200D01*
X146000D01*
X145600Y382800D01*
X145200Y383200D01*
X144800D01*
Y382800D01*
X145200Y382400D01*
X144800Y382000D01*
Y381600D01*
X144700Y385600D02*
X145100D01*
X145500Y386000D01*
X145900Y385600D01*
X146300D01*
Y386000D01*
X145900Y386400D01*
X146300Y386800D01*
Y387200D01*
X145900D01*
X145500Y386800D01*
X145100Y387200D01*
X144700D01*
Y386800D01*
X145100Y386400D01*
X144700Y386000D01*
Y385600D01*
X141400Y383600D02*
X141800D01*
X142200Y384000D01*
X142600Y383600D01*
X143000D01*
Y384000D01*
X142600Y384400D01*
X143000Y384800D01*
Y385200D01*
X142600D01*
X142200Y384800D01*
X141800Y385200D01*
X141400D01*
Y384800D01*
X141800Y384400D01*
X141400Y384000D01*
Y383600D01*
X137700Y381600D02*
X138100D01*
X138500Y382000D01*
X138900Y381600D01*
X139300D01*
Y382000D01*
X138900Y382400D01*
X139300Y382800D01*
Y383200D01*
X138900D01*
X138500Y382800D01*
X138100Y383200D01*
X137700D01*
Y382800D01*
X138100Y382400D01*
X137700Y382000D01*
Y381600D01*
X137800Y385600D02*
X138200D01*
X138600Y386000D01*
X139000Y385600D01*
X139400D01*
Y386000D01*
X139000Y386400D01*
X139400Y386800D01*
Y387200D01*
X139000D01*
X138600Y386800D01*
X138200Y387200D01*
X137800D01*
Y386800D01*
X138200Y386400D01*
X137800Y386000D01*
Y385600D01*
X259900Y320900D02*
Y322500D01*
X261500D01*
Y320900D01*
X259900D01*
X260300Y321300D02*
Y322100D01*
X261100D01*
Y321300D01*
X260300D01*
X308700Y366000D02*
X309100D01*
X309500Y366400D01*
X309900Y366000D01*
X310300D01*
Y366400D01*
X309900Y366800D01*
X310300Y367200D01*
Y367600D01*
X309900D01*
X309500Y367200D01*
X309100Y367600D01*
X308700D01*
Y367200D01*
X309100Y366800D01*
X308700Y366400D01*
Y366000D01*
X287900Y349900D02*
X288300D01*
X288700Y350300D01*
X289100Y349900D01*
X289500D01*
Y350300D01*
X289100Y350700D01*
X289500Y351100D01*
Y351500D01*
X289100D01*
X288700Y351100D01*
X288300Y351500D01*
X287900D01*
Y351100D01*
X288300Y350700D01*
X287900Y350300D01*
Y349900D01*
X273900Y328200D02*
X274700Y329000D01*
X275500Y328200D01*
X274700Y327400D01*
X273900Y328200D01*
X82300Y352800D02*
X82700D01*
X83100Y353200D01*
X83500Y352800D01*
X83900D01*
Y353200D01*
X83500Y353600D01*
X83900Y354000D01*
Y354400D01*
X83500D01*
X83100Y354000D01*
X82700Y354400D01*
X82300D01*
Y354000D01*
X82700Y353600D01*
X82300Y353200D01*
Y352800D01*
Y357100D02*
X82700D01*
X83100Y357500D01*
X83500Y357100D01*
X83900D01*
Y357500D01*
X83500Y357900D01*
X83900Y358300D01*
Y358700D01*
X83500D01*
X83100Y358300D01*
X82700Y358700D01*
X82300D01*
Y358300D01*
X82700Y357900D01*
X82300Y357500D01*
Y357100D01*
Y361300D02*
X82700D01*
X83100Y361700D01*
X83500Y361300D01*
X83900D01*
Y361700D01*
X83500Y362100D01*
X83900Y362500D01*
Y362900D01*
X83500D01*
X83100Y362500D01*
X82700Y362900D01*
X82300D01*
Y362500D01*
X82700Y362100D01*
X82300Y361700D01*
Y361300D01*
X78800Y354900D02*
X79200D01*
X79600Y355300D01*
X80000Y354900D01*
X80400D01*
Y355300D01*
X80000Y355700D01*
X80400Y356100D01*
Y356500D01*
X80000D01*
X79600Y356100D01*
X79200Y356500D01*
X78800D01*
Y356100D01*
X79200Y355700D01*
X78800Y355300D01*
Y354900D01*
Y359300D02*
X79200D01*
X79600Y359700D01*
X80000Y359300D01*
X80400D01*
Y359700D01*
X80000Y360100D01*
X80400Y360500D01*
Y360900D01*
X80000D01*
X79600Y360500D01*
X79200Y360900D01*
X78800D01*
Y360500D01*
X79200Y360100D01*
X78800Y359700D01*
Y359300D01*
X75100Y352700D02*
X75500D01*
X75900Y353100D01*
X76300Y352700D01*
X76700D01*
Y353100D01*
X76300Y353500D01*
X76700Y353900D01*
Y354300D01*
X76300D01*
X75900Y353900D01*
X75500Y354300D01*
X75100D01*
Y353900D01*
X75500Y353500D01*
X75100Y353100D01*
Y352700D01*
Y357100D02*
X75500D01*
X75900Y357500D01*
X76300Y357100D01*
X76700D01*
Y357500D01*
X76300Y357900D01*
X76700Y358300D01*
Y358700D01*
X76300D01*
X75900Y358300D01*
X75500Y358700D01*
X75100D01*
Y358300D01*
X75500Y357900D01*
X75100Y357500D01*
Y357100D01*
Y361200D02*
X75500D01*
X75900Y361600D01*
X76300Y361200D01*
X76700D01*
Y361600D01*
X76300Y362000D01*
X76700Y362400D01*
Y362800D01*
X76300D01*
X75900Y362400D01*
X75500Y362800D01*
X75100D01*
Y362400D01*
X75500Y362000D01*
X75100Y361600D01*
Y361200D01*
X326500Y386100D02*
X326900D01*
X327300Y386500D01*
X327700Y386100D01*
X328100D01*
Y386500D01*
X327700Y386900D01*
X328100Y387300D01*
Y387700D01*
X327700D01*
X327300Y387300D01*
X326900Y387700D01*
X326500D01*
Y387300D01*
X326900Y386900D01*
X326500Y386500D01*
Y386100D01*
X319900Y388900D02*
X320300D01*
X320700Y389300D01*
X321100Y388900D01*
X321500D01*
Y389300D01*
X321100Y389700D01*
X321500Y390100D01*
Y390500D01*
X321100D01*
X320700Y390100D01*
X320300Y390500D01*
X319900D01*
Y390100D01*
X320300Y389700D01*
X319900Y389300D01*
Y388900D01*
X242200Y389100D02*
X242600D01*
X243000Y389500D01*
X243400Y389100D01*
X243800D01*
Y389500D01*
X243400Y389900D01*
X243800Y390300D01*
Y390700D01*
X243400D01*
X243000Y390300D01*
X242600Y390700D01*
X242200D01*
Y390300D01*
X242600Y389900D01*
X242200Y389500D01*
Y389100D01*
X238400Y386200D02*
X238800D01*
X239200Y386600D01*
X239600Y386200D01*
X240000D01*
Y386600D01*
X239600Y387000D01*
X240000Y387400D01*
Y387800D01*
X239600D01*
X239200Y387400D01*
X238800Y387800D01*
X238400D01*
Y387400D01*
X238800Y387000D01*
X238400Y386600D01*
Y386200D01*
X314400Y374450D02*
X314800D01*
X315200Y374850D01*
X315600Y374450D01*
X316000D01*
Y374850D01*
X315600Y375250D01*
X316000Y375650D01*
Y376050D01*
X315600D01*
X315200Y375650D01*
X314800Y376050D01*
X314400D01*
Y375650D01*
X314800Y375250D01*
X314400Y374850D01*
Y374450D01*
Y377450D02*
X314800D01*
X315200Y377850D01*
X315600Y377450D01*
X316000D01*
Y377850D01*
X315600Y378250D01*
X316000Y378650D01*
Y379050D01*
X315600D01*
X315200Y378650D01*
X314800Y379050D01*
X314400D01*
Y378650D01*
X314800Y378250D01*
X314400Y377850D01*
Y377450D01*
X336335Y302800D02*
X336735D01*
X337135Y303200D01*
X337535Y302800D01*
X337935D01*
Y303200D01*
X337535Y303600D01*
X337935Y304000D01*
Y304400D01*
X337535D01*
X337135Y304000D01*
X336735Y304400D01*
X336335D01*
Y304000D01*
X336735Y303600D01*
X336335Y303200D01*
Y302800D01*
X339335D02*
X339735D01*
X340135Y303200D01*
X340535Y302800D01*
X340935D01*
Y303200D01*
X340535Y303600D01*
X340935Y304000D01*
Y304400D01*
X340535D01*
X340135Y304000D01*
X339735Y304400D01*
X339335D01*
Y304000D01*
X339735Y303600D01*
X339335Y303200D01*
Y302800D01*
X247535Y246000D02*
X247935D01*
X248335Y246400D01*
X248735Y246000D01*
X249135D01*
Y246400D01*
X248735Y246800D01*
X249135Y247200D01*
Y247600D01*
X248735D01*
X248335Y247200D01*
X247935Y247600D01*
X247535D01*
Y247200D01*
X247935Y246800D01*
X247535Y246400D01*
Y246000D01*
X244535D02*
X244935D01*
X245335Y246400D01*
X245735Y246000D01*
X246135D01*
Y246400D01*
X245735Y246800D01*
X246135Y247200D01*
Y247600D01*
X245735D01*
X245335Y247200D01*
X244935Y247600D01*
X244535D01*
Y247200D01*
X244935Y246800D01*
X244535Y246400D01*
Y246000D01*
X308700Y369000D02*
X309100D01*
X309500Y369400D01*
X309900Y369000D01*
X310300D01*
Y369400D01*
X309900Y369800D01*
X310300Y370200D01*
Y370600D01*
X309900D01*
X309500Y370200D01*
X309100Y370600D01*
X308700D01*
Y370200D01*
X309100Y369800D01*
X308700Y369400D01*
Y369000D01*
X167500Y298100D02*
X167900D01*
X168300Y298500D01*
X168700Y298100D01*
X169100D01*
Y298500D01*
X168700Y298900D01*
X169100Y299300D01*
Y299700D01*
X168700D01*
X168300Y299300D01*
X167900Y299700D01*
X167500D01*
Y299300D01*
X167900Y298900D01*
X167500Y298500D01*
Y298100D01*
Y301100D02*
X167900D01*
X168300Y301500D01*
X168700Y301100D01*
X169100D01*
Y301500D01*
X168700Y301900D01*
X169100Y302300D01*
Y302700D01*
X168700D01*
X168300Y302300D01*
X167900Y302700D01*
X167500D01*
Y302300D01*
X167900Y301900D01*
X167500Y301500D01*
Y301100D01*
X84000Y271500D02*
X84400D01*
X84800Y271900D01*
X85200Y271500D01*
X85600D01*
Y271900D01*
X85200Y272300D01*
X85600Y272700D01*
Y273100D01*
X85200D01*
X84800Y272700D01*
X84400Y273100D01*
X84000D01*
Y272700D01*
X84400Y272300D01*
X84000Y271900D01*
Y271500D01*
Y268500D02*
X84400D01*
X84800Y268900D01*
X85200Y268500D01*
X85600D01*
Y268900D01*
X85200Y269300D01*
X85600Y269700D01*
Y270100D01*
X85200D01*
X84800Y269700D01*
X84400Y270100D01*
X84000D01*
Y269700D01*
X84400Y269300D01*
X84000Y268900D01*
Y268500D01*
D224*
X50524Y124766D02*
G03*
X50524Y124766I-800J0D01*
G01*
X60524D02*
G03*
X60524Y124766I-800J0D01*
G01*
X98477D02*
G03*
X98477Y124766I-800J0D01*
G01*
X88477D02*
G03*
X88477Y124766I-800J0D01*
G01*
X293224Y124765D02*
G03*
X293224Y124765I-800J0D01*
G01*
X303224D02*
G03*
X303224Y124765I-800J0D01*
G01*
X341177D02*
G03*
X341177Y124765I-800J0D01*
G01*
X331177D02*
G03*
X331177Y124765I-800J0D01*
G01*
X213024D02*
G03*
X213024Y124765I-800J0D01*
G01*
X223024D02*
G03*
X223024Y124765I-800J0D01*
G01*
X260977D02*
G03*
X260977Y124765I-800J0D01*
G01*
X250977D02*
G03*
X250977Y124765I-800J0D01*
G01*
X131624Y124766D02*
G03*
X131624Y124766I-800J0D01*
G01*
X141624D02*
G03*
X141624Y124766I-800J0D01*
G01*
X179577D02*
G03*
X179577Y124766I-800J0D01*
G01*
X169577D02*
G03*
X169577Y124766I-800J0D01*
G01*
X237300Y327000D02*
G03*
X237300Y327000I-800J0D01*
G01*
X285800Y326300D02*
G03*
X285800Y326300I-800J0D01*
G01*
X234021Y339183D02*
G03*
X234021Y339183I-800J0D01*
G01*
X21918Y256629D02*
G03*
X21918Y256629I-800J0D01*
G01*
X19130Y250308D02*
G03*
X19130Y250308I-800J0D01*
G01*
X265400Y383100D02*
G03*
X265400Y383100I-800J0D01*
G01*
Y378700D02*
G03*
X265400Y378700I-800J0D01*
G01*
X32900Y270100D02*
G03*
X32900Y270100I-800J0D01*
G01*
X285600Y334900D02*
G03*
X285600Y334900I-800J0D01*
G01*
X289500Y339500D02*
G03*
X289500Y339500I-800J0D01*
G01*
X251800Y321700D02*
G03*
X251800Y321700I-800J0D01*
G01*
D225*
X236900Y327000D02*
G03*
X236900Y327000I-400J0D01*
G01*
X285400Y326300D02*
G03*
X285400Y326300I-400J0D01*
G01*
X233621Y339183D02*
G03*
X233621Y339183I-400J0D01*
G01*
X21518Y256629D02*
G03*
X21518Y256629I-400J0D01*
G01*
X18730Y250308D02*
G03*
X18730Y250308I-400J0D01*
G01*
X265000Y383100D02*
G03*
X265000Y383100I-400J0D01*
G01*
Y378700D02*
G03*
X265000Y378700I-400J0D01*
G01*
X32500Y270100D02*
G03*
X32500Y270100I-400J0D01*
G01*
X285200Y334900D02*
G03*
X285200Y334900I-400J0D01*
G01*
X289100Y339500D02*
G03*
X289100Y339500I-400J0D01*
G01*
X251400Y321700D02*
G03*
X251400Y321700I-400J0D01*
G01*
M02*
