G04*
G04 #@! TF.GenerationSoftware,Altium Limited,Altium Designer,21.1.1 (26)*
G04*
G04 Layer_Color=8388736*
%FSLAX25Y25*%
%MOIN*%
G70*
G04*
G04 #@! TF.SameCoordinates,1DE770B5-5229-4C7E-BA00-58D6BC8AB395*
G04*
G04*
G04 #@! TF.FilePolarity,Negative*
G04*
G01*
G75*
%ADD10C,0.01000*%
%ADD41C,0.03000*%
%ADD42R,0.06400X0.06400*%
%ADD43R,0.06200X0.06200*%
%ADD44R,0.04756X0.09874*%
%ADD45C,0.07906*%
%ADD46O,0.04756X0.10268*%
%ADD47O,0.04756X0.09480*%
%ADD48O,0.09874X0.15780*%
%ADD49O,0.04362X0.08291*%
%ADD50O,0.09678X0.04238*%
G04:AMPARAMS|DCode=51|XSize=75.12mil|YSize=65.28mil|CornerRadius=0mil|HoleSize=0mil|Usage=FLASHONLY|Rotation=231.000|XOffset=0mil|YOffset=0mil|HoleType=Round|Shape=Rectangle|*
%AMROTATEDRECTD51*
4,1,4,-0.00173,0.04973,0.04900,0.00865,0.00173,-0.04973,-0.04900,-0.00865,-0.00173,0.04973,0.0*
%
%ADD51ROTATEDRECTD51*%

%ADD52O,0.05543X0.02787*%
%ADD53O,0.02787X0.05543*%
%ADD54R,0.23063X0.23063*%
%ADD55R,0.26409X0.26409*%
%ADD56R,0.03181X0.03969*%
%ADD57R,0.05858X0.05661*%
%ADD58R,0.02959X0.02762*%
%ADD59R,0.01975X0.01817*%
%ADD60R,0.01817X0.01975*%
%ADD61R,0.06567X0.07787*%
%ADD62R,0.02762X0.02959*%
%ADD63R,0.10858X0.10268*%
%ADD64R,0.05661X0.05858*%
%ADD65O,0.09087X0.16567*%
%ADD66O,0.09874X0.07906*%
%ADD67C,0.07118*%
%ADD68C,0.12000*%
%ADD69C,0.14598*%
%ADD70C,0.03969*%
D10*
X378270Y56200D02*
X382269D01*
Y58199D01*
X381602Y58866D01*
X378936D01*
X378270Y58199D01*
Y56200D01*
X382269Y62198D02*
Y60865D01*
X381602Y60199D01*
X380269D01*
X379603Y60865D01*
Y62198D01*
X380269Y62865D01*
X380936D01*
Y60199D01*
X382269Y64197D02*
Y66197D01*
X381602Y66863D01*
X380936Y66197D01*
Y64864D01*
X380269Y64197D01*
X379603Y64864D01*
Y66863D01*
X382269Y68196D02*
Y69529D01*
Y68863D01*
X379603D01*
Y68196D01*
X383601Y72861D02*
Y73528D01*
X382935Y74194D01*
X379603D01*
Y72195D01*
X380269Y71528D01*
X381602D01*
X382269Y72195D01*
Y74194D01*
Y75527D02*
X379603D01*
Y77526D01*
X380269Y78193D01*
X382269D01*
Y81525D02*
Y80192D01*
X381602Y79526D01*
X380269D01*
X379603Y80192D01*
Y81525D01*
X380269Y82192D01*
X380936D01*
Y79526D01*
X378270Y86190D02*
X382269D01*
Y84191D01*
X381602Y83525D01*
X380269D01*
X379603Y84191D01*
Y86190D01*
X378270Y91522D02*
X382269D01*
Y93521D01*
X381602Y94188D01*
X380936D01*
X380269D01*
X379603Y93521D01*
Y91522D01*
Y95521D02*
X381602D01*
X382269Y96187D01*
Y98186D01*
X382935D01*
X383601Y97520D01*
Y96854D01*
X382269Y98186D02*
X379603D01*
X382269Y103518D02*
X379603D01*
X378270Y104851D01*
X379603Y106184D01*
X382269D01*
X380269D01*
Y103518D01*
X382269Y107517D02*
X379603D01*
Y109516D01*
X380269Y110183D01*
X382269D01*
X379603Y114181D02*
Y112182D01*
X380269Y111515D01*
X381602D01*
X382269Y112182D01*
Y114181D01*
Y115514D02*
Y116847D01*
Y116181D01*
X378270D01*
Y115514D01*
X390800Y56200D02*
X386801D01*
Y58199D01*
X387468Y58866D01*
X388801D01*
X389467Y58199D01*
Y56200D01*
Y57533D02*
X390800Y58866D01*
Y62198D02*
Y60865D01*
X390134Y60199D01*
X388801D01*
X388134Y60865D01*
Y62198D01*
X388801Y62865D01*
X389467D01*
Y60199D01*
X388134Y64197D02*
X390800Y65530D01*
X388134Y66863D01*
X387468Y72195D02*
X386801Y72861D01*
Y74194D01*
X387468Y74861D01*
X390134D01*
X390800Y74194D01*
Y72861D01*
X390134Y72195D01*
X387468D01*
X390800Y76194D02*
X390134D01*
Y76860D01*
X390800D01*
Y76194D01*
Y79526D02*
Y80859D01*
Y80192D01*
X386801D01*
X387468Y79526D01*
D41*
X27091Y19682D02*
G03*
X27091Y19682I-7400J0D01*
G01*
X381491Y20182D02*
G03*
X381491Y20182I-7400J0D01*
G01*
X381384Y373978D02*
G03*
X381384Y373978I-7400J0D01*
G01*
X27091Y374082D02*
G03*
X27091Y374082I-7400J0D01*
G01*
D42*
X363400Y162100D02*
D03*
D43*
X26600Y263300D02*
D03*
D44*
X69280Y337362D02*
D03*
X61406D02*
D03*
X53532D02*
D03*
X45658D02*
D03*
X41721D02*
D03*
X49595D02*
D03*
X57469D02*
D03*
X65343D02*
D03*
X73217D02*
D03*
D45*
X279401Y175465D02*
D03*
X373700Y225000D02*
D03*
X194800Y226800D02*
D03*
X102251Y162249D02*
D03*
X369300Y230100D02*
D03*
X190100Y231500D02*
D03*
X97600Y167700D02*
D03*
X373800Y234800D02*
D03*
X195000Y236200D02*
D03*
X102500Y172200D02*
D03*
X369000Y239100D02*
D03*
X189900Y240100D02*
D03*
X97200Y176600D02*
D03*
X285200Y161100D02*
D03*
X280000Y165900D02*
D03*
X284300Y171100D02*
D03*
D46*
X119600Y368830D02*
D03*
D47*
X113695Y369220D02*
D03*
X125506D02*
D03*
D48*
X119600Y359380D02*
D03*
D49*
X196600Y299711D02*
D03*
X191600D02*
D03*
X186600D02*
D03*
X181600D02*
D03*
X196600Y276089D02*
D03*
X191600D02*
D03*
X186600D02*
D03*
X181600D02*
D03*
X360618Y277720D02*
D03*
X365618D02*
D03*
X370618D02*
D03*
X375618D02*
D03*
X360618Y301342D02*
D03*
X365618D02*
D03*
X370618D02*
D03*
X375618D02*
D03*
X268818Y215820D02*
D03*
X273818D02*
D03*
X278818D02*
D03*
X283818D02*
D03*
X268818Y239442D02*
D03*
X273818D02*
D03*
X278818D02*
D03*
X283818D02*
D03*
X89553Y215285D02*
D03*
X94553D02*
D03*
X99553D02*
D03*
X104553D02*
D03*
X89553Y238907D02*
D03*
X94553D02*
D03*
X99553D02*
D03*
X104553D02*
D03*
D50*
X314806Y332112D02*
D03*
Y327112D02*
D03*
Y322112D02*
D03*
Y317112D02*
D03*
X336106Y332112D02*
D03*
Y327112D02*
D03*
Y322112D02*
D03*
Y317112D02*
D03*
D51*
X13462Y196047D02*
D03*
X23809Y198814D02*
D03*
X18913Y202778D02*
D03*
X18358Y192083D02*
D03*
X192654Y359833D02*
D03*
X203000Y362600D02*
D03*
X198105Y366564D02*
D03*
X197549Y355869D02*
D03*
X284528Y258482D02*
D03*
X294874Y261249D02*
D03*
X289979Y265213D02*
D03*
X289423Y254518D02*
D03*
X192728Y196582D02*
D03*
X203074Y199349D02*
D03*
X198179Y203313D02*
D03*
X197623Y192618D02*
D03*
X105628Y258782D02*
D03*
X115974Y261549D02*
D03*
X111079Y265513D02*
D03*
X110523Y254818D02*
D03*
D52*
X239244Y354211D02*
D03*
Y352636D02*
D03*
Y351061D02*
D03*
Y349487D02*
D03*
Y347912D02*
D03*
Y346337D02*
D03*
Y344762D02*
D03*
Y343187D02*
D03*
Y341613D02*
D03*
Y340038D02*
D03*
Y338463D02*
D03*
Y336888D02*
D03*
Y335313D02*
D03*
Y333739D02*
D03*
Y332164D02*
D03*
Y330589D02*
D03*
X269756D02*
D03*
Y332164D02*
D03*
Y333739D02*
D03*
Y335313D02*
D03*
Y336888D02*
D03*
Y338463D02*
D03*
Y340038D02*
D03*
Y341613D02*
D03*
Y343187D02*
D03*
Y344762D02*
D03*
Y346337D02*
D03*
Y347912D02*
D03*
Y349487D02*
D03*
Y351061D02*
D03*
Y352636D02*
D03*
Y354211D02*
D03*
X258157Y178867D02*
D03*
Y180442D02*
D03*
Y182017D02*
D03*
Y183591D02*
D03*
Y185166D02*
D03*
Y186741D02*
D03*
Y188316D02*
D03*
Y189891D02*
D03*
Y191465D02*
D03*
Y193040D02*
D03*
Y194615D02*
D03*
Y196190D02*
D03*
Y197765D02*
D03*
Y199339D02*
D03*
Y200914D02*
D03*
Y202489D02*
D03*
Y204064D02*
D03*
X227645D02*
D03*
Y202489D02*
D03*
Y200914D02*
D03*
Y199339D02*
D03*
Y197765D02*
D03*
Y196190D02*
D03*
Y194615D02*
D03*
Y193040D02*
D03*
Y191465D02*
D03*
Y189891D02*
D03*
Y188316D02*
D03*
Y186741D02*
D03*
Y185166D02*
D03*
Y183591D02*
D03*
Y182017D02*
D03*
Y180442D02*
D03*
Y178867D02*
D03*
X78891Y178332D02*
D03*
Y179907D02*
D03*
Y181482D02*
D03*
Y183057D02*
D03*
Y184632D02*
D03*
Y186206D02*
D03*
Y187781D02*
D03*
Y189356D02*
D03*
Y190931D02*
D03*
Y192506D02*
D03*
Y194080D02*
D03*
Y195655D02*
D03*
Y197230D02*
D03*
Y198805D02*
D03*
Y200379D02*
D03*
Y201954D02*
D03*
Y203529D02*
D03*
X48379D02*
D03*
Y201954D02*
D03*
Y200379D02*
D03*
Y198805D02*
D03*
Y197230D02*
D03*
Y195655D02*
D03*
Y194080D02*
D03*
Y192506D02*
D03*
Y190931D02*
D03*
Y189356D02*
D03*
Y187781D02*
D03*
Y186206D02*
D03*
Y184632D02*
D03*
Y183057D02*
D03*
Y181482D02*
D03*
Y179907D02*
D03*
Y178332D02*
D03*
X349957Y240767D02*
D03*
Y242342D02*
D03*
Y243917D02*
D03*
Y245491D02*
D03*
Y247066D02*
D03*
Y248641D02*
D03*
Y250216D02*
D03*
Y251791D02*
D03*
Y253365D02*
D03*
Y254940D02*
D03*
Y256515D02*
D03*
Y258090D02*
D03*
Y259665D02*
D03*
Y261239D02*
D03*
Y262814D02*
D03*
Y264389D02*
D03*
Y265964D02*
D03*
X319445D02*
D03*
Y264389D02*
D03*
Y262814D02*
D03*
Y261239D02*
D03*
Y259665D02*
D03*
Y258090D02*
D03*
Y256515D02*
D03*
Y254940D02*
D03*
Y253365D02*
D03*
Y251791D02*
D03*
Y250216D02*
D03*
Y248641D02*
D03*
Y247066D02*
D03*
Y245491D02*
D03*
Y243917D02*
D03*
Y242342D02*
D03*
Y240767D02*
D03*
X140545Y241067D02*
D03*
Y242642D02*
D03*
Y244216D02*
D03*
Y245791D02*
D03*
Y247366D02*
D03*
Y248941D02*
D03*
Y250516D02*
D03*
Y252091D02*
D03*
Y253665D02*
D03*
Y255240D02*
D03*
Y256815D02*
D03*
Y258390D02*
D03*
Y259965D02*
D03*
Y261539D02*
D03*
Y263114D02*
D03*
Y264689D02*
D03*
Y266264D02*
D03*
X171057D02*
D03*
Y264689D02*
D03*
Y263114D02*
D03*
Y261539D02*
D03*
Y259965D02*
D03*
Y258390D02*
D03*
Y256815D02*
D03*
Y255240D02*
D03*
Y253665D02*
D03*
Y252091D02*
D03*
Y250516D02*
D03*
Y248941D02*
D03*
Y247366D02*
D03*
Y245791D02*
D03*
Y244216D02*
D03*
Y242642D02*
D03*
Y241067D02*
D03*
D53*
X242689Y327144D02*
D03*
X244264D02*
D03*
X245839D02*
D03*
X247413D02*
D03*
X248988D02*
D03*
X250563D02*
D03*
X252138D02*
D03*
X253713D02*
D03*
X255287D02*
D03*
X256862D02*
D03*
X258437D02*
D03*
X260012D02*
D03*
X261587D02*
D03*
X263161D02*
D03*
X264736D02*
D03*
X266311D02*
D03*
Y357656D02*
D03*
X264736D02*
D03*
X263161D02*
D03*
X261587D02*
D03*
X260012D02*
D03*
X258437D02*
D03*
X256862D02*
D03*
X255287D02*
D03*
X253713D02*
D03*
X252138D02*
D03*
X250563D02*
D03*
X248988D02*
D03*
X247413D02*
D03*
X245839D02*
D03*
X244264D02*
D03*
X242689D02*
D03*
X255499Y206721D02*
D03*
X253924D02*
D03*
X252350D02*
D03*
X250775D02*
D03*
X249200D02*
D03*
X247625D02*
D03*
X246050D02*
D03*
X244476D02*
D03*
X242901D02*
D03*
X241326D02*
D03*
X239751D02*
D03*
X238176D02*
D03*
X236602D02*
D03*
X235027D02*
D03*
X233452D02*
D03*
X231877D02*
D03*
X230302D02*
D03*
Y176209D02*
D03*
X231877D02*
D03*
X233452D02*
D03*
X235027D02*
D03*
X236602D02*
D03*
X238176D02*
D03*
X239751D02*
D03*
X241326D02*
D03*
X242901D02*
D03*
X244476D02*
D03*
X246050D02*
D03*
X247625D02*
D03*
X249200D02*
D03*
X250775D02*
D03*
X252350D02*
D03*
X253924D02*
D03*
X255499D02*
D03*
X76234Y206187D02*
D03*
X74659D02*
D03*
X73084D02*
D03*
X71509D02*
D03*
X69935D02*
D03*
X68360D02*
D03*
X66785D02*
D03*
X65210D02*
D03*
X63635D02*
D03*
X62061D02*
D03*
X60486D02*
D03*
X58911D02*
D03*
X57336D02*
D03*
X55761D02*
D03*
X54187D02*
D03*
X52612D02*
D03*
X51037D02*
D03*
Y175675D02*
D03*
X52612D02*
D03*
X54187D02*
D03*
X55761D02*
D03*
X57336D02*
D03*
X58911D02*
D03*
X60486D02*
D03*
X62061D02*
D03*
X63635D02*
D03*
X65210D02*
D03*
X66785D02*
D03*
X68360D02*
D03*
X69935D02*
D03*
X71509D02*
D03*
X73084D02*
D03*
X74659D02*
D03*
X76234D02*
D03*
X347299Y268621D02*
D03*
X345724D02*
D03*
X344150D02*
D03*
X342575D02*
D03*
X341000D02*
D03*
X339425D02*
D03*
X337850D02*
D03*
X336276D02*
D03*
X334701D02*
D03*
X333126D02*
D03*
X331551D02*
D03*
X329976D02*
D03*
X328402D02*
D03*
X326827D02*
D03*
X325252D02*
D03*
X323677D02*
D03*
X322102D02*
D03*
Y238109D02*
D03*
X323677D02*
D03*
X325252D02*
D03*
X326827D02*
D03*
X328402D02*
D03*
X329976D02*
D03*
X331551D02*
D03*
X333126D02*
D03*
X334701D02*
D03*
X336276D02*
D03*
X337850D02*
D03*
X339425D02*
D03*
X341000D02*
D03*
X342575D02*
D03*
X344150D02*
D03*
X345724D02*
D03*
X347299D02*
D03*
X168399Y238409D02*
D03*
X166824D02*
D03*
X165250D02*
D03*
X163675D02*
D03*
X162100D02*
D03*
X160525D02*
D03*
X158950D02*
D03*
X157376D02*
D03*
X155801D02*
D03*
X154226D02*
D03*
X152651D02*
D03*
X151076D02*
D03*
X149502D02*
D03*
X147927D02*
D03*
X146352D02*
D03*
X144777D02*
D03*
X143202D02*
D03*
Y268921D02*
D03*
X144777D02*
D03*
X146352D02*
D03*
X147927D02*
D03*
X149502D02*
D03*
X151076D02*
D03*
X152651D02*
D03*
X154226D02*
D03*
X155801D02*
D03*
X157376D02*
D03*
X158950D02*
D03*
X160525D02*
D03*
X162100D02*
D03*
X163675D02*
D03*
X165250D02*
D03*
X166824D02*
D03*
X168399D02*
D03*
D54*
X254500Y342400D02*
D03*
D55*
X242901Y191465D02*
D03*
X63635Y190931D02*
D03*
X334701Y253365D02*
D03*
X155801Y253665D02*
D03*
D56*
X138318Y219433D02*
D03*
X140483D02*
D03*
X140483Y223567D02*
D03*
X138318D02*
D03*
X61553Y219298D02*
D03*
X59387D02*
D03*
X59388Y215165D02*
D03*
X61553D02*
D03*
X316099Y210739D02*
D03*
X313934D02*
D03*
X316099Y214873D02*
D03*
X313934D02*
D03*
X227383Y153433D02*
D03*
X225218D02*
D03*
X227383Y157567D02*
D03*
X225218D02*
D03*
X49983Y159533D02*
D03*
X47818D02*
D03*
X49983Y163667D02*
D03*
X47818D02*
D03*
X324293Y219454D02*
D03*
X326458D02*
D03*
X324293Y215321D02*
D03*
X326458D02*
D03*
X234418Y153433D02*
D03*
X236583D02*
D03*
X236583Y157567D02*
D03*
X234418D02*
D03*
X146918Y219333D02*
D03*
X149083D02*
D03*
X149083Y223467D02*
D03*
X146918D02*
D03*
X55118Y154433D02*
D03*
X57283D02*
D03*
X57283Y158567D02*
D03*
X55118D02*
D03*
X335012Y215399D02*
D03*
X332847D02*
D03*
X335012Y219533D02*
D03*
X332847D02*
D03*
X241018Y153433D02*
D03*
X243183D02*
D03*
X243182Y157567D02*
D03*
X241018D02*
D03*
X153948Y219333D02*
D03*
X156113D02*
D03*
X156113Y223467D02*
D03*
X153948D02*
D03*
X61818Y163867D02*
D03*
X63983D02*
D03*
X63983Y159733D02*
D03*
X61818D02*
D03*
X342000Y219713D02*
D03*
X344165D02*
D03*
X342000Y215580D02*
D03*
X344165D02*
D03*
X251282Y153646D02*
D03*
X253447D02*
D03*
X253447Y157780D02*
D03*
X251282D02*
D03*
X163318Y215533D02*
D03*
X165483D02*
D03*
X165483Y219667D02*
D03*
X163318D02*
D03*
X68318Y155333D02*
D03*
X70483D02*
D03*
X70483Y159467D02*
D03*
X68318D02*
D03*
X339718Y292833D02*
D03*
X337553D02*
D03*
X337553Y288699D02*
D03*
X339718D02*
D03*
X247918Y230933D02*
D03*
X245753D02*
D03*
X245753Y226799D02*
D03*
X247918D02*
D03*
X160818Y293133D02*
D03*
X158653D02*
D03*
X158653Y288999D02*
D03*
X160818D02*
D03*
X68652Y230398D02*
D03*
X66487D02*
D03*
X66488Y226265D02*
D03*
X68653D02*
D03*
X332618Y281733D02*
D03*
X330453D02*
D03*
X330453Y277599D02*
D03*
X332618D02*
D03*
X240818Y219833D02*
D03*
X238653D02*
D03*
X238653Y215699D02*
D03*
X240818D02*
D03*
X153718Y282033D02*
D03*
X151553D02*
D03*
X151553Y277899D02*
D03*
X153718D02*
D03*
D57*
X289900Y324437D02*
D03*
Y330500D02*
D03*
X252200Y384563D02*
D03*
Y378500D02*
D03*
X246000Y384587D02*
D03*
Y378524D02*
D03*
D58*
X202900Y295173D02*
D03*
Y291827D02*
D03*
X230400Y378706D02*
D03*
Y382052D02*
D03*
X211927Y366763D02*
D03*
Y363417D02*
D03*
X212027Y354770D02*
D03*
Y358117D02*
D03*
X303866Y263900D02*
D03*
Y267247D02*
D03*
X212066Y205346D02*
D03*
Y202000D02*
D03*
X124966Y267547D02*
D03*
Y264200D02*
D03*
X32000Y204873D02*
D03*
Y201527D02*
D03*
X303866Y253727D02*
D03*
Y257073D02*
D03*
X212066Y191827D02*
D03*
Y195173D02*
D03*
X124966Y254027D02*
D03*
Y257373D02*
D03*
X32000Y191227D02*
D03*
Y194573D02*
D03*
X133300Y362700D02*
D03*
Y359353D02*
D03*
X36700Y273827D02*
D03*
Y277173D02*
D03*
X25600Y253673D02*
D03*
Y250327D02*
D03*
X224900Y382073D02*
D03*
Y378727D02*
D03*
X217627Y362590D02*
D03*
Y359243D02*
D03*
X239500Y378706D02*
D03*
Y382052D02*
D03*
X235000Y378706D02*
D03*
Y382052D02*
D03*
X344501Y277692D02*
D03*
Y281039D02*
D03*
X252701Y215792D02*
D03*
Y219139D02*
D03*
X165601Y277992D02*
D03*
Y281339D02*
D03*
X73435Y215258D02*
D03*
Y218604D02*
D03*
X43400Y168227D02*
D03*
Y171573D02*
D03*
X108700Y191100D02*
D03*
Y194447D02*
D03*
Y186000D02*
D03*
Y182653D02*
D03*
X349001Y281039D02*
D03*
Y277692D02*
D03*
X257201Y219139D02*
D03*
Y215792D02*
D03*
X170101Y281339D02*
D03*
Y277992D02*
D03*
X77935Y218604D02*
D03*
Y215258D02*
D03*
X204566Y180454D02*
D03*
Y183800D02*
D03*
X11000Y183254D02*
D03*
Y186600D02*
D03*
X199166Y183773D02*
D03*
Y180427D02*
D03*
X6400Y186573D02*
D03*
Y183227D02*
D03*
X309235Y258666D02*
D03*
Y262013D02*
D03*
X217435Y196766D02*
D03*
Y200113D02*
D03*
X130335Y258966D02*
D03*
Y262313D02*
D03*
X38170Y196231D02*
D03*
Y199578D02*
D03*
X32200Y277200D02*
D03*
Y273853D02*
D03*
X21100Y250327D02*
D03*
Y253673D02*
D03*
X307800Y321073D02*
D03*
Y317727D02*
D03*
X343900Y323727D02*
D03*
Y327073D02*
D03*
D59*
X19700Y346456D02*
D03*
Y348700D02*
D03*
X254800Y310900D02*
D03*
Y308656D02*
D03*
X265543Y316712D02*
D03*
Y318956D02*
D03*
X251231Y310900D02*
D03*
Y308656D02*
D03*
X262042Y318978D02*
D03*
Y316734D02*
D03*
X333201Y293487D02*
D03*
Y291243D02*
D03*
X241401Y229343D02*
D03*
Y231587D02*
D03*
X154301Y291543D02*
D03*
Y293787D02*
D03*
X62135Y228809D02*
D03*
Y231053D02*
D03*
X329701Y293487D02*
D03*
Y291243D02*
D03*
X237901Y229343D02*
D03*
Y231587D02*
D03*
X150801Y291543D02*
D03*
Y293787D02*
D03*
X58635Y228809D02*
D03*
Y231053D02*
D03*
X302700Y317678D02*
D03*
Y319922D02*
D03*
X16200Y346378D02*
D03*
Y348622D02*
D03*
D60*
X214344Y347300D02*
D03*
X212100D02*
D03*
X214344Y343800D02*
D03*
X212100D02*
D03*
X228457Y337956D02*
D03*
X226213D02*
D03*
X228435Y334456D02*
D03*
X226191D02*
D03*
X237678Y315558D02*
D03*
X235434D02*
D03*
X237678Y319158D02*
D03*
X235434D02*
D03*
X337513Y284766D02*
D03*
X339757D02*
D03*
X245713Y222866D02*
D03*
X247957D02*
D03*
X158613Y285066D02*
D03*
X160857D02*
D03*
X66448Y222332D02*
D03*
X68692D02*
D03*
D61*
X107496Y384100D02*
D03*
X114504D02*
D03*
X123696Y384000D02*
D03*
X130704D02*
D03*
D62*
X110227Y377000D02*
D03*
X113573D02*
D03*
X298473Y330500D02*
D03*
X295127D02*
D03*
X261800Y383100D02*
D03*
X258453D02*
D03*
X261800Y387700D02*
D03*
X258453D02*
D03*
X261800Y378555D02*
D03*
X258453D02*
D03*
X226527Y373179D02*
D03*
X229873D02*
D03*
X364201Y309365D02*
D03*
X367547D02*
D03*
X272401Y247465D02*
D03*
X275747D02*
D03*
X93135Y246931D02*
D03*
X96482D02*
D03*
X374874Y269365D02*
D03*
X371528D02*
D03*
X283074Y207465D02*
D03*
X279728D02*
D03*
X195974Y269665D02*
D03*
X192628D02*
D03*
X103809Y206931D02*
D03*
X100462D02*
D03*
X291828Y230065D02*
D03*
X295174D02*
D03*
X211632Y162400D02*
D03*
X214979D02*
D03*
X124013Y224430D02*
D03*
X120667D02*
D03*
X291828Y239065D02*
D03*
X295174D02*
D03*
X211628Y175965D02*
D03*
X214974D02*
D03*
X124074Y237965D02*
D03*
X120728D02*
D03*
X24854Y182700D02*
D03*
X28200D02*
D03*
X384201Y254865D02*
D03*
X380854D02*
D03*
X292401Y192965D02*
D03*
X289054D02*
D03*
X205301Y255165D02*
D03*
X201954D02*
D03*
X384374Y247865D02*
D03*
X381028D02*
D03*
X292574Y185965D02*
D03*
X289228D02*
D03*
X205474Y248165D02*
D03*
X202128D02*
D03*
X291828Y234565D02*
D03*
X295174D02*
D03*
X211628Y171465D02*
D03*
X214974D02*
D03*
X124074Y233465D02*
D03*
X120728D02*
D03*
X24854Y178200D02*
D03*
X28200D02*
D03*
X272354Y254334D02*
D03*
X275700D02*
D03*
X116320Y244198D02*
D03*
X119666D02*
D03*
X275710Y258860D02*
D03*
X272364D02*
D03*
X119673Y248734D02*
D03*
X116327D02*
D03*
X291807Y225464D02*
D03*
X295153D02*
D03*
X211597Y166946D02*
D03*
X214943D02*
D03*
X124041Y228969D02*
D03*
X120694D02*
D03*
X28173Y173700D02*
D03*
X24827D02*
D03*
D63*
X97500Y370413D02*
D03*
Y359587D02*
D03*
D64*
X367669Y247865D02*
D03*
X373732D02*
D03*
X275869Y185965D02*
D03*
X281932D02*
D03*
X188769Y248165D02*
D03*
X194832D02*
D03*
X96604Y185431D02*
D03*
X102667D02*
D03*
X367669Y254865D02*
D03*
X373732D02*
D03*
X275869Y192965D02*
D03*
X281932D02*
D03*
X188769Y255165D02*
D03*
X194832D02*
D03*
X96604Y192431D02*
D03*
X102667D02*
D03*
D65*
X32272Y341299D02*
D03*
X82666D02*
D03*
D66*
X49725Y124766D02*
D03*
X59724D02*
D03*
X97677D02*
D03*
X87677D02*
D03*
X292425Y124765D02*
D03*
X302425D02*
D03*
X340377D02*
D03*
X330377D02*
D03*
X212225D02*
D03*
X222224D02*
D03*
X260177D02*
D03*
X250177D02*
D03*
X130824Y124766D02*
D03*
X140824D02*
D03*
X178777D02*
D03*
X168777D02*
D03*
D67*
X49705Y114766D02*
D03*
X57697D02*
D03*
X65689D02*
D03*
X97697D02*
D03*
X89705D02*
D03*
X81713D02*
D03*
X53720Y104766D02*
D03*
X61713D02*
D03*
X69705D02*
D03*
X93681D02*
D03*
X85689D02*
D03*
X77697D02*
D03*
X292405Y114765D02*
D03*
X300397D02*
D03*
X308389D02*
D03*
X340397D02*
D03*
X332405D02*
D03*
X324413D02*
D03*
X296421Y104765D02*
D03*
X304413D02*
D03*
X312405D02*
D03*
X336381D02*
D03*
X328389D02*
D03*
X320397D02*
D03*
X212205Y114765D02*
D03*
X220197D02*
D03*
X228189D02*
D03*
X260197D02*
D03*
X252205D02*
D03*
X244213D02*
D03*
X216220Y104765D02*
D03*
X224213D02*
D03*
X232205D02*
D03*
X256181D02*
D03*
X248189D02*
D03*
X240197D02*
D03*
X130805Y114766D02*
D03*
X138797D02*
D03*
X146789D02*
D03*
X178797D02*
D03*
X170805D02*
D03*
X162813D02*
D03*
X134820Y104766D02*
D03*
X142813D02*
D03*
X150805D02*
D03*
X174781D02*
D03*
X166789D02*
D03*
X158797D02*
D03*
D68*
X41949Y32247D02*
D03*
X105453D02*
D03*
X284649Y32246D02*
D03*
X348153D02*
D03*
X204449D02*
D03*
X267953D02*
D03*
X123049Y32247D02*
D03*
X186553D02*
D03*
D69*
X48701Y44766D02*
D03*
X98701D02*
D03*
X291401Y44765D02*
D03*
X341401D02*
D03*
X211201D02*
D03*
X261201D02*
D03*
X129801Y44766D02*
D03*
X179801D02*
D03*
D70*
X365369Y163969D02*
D03*
X361432D02*
D03*
X365369Y160031D02*
D03*
X361432D02*
D03*
X245839Y351061D02*
D03*
X250169D02*
D03*
X254500D02*
D03*
X258831D02*
D03*
X263161D02*
D03*
X245839Y346731D02*
D03*
X250169D02*
D03*
X254500D02*
D03*
X258831D02*
D03*
X263161D02*
D03*
X245839Y342400D02*
D03*
X250169D02*
D03*
X254500D02*
D03*
X258831D02*
D03*
X263161D02*
D03*
X245839Y338069D02*
D03*
X250169D02*
D03*
X254500D02*
D03*
X258831D02*
D03*
X263161D02*
D03*
X245839Y333739D02*
D03*
X250169D02*
D03*
X254500D02*
D03*
X258831D02*
D03*
X263161D02*
D03*
X253728Y180639D02*
D03*
X249397D02*
D03*
X245066D02*
D03*
X240735D02*
D03*
X236405D02*
D03*
X232074D02*
D03*
X253728Y184969D02*
D03*
X249397D02*
D03*
X245066D02*
D03*
X240735D02*
D03*
X236405D02*
D03*
X232074D02*
D03*
X253728Y189300D02*
D03*
X249397D02*
D03*
X245066D02*
D03*
X240735D02*
D03*
X236405D02*
D03*
X232074D02*
D03*
X253728Y193631D02*
D03*
X249397D02*
D03*
X245066D02*
D03*
X240735D02*
D03*
X236405D02*
D03*
X232074D02*
D03*
X253728Y197961D02*
D03*
X249397D02*
D03*
X245066D02*
D03*
X240735D02*
D03*
X236405D02*
D03*
X232074D02*
D03*
X253728Y202292D02*
D03*
X249397D02*
D03*
X245066D02*
D03*
X240735D02*
D03*
X236405D02*
D03*
X232074D02*
D03*
X24632Y261332D02*
D03*
X28569D02*
D03*
X24632Y265268D02*
D03*
X28569D02*
D03*
X74462Y180104D02*
D03*
X70131D02*
D03*
X65801D02*
D03*
X61470D02*
D03*
X57139D02*
D03*
X52809D02*
D03*
X74462Y184435D02*
D03*
X70131D02*
D03*
X65801D02*
D03*
X61470D02*
D03*
X57139D02*
D03*
X52809D02*
D03*
X74462Y188765D02*
D03*
X70131D02*
D03*
X65801D02*
D03*
X61470D02*
D03*
X57139D02*
D03*
X52809D02*
D03*
X74462Y193096D02*
D03*
X70131D02*
D03*
X65801D02*
D03*
X61470D02*
D03*
X57139D02*
D03*
X52809D02*
D03*
X74462Y197427D02*
D03*
X70131D02*
D03*
X65801D02*
D03*
X61470D02*
D03*
X57139D02*
D03*
X52809D02*
D03*
X74462Y201758D02*
D03*
X70131D02*
D03*
X65801D02*
D03*
X61470D02*
D03*
X57139D02*
D03*
X52809D02*
D03*
X345528Y242539D02*
D03*
X341197D02*
D03*
X336866D02*
D03*
X332535D02*
D03*
X328205D02*
D03*
X323874D02*
D03*
X345528Y246869D02*
D03*
X341197D02*
D03*
X336866D02*
D03*
X332535D02*
D03*
X328205D02*
D03*
X323874D02*
D03*
X345528Y251200D02*
D03*
X341197D02*
D03*
X336866D02*
D03*
X332535D02*
D03*
X328205D02*
D03*
X323874D02*
D03*
X345528Y255531D02*
D03*
X341197D02*
D03*
X336866D02*
D03*
X332535D02*
D03*
X328205D02*
D03*
X323874D02*
D03*
X345528Y259861D02*
D03*
X341197D02*
D03*
X336866D02*
D03*
X332535D02*
D03*
X328205D02*
D03*
X323874D02*
D03*
X345528Y264192D02*
D03*
X341197D02*
D03*
X336866D02*
D03*
X332535D02*
D03*
X328205D02*
D03*
X323874D02*
D03*
X144974Y264492D02*
D03*
X149305D02*
D03*
X153635D02*
D03*
X157966D02*
D03*
X162297D02*
D03*
X166628D02*
D03*
X144974Y260161D02*
D03*
X149305D02*
D03*
X153635D02*
D03*
X157966D02*
D03*
X162297D02*
D03*
X166628D02*
D03*
X144974Y255831D02*
D03*
X149305D02*
D03*
X153635D02*
D03*
X157966D02*
D03*
X162297D02*
D03*
X166628D02*
D03*
X144974Y251500D02*
D03*
X149305D02*
D03*
X153635D02*
D03*
X157966D02*
D03*
X162297D02*
D03*
X166628D02*
D03*
X144974Y247169D02*
D03*
X149305D02*
D03*
X153635D02*
D03*
X157966D02*
D03*
X162297D02*
D03*
X166628D02*
D03*
X144974Y242839D02*
D03*
X149305D02*
D03*
X153635D02*
D03*
X157966D02*
D03*
X162297D02*
D03*
X166628D02*
D03*
M02*
