G04*
G04 #@! TF.GenerationSoftware,Altium Limited,Altium Designer,21.1.1 (26)*
G04*
G04 Layer_Color=32768*
%FSLAX25Y25*%
%MOIN*%
G70*
G04*
G04 #@! TF.SameCoordinates,1DE770B5-5229-4C7E-BA00-58D6BC8AB395*
G04*
G04*
G04 #@! TF.FilePolarity,Positive*
G04*
G01*
G75*
%ADD12C,0.01181*%
%ADD15C,0.00800*%
%ADD218C,0.00394*%
%ADD222C,0.00197*%
D12*
X339433Y317112D02*
G03*
X339433Y317112I-591J0D01*
G01*
D15*
X289900Y334555D02*
Y338492D01*
X287931Y336524D02*
X291868D01*
X287931Y318807D02*
X291868D01*
X250232Y372870D02*
X254169D01*
X250232Y390587D02*
X254169D01*
X252200Y388618D02*
Y392555D01*
X244032Y372894D02*
X247969D01*
X244032Y390610D02*
X247969D01*
X246000Y388642D02*
Y392579D01*
X377787Y247865D02*
X381724D01*
X379756Y245897D02*
Y249834D01*
X362039Y245897D02*
Y249834D01*
X285987Y185965D02*
X289924D01*
X287956Y183997D02*
Y187934D01*
X270239Y183997D02*
Y187934D01*
X198887Y248165D02*
X202824D01*
X200856Y246197D02*
Y250134D01*
X183139Y246197D02*
Y250134D01*
X106722Y185431D02*
X110659D01*
X108691Y183462D02*
Y187399D01*
X90974Y183462D02*
Y187399D01*
X377787Y254865D02*
X381724D01*
X379756Y252897D02*
Y256834D01*
X362039Y252897D02*
Y256834D01*
X285987Y192965D02*
X289924D01*
X287956Y190997D02*
Y194934D01*
X270239Y190997D02*
Y194934D01*
X198887Y255165D02*
X202824D01*
X200856Y253197D02*
Y257134D01*
X183139Y253197D02*
Y257134D01*
X106722Y192431D02*
X110659D01*
X108691Y190462D02*
Y194399D01*
X90974Y190462D02*
Y194399D01*
D218*
X108403Y343018D02*
Y346955D01*
X106434Y344987D02*
X110371D01*
X361432Y162000D02*
X365369D01*
X363400Y160031D02*
Y163969D01*
X252532Y342400D02*
X256469D01*
X254500Y340431D02*
Y344369D01*
X240932Y191465D02*
X244869D01*
X242901Y189497D02*
Y193434D01*
X99134Y364587D02*
X103071D01*
X101103Y362618D02*
Y366555D01*
X116016Y382618D02*
Y386555D01*
X114048Y384587D02*
X117984D01*
X106532Y324700D02*
X110468D01*
X108500Y322731D02*
Y326669D01*
X95531Y365000D02*
X99468D01*
X97500Y363032D02*
Y366968D01*
X26600Y261332D02*
Y265268D01*
X24632Y263300D02*
X28569D01*
X61667Y190931D02*
X65604D01*
X63635Y188962D02*
Y192899D01*
X332732Y253365D02*
X336669D01*
X334701Y251397D02*
Y255334D01*
X155801Y251697D02*
Y255634D01*
X153832Y253665D02*
X157769D01*
D222*
X100135Y351876D02*
X116670D01*
X100135Y338097D02*
X116670D01*
Y351876D01*
X100135Y338097D02*
Y351876D01*
X371609Y154913D02*
Y169087D01*
X355191Y154913D02*
Y169087D01*
X371609D01*
X355191Y154913D02*
X371609D01*
X236488Y324388D02*
Y360412D01*
X272512Y324388D02*
Y360412D01*
X236488D02*
X272512D01*
X236488Y324388D02*
X272512D01*
X260913Y173454D02*
Y209477D01*
X224889Y173454D02*
Y209477D01*
Y173454D02*
X260913D01*
X224889Y209477D02*
X260913D01*
X86437Y353366D02*
Y375807D01*
X115768Y353366D02*
Y375807D01*
X86437Y353366D02*
X115768D01*
X86437Y375807D02*
X115768D01*
X105484Y391673D02*
X126548D01*
X105484Y377500D02*
X126548D01*
Y391673D01*
X105484Y377500D02*
Y391673D01*
X97969Y317613D02*
Y331787D01*
X119032Y317613D02*
Y331787D01*
X97969Y317613D02*
X119032D01*
X97969Y331787D02*
X119032D01*
X104587Y354468D02*
Y375532D01*
X90413Y354468D02*
Y375532D01*
X104587D01*
X90413Y354468D02*
X104587D01*
X18391Y256213D02*
X34809D01*
X18391Y270387D02*
X34809D01*
X18391Y256213D02*
Y270387D01*
X34809Y256213D02*
Y270387D01*
X81647Y172919D02*
Y208943D01*
X45624Y172919D02*
Y208943D01*
Y172919D02*
X81647D01*
X45624Y208943D02*
X81647D01*
X352713Y235354D02*
Y271377D01*
X316689Y235354D02*
Y271377D01*
Y235354D02*
X352713D01*
X316689Y271377D02*
X352713D01*
X137789Y271677D02*
X173813D01*
X137789Y235653D02*
X173813D01*
X137789D02*
Y271677D01*
X173813Y235653D02*
Y271677D01*
M02*
