G04*
G04 #@! TF.GenerationSoftware,Altium Limited,Altium Designer,21.1.1 (26)*
G04*
G04 Layer_Physical_Order=3*
G04 Layer_Color=16776960*
%FSLAX25Y25*%
%MOIN*%
G70*
G04*
G04 #@! TF.SameCoordinates,1DE770B5-5229-4C7E-BA00-58D6BC8AB395*
G04*
G04*
G04 #@! TF.FilePolarity,Negative*
G04*
G01*
G75*
%ADD10C,0.01000*%
%ADD94C,0.04000*%
%ADD95C,0.08055*%
%ADD96C,0.07504*%
%ADD97C,0.16598*%
%ADD98C,0.05500*%
%ADD99C,0.05200*%
%ADD100C,0.04787*%
%ADD101C,0.04800*%
%ADD102C,0.05000*%
%ADD103O,0.07150X0.14236*%
%ADD104C,0.10181*%
%ADD105C,0.06800*%
G36*
X21413Y379760D02*
X22488Y379315D01*
X23455Y378669D01*
X24278Y377846D01*
X24924Y376879D01*
X25369Y375804D01*
X25596Y374663D01*
Y374082D01*
Y373500D01*
X25369Y372359D01*
X24924Y371285D01*
X24278Y370317D01*
X23455Y369495D01*
X22488Y368848D01*
X21413Y368403D01*
X20272Y368176D01*
X19109D01*
X17968Y368403D01*
X16894Y368848D01*
X15926Y369495D01*
X15104Y370317D01*
X14457Y371285D01*
X14012Y372359D01*
X13785Y373500D01*
Y374082D01*
Y374663D01*
X14012Y375804D01*
X14457Y376879D01*
X15104Y377846D01*
X15926Y378669D01*
X16894Y379315D01*
X17968Y379760D01*
X19109Y379987D01*
X20272D01*
X21413Y379760D01*
D02*
G37*
G36*
X375704Y379688D02*
X376779Y379243D01*
X377746Y378596D01*
X378569Y377774D01*
X379215Y376806D01*
X379660Y375732D01*
X379887Y374591D01*
Y374009D01*
Y373428D01*
X379660Y372287D01*
X379215Y371212D01*
X378569Y370245D01*
X377746Y369422D01*
X376779Y368776D01*
X375704Y368331D01*
X374564Y368104D01*
X373400D01*
X372259Y368331D01*
X371184Y368776D01*
X370217Y369422D01*
X369395Y370245D01*
X368748Y371212D01*
X368303Y372287D01*
X368076Y373428D01*
Y374009D01*
Y374591D01*
X368303Y375732D01*
X368748Y376806D01*
X369395Y377774D01*
X370217Y378596D01*
X371184Y379243D01*
X372259Y379688D01*
X373400Y379915D01*
X374564D01*
X375704Y379688D01*
D02*
G37*
G36*
X375823Y25879D02*
X376897Y25433D01*
X377865Y24787D01*
X378687Y23965D01*
X379333Y22997D01*
X379779Y21923D01*
X380006Y20782D01*
Y20200D01*
Y19618D01*
X379779Y18477D01*
X379333Y17403D01*
X378687Y16435D01*
X377865Y15613D01*
X376897Y14967D01*
X375823Y14521D01*
X374682Y14295D01*
X373518D01*
X372377Y14521D01*
X371303Y14967D01*
X370335Y15613D01*
X369513Y16435D01*
X368867Y17403D01*
X368421Y18477D01*
X368195Y19618D01*
Y20200D01*
Y20782D01*
X368421Y21923D01*
X368867Y22997D01*
X369513Y23965D01*
X370335Y24787D01*
X371303Y25433D01*
X372377Y25879D01*
X373518Y26105D01*
X374682D01*
X375823Y25879D01*
D02*
G37*
G36*
X21423Y25364D02*
X22497Y24918D01*
X23464Y24272D01*
X24287Y23450D01*
X24933Y22482D01*
X25379Y21408D01*
X25605Y20267D01*
Y19685D01*
Y19103D01*
X25379Y17963D01*
X24933Y16888D01*
X24287Y15921D01*
X23464Y15098D01*
X22497Y14452D01*
X21423Y14006D01*
X20282Y13780D01*
X19118D01*
X17977Y14006D01*
X16903Y14452D01*
X15935Y15098D01*
X15113Y15921D01*
X14467Y16888D01*
X14021Y17963D01*
X13794Y19103D01*
Y19685D01*
Y20267D01*
X14021Y21408D01*
X14467Y22482D01*
X15113Y23450D01*
X15935Y24272D01*
X16903Y24918D01*
X17977Y25364D01*
X19118Y25591D01*
X20282D01*
X21423Y25364D01*
D02*
G37*
D10*
X194100Y207800D02*
X198000Y211700D01*
X174330Y188030D02*
X192900Y206600D01*
X194100Y207800D01*
X174330Y144170D02*
Y188030D01*
X198000Y211700D02*
Y231800D01*
X287300Y175600D02*
X360300D01*
X278800Y69100D02*
Y167100D01*
X287300Y175600D01*
X360300D02*
X367500Y182800D01*
X393800D01*
X273000Y63300D02*
X278800Y69100D01*
X262900Y63300D02*
X273000D01*
X192100D02*
X262900D01*
X187300Y68100D02*
X192100Y63300D01*
X187300Y68100D02*
Y131200D01*
X174330Y144170D02*
X187300Y131200D01*
X198000Y231800D02*
X201700Y235500D01*
X246000D01*
X249300Y238800D01*
Y281400D01*
X258100Y290200D01*
X393800D01*
X340200Y193900D02*
X357800D01*
X360400Y196500D01*
Y200400D01*
Y201600D01*
Y200400D02*
X373600D01*
X332000Y193900D02*
X340200D01*
X257000D02*
X332000D01*
X221400Y224400D02*
X258600D01*
X217600Y220600D02*
X221400Y224400D01*
X217600Y190900D02*
Y220600D01*
Y190900D02*
X219500Y189000D01*
X228800D01*
X256900Y166500D02*
Y179540D01*
X253400Y163000D02*
X256900Y166500D01*
X195900Y163000D02*
X253400D01*
X193200Y165700D02*
X195900Y163000D01*
X193200Y165700D02*
Y177800D01*
X194500Y179100D01*
X194700D01*
X228621D01*
X228900Y203600D02*
X231200Y205900D01*
X254549D01*
X256900Y203549D01*
Y179540D02*
Y203549D01*
X254794Y177434D02*
X256900Y179540D01*
X230846Y177434D02*
X254794D01*
X228900Y179379D02*
X230846Y177434D01*
X228900Y179379D02*
Y203600D01*
X307500Y272100D02*
Y279200D01*
X309100Y280800D01*
X374300D01*
X376900Y278200D01*
Y277400D02*
Y278200D01*
Y203700D02*
Y277400D01*
X373600Y200400D02*
X376900Y203700D01*
X100700Y230600D02*
Y241900D01*
X103100Y244300D01*
X79200Y230600D02*
X100700D01*
X104000Y215400D02*
Y227300D01*
Y215400D02*
X108100Y211300D01*
X110200D01*
X98900Y194300D02*
X100600Y192600D01*
Y177000D02*
X131400D01*
X138300Y183900D01*
Y211300D01*
X340000Y221900D02*
X345500D01*
X348400Y224800D01*
Y241000D01*
X360400Y201600D02*
Y271400D01*
X357200Y274600D02*
X360400Y271400D01*
X310000Y274600D02*
X357200D01*
X307500Y272100D02*
X310000Y274600D01*
X307500Y252500D02*
Y272100D01*
Y252500D02*
X309100Y250900D01*
X320800D01*
X320900Y265971D02*
X322129Y267200D01*
X346900D01*
X348400Y265700D01*
Y241000D02*
Y265700D01*
X347100Y239700D02*
X348400Y241000D01*
X322278Y239700D02*
X347100D01*
X320900Y241078D02*
X322278Y239700D01*
X320900Y241078D02*
Y265971D01*
X73800Y236000D02*
Y253800D01*
Y236000D02*
X79200Y230600D01*
X73800Y253800D02*
X78500Y258500D01*
X120300D01*
X127300Y251500D01*
X130600D01*
X141800D01*
X294800Y234800D02*
X304700D01*
X292200Y237400D02*
X294800Y234800D01*
X292200Y237400D02*
Y243300D01*
X289900Y245600D02*
X292200Y243300D01*
X261100Y245600D02*
X289900D01*
X258600Y243100D02*
X261100Y245600D01*
X258600Y224400D02*
Y243100D01*
Y224400D02*
X261100Y221900D01*
X340000D01*
X341200Y222000D02*
Y231600D01*
X339400Y233400D02*
X341200Y231600D01*
X319300Y233400D02*
X339400D01*
X317900Y234800D02*
X319300Y233400D01*
X304700Y234800D02*
X317900D01*
X103100Y244300D02*
X133300D01*
X100700Y230600D02*
X104000Y227300D01*
X68800Y286500D02*
Y312700D01*
Y286500D02*
X73300Y282000D01*
X182800Y260800D02*
X216000D01*
X221100Y265900D01*
Y284300D01*
X216100Y289300D02*
X221100Y284300D01*
X166500Y289300D02*
X216100D01*
X159200Y282000D02*
X166500Y289300D01*
X73300Y282000D02*
X159200D01*
X104000Y227300D02*
X151400D01*
X110200Y211300D02*
X128900D01*
X180500Y227300D02*
X182800Y229600D01*
X151400Y227300D02*
X180500D01*
X182700Y213400D02*
Y236900D01*
X180600Y211300D02*
X182700Y213400D01*
X169500Y266400D02*
Y276300D01*
X170300Y277100D01*
X181800D01*
X182700Y276200D01*
Y236900D02*
Y276200D01*
X178177Y232377D02*
X182700Y236900D01*
X135323Y232377D02*
X178177D01*
X133300Y234400D02*
X135323Y232377D01*
X133300Y234400D02*
Y244300D01*
X143500Y239200D02*
X167700D01*
X169500Y241000D01*
Y266400D01*
X168000Y267900D02*
X169500Y266400D01*
X143400Y267900D02*
X168000D01*
X141700Y266200D02*
X143400Y267900D01*
X141700Y264700D02*
Y266200D01*
X89300Y193100D02*
Y214100D01*
X88300Y215100D02*
X89300Y214100D01*
X78500Y215100D02*
X88300D01*
X77600Y214200D02*
X78500Y215100D01*
X77600Y204300D02*
Y214200D01*
X48900Y230400D02*
Y302600D01*
X36500Y192000D02*
X37500Y191000D01*
X36500Y192000D02*
Y230300D01*
X42800Y230400D02*
X48900D01*
X41950D02*
X42800D01*
X41700D02*
X42200D01*
Y309300D02*
X48900Y302600D01*
X200Y230400D02*
X41700D01*
X98700Y194500D02*
X98900Y194300D01*
X89400Y194500D02*
X98700D01*
X100600Y157800D02*
Y192600D01*
X97500Y154700D02*
X100600Y157800D01*
X0Y154700D02*
X97500D01*
X89300Y166900D02*
Y172600D01*
X86738Y164338D02*
X89300Y166900D01*
X74838Y164338D02*
X86738D01*
X76100Y170400D02*
X87100D01*
X89300Y172600D01*
Y193100D01*
X75739Y177239D02*
X77600Y179100D01*
X42400Y189300D02*
X49100D01*
X40700Y191000D02*
X42400Y189300D01*
X37500Y191000D02*
X40700D01*
X45600Y170400D02*
X76100D01*
X42100Y173900D02*
X45600Y170400D01*
X42100Y173900D02*
Y184000D01*
X77600Y179100D02*
Y204300D01*
X51661Y177239D02*
X75739D01*
X75500Y206400D02*
X77600Y204300D01*
X50600Y206400D02*
X75500D01*
X49000Y204800D02*
X50600Y206400D01*
X49000Y179900D02*
Y204800D01*
X0Y164300D02*
X38Y164338D01*
X37962D01*
X0Y184000D02*
X42100D01*
X37962Y164338D02*
X74838D01*
X50Y191100D02*
Y199250D01*
X48867Y202767D02*
X49100Y203000D01*
X128900Y211300D02*
X180600D01*
X141700Y241000D02*
Y264700D01*
Y241000D02*
X143500Y239200D01*
X22400Y309300D02*
X42200D01*
X18400Y313300D02*
X22400Y309300D01*
X18400Y313300D02*
Y328600D01*
X21800Y332000D01*
X49500D01*
X68800Y312700D01*
X0Y314300D02*
X200Y314100D01*
X0Y167100D02*
X1500Y168600D01*
X286300Y330400D02*
X288200Y332300D01*
X278100Y330400D02*
X286300D01*
X265700D02*
X267600Y332300D01*
X256100Y367400D02*
Y373600D01*
Y367400D02*
X256900Y366600D01*
X135900Y393700D02*
X136700D01*
X265200Y355700D02*
X267600Y353300D01*
X240700Y355700D02*
X265200D01*
X232700Y363700D02*
X240700Y355700D01*
X148700Y359800D02*
X152550Y363650D01*
X49000Y179900D02*
X51661Y177239D01*
X278100Y330400D02*
X280200Y328300D01*
X243100Y330400D02*
X278100D01*
X280200Y316400D02*
Y328300D01*
X286400Y362621D02*
Y364400D01*
X284200Y366600D02*
X286400Y364400D01*
X267079Y366600D02*
X284200D01*
X286400Y342200D02*
Y345600D01*
X287900Y337300D02*
X288261Y336940D01*
Y315339D02*
Y336940D01*
Y315339D02*
X290400Y313200D01*
X320600D01*
X322800Y315400D01*
Y383100D01*
X312100Y393800D02*
X322800Y383100D01*
X277600Y313800D02*
X280200Y316400D01*
X148700Y316121D02*
Y359800D01*
Y316121D02*
X151021Y313800D01*
X240600Y332900D02*
Y355600D01*
Y332900D02*
X243100Y330400D01*
X151021Y313800D02*
X277600D01*
X126800Y363700D02*
X232700D01*
X286400Y345600D02*
Y362621D01*
X135650Y376200D02*
X253500Y376200D01*
X256100Y373600D01*
X267600Y332300D02*
Y353300D01*
X121500Y369000D02*
X126800Y363700D01*
X56500Y369000D02*
X121500D01*
X53400Y372100D02*
X56500Y369000D01*
X53400Y372100D02*
Y388958D01*
X58221Y393779D01*
X286400Y338800D02*
X287900Y337300D01*
X286400Y338800D02*
Y342200D01*
X256900Y366600D02*
X267079D01*
X131700Y389500D02*
X135900Y393700D01*
X131700Y380200D02*
X135650Y376250D01*
X131700Y380200D02*
Y389500D01*
D94*
X374214Y393749D02*
X376833Y393503D01*
X372900Y393700D02*
X374214Y393749D01*
X19300Y393700D02*
X372900Y393700D01*
X17986Y393651D02*
X19300Y393700D01*
X15393Y393210D02*
X17986Y393651D01*
X12880Y392435D02*
X15393Y393210D01*
X10489Y391338D02*
X12880Y392435D01*
X8262Y389939D02*
X10489Y391338D01*
X6237Y388261D02*
X8262Y389939D01*
X4448Y386333D02*
X6237Y388261D01*
X2926Y384188D02*
X4448Y386333D01*
X1697Y381863D02*
X2926Y384188D01*
X782Y379397D02*
X1697Y381863D01*
X196Y376833D02*
X782Y379397D01*
X-49Y374214D02*
X196Y376833D01*
X-49Y374214D02*
X0Y372900D01*
X-0Y19300D02*
X0Y372900D01*
X-0Y19300D02*
X49Y17986D01*
X490Y15393D01*
X1265Y12880D01*
X2362Y10489D01*
X3761Y8262D01*
X5439Y6237D01*
X7367Y4448D01*
X9512Y2926D01*
X11837Y1697D01*
X14303Y782D01*
X16867Y196D01*
X19486Y-49D01*
X20800Y0D01*
X374400D01*
X375714Y49D01*
X378307Y490D01*
X380820Y1265D01*
X383211Y2362D01*
X385438Y3761D01*
X387463Y5439D01*
X389252Y7367D01*
X390774Y9512D01*
X392003Y11837D01*
X392918Y14303D01*
X393504Y16867D01*
X393749Y19486D01*
X393700Y20800D02*
X393749Y19486D01*
X393700Y374400D02*
X393700Y20800D01*
X393651Y375714D02*
X393700Y374400D01*
X393210Y378307D02*
X393651Y375714D01*
X392435Y380820D02*
X393210Y378307D01*
X391338Y383211D02*
X392435Y380820D01*
X389939Y385438D02*
X391338Y383211D01*
X388261Y387463D02*
X389939Y385438D01*
X386333Y389252D02*
X388261Y387463D01*
X384188Y390774D02*
X386333Y389252D01*
X381863Y392003D02*
X384188Y390774D01*
X379397Y392918D02*
X381863Y392003D01*
X376833Y393503D02*
X379397Y392918D01*
X374682Y26105D02*
X375823Y25879D01*
X376897Y25433D01*
X377865Y24787D01*
X378687Y23965D01*
X379333Y22997D01*
X379779Y21923D01*
X380006Y20782D01*
Y20200D02*
Y20782D01*
Y19618D02*
Y20200D01*
X379779Y18477D02*
X380006Y19618D01*
X379333Y17403D02*
X379779Y18477D01*
X378687Y16435D02*
X379333Y17403D01*
X377865Y15613D02*
X378687Y16435D01*
X376897Y14967D02*
X377865Y15613D01*
X375823Y14521D02*
X376897Y14967D01*
X374682Y14295D02*
X375823Y14521D01*
X373518Y14295D02*
X374682D01*
X372377Y14521D02*
X373518Y14295D01*
X371303Y14967D02*
X372377Y14521D01*
X370335Y15613D02*
X371303Y14967D01*
X369513Y16435D02*
X370335Y15613D01*
X368867Y17403D02*
X369513Y16435D01*
X368421Y18477D02*
X368867Y17403D01*
X368195Y19618D02*
X368421Y18477D01*
X368195Y19618D02*
Y20200D01*
Y20782D01*
X368421Y21923D01*
X368867Y22997D01*
X369513Y23965D01*
X370335Y24787D01*
X371303Y25433D01*
X372377Y25879D01*
X373518Y26105D01*
X374682D01*
X374564Y379915D02*
X375704Y379688D01*
X376779Y379243D01*
X377746Y378596D01*
X378569Y377774D01*
X379215Y376806D01*
X379660Y375732D01*
X379887Y374591D01*
Y374009D02*
Y374591D01*
Y373428D02*
Y374009D01*
X379660Y372287D02*
X379887Y373428D01*
X379215Y371212D02*
X379660Y372287D01*
X378569Y370245D02*
X379215Y371212D01*
X377746Y369422D02*
X378569Y370245D01*
X376779Y368776D02*
X377746Y369422D01*
X375704Y368331D02*
X376779Y368776D01*
X374564Y368104D02*
X375704Y368331D01*
X373400Y368104D02*
X374564D01*
X372259Y368331D02*
X373400Y368104D01*
X371184Y368776D02*
X372259Y368331D01*
X370217Y369422D02*
X371184Y368776D01*
X369395Y370245D02*
X370217Y369422D01*
X368748Y371212D02*
X369395Y370245D01*
X368303Y372287D02*
X368748Y371212D01*
X368076Y373428D02*
X368303Y372287D01*
X368076Y373428D02*
Y374009D01*
Y374591D01*
X368303Y375732D01*
X368748Y376806D01*
X369395Y377774D01*
X370217Y378596D01*
X371184Y379243D01*
X372259Y379688D01*
X373400Y379915D01*
X374564D01*
X20272Y379987D02*
X21413Y379760D01*
X22488Y379315D01*
X23455Y378669D01*
X24278Y377846D01*
X24924Y376879D01*
X25369Y375804D01*
X25596Y374663D01*
Y374082D02*
Y374663D01*
Y373500D02*
Y374082D01*
X25369Y372359D02*
X25596Y373500D01*
X24924Y371285D02*
X25369Y372359D01*
X24278Y370317D02*
X24924Y371285D01*
X23455Y369495D02*
X24278Y370317D01*
X22488Y368848D02*
X23455Y369495D01*
X21413Y368403D02*
X22488Y368848D01*
X20272Y368176D02*
X21413Y368403D01*
X19109Y368176D02*
X20272D01*
X17968Y368403D02*
X19109Y368176D01*
X16894Y368848D02*
X17968Y368403D01*
X15926Y369495D02*
X16894Y368848D01*
X15104Y370317D02*
X15926Y369495D01*
X14457Y371285D02*
X15104Y370317D01*
X14012Y372359D02*
X14457Y371285D01*
X13785Y373500D02*
X14012Y372359D01*
X13785Y373500D02*
Y374082D01*
Y374663D01*
X14012Y375804D01*
X14457Y376879D01*
X15104Y377846D01*
X15926Y378669D01*
X16894Y379315D01*
X17968Y379760D01*
X19109Y379987D01*
X20272D01*
X20282Y25591D02*
X21423Y25364D01*
X22497Y24918D01*
X23464Y24272D01*
X24287Y23450D01*
X24933Y22482D01*
X25379Y21408D01*
X25605Y20267D01*
Y19685D02*
Y20267D01*
Y19103D02*
Y19685D01*
X25379Y17963D02*
X25605Y19103D01*
X24933Y16888D02*
X25379Y17963D01*
X24287Y15921D02*
X24933Y16888D01*
X23464Y15098D02*
X24287Y15921D01*
X22497Y14452D02*
X23464Y15098D01*
X21423Y14006D02*
X22497Y14452D01*
X20282Y13780D02*
X21423Y14006D01*
X19118Y13780D02*
X20282D01*
X17977Y14006D02*
X19118Y13780D01*
X16903Y14452D02*
X17977Y14006D01*
X15935Y15098D02*
X16903Y14452D01*
X15113Y15921D02*
X15935Y15098D01*
X14467Y16888D02*
X15113Y15921D01*
X14021Y17963D02*
X14467Y16888D01*
X13794Y19103D02*
X14021Y17963D01*
X13794Y19103D02*
Y19685D01*
Y20267D01*
X14021Y21408D01*
X14467Y22482D01*
X15113Y23450D01*
X15935Y24272D01*
X16903Y24918D01*
X17977Y25364D01*
X19118Y25591D01*
X20282D01*
D95*
X49724Y124766D02*
D03*
X59724D02*
D03*
X97677D02*
D03*
X87677D02*
D03*
X292424Y124765D02*
D03*
X302424D02*
D03*
X340377D02*
D03*
X330377D02*
D03*
X212224D02*
D03*
X222224D02*
D03*
X260177D02*
D03*
X250177D02*
D03*
X130824Y124766D02*
D03*
X140824D02*
D03*
X178777D02*
D03*
X168777D02*
D03*
D96*
X49705Y114766D02*
D03*
X57697D02*
D03*
X65689D02*
D03*
X97697D02*
D03*
X89705D02*
D03*
X81713D02*
D03*
X53720Y104766D02*
D03*
X61713D02*
D03*
X69705D02*
D03*
X93681D02*
D03*
X85689D02*
D03*
X77697D02*
D03*
X292405Y114765D02*
D03*
X300397D02*
D03*
X308389D02*
D03*
X340397D02*
D03*
X332405D02*
D03*
X324413D02*
D03*
X296421Y104765D02*
D03*
X304413D02*
D03*
X312405D02*
D03*
X336381D02*
D03*
X328389D02*
D03*
X320397D02*
D03*
X212205Y114765D02*
D03*
X220197D02*
D03*
X228189D02*
D03*
X260197D02*
D03*
X252205D02*
D03*
X244213D02*
D03*
X216220Y104765D02*
D03*
X224213D02*
D03*
X232205D02*
D03*
X256181D02*
D03*
X248189D02*
D03*
X240197D02*
D03*
X130805Y114766D02*
D03*
X138797D02*
D03*
X146789D02*
D03*
X178797D02*
D03*
X170805D02*
D03*
X162813D02*
D03*
X134820Y104766D02*
D03*
X142813D02*
D03*
X150805D02*
D03*
X174781D02*
D03*
X166789D02*
D03*
X158797D02*
D03*
D97*
X48701Y44766D02*
D03*
X98701D02*
D03*
X291401Y44765D02*
D03*
X341401D02*
D03*
X211201D02*
D03*
X261201D02*
D03*
X129801Y44766D02*
D03*
X179801D02*
D03*
D98*
X59053Y320400D02*
D03*
X56053D02*
D03*
X108500Y242300D02*
D03*
X112682Y242290D02*
D03*
X75600Y250700D02*
D03*
Y246200D02*
D03*
Y241100D02*
D03*
X289745Y141612D02*
D03*
X275157Y139209D02*
D03*
X169211Y206218D02*
D03*
X113435Y124696D02*
D03*
X109116Y144483D02*
D03*
X295000Y348700D02*
D03*
Y345700D02*
D03*
X303400Y356200D02*
D03*
Y359200D02*
D03*
X171298Y210594D02*
D03*
X309500Y366800D02*
D03*
X288700Y350700D02*
D03*
X327300Y386900D02*
D03*
X320700Y389700D02*
D03*
X243000Y389900D02*
D03*
X239200Y387000D02*
D03*
X315200Y375250D02*
D03*
Y378250D02*
D03*
X337135Y303600D02*
D03*
X340135D02*
D03*
X248335Y246800D02*
D03*
X245335D02*
D03*
X309500Y369800D02*
D03*
X168300Y298900D02*
D03*
Y301900D02*
D03*
X84800Y272300D02*
D03*
Y269300D02*
D03*
D99*
X292150Y335300D02*
D03*
X294850D02*
D03*
D100*
X365369Y163969D02*
D03*
X361432D02*
D03*
X365369Y160031D02*
D03*
X361432D02*
D03*
X245839Y351061D02*
D03*
X250169D02*
D03*
X254500D02*
D03*
X258831D02*
D03*
X263161D02*
D03*
X245839Y346731D02*
D03*
X250169D02*
D03*
X254500D02*
D03*
X258831D02*
D03*
X263161D02*
D03*
X245839Y342400D02*
D03*
X250169D02*
D03*
X254500D02*
D03*
X258831D02*
D03*
X263161D02*
D03*
X245839Y338069D02*
D03*
X250169D02*
D03*
X254500D02*
D03*
X258831D02*
D03*
X263161D02*
D03*
X245839Y333739D02*
D03*
X250169D02*
D03*
X254500D02*
D03*
X258831D02*
D03*
X263161D02*
D03*
X253728Y180639D02*
D03*
X249397D02*
D03*
X245066D02*
D03*
X240735D02*
D03*
X236405D02*
D03*
X232074D02*
D03*
X253728Y184969D02*
D03*
X249397D02*
D03*
X245066D02*
D03*
X240735D02*
D03*
X236405D02*
D03*
X232074D02*
D03*
X253728Y189300D02*
D03*
X249397D02*
D03*
X245066D02*
D03*
X240735D02*
D03*
X236405D02*
D03*
X232074D02*
D03*
X253728Y193631D02*
D03*
X249397D02*
D03*
X245066D02*
D03*
X240735D02*
D03*
X236405D02*
D03*
X232074D02*
D03*
X253728Y197961D02*
D03*
X249397D02*
D03*
X245066D02*
D03*
X240735D02*
D03*
X236405D02*
D03*
X232074D02*
D03*
X253728Y202292D02*
D03*
X249397D02*
D03*
X245066D02*
D03*
X240735D02*
D03*
X236405D02*
D03*
X232074D02*
D03*
X24632Y261332D02*
D03*
X28569D02*
D03*
X24632Y265268D02*
D03*
X28569D02*
D03*
X74462Y180104D02*
D03*
X70131D02*
D03*
X65801D02*
D03*
X61470D02*
D03*
X57139D02*
D03*
X52809D02*
D03*
X74462Y184435D02*
D03*
X70131D02*
D03*
X65801D02*
D03*
X61470D02*
D03*
X57139D02*
D03*
X52809D02*
D03*
X74462Y188765D02*
D03*
X70131D02*
D03*
X65801D02*
D03*
X61470D02*
D03*
X57139D02*
D03*
X52809D02*
D03*
X74462Y193096D02*
D03*
X70131D02*
D03*
X65801D02*
D03*
X61470D02*
D03*
X57139D02*
D03*
X52809D02*
D03*
X74462Y197427D02*
D03*
X70131D02*
D03*
X65801D02*
D03*
X61470D02*
D03*
X57139D02*
D03*
X52809D02*
D03*
X74462Y201758D02*
D03*
X70131D02*
D03*
X65801D02*
D03*
X61470D02*
D03*
X57139D02*
D03*
X52809D02*
D03*
X345528Y242539D02*
D03*
X341197D02*
D03*
X336866D02*
D03*
X332535D02*
D03*
X328205D02*
D03*
X323874D02*
D03*
X345528Y246869D02*
D03*
X341197D02*
D03*
X336866D02*
D03*
X332535D02*
D03*
X328205D02*
D03*
X323874D02*
D03*
X345528Y251200D02*
D03*
X341197D02*
D03*
X336866D02*
D03*
X332535D02*
D03*
X328205D02*
D03*
X323874D02*
D03*
X345528Y255531D02*
D03*
X341197D02*
D03*
X336866D02*
D03*
X332535D02*
D03*
X328205D02*
D03*
X323874D02*
D03*
X345528Y259861D02*
D03*
X341197D02*
D03*
X336866D02*
D03*
X332535D02*
D03*
X328205D02*
D03*
X323874D02*
D03*
X345528Y264192D02*
D03*
X341197D02*
D03*
X336866D02*
D03*
X332535D02*
D03*
X328205D02*
D03*
X323874D02*
D03*
X144974Y264492D02*
D03*
X149305D02*
D03*
X153635D02*
D03*
X157966D02*
D03*
X162297D02*
D03*
X166628D02*
D03*
X144974Y260161D02*
D03*
X149305D02*
D03*
X153635D02*
D03*
X157966D02*
D03*
X162297D02*
D03*
X166628D02*
D03*
X144974Y255831D02*
D03*
X149305D02*
D03*
X153635D02*
D03*
X157966D02*
D03*
X162297D02*
D03*
X166628D02*
D03*
X144974Y251500D02*
D03*
X149305D02*
D03*
X153635D02*
D03*
X157966D02*
D03*
X162297D02*
D03*
X166628D02*
D03*
X144974Y247169D02*
D03*
X149305D02*
D03*
X153635D02*
D03*
X157966D02*
D03*
X162297D02*
D03*
X166628D02*
D03*
X144974Y242839D02*
D03*
X149305D02*
D03*
X153635D02*
D03*
X157966D02*
D03*
X162297D02*
D03*
X166628D02*
D03*
X125661Y242916D02*
D03*
X326900Y276700D02*
D03*
X261000Y225900D02*
D03*
X56300Y214300D02*
D03*
X63473Y213800D02*
D03*
X64500Y217200D02*
D03*
X40400Y177800D02*
D03*
X41000Y174600D02*
D03*
X31400Y173700D02*
D03*
X43600Y190600D02*
D03*
X130900Y152400D02*
D03*
X148600Y276200D02*
D03*
X155688Y275400D02*
D03*
X156500Y278800D02*
D03*
X180900Y257500D02*
D03*
X134770Y237256D02*
D03*
X264700Y365400D02*
D03*
X362100Y124800D02*
D03*
X362200Y129400D02*
D03*
X330000Y224900D02*
D03*
X354900Y255800D02*
D03*
X312580Y225044D02*
D03*
X314592Y239325D02*
D03*
X312400Y232300D02*
D03*
X307800Y227600D02*
D03*
X132200Y253300D02*
D03*
X72729Y258198D02*
D03*
X87300Y194500D02*
D03*
X238800Y161600D02*
D03*
X221700Y179000D02*
D03*
X235500Y215300D02*
D03*
X334588Y275400D02*
D03*
X242880Y214023D02*
D03*
X243800Y219700D02*
D03*
X257500Y210700D02*
D03*
X250300Y138400D02*
D03*
X246900Y151600D02*
D03*
X252700Y230900D02*
D03*
X348700Y272400D02*
D03*
X45800Y344400D02*
D03*
X28700Y191300D02*
D03*
X28600Y204900D02*
D03*
D101*
X21118Y256629D02*
D03*
X32100Y270100D02*
D03*
D102*
X207801Y359990D02*
D03*
X209995Y360843D02*
D03*
X300600Y249800D02*
D03*
X297000D02*
D03*
X6900Y243500D02*
D03*
X3200Y243700D02*
D03*
X5000Y246300D02*
D03*
X6800Y249000D02*
D03*
X3100Y249100D02*
D03*
X8300Y275600D02*
D03*
X8200Y279000D02*
D03*
X5300Y277400D02*
D03*
X2800Y275800D02*
D03*
Y279200D02*
D03*
X29600Y13900D02*
D03*
X30500Y17200D02*
D03*
X25200Y29400D02*
D03*
X21200Y30500D02*
D03*
X17500D02*
D03*
X13800Y29300D02*
D03*
X10700Y27000D02*
D03*
X9400Y23500D02*
D03*
X9000Y19800D02*
D03*
X9500Y16300D02*
D03*
X30549Y20406D02*
D03*
X16800Y9500D02*
D03*
X20900Y9200D02*
D03*
X24500Y9600D02*
D03*
X27300Y11000D02*
D03*
X381700Y11500D02*
D03*
X378900Y10100D02*
D03*
X375300Y9700D02*
D03*
X371200Y10000D02*
D03*
X384949Y20906D02*
D03*
X367500Y11600D02*
D03*
X365300Y13800D02*
D03*
X363900Y16800D02*
D03*
X363400Y20300D02*
D03*
X368200Y29800D02*
D03*
X371900Y31000D02*
D03*
X375600D02*
D03*
X379600Y29900D02*
D03*
X382800Y27400D02*
D03*
X384400Y24400D02*
D03*
X384900Y17700D02*
D03*
X384000Y14400D02*
D03*
X370700Y363300D02*
D03*
X378300Y363500D02*
D03*
X381400Y365400D02*
D03*
X385000Y374800D02*
D03*
X367393Y365396D02*
D03*
X365194Y367597D02*
D03*
X363793Y370597D02*
D03*
X363294Y374096D02*
D03*
X363693Y377797D02*
D03*
X364994Y381296D02*
D03*
X368093Y383596D02*
D03*
X371794Y384797D02*
D03*
X375494D02*
D03*
X379493Y383697D02*
D03*
X382694Y381196D02*
D03*
X384294Y378197D02*
D03*
X384793Y371497D02*
D03*
X383893Y368197D02*
D03*
X29600Y368300D02*
D03*
X30500Y371600D02*
D03*
X30000Y378300D02*
D03*
X28400Y381300D02*
D03*
X25200Y383800D02*
D03*
X21200Y384900D02*
D03*
X17500D02*
D03*
X13800Y383700D02*
D03*
X10700Y381400D02*
D03*
X9400Y377900D02*
D03*
X9000Y374200D02*
D03*
X9500Y370700D02*
D03*
X10900Y367700D02*
D03*
X13100Y365500D02*
D03*
X209700Y178900D02*
D03*
X261800Y177200D02*
D03*
X22237Y176083D02*
D03*
X22068Y180367D02*
D03*
X142700Y341000D02*
D03*
X155200D02*
D03*
X167700D02*
D03*
X180200D02*
D03*
X192700D02*
D03*
X205200D02*
D03*
X124400Y332600D02*
D03*
X136900D02*
D03*
X149400D02*
D03*
X161900D02*
D03*
X174400D02*
D03*
X186900D02*
D03*
X199400D02*
D03*
X375000Y362500D02*
D03*
X381250Y350000D02*
D03*
X375000Y337500D02*
D03*
X381250Y325000D02*
D03*
X375000Y312500D02*
D03*
X381250Y300000D02*
D03*
X375000Y287500D02*
D03*
X381250Y275000D02*
D03*
Y225000D02*
D03*
Y200000D02*
D03*
X375000Y187500D02*
D03*
X381250Y150000D02*
D03*
Y50000D02*
D03*
X375000Y37500D02*
D03*
X362500Y362500D02*
D03*
X368750Y350000D02*
D03*
X362500Y337500D02*
D03*
X368750Y325000D02*
D03*
X362500Y287500D02*
D03*
Y112500D02*
D03*
X368750Y100000D02*
D03*
X362500Y87500D02*
D03*
X368750Y50000D02*
D03*
X356250Y375000D02*
D03*
X350000Y362500D02*
D03*
X356250Y350000D02*
D03*
X350000Y337500D02*
D03*
X356250Y325000D02*
D03*
X350000Y312500D02*
D03*
X356250Y300000D02*
D03*
X350000Y287500D02*
D03*
Y237500D02*
D03*
X356250Y225000D02*
D03*
Y100000D02*
D03*
X350000Y87500D02*
D03*
X343750Y375000D02*
D03*
Y350000D02*
D03*
X337500Y137500D02*
D03*
X343750Y100000D02*
D03*
X337500Y87500D02*
D03*
X325000Y287500D02*
D03*
X331250Y200000D02*
D03*
X325000Y162500D02*
D03*
Y87500D02*
D03*
Y12500D02*
D03*
X318750Y200000D02*
D03*
Y175000D02*
D03*
X312500Y87500D02*
D03*
Y12500D02*
D03*
X306250Y350000D02*
D03*
X300000Y337500D02*
D03*
Y287500D02*
D03*
Y87500D02*
D03*
Y12500D02*
D03*
X287500Y287500D02*
D03*
X293750Y175000D02*
D03*
X287500Y87500D02*
D03*
Y12500D02*
D03*
X275000Y287500D02*
D03*
Y112500D02*
D03*
X281250Y100000D02*
D03*
X275000Y87500D02*
D03*
X262500Y262500D02*
D03*
X268750Y100000D02*
D03*
X262500Y87500D02*
D03*
Y12500D02*
D03*
X250000Y87500D02*
D03*
Y12500D02*
D03*
X237500Y287500D02*
D03*
Y262500D02*
D03*
Y87500D02*
D03*
Y12500D02*
D03*
X231250Y325000D02*
D03*
X225000Y287500D02*
D03*
X231250Y275000D02*
D03*
X225000Y262500D02*
D03*
Y237500D02*
D03*
X231250Y150000D02*
D03*
X225000Y87500D02*
D03*
Y12500D02*
D03*
X218750Y350000D02*
D03*
Y325000D02*
D03*
Y250000D02*
D03*
Y225000D02*
D03*
Y150000D02*
D03*
X212500Y87500D02*
D03*
Y12500D02*
D03*
X206250Y375000D02*
D03*
Y350000D02*
D03*
Y325000D02*
D03*
X200000Y237500D02*
D03*
Y112500D02*
D03*
X206250Y100000D02*
D03*
X200000Y87500D02*
D03*
Y12500D02*
D03*
X193750Y375000D02*
D03*
Y325000D02*
D03*
X187500Y162500D02*
D03*
X193750Y150000D02*
D03*
Y125000D02*
D03*
Y100000D02*
D03*
X187500Y87500D02*
D03*
Y62500D02*
D03*
X181250Y325000D02*
D03*
X175000Y162500D02*
D03*
X181250Y150000D02*
D03*
Y100000D02*
D03*
X175000Y87500D02*
D03*
X181250Y75000D02*
D03*
X175000Y62500D02*
D03*
X168750Y325000D02*
D03*
X162500Y87500D02*
D03*
X168750Y75000D02*
D03*
X162500Y62500D02*
D03*
Y12500D02*
D03*
X156250Y325000D02*
D03*
Y300000D02*
D03*
X150000Y87500D02*
D03*
X156250Y75000D02*
D03*
X150000Y62500D02*
D03*
Y12500D02*
D03*
X143750Y375000D02*
D03*
Y325000D02*
D03*
Y225000D02*
D03*
X137500Y87500D02*
D03*
X143750Y75000D02*
D03*
X137500Y62500D02*
D03*
Y12500D02*
D03*
X131250Y375000D02*
D03*
Y325000D02*
D03*
Y300000D02*
D03*
X125000Y287500D02*
D03*
X131250Y100000D02*
D03*
X125000Y87500D02*
D03*
X131250Y75000D02*
D03*
X125000Y62500D02*
D03*
Y12500D02*
D03*
X118750Y300000D02*
D03*
X112500Y112500D02*
D03*
X118750Y100000D02*
D03*
X112500Y87500D02*
D03*
X118750Y75000D02*
D03*
X112500Y62500D02*
D03*
X100000Y287500D02*
D03*
X106250Y150000D02*
D03*
Y100000D02*
D03*
X100000Y87500D02*
D03*
X106250Y75000D02*
D03*
X100000Y62500D02*
D03*
Y12500D02*
D03*
X87500Y287500D02*
D03*
X93750Y275000D02*
D03*
X87500Y262500D02*
D03*
Y87500D02*
D03*
X93750Y75000D02*
D03*
X87500Y62500D02*
D03*
Y12500D02*
D03*
X81250Y375000D02*
D03*
X75000Y262500D02*
D03*
X81250Y225000D02*
D03*
X75000Y162500D02*
D03*
Y87500D02*
D03*
X81250Y75000D02*
D03*
X75000Y62500D02*
D03*
Y12500D02*
D03*
X68750Y375000D02*
D03*
Y275000D02*
D03*
X62500Y87500D02*
D03*
X68750Y75000D02*
D03*
X62500Y62500D02*
D03*
Y12500D02*
D03*
X56250Y375000D02*
D03*
Y350000D02*
D03*
X50000Y312500D02*
D03*
Y287500D02*
D03*
X56250Y275000D02*
D03*
Y250000D02*
D03*
X50000Y87500D02*
D03*
X56250Y75000D02*
D03*
X50000Y62500D02*
D03*
Y12500D02*
D03*
X43750Y375000D02*
D03*
X37500Y312500D02*
D03*
X43750Y150000D02*
D03*
X37500Y137500D02*
D03*
X43750Y125000D02*
D03*
X37500Y112500D02*
D03*
X43750Y100000D02*
D03*
X37500Y87500D02*
D03*
X43750Y75000D02*
D03*
X37500Y62500D02*
D03*
Y12500D02*
D03*
X31250Y375000D02*
D03*
Y350000D02*
D03*
X25000Y337500D02*
D03*
Y312500D02*
D03*
Y162500D02*
D03*
X31250Y150000D02*
D03*
X25000Y137500D02*
D03*
X31250Y125000D02*
D03*
X25000Y112500D02*
D03*
X31250Y100000D02*
D03*
X25000Y87500D02*
D03*
X31250Y75000D02*
D03*
X25000Y62500D02*
D03*
Y37500D02*
D03*
X12500Y362500D02*
D03*
Y337500D02*
D03*
X18750Y300000D02*
D03*
Y150000D02*
D03*
X12500Y137500D02*
D03*
X18750Y125000D02*
D03*
X12500Y112500D02*
D03*
X18750Y100000D02*
D03*
X12500Y87500D02*
D03*
X18750Y75000D02*
D03*
X12500Y62500D02*
D03*
X18750Y50000D02*
D03*
X12500Y37500D02*
D03*
Y12500D02*
D03*
X123100Y250600D02*
D03*
X78600Y228300D02*
D03*
X80400Y231100D02*
D03*
X76900D02*
D03*
X301900Y241900D02*
D03*
X299200D02*
D03*
X275800Y231000D02*
D03*
X273400Y229200D02*
D03*
Y233000D02*
D03*
X304037Y322916D02*
D03*
X273600Y356600D02*
D03*
D103*
X32272Y341299D02*
D03*
X82666D02*
D03*
D104*
X41949Y32247D02*
D03*
X105453D02*
D03*
X284649Y32246D02*
D03*
X348153D02*
D03*
X204449D02*
D03*
X267953D02*
D03*
X123049Y32247D02*
D03*
X186553D02*
D03*
D105*
X121701Y9365D02*
D03*
X114701D02*
D03*
X202701Y9265D02*
D03*
X195701D02*
D03*
X284201Y9165D02*
D03*
X277201D02*
D03*
X357801Y9265D02*
D03*
X364801D02*
D03*
M02*
